<svg viewBox="0 0 1349 95" fill="none" xmlns="http://www.w3.org/2000/svg">
    <rect width="335.986" height="92.1402" rx="10" transform="matrix(-1 0 0 1 842.625 1.86133)" fill="white"/>
    <path d="M506.64 76.3181H842.625V81.9024H506.64V76.3181Z" fill="#F57575"/>
    <path d="M506.64 28.852H842.625V44.674H506.64V28.852Z" fill="#204B61"/>
    <path d="M507 18H843V21H507V18Z" fill="#F57575"/>
    <path d="M1263.66 20.3129C1334.77 43.7667 1349.44 70.2609 1347.89 81.2743C1344.17 90.5814 1319.97 94.3042 1308.34 94.3042H1201.31H1196H1145.74H1140.35H955.135C950 94.2546 949.705 94.4097 947.689 94.2546H901.619C892.312 94.2546 893.5 94.2546 889.985 94.3042H870.44H855.549C849.22 91.6982 847.327 85.4624 847.172 82.6703V22.1743C847.172 11.0058 847.638 10.075 850.895 5.4215C853.501 1.69867 865.011 1.07821 870.44 1.23334C939.468 0.302633 1084.69 -1.00036 1113.36 1.23334C1149.19 4.02547 1174.78 -9.00445 1263.66 20.3129Z" fill="white"/>
    <path d="M1236.21 65.383H1343.31C1349 74 1348.27 79.4987 1347.5 81.205H1200.84H847.172V75.6208C951.101 75.931 1160.82 76.3653 1168.27 75.6208C1175.71 74.8762 1171.37 67.2444 1168.27 63.5215C1159.89 52.8184 1142.21 30.2952 1138.48 25.8278C1134.76 21.3604 1129.18 20.5538 1126.85 20.7089H1010.51H847.172V16.5208H1010.51H1136.62C1151.98 16.5208 1159.89 17.4515 1174.78 29.5507C1203.82 58.2165 1227.83 65.383 1236.21 65.383Z" fill="#FF5E55"/>
    <path d="M1213.41 35.6695H1301.82C1286.19 26.3624 1256.65 17.4126 1243 14C1225.63 13.8449 1186.97 13.4256 1178.04 13.7979C1166.87 14.2632 1171.06 17.0553 1179.9 22.1742C1192.93 32.9705 1207.67 35.6695 1213.41 35.6695Z" fill="#387999"/>
    <path d="M1126.03 28.852L1126.03 28.852H847.279V44.5267C944.08 44.6379 1138.04 44.9408 1141.38 44.674C1144.73 44.4072 1143.71 42.1534 1142.31 40.4858C1140.92 38.8183 1138.61 36.3284 1135.36 32.854C1131.61 28.852 1128.81 28.852 1126.03 28.852Z" fill="#204B61"/>
    <path d="M84.357120.3129C13.251 43.7667 -1.423 70.2609 0.128178 81.2743C3.85096 90.5814 28.0493 94.3042 39.6832 94.3042H146.715H152.021H202.28H207.676H392.887C398.021 94.2546 398.316 94.4097 400.333 94.2546H446.403C455.71 94.2546 454.521 94.2546 458.037 94.3042H477.582H492.473C498.802 91.6982 500.694 85.4624 500.85 82.6703V22.1743C500.85 11.0058 500.384 10.075 497.127 5.4215C494.521 1.69867 483.011 1.07821 477.582 1.23334C408.554 0.302633 263.332 -1.00036 234.667 1.23334C198.834 4.02547 173.24 -9.00445 84.3571 20.3129Z" fill="white"/>
    <path d="M111.813 65.383H4.71222C-0.979004 74 -0.251561 79.4987 0.52403 81.205H147.18H500.849V75.6208C396.92 75.931 187.2 76.3653 179.755 75.6208C172.309 74.8762 176.652 67.2444 179.755 63.5215C188.131 52.8184 205.815 30.2952 209.537 25.8278C213.26 21.3604 218.845 20.5538 221.171 20.7089H337.51H500.849V16.5208H337.51H211.399C196.042 16.5208 188.131 17.4515 173.24 29.5507C144.202 58.2165 120.189 65.383 111.813 65.383Z" fill="#FF5E55"/>
    <path d="M134.616 35.6695H46.1982C61.8341 26.3624 91.3706 17.4126 105.021 14C122.394 13.8449 161.048 13.4256 169.982 13.7979C181.151 14.2632 176.963 17.0553 168.121 22.1742C155.091 32.9705 140.355 35.6695 134.616 35.6695Z" fill="#387999"/>
    <path d="M221.995 28.852L221.995 28.852H500.742V44.5267C403.941 44.6379 209.984 44.9408 206.638 44.674C203.293 44.4072 204.314 42.1534 205.707 40.4858C207.101 38.8183 209.409 36.3284 212.663 32.854C216.411 28.852 219.207 28.852 221.995 28.852Z" fill="#204B61"/>
    </svg>
    