<svg viewBox="0 0 5760 1080" fill="none" xmlns="http://www.w3.org/2000/svg">
    <path d="M4230 696.001C4188.4 705.201 4045.67 717.168 3979.5 722.001V740.5H4776.5V696.001H4685C4647 694.001 4562.8 689.5 4530 687.5C4489 685 4425.5 674.001 4400.5 666.501C4375.5 659.001 4365.5 652.001 4355 653.501C4344.5 655.001 4282 684.501 4230 696.001Z" fill="#ABFFFF"/>
    <path d="M5213.5 686.704C5171.9 695.904 5029.17 707.871 4963 712.704V731.203H5760V686.704H5668.5C5630.5 684.704 5546.3 680.203 5513.5 678.203C5472.5 675.703 5409 664.704 5384 657.204C5359 649.704 5349 642.704 5338.5 644.204C5328 645.704 5265.5 675.204 5213.5 686.704Z" fill="#ABFFFF"/>
    <rect y="757" width="5760" height="323" fill="url(#paint0_linear)"/>
    <path d="M2175.04 570.378C2134.37 592.354 1918.73 703.713 1816 756.645H2863C2810.95 748.693 2595.53 611.824 2560.1 591.342C2524.68 570.86 2401.07 464.835 2378.9 467.967C2361.16 470.473 2350.14 466.923 2346.85 464.835C2331.81 449.991 2317.13 462.987 2311.67 471.341C2230.22 548.45 2225.88 542.908 2175.04 570.378Z" fill="#76CCEA"/>
    <path d="M2205.55 563.596C2190.9 568.415 2187.08 565.604 2187 563.596C2204.91 554.358 2236.25 534.39 2240.49 528.414C2262.01 509.86 2310.92 472.221 2312.3 470.1C2315.97 463.353 2323.63 459.096 2327 457.811C2329.81 456.606 2337.46 455.835 2345.56 462.389C2353.65 468.944 2369.81 468.494 2376.88 467.45C2380.54 465.715 2387.89 468.815 2391.1 470.582C2398.33 470.1 2485.56 534.92 2487.49 537.571C2489.41 540.222 2487.49 550.101 2472.3 552.511C2460.16 554.439 2439.29 537.25 2430.38 528.414C2431.34 539.402 2427.89 544.077 2426.04 545.041C2417.28 550.071 2403.69 537.016 2395.25 526.483C2397.75 532.683 2396.51 540.813 2395.2 545.041C2389.81 548.013 2376.26 550.68 2365.07 537.571C2353.89 524.462 2340.82 532.109 2335.68 537.571C2335.27 541.748 2332.98 550.101 2327 550.101C2319.53 550.101 2320.98 550.101 2317.12 545.041C2313.27 539.981 2301.46 558.535 2283.63 563.596C2269.36 567.644 2268.21 556.286 2269.41 550.101C2267.96 551.708 2263.05 555.644 2254.95 558.535C2244.83 562.15 2244.59 545.523 2240.49 545.041C2236.4 544.559 2223.87 557.571 2205.55 563.596Z" fill="white"/>
    <path d="M98.4263 622.593C81.8907 635.62 25.9189 650.509 0 656.324V729.603L344 736L360.5 669C327.363 666.674 234.156 646.786 192.423 636.551C140.258 623.756 119.096 606.309 98.4263 622.593Z" fill="#9DECEC"/>
    <path fill-rule="evenodd" clip-rule="evenodd" d="M4565.44 680.374C4584.83 676.453 4592.5 674.901 4633.16 679.106C4667.71 682.68 4698.7 670.577 4711.36 664.078C4722.78 657.715 4752.17 645.638 4778.39 648.238C4804.6 650.837 4825.06 644.447 4832.01 640.927L4925.11 586.501C4928.09 585.959 4936.43 584.876 4945.96 584.876C4955.5 584.876 4984.69 566.192 4998.1 556.85C5003.56 553.466 5017.16 549.215 5027.89 559.287C5038.61 569.36 5079.03 598.685 5097.9 612.089C5110.06 619.941 5140.94 636.784 5167.16 641.333C5193.38 645.882 5225.75 655.955 5238.66 660.423C5256.04 665.973 5294.81 677.238 5310.9 677.888C5326.99 678.537 5363.78 670.306 5380.17 666.109C5390.1 663.266 5420.98 660.829 5465.07 673.826C5509.16 686.823 5551.46 690.614 5567.1 690.885C5582.25 690.479 5615.37 689.341 5626.69 688.042C5629.92 687.67 5638.83 685.183 5650.86 681.822C5680.88 673.437 5730.37 659.61 5760 659.61V756H4406.5H4356H4295.5H4184.5V756.328H3241.5H3241H2295V756L1354 756H0V733.255C44.4382 723.371 137.783 702.711 155.658 699.137C156.967 698.875 158.221 698.622 159.428 698.377L159.443 698.374C178.831 694.453 186.501 692.901 227.156 697.106C261.714 700.68 292.696 688.577 305.358 682.078C316.777 675.715 346.171 663.638 372.387 666.238C398.603 668.837 419.06 662.447 426.011 658.927L519.108 604.501C522.087 603.959 530.428 602.876 539.961 602.876C549.495 602.876 578.69 584.192 592.096 574.85C597.557 571.466 611.162 567.215 621.887 577.287C632.611 587.36 673.028 616.685 691.895 630.089C704.06 637.941 734.943 654.784 761.159 659.333C787.376 663.882 819.748 673.955 832.658 678.423C850.036 683.973 888.814 695.238 904.901 695.888C920.988 696.537 957.78 688.306 974.165 684.109C984.095 681.266 1014.98 678.829 1059.07 691.826C1103.16 704.823 1145.46 708.614 1161.1 708.885C1176.25 708.479 1209.36 707.341 1220.69 706.042C1223.92 705.67 1232.83 703.183 1244.86 699.822C1274.88 691.436 1324.37 677.61 1354 677.61C1374.18 677.611 1408.73 691.373 1429.8 699.764L1429.8 699.765C1438.32 703.155 1444.63 705.668 1446.9 706.042C1454.79 707.342 1477.86 708.479 1488.42 708.885C1499.31 708.614 1528.79 704.824 1559.51 691.826C1590.24 678.829 1611.76 681.266 1618.68 684.109C1630.1 688.306 1655.73 696.538 1666.94 695.888C1678.15 695.238 1705.17 683.974 1717.28 678.423C1726.28 673.955 1748.84 663.882 1767.11 659.333C1779.99 656.125 1798.52 665.233 1813.94 672.81C1820.38 675.978 1826.28 678.878 1831 680.499L1915.17 703.082C1927.34 706.347 1939.88 707.219 1951.56 702.495C1961.35 698.537 1973.61 692.925 1985.91 687.289C2007.44 677.432 2029.12 667.503 2038.01 666.238C2056.28 663.639 2076.76 675.715 2084.72 682.078C2093.54 688.577 2115.13 700.681 2139.21 697.107C2167.54 692.902 2172.89 694.453 2186.4 698.375C2187.24 698.62 2188.12 698.874 2189.03 699.137C2201.39 702.684 2265.52 723.049 2296.77 733.021C2328.48 722.937 2394.24 702.973 2406.47 699.465C2407.38 699.203 2408.26 698.948 2409.1 698.703C2422.61 694.781 2427.96 693.23 2456.29 697.435C2480.37 701.009 2501.96 688.905 2510.78 682.407C2518.74 676.043 2539.22 663.967 2557.49 666.566C2566.38 667.831 2588.06 677.76 2609.59 687.618C2621.89 693.253 2634.15 698.865 2643.94 702.823C2655.62 707.547 2668.16 706.675 2680.33 703.41L2764.5 680.827C2769.22 679.206 2775.12 676.306 2781.56 673.138C2796.98 665.561 2815.51 656.453 2828.39 659.661C2846.66 664.21 2869.22 674.283 2878.22 678.751C2890.33 684.302 2917.35 695.566 2928.56 696.216C2939.77 696.866 2965.4 688.634 2976.82 684.437C2983.74 681.594 3005.26 679.157 3035.99 692.154C3066.71 705.152 3096.19 708.943 3107.08 709.213C3117.64 708.807 3140.71 707.67 3148.6 706.37C3150.87 705.996 3157.18 703.483 3165.69 700.093L3165.7 700.092C3186.59 691.77 3220.76 678.164 3241 677.941V677.939L3241.25 677.939L3241.5 677.939V677.941C3261.74 678.164 3295.91 691.77 3316.8 700.092L3316.81 700.093C3325.32 703.483 3331.63 705.996 3333.9 706.37C3341.79 707.67 3364.86 708.807 3375.42 709.213C3386.31 708.943 3415.79 705.152 3446.51 692.154C3477.24 679.157 3498.76 681.594 3505.68 684.437C3517.1 688.634 3542.73 696.866 3553.94 696.216C3565.15 695.566 3592.17 684.302 3604.28 678.751C3613.28 674.283 3635.84 664.21 3654.11 659.661C3666.99 656.453 3685.52 665.561 3700.94 673.138C3707.38 676.306 3713.28 679.206 3718 680.827L3802.17 703.41C3814.34 706.675 3826.88 707.547 3838.56 702.823C3848.35 698.865 3860.61 693.253 3872.91 687.618C3894.44 677.76 3916.12 667.831 3925.01 666.566C3943.28 663.967 3963.76 676.043 3971.72 682.407C3980.54 688.905 4002.13 701.009 4026.21 697.435C4054.54 693.23 4059.89 694.781 4073.4 698.703C4074.24 698.948 4075.12 699.203 4076.03 699.465C4080.27 700.68 4090.57 702.993 4103.55 705.904L4103.58 705.91L4103.58 705.911C4128.79 711.566 4164.07 719.478 4184.5 726C4198.8 726.854 4216.54 728.154 4235.73 729.561C4266.13 731.79 4300.19 734.287 4330.06 735.704C4387.88 726.485 4503.23 696.971 4561.66 681.137C4562.97 680.874 4564.23 680.62 4565.44 680.374Z" fill="#9DECEC"/>
    <path d="M536.794 258.999L529.596 233.594H575.325L568.974 258.999H536.794Z" fill="#16387F"/>
    <ellipse cx="552.034" cy="203.532" rx="87.6487" ry="38.5315" fill="#E74E46"/>
    <path fill-rule="evenodd" clip-rule="evenodd" d="M639.678 203.955C639.681 203.814 639.683 203.673 639.683 203.532C639.683 182.251 600.441 165 552.034 165C503.627 165 464.386 182.251 464.386 203.532C464.386 203.673 464.387 203.814 464.391 203.955H639.678Z" fill="#FF5E55"/>
    <path d="M507.577 194.216H473.703L461 170.928H483.018L507.577 194.216Z" fill="#E64E46"/>
    <path d="M507.577 213.271H473.279L461 236.559H483.018L507.577 213.271Z" fill="#FF5E55"/>
    <path opacity="0.998" d="M583.71 197.407L574.206 192.092C572.894 191.358 572.444 189.733 573.202 188.462C573.959 187.191 575.638 186.755 576.95 187.489L586.454 192.804C587.766 193.537 588.216 195.163 587.458 196.434C586.701 197.705 585.022 198.14 583.71 197.407Z" fill="white"/>
    <path opacity="0.998" d="M593.297 197.765C592.824 197.765 592.358 197.646 591.942 197.42C591.519 197.189 591.166 196.849 590.918 196.435C590.74 196.139 590.623 195.809 590.575 195.466C590.527 195.123 590.548 194.774 590.639 194.439C590.732 194.095 590.893 193.772 591.114 193.491C591.334 193.21 591.61 192.977 591.923 192.805L597.311 189.792L601.426 192.093C601.839 192.323 602.303 192.446 602.776 192.449C603.248 192.453 603.714 192.338 604.13 192.115L594.666 197.408C594.248 197.642 593.776 197.765 593.297 197.765ZM604.861 191.545C605.051 191.335 605.206 191.096 605.321 190.837C605.207 191.097 605.052 191.336 604.861 191.545ZM605.534 189.588C605.508 189.265 605.422 188.95 605.28 188.659C605.423 188.95 605.509 189.265 605.534 189.588H605.534ZM604.498 187.705C604.394 187.626 604.284 187.554 604.17 187.49L604.13 187.468C604.259 187.537 604.382 187.616 604.498 187.705L604.498 187.705Z" fill="white"/>
    <path opacity="0.998" d="M591.922 185.772L601.426 191.087C602.739 191.821 604.417 191.385 605.174 190.114C605.932 188.843 605.482 187.218 604.17 186.483L594.666 181.169C593.354 180.435 591.676 180.87 590.918 182.141C590.16 183.412 590.61 185.038 591.922 185.772Z" fill="white"/>
    <path opacity="0.998" d="M572.956 189.572C572.881 189.339 572.84 189.096 572.834 188.851C572.84 189.096 572.881 189.339 572.956 189.572V189.572ZM581.064 188.786L576.949 186.484C576.537 186.255 576.074 186.132 575.602 186.128C575.13 186.124 574.665 186.238 574.249 186.46L583.71 181.169C584.126 180.937 584.594 180.815 585.07 180.813C585.546 180.81 586.015 180.929 586.433 181.157C586.856 181.388 587.21 181.728 587.457 182.142C587.636 182.438 587.753 182.768 587.801 183.111C587.849 183.454 587.827 183.803 587.737 184.138C587.644 184.483 587.482 184.805 587.262 185.086C587.041 185.367 586.766 185.6 586.453 185.772L581.064 188.786H581.064ZM573.243 187.389C573.295 187.308 573.35 187.231 573.41 187.156C573.35 187.231 573.295 187.308 573.243 187.389Z" fill="white"/>
    <path d="M1922.46 428.079H1926.75L1964.4 390.757C1971.34 383.931 1984.22 364.929 1980.26 343.527C1974.18 301.78 1939.19 291.783 1922.46 292.004V428.079Z" fill="#F57575"/>
    <path d="M1922.54 428.083H1918.25L1880.6 390.761C1873.66 383.935 1860.78 364.933 1864.74 343.531C1870.82 301.784 1905.81 291.787 1922.54 292.007V428.083Z" fill="#D75353"/>
    <path d="M1912.88 447.896H1932.04V458.428C1932.04 460.637 1930.25 462.428 1928.04 462.428H1916.88C1914.67 462.428 1912.88 460.637 1912.88 458.428V447.896Z" fill="#1F238D"/>
    <path d="M2727.27 297.504H2728.83L2742.53 283.927C2745.05 281.444 2749.74 274.531 2748.29 266.745C2746.08 251.558 2733.36 247.921 2727.27 248.001V297.504Z" fill="#F57575"/>
    <path d="M2727.3 297.505H2725.73L2712.04 283.928C2709.51 281.445 2704.83 274.532 2706.27 266.746C2708.48 251.559 2721.21 247.922 2727.3 248.002V297.505Z" fill="#D75454"/>
    <path d="M2723.78 304.713H2730.75V308.192C2730.75 309.19 2729.94 310 2728.94 310H2725.59C2724.59 310 2723.78 309.19 2723.78 308.192V304.713Z" fill="#1F238D"/>
    <path d="M5340.27 167.504H5341.83L5355.53 153.927C5358.05 151.444 5362.74 144.531 5361.29 136.745C5359.08 121.558 5346.36 117.921 5340.27 118.001V167.504Z" fill="#F57575"/>
    <path d="M5340.3 167.505H5338.73L5325.04 153.928C5322.51 151.445 5317.83 144.532 5319.27 136.746C5321.48 121.559 5334.21 117.922 5340.3 118.002V167.505Z" fill="#D75454"/>
    <path d="M5336.78 174.713H5343.75V178.192C5343.75 179.19 5342.94 180 5341.94 180H5338.59C5337.59 180 5336.78 179.19 5336.78 178.192V174.713Z" fill="#1F238D"/>
    <defs>
    <linearGradient id="paint0_linear" x1="2880" y1="757" x2="2880" y2="1080" gradientUnits="userSpaceOnUse">
    <stop stop-color="#D7F9F4" stop-opacity="0.65"/>
    <stop offset="1" stop-color="#C2FFF6"/>
    </linearGradient>
    </defs>
    </svg>
    