<svg width="92" height="48" viewBox="0 0 92 48" fill="none" xmlns="http://www.w3.org/2000/svg">
<path d="M39.0623 4.28047C39.0515 4.26913 39.028 4.26913 38.9937 4.26913C38.9612 4.25779 38.916 4.23327 38.8582 4.23327C38.7806 4.22193 38.712 4.22193 38.6452 4.22193C38.5766 4.21067 38.5314 4.21067 38.4971 4.22193C38.452 4.22193 38.4303 4.22193 38.4303 4.23327C38.3616 4.23327 38.1937 4.26913 37.6177 4.42197C37.1102 4.5408 36.433 4.70491 35.1798 5.0483C33.791 5.41245 32.3247 5.81429 30.8458 6.21422C29.4679 6.56894 28.6228 6.78024 27.9456 6.95761C27.1998 7.13489 26.918 7.19343 26.8043 7.22928C26.7266 7.20469 26.5569 7.15757 26.1614 7.08778C25.8002 7.00473 25.3596 6.91041 24.6607 6.82736C23.9041 6.73305 23.1601 6.68593 22.4143 6.66325C21.6919 6.63874 21.2405 6.66325 20.8685 6.69911C20.4513 6.71045 20.2816 6.73305 20.2022 6.7463C20.0902 6.69911 19.8301 6.59154 19.1187 6.28593C18.4649 5.99165 17.6288 5.62559 16.2853 5.0483C14.8189 4.3993 13.34 3.7503 11.9513 3.17301C10.6764 2.64283 9.98828 2.37116 9.4682 2.18254C8.85968 1.94664 8.67906 1.89952 8.61042 1.88818C8.55447 1.82781 8.42987 1.75801 8.15898 1.80521C7.90077 1.78062 7.5847 1.86367 7.14412 2.28819C6.66921 2.77116 6.23038 3.43143 5.81143 4.23327C5.40509 4.98793 5.17937 5.61432 4.99875 6.1671C4.78572 6.71045 4.70622 6.96887 4.6719 7.11038C4.7965 7.00472 5.10171 6.8161 5.84575 6.54443C6.51206 6.22747 7.33552 5.91994 8.67906 5.74258C10.1003 5.57847 11.5341 5.60107 12.968 5.81429C14.288 6.03877 15.1006 6.40292 15.767 6.75757C16.4894 7.06326 16.7819 7.26506 16.9173 7.38205C17.0654 7.44058 17.3579 7.60661 17.9448 8.10085C18.5209 8.51403 19.1746 9.06872 19.9313 10.0819C20.6879 11.1798 21.2965 12.3458 21.7371 13.5721C22.1217 14.7173 22.1885 15.472 22.1994 16.1191C22.2572 16.8039 22.2229 17.0982 22.1994 17.2397C22.212 17.1699 22.2446 17.0398 22.3474 16.7096C22.4251 16.4021 22.5281 16.0248 22.7646 15.4587C23.012 14.8456 23.2829 14.2683 23.6116 13.6909C23.9149 13.1363 24.1407 12.8175 24.3448 12.5477C24.547 12.2402 24.6373 12.11 24.6951 12.0515C24.7962 11.8157 25.0779 11.3912 25.9014 10.6252C26.602 9.82337 27.5266 8.97441 29.1862 8.1141C30.9704 7.24054 32.8665 6.66325 34.8186 6.38024C36.6461 6.15576 37.8434 6.33312 38.8366 6.58028C39.8966 6.73305 40.3481 6.89907 40.5629 7.01606C40.5522 6.95761 40.5178 6.85195 40.4618 6.61606C40.4059 6.38024 40.3372 6.10856 40.2018 5.75576C40.0447 5.37843 39.8749 5.05964 39.6944 4.78796C39.5138 4.5408 39.3783 4.44649 39.2646 4.38796C39.1418 4.29365 39.084 4.28047 39.0623 4.28047ZM21.9177 19.1735C21.9069 19.2207 21.8834 19.3509 21.8057 19.6226C21.7371 19.8584 21.6468 20.1414 21.4662 20.5998C21.2639 21.0847 21.0491 21.5563 20.7999 22.0393C20.5525 22.4752 20.3719 22.7468 20.2256 22.9713C20.0667 23.2185 19.9872 23.3128 19.9656 23.3713C19.8518 23.5958 19.5592 24.0429 18.7232 24.8919C17.99 25.7409 17.0419 26.673 15.3264 27.7823C13.4537 28.9614 11.4781 29.916 9.45742 30.4933C7.55046 30.9424 6.32066 30.8122 5.31482 30.5519C4.22046 30.3764 3.76902 30.116 3.57755 29.9386C3.5433 29.916 3.47642 29.8915 3.35183 29.8217C3.22724 29.75 3.08101 29.6802 2.86607 29.5501C2.62949 29.4085 2.40377 29.267 2.17805 29.1142C1.96319 28.9614 1.82774 28.8539 1.72661 28.7727C1.60202 28.6652 1.55685 28.618 1.54599 28.6067C1.51167 28.8313 1.51167 29.3142 1.69229 30.3764C1.78257 31.3782 1.97397 32.546 2.61871 34.2081C3.32836 35.9533 4.24393 37.557 5.31482 39.0304C6.33151 40.3755 7.14412 41.0472 7.8556 41.5547C8.56532 42.1678 8.91563 42.3791 9.09625 42.4622C9.10703 42.4263 9.14135 42.3678 9.25517 42.249C9.33283 42.1207 9.44657 41.9792 9.66143 41.8132C9.88715 41.6245 10.1454 41.4717 10.4289 41.366C10.6871 41.2585 10.8912 41.2358 11.061 41.2358C11.2289 41.2113 11.3192 41.2113 11.3644 41.2246C11.489 41.2 11.7147 41.2 12.0542 41.3302C12.3811 41.4471 12.6971 41.649 13.0131 42.0018C13.284 42.415 13.4303 42.8621 13.5765 43.1696C13.7246 43.381 13.8149 43.381 13.9052 43.2998C14.0171 43.2394 14.0966 43.1112 14.1417 43.0281C14.1526 42.9452 14.2212 42.8282 14.4794 42.7206C14.7052 42.5678 15.0211 42.4622 15.5755 42.5791C16.1841 42.7451 16.8054 43.0753 17.3688 43.5225C17.8437 43.9356 18.0695 44.3243 18.2048 44.679C18.362 45.0092 18.3855 45.1733 18.3746 45.2562C18.362 45.2562 18.362 45.2808 18.3746 45.328C18.3746 45.3506 18.3746 45.3865 18.3855 45.4563C18.3855 45.5167 18.3855 45.5865 18.3855 45.6582C18.3746 45.7053 18.3746 45.7392 18.3746 45.7751C18.362 45.7996 18.362 45.8223 18.3746 45.8336C18.3746 45.8223 18.3855 45.8223 18.4198 45.8336C18.4414 45.8336 18.4649 45.8336 18.5209 45.8468C18.566 45.8468 18.6112 45.8581 18.6671 45.8695C18.7123 45.8695 18.7466 45.8695 18.781 45.8695C18.8026 45.8695 18.8134 45.8695 18.8261 45.8807C18.8134 45.8695 18.8134 45.8581 18.8134 45.8223C18.8026 45.7864 18.8026 45.7525 18.8026 45.6921C18.7918 45.6223 18.7918 45.5506 18.8026 45.4808C18.8026 45.4091 18.8026 45.3619 18.8134 45.328C18.8134 45.2808 18.8134 45.2562 18.8261 45.2562C18.8026 45.1733 18.8134 45.0092 18.9832 44.679C19.1078 44.3243 19.3335 43.9356 19.8193 43.5225C20.3719 43.0753 21.0039 42.7451 21.6125 42.5791C22.1542 42.4622 22.4703 42.5678 22.7086 42.7206C22.956 42.8282 23.0247 42.9452 23.0463 43.0281C23.0806 43.1112 23.1601 43.2394 23.2829 43.2998C23.3624 43.381 23.4527 43.381 23.6116 43.1696C23.747 42.8621 23.8932 42.415 24.175 42.0018C24.4802 41.649 24.807 41.4471 25.1465 41.3302C25.4734 41.2 25.6992 41.2 25.8237 41.2246C25.8905 41.2 26.026 41.1887 26.3077 41.2472C26.5677 41.2717 26.8729 41.3415 27.2557 41.5886C27.6404 41.8603 27.9673 42.2018 28.2381 42.615C28.4747 42.9923 28.565 43.2866 28.6228 43.547C28.7004 43.7941 28.7239 43.9243 28.7347 43.9828C28.8702 43.9243 29.1754 43.7828 29.8291 43.381C30.4503 43.0281 31.1961 42.5791 32.2218 41.7547C33.2837 40.8472 34.266 39.8907 35.1689 38.9248C35.9924 38.0286 36.4204 37.4626 36.7599 37.0023C37.1554 36.4948 37.3017 36.2835 37.3685 36.1891C37.4136 36.1174 37.5165 35.9646 37.7422 35.659C37.9445 35.3628 38.1702 35.0326 38.5205 34.5138C38.8709 33.961 39.1978 33.4176 39.5246 32.8629C39.819 32.3328 39.9869 31.9914 40.1224 31.7084C40.2704 31.3895 40.3264 31.2593 40.3481 31.2009C40.2126 31.2254 39.9092 31.2725 39.1978 31.331C38.5422 31.4008 37.7531 31.4612 36.4655 31.4612C35.0786 31.448 33.6899 31.3782 32.3121 31.248C31.0155 31.0952 30.2137 30.9292 29.5582 30.7537C28.8358 30.5764 28.5325 30.4575 28.4079 30.399C28.2038 30.3632 27.821 30.2575 27.1095 29.8217C26.3872 29.4803 25.5979 28.984 24.6825 27.8992C23.7343 26.6842 22.9904 25.3164 22.4486 23.843C21.952 22.4393 21.8617 21.462 21.8725 20.6244C21.793 19.7395 21.8617 19.3509 21.9177 19.1735ZM19.2198 26.6975C19.1872 26.6842 19.1746 26.673 19.2992 26.7201C19.3895 26.7446 19.5701 26.8031 19.9999 26.9559C20.4838 27.1333 21.0491 27.3446 21.5673 27.569C22.008 27.7691 22.2337 27.8992 22.38 28.0049C22.5389 28.1124 22.5606 28.1351 22.5606 28.1596C22.5949 28.1237 22.6508 28.1351 22.5732 28.4652C22.5606 28.7256 22.4594 29.1614 21.9971 30.1273C21.3651 31.2725 20.5525 32.5573 19.8753 33.6648C19.3444 34.5741 19.1746 34.9269 19.0843 35.1269C18.938 35.3986 18.9615 35.3873 18.9724 35.3156C18.9832 35.3986 19.0067 35.4099 18.8821 35.1402C18.7358 34.8911 18.5101 34.4666 18.1363 33.6176C17.7299 32.6516 17.3128 31.5895 16.9065 30.6122C16.5001 29.7274 16.2401 29.2557 16.0939 28.9614C15.9693 28.618 16.0144 28.5954 16.0722 28.618C16.0595 28.5954 16.0722 28.5596 16.2401 28.4293C16.3755 28.2879 16.5905 28.1124 17.0202 27.8521C17.4934 27.5578 18.0243 27.2748 18.4866 27.0389C18.8712 26.8257 19.0392 26.7559 19.1421 26.7201C19.2541 26.6616 19.2432 26.673 19.2198 26.6975C19.2089 26.6842 19.2089 26.6842 19.2198 26.6975Z" fill="black"/>
<path d="M21.3095 47.7089C21.3203 47.7089 21.3203 47.7202 21.2752 47.7089C21.2191 47.7089 21.1397 47.6975 20.9699 47.6032C20.7551 47.4976 20.5185 47.3561 20.3379 47.1542C20.1808 46.9316 20.123 46.7297 20.1122 46.541C20.0778 46.3411 20.1122 46.2354 20.1356 46.1769C20.1122 46.1165 20.123 46.0109 20.2476 45.7996C20.3379 45.5638 20.5076 45.3034 20.8688 45.0317C21.2752 44.7374 21.7374 44.5129 22.1889 44.4073C22.5844 44.3243 22.8209 44.3959 23.0015 44.5016C23.1821 44.5733 23.2272 44.6431 23.2508 44.7016C23.2832 44.762 23.341 44.843 23.4313 44.8902C23.4873 44.9374 23.5433 44.9506 23.6679 44.8091C23.769 44.6072 23.8827 44.3129 24.0958 44.0413C24.3216 43.8055 24.5708 43.6771 24.8182 43.6054C25.0674 43.5224 25.2245 43.5224 25.3274 43.5356C25.4051 43.5111 25.564 43.4998 25.8566 43.5828C26.1401 43.6299 26.4561 43.7356 26.7829 44.0658C27.099 44.4318 27.3247 44.8789 27.4602 45.3751C27.5721 45.8222 27.5504 46.1298 27.5053 46.3882C27.4818 46.6486 27.4493 46.7429 27.4258 46.79C27.4493 46.8486 27.4493 46.9656 27.1784 47.1316C26.9292 47.2957 26.5337 47.4617 25.7211 47.6032C24.7622 47.7089 23.713 47.7447 22.7992 47.756C22.0083 47.7673 21.6706 47.7334 21.4774 47.7202C21.2408 47.7089 21.2517 47.7089 21.3095 47.7089Z" fill="black"/>
<path d="M15.3496 47.3901C15.337 47.3901 15.3262 47.3901 15.3821 47.3788C15.4273 47.3788 15.4959 47.3788 15.6656 47.2844C15.8463 47.1788 16.0485 47.026 16.2291 46.8015C16.3645 46.5656 16.4205 46.3524 16.444 46.1525C16.4656 45.9525 16.4331 45.8337 16.4205 45.7751C16.4331 45.7053 16.4205 45.5865 16.3194 45.3619C16.2291 45.1148 16.072 44.8431 15.756 44.5488C15.3714 44.23 14.9542 43.9941 14.5479 43.8885C14.1759 43.8055 13.9609 43.8772 13.8147 43.9941C13.6449 44.0659 13.5998 44.1488 13.589 44.2074C13.5547 44.2658 13.4986 44.3489 13.4301 44.396C13.3633 44.4545 13.3055 44.4545 13.2043 44.313C13.1032 44.1017 12.9894 43.7942 12.8089 43.5112C12.5958 43.264 12.37 43.1225 12.1551 43.0395C11.9294 42.9452 11.7832 42.9452 11.7037 42.9697C11.6242 42.9452 11.4779 42.9225 11.2179 43.0168C10.947 43.064 10.6653 43.181 10.371 43.5225C10.0676 43.913 9.8635 44.396 9.75152 44.9148C9.63778 45.3865 9.6721 45.7167 9.71727 45.9883C9.72805 46.2581 9.76237 46.3657 9.78408 46.4241C9.75152 46.4827 9.75152 46.6015 10.0098 46.7769C10.2247 46.9543 10.5858 47.1317 11.3316 47.2731C12.1894 47.3901 13.1483 47.4373 13.9953 47.4505C14.705 47.4618 15.021 47.426 15.2016 47.4033C15.4165 47.3901 15.3821 47.3901 15.3496 47.3901C15.337 47.3901 15.337 47.3901 15.3496 47.3901Z" fill="black"/>
<path fill-rule="evenodd" clip-rule="evenodd" d="M37.0619 27.318C41.8043 26.0855 44.7705 21.3977 43.687 16.8476C42.6036 12.2975 37.8808 9.60799 33.1384 10.8406C28.396 12.0731 25.4298 16.7609 26.5132 21.311C27.5967 25.8611 32.3195 28.5506 37.0619 27.318ZM34.9363 19.0898C36.5171 18.6789 37.5058 17.1164 37.1446 15.5996C36.7835 14.0829 35.2092 13.1864 33.6284 13.5973C32.0476 14.0081 31.0589 15.5707 31.42 17.0875C31.7812 18.6041 33.3554 19.5006 34.9363 19.0898Z" fill="black"/>
<path fill-rule="evenodd" clip-rule="evenodd" d="M10.7719 26.0913C15.5143 24.8588 18.4805 20.171 17.397 15.6208C16.3135 11.0707 11.5907 8.38131 6.84833 9.61388C2.10593 10.8464 -0.86026 15.5342 0.223167 20.0843C1.30667 24.6344 6.02949 27.3239 10.7719 26.0913ZM11.6413 18.5238C13.2222 18.1129 14.2109 16.5503 13.8498 15.0336C13.4886 13.5169 11.9143 12.6204 10.3335 13.0313C8.75272 13.4422 7.76397 15.0047 8.12513 16.5214C8.4863 18.0382 10.0605 18.9346 11.6413 18.5238Z" fill="black"/>
<path d="M58.5204 11.456C58.2772 11.6373 57.9757 11.776 57.6161 11.872C57.2671 11.9573 56.8969 12 56.5056 12C55.4903 12 54.7023 11.7387 54.1417 11.216C53.5918 10.6933 53.3168 9.92533 53.3168 8.912V5.376H52V3.456H53.3168V1.36H55.7917V3.456H57.9176V5.376H55.7917V8.88C55.7917 9.24267 55.8816 9.52533 56.0614 9.728C56.2518 9.92 56.5162 10.016 56.8546 10.016C57.246 10.016 57.5791 9.90934 57.8541 9.696L58.5204 11.456Z" fill="black"/>
<path d="M64.3043 3.136C65.3619 3.136 66.2133 3.456 66.8585 4.096C67.5142 4.736 67.8421 5.68533 67.8421 6.944V11.872H65.3672V7.328C65.3672 6.64533 65.2191 6.13867 64.923 5.808C64.6268 5.46667 64.1985 5.296 63.6379 5.296C63.0139 5.296 62.5168 5.49333 62.1466 5.888C61.7765 6.272 61.5914 6.848 61.5914 7.616V11.872H59.1165V0H61.5914V4.16C61.9193 3.82933 62.3159 3.57867 62.7812 3.408C63.2466 3.22667 63.7543 3.136 64.3043 3.136Z" fill="black"/>
<path d="M77.746 7.6C77.746 7.632 77.7301 7.856 77.6984 8.272H71.2414C71.3577 8.80534 71.6327 9.22667 72.0664 9.536C72.5 9.84534 73.0394 10 73.6846 10C74.1288 10 74.5201 9.936 74.8586 9.808C75.2076 9.66933 75.5302 9.456 75.8263 9.168L77.1431 10.608C76.3393 11.536 75.1653 12 73.6211 12C72.6586 12 71.8072 11.8133 71.0669 11.44C70.3265 11.056 69.7554 10.528 69.3535 9.856C68.9516 9.184 68.7506 8.42133 68.7506 7.568C68.7506 6.72533 68.9463 5.968 69.3376 5.296C69.7395 4.61333 70.2842 4.08533 70.9717 3.712C71.6697 3.328 72.4471 3.136 73.3038 3.136C74.1394 3.136 74.8956 3.31733 75.5725 3.68C76.2494 4.04267 76.7782 4.56533 77.159 5.248C77.5503 5.92 77.746 6.704 77.746 7.6ZM73.3197 5.024C72.7591 5.024 72.2885 5.184 71.9077 5.504C71.527 5.824 71.2943 6.26133 71.2097 6.816H75.4138C75.3292 6.272 75.0965 5.84 74.7158 5.52C74.335 5.18933 73.8697 5.024 73.3197 5.024Z" fill="black"/>
<path d="M61.7093 16V27.872H59.3454V26.88C58.732 27.6267 57.8435 28 56.6801 28C55.8763 28 55.1465 27.8187 54.4908 27.456C53.8456 27.0933 53.3379 26.576 52.9678 25.904C52.5976 25.232 52.4125 24.4533 52.4125 23.568C52.4125 22.6827 52.5976 21.904 52.9678 21.232C53.3379 20.56 53.8456 20.0427 54.4908 19.68C55.1465 19.3173 55.8763 19.136 56.6801 19.136C57.7695 19.136 58.6209 19.4827 59.2343 20.176V16H61.7093ZM57.1085 25.952C57.7325 25.952 58.2507 25.7387 58.6632 25.312C59.0757 24.8747 59.2819 24.2933 59.2819 23.568C59.2819 22.8427 59.0757 22.2667 58.6632 21.84C58.2507 21.4027 57.7325 21.184 57.1085 21.184C56.4739 21.184 55.9503 21.4027 55.5378 21.84C55.1254 22.2667 54.9191 22.8427 54.9191 23.568C54.9191 24.2933 55.1254 24.8747 55.5378 25.312C55.9503 25.7387 56.4739 25.952 57.1085 25.952Z" fill="black"/>
<path d="M66.6493 19.136C67.9713 19.136 68.9867 19.456 69.6953 20.096C70.4039 20.7253 70.7583 21.68 70.7583 22.96V27.872H68.442V26.8C67.9766 27.6 67.1094 28 65.8402 28C65.1844 28 64.6133 27.888 64.1268 27.664C63.6508 27.44 63.2859 27.1307 63.0321 26.736C62.7783 26.3413 62.6513 25.8933 62.6513 25.392C62.6513 24.592 62.9475 23.9627 63.5398 23.504C64.1426 23.0453 65.0681 22.816 66.3161 22.816H68.2833C68.2833 22.272 68.1194 21.856 67.7915 21.568C67.4637 21.2693 66.9719 21.12 66.3161 21.12C65.8613 21.12 65.4118 21.1947 64.9676 21.344C64.534 21.4827 64.1638 21.6747 63.8571 21.92L62.9686 20.176C63.434 19.8453 63.9893 19.5893 64.6344 19.408C65.2902 19.2267 65.9618 19.136 66.6493 19.136ZM66.4589 26.32C66.882 26.32 67.2574 26.224 67.5853 26.032C67.9132 25.8293 68.1459 25.536 68.2833 25.152V24.272H66.5858C65.5705 24.272 65.0628 24.608 65.0628 25.28C65.0628 25.6 65.1844 25.856 65.4277 26.048C65.6815 26.2293 66.0253 26.32 66.4589 26.32Z" fill="black"/>
<path d="M77.2499 19.136C78.0432 19.136 78.7624 19.3227 79.4075 19.696C80.0633 20.0587 80.5762 20.576 80.9464 21.248C81.3166 21.9093 81.5017 22.6827 81.5017 23.568C81.5017 24.4533 81.3166 25.232 80.9464 25.904C80.5762 26.5653 80.0633 27.0827 79.4075 27.456C78.7624 27.8187 78.0432 28 77.2499 28C76.1605 28 75.3038 27.6533 74.6798 26.96V30.976H72.2049V19.264H74.5688V20.256C75.1822 19.5093 76.0759 19.136 77.2499 19.136ZM76.8216 25.952C77.4562 25.952 77.9744 25.7387 78.3763 25.312C78.7888 24.8747 78.9951 24.2933 78.9951 23.568C78.9951 22.8427 78.7888 22.2667 78.3763 21.84C77.9744 21.4027 77.4562 21.184 76.8216 21.184C76.187 21.184 75.6634 21.4027 75.251 21.84C74.8491 22.2667 74.6481 22.8427 74.6481 23.568C74.6481 24.2933 74.8491 24.8747 75.251 25.312C75.6634 25.7387 76.187 25.952 76.8216 25.952Z" fill="black"/>
<path d="M87.4102 19.136C88.2034 19.136 88.9227 19.3227 89.5678 19.696C90.2236 20.0587 90.7365 20.576 91.1067 21.248C91.4769 21.9093 91.662 22.6827 91.662 23.568C91.662 24.4533 91.4769 25.232 91.1067 25.904C90.7365 26.5653 90.2236 27.0827 89.5678 27.456C88.9227 27.8187 88.2034 28 87.4102 28C86.3208 28 85.4641 27.6533 84.8401 26.96V30.976H82.3652V19.264H84.7291V20.256C85.3425 19.5093 86.2362 19.136 87.4102 19.136ZM86.9819 25.952C87.6165 25.952 88.1347 25.7387 88.5366 25.312C88.9491 24.8747 89.1553 24.2933 89.1553 23.568C89.1553 22.8427 88.9491 22.2667 88.5366 21.84C88.1347 21.4027 87.6165 21.184 86.9819 21.184C86.3473 21.184 85.8237 21.4027 85.4112 21.84C85.0093 22.2667 84.8084 22.8427 84.8084 23.568C84.8084 24.2933 85.0093 24.8747 85.4112 25.312C85.8237 25.7387 86.3473 25.952 86.9819 25.952Z" fill="black"/>
<path d="M53.0153 32H55.4903V43.872H53.0153V32Z" fill="black"/>
<path d="M56.9939 35.264H59.4688V43.872H56.9939V35.264ZM58.2314 34.064C57.7766 34.064 57.4064 33.9307 57.1209 33.664C56.8353 33.3973 56.6925 33.0667 56.6925 32.672C56.6925 32.2773 56.8353 31.9467 57.1209 31.68C57.4064 31.4133 57.7766 31.28 58.2314 31.28C58.6862 31.28 59.0564 31.408 59.3419 31.664C59.6275 31.92 59.7703 32.24 59.7703 32.624C59.7703 33.04 59.6275 33.3867 59.3419 33.664C59.0564 33.9307 58.6862 34.064 58.2314 34.064Z" fill="black"/>
<path d="M63.8441 44C63.1354 44 62.4427 43.9147 61.7658 43.744C61.0889 43.5627 60.5495 43.3387 60.1476 43.072L60.9725 41.28C61.3533 41.5253 61.8134 41.728 62.3528 41.888C62.8922 42.0373 63.421 42.112 63.9392 42.112C64.9863 42.112 65.5099 41.8507 65.5099 41.328C65.5099 41.0827 65.3671 40.9067 65.0815 40.8C64.7959 40.6933 64.357 40.6027 63.7647 40.528C63.0667 40.4213 62.4903 40.2987 62.0355 40.16C61.5807 40.0213 61.1841 39.776 60.8456 39.424C60.5177 39.072 60.3538 38.5707 60.3538 37.92C60.3538 37.376 60.5072 36.896 60.8139 36.48C61.1312 36.0533 61.586 35.7227 62.1783 35.488C62.7811 35.2533 63.4897 35.136 64.3041 35.136C64.907 35.136 65.5046 35.2053 66.0969 35.344C66.6997 35.472 67.1968 35.6533 67.5881 35.888L66.7632 37.664C66.0122 37.2373 65.1926 37.024 64.3041 37.024C63.7753 37.024 63.3787 37.0987 63.1143 37.248C62.8499 37.3973 62.7177 37.5893 62.7177 37.824C62.7177 38.0907 62.8604 38.2773 63.146 38.384C63.4316 38.4907 63.8864 38.592 64.5104 38.688C65.2084 38.8053 65.7796 38.9333 66.2238 39.072C66.668 39.2 67.054 39.44 67.3819 39.792C67.7098 40.144 67.8737 40.6347 67.8737 41.264C67.8737 41.7973 67.7151 42.272 67.3978 42.688C67.0805 43.104 66.6151 43.4293 66.0017 43.664C65.3988 43.888 64.6796 44 63.8441 44Z" fill="black"/>
<path d="M74.1125 43.456C73.8693 43.6373 73.5679 43.776 73.2082 43.872C72.8592 43.9573 72.489 44 72.0977 44C71.0824 44 70.2944 43.7387 69.7339 43.216C69.1839 42.6933 68.9089 41.9253 68.9089 40.912V37.376H67.5921V35.456H68.9089V33.36H71.3838V35.456H73.5097V37.376H71.3838V40.88C71.3838 41.2427 71.4737 41.5253 71.6535 41.728C71.8439 41.92 72.1083 42.016 72.4467 42.016C72.8381 42.016 73.1712 41.9093 73.4462 41.696L74.1125 43.456Z" fill="black"/>
<path d="M75.7995 44C75.3659 44 75.001 43.8507 74.7049 43.552C74.4087 43.2533 74.2607 42.88 74.2607 42.432C74.2607 41.9733 74.4087 41.6053 74.7049 41.328C75.001 41.04 75.3659 40.896 75.7995 40.896C76.2332 40.896 76.5981 41.04 76.8942 41.328C77.1904 41.6053 77.3384 41.9733 77.3384 42.432C77.3384 42.88 77.1904 43.2533 76.8942 43.552C76.5981 43.8507 76.2332 44 75.7995 44Z" fill="black"/>
</svg>
