<svg xmlns="http://www.w3.org/2000/svg" width="49.2" height="30.752" viewBox="0 0 49.2 30.752"><g transform="translate(0 0)"><g transform="translate(0 0)"><path d="M20.241,109.879a7.38,7.38,0,0,0,2.322-1.7,6.619,6.619,0,0,0,1.405-4.419,7.562,7.562,0,0,0-1.393-4.579q-2.325-3.118-7.882-3.2H0v29.993H13.7a21.423,21.423,0,0,0,4.3-.4,8.449,8.449,0,0,0,3.435-1.507,8.317,8.317,0,0,0,2.153-2.359,8.666,8.666,0,0,0,1.356-4.782,7.869,7.869,0,0,0-1.184-4.395A6.834,6.834,0,0,0,20.241,109.879Zm-14.18-8.691h6.618a11.667,11.667,0,0,1,3.595.467,2.691,2.691,0,0,1,1.633,2.774,2.824,2.824,0,0,1-1.236,2.632,6.2,6.2,0,0,1-3.217.744H6.061Zm10.465,19.051a7.248,7.248,0,0,1-3.081.529H6.061v-8h7.485a7.812,7.812,0,0,1,3.044.5,3.216,3.216,0,0,1,1.934,3.22A3.77,3.77,0,0,1,16.526,120.239Z" transform="translate(0 -95.979)"/><rect width="13.03" height="3.733" transform="translate(31.441 1.399)"/><path d="M301.974,180.085a10.7,10.7,0,0,0-1.8-4.585,9.053,9.053,0,0,0-3.881-3.281,12.848,12.848,0,0,0-5.289-1.039,10.947,10.947,0,0,0-8.039,3.075q-3.1,3.077-3.1,8.844,0,6.149,3.435,8.878a12.34,12.34,0,0,0,7.919,2.728q5.439,0,8.46-3.232a7.277,7.277,0,0,0,2.177-4.01h-6a4.84,4.84,0,0,1-1.212,1.525,5.025,5.025,0,0,1-3.26,1.015,6.026,6.026,0,0,1-3.244-.836c-1.482-.892-2.257-2.454-2.356-4.677h16.382A28.229,28.229,0,0,0,301.974,180.085Zm-16.037.575a6.012,6.012,0,0,1,1.568-3.432,4.727,4.727,0,0,1,3.509-1.27,5.22,5.22,0,0,1,3.49,1.193,4.85,4.85,0,0,1,1.565,3.509Z" transform="translate(-252.976 -163.952)"/></g></g></svg>