<svg xmlns="http://www.w3.org/2000/svg" width="38.655" height="38.663" viewBox="0 0 38.655 38.663"><path d="M39.006,11.367a14.127,14.127,0,0,0-.9-4.69A9.9,9.9,0,0,0,32.45,1.02a14.164,14.164,0,0,0-4.69-.9C25.69.023,25.033,0,19.784,0s-5.906.023-7.968.113a14.132,14.132,0,0,0-4.69.9A9.433,9.433,0,0,0,3.7,3.248,9.519,9.519,0,0,0,1.468,6.669a14.165,14.165,0,0,0-.9,4.69c-.1,2.07-.121,2.727-.121,7.976S.471,25.241.562,27.3a14.127,14.127,0,0,0,.9,4.69,9.9,9.9,0,0,0,5.657,5.657,14.166,14.166,0,0,0,4.69.9c2.062.091,2.719.113,7.968.113s5.906-.022,7.968-.113a14.124,14.124,0,0,0,4.69-.9,9.889,9.889,0,0,0,5.657-5.657,14.175,14.175,0,0,0,.9-4.69c.091-2.062.113-2.719.113-7.968s-.008-5.906-.1-7.968ZM35.524,27.152a10.6,10.6,0,0,1-.665,3.588,6.413,6.413,0,0,1-3.671,3.671,10.635,10.635,0,0,1-3.588.664c-2.039.091-2.651.113-7.809.113s-5.778-.022-7.81-.113a10.592,10.592,0,0,1-3.588-.664,5.949,5.949,0,0,1-2.22-1.443,6.011,6.011,0,0,1-1.443-2.22,10.636,10.636,0,0,1-.664-3.588c-.091-2.039-.113-2.651-.113-7.81s.022-5.778.113-7.809a10.592,10.592,0,0,1,.664-3.588,5.876,5.876,0,0,1,1.45-2.221A6,6,0,0,1,8.4,4.29a10.642,10.642,0,0,1,3.588-.665c2.039-.091,2.651-.113,7.809-.113s5.778.023,7.81.113A10.6,10.6,0,0,1,31.2,4.29a5.945,5.945,0,0,1,2.22,1.442,6.01,6.01,0,0,1,1.443,2.221,10.64,10.64,0,0,1,.665,3.588c.091,2.039.113,2.651.113,7.809s-.023,5.763-.113,7.8Zm0,0" transform="translate(-0.449 0)"/><path d="M134.881,124.5a9.932,9.932,0,1,0,9.932,9.932A9.934,9.934,0,0,0,134.881,124.5Zm0,16.375a6.443,6.443,0,1,1,6.443-6.443A6.444,6.444,0,0,1,134.881,140.875Zm0,0" transform="translate(-115.546 -115.097)"/><path d="M367.087,90.92a2.319,2.319,0,1,1-2.319-2.319A2.319,2.319,0,0,1,367.087,90.92Zm0,0" transform="translate(-335.108 -81.91)"/></svg>