<svg xmlns="http://www.w3.org/2000/svg" width="43.151" height="43.15" viewBox="0 0 43.151 43.15"><path d="M21.575,0A21.575,21.575,0,1,0,43.151,21.575,21.578,21.578,0,0,0,21.575,0Zm-6.27,32.616H10.051V16.807h5.255ZM12.679,14.649h-.034a2.739,2.739,0,1,1,.069-5.462,2.74,2.74,0,1,1-.035,5.462ZM34.253,32.616H29V24.159c0-2.125-.761-3.575-2.662-3.575a2.876,2.876,0,0,0-2.7,1.922,3.6,3.6,0,0,0-.173,1.282v8.828H18.214s.069-14.325,0-15.808h5.254v2.238A5.217,5.217,0,0,1,28.2,16.436c3.457,0,6.049,2.259,6.049,7.115Zm0,0"/></svg>