<svg xmlns="http://www.w3.org/2000/svg" width="44.358" height="35.117" viewBox="0 0 44.358 35.117"><path d="M40.818,6.627l3.539-3.386V2.5H32.1L23.358,24.25,13.416,2.5H.56v.741L4.695,8.218a1.735,1.735,0,0,1,.56,1.447v19.56a2.23,2.23,0,0,1-.6,1.941L0,36.811v.732H13.206V36.8L8.548,31.166a2.3,2.3,0,0,1-.641-1.941V12.307L19.5,37.552h1.347l9.968-25.245V32.417c0,.53,0,.639-.347.987l-3.586,3.469v.743h17.4v-.741L40.82,33.491a1.028,1.028,0,0,1-.4-.987V7.614a1.024,1.024,0,0,1,.394-.987Z" transform="translate(0 -2.5)"/></svg>