<svg xmlns="http://www.w3.org/2000/svg" width="37.602" height="30.552" viewBox="0 0 37.602 30.552"><g transform="translate(0)"><g transform="translate(0 0)"><path d="M37.6,51.617a16.072,16.072,0,0,1-4.442,1.217,7.665,7.665,0,0,0,3.391-4.261,15.406,15.406,0,0,1-4.888,1.866,7.708,7.708,0,0,0-13.335,5.271,7.938,7.938,0,0,0,.179,1.758A21.82,21.82,0,0,1,2.618,49.405a7.711,7.711,0,0,0,2.369,10.3A7.613,7.613,0,0,1,1.5,58.759v.085A7.744,7.744,0,0,0,7.68,66.418a7.694,7.694,0,0,1-2.021.254A6.816,6.816,0,0,1,4.2,66.54a7.782,7.782,0,0,0,7.2,5.37A15.489,15.489,0,0,1,1.845,75.2,14.439,14.439,0,0,1,0,75.092a21.7,21.7,0,0,0,11.826,3.459c14.185,0,21.941-11.751,21.941-21.936,0-.341-.012-.67-.028-1A15.379,15.379,0,0,0,37.6,51.617Z" transform="translate(0 -48)"/></g></g></svg>