<svg xmlns="http://www.w3.org/2000/svg" width="45.852" height="32.104" viewBox="0 0 45.852 32.104"><path d="M44.908-1.059A5.744,5.744,0,0,0,40.867-5.1c-3.588-.982-17.941-.982-17.941-.982s-14.352,0-17.94.945A5.861,5.861,0,0,0,.945-1.059C0,2.529,0,9.97,0,9.97S0,17.448.945,21A5.745,5.745,0,0,0,4.986,25.04c3.626.982,17.94.982,17.94.982s14.352,0,17.94-.945a5.745,5.745,0,0,0,4.042-4.041c.944-3.588.944-11.028.944-11.028s.038-7.478-.945-11.066Zm-26.551,17.9V3.1L30.291,9.97Zm0,0" transform="translate(-0.001 6.082)"/></svg>