<svg width="86" height="86" viewBox="0 0 86 86" fill="none" xmlns="http://www.w3.org/2000/svg">
<path fill-rule="evenodd" clip-rule="evenodd" d="M80.625 43C80.625 52.9788 76.6609 62.5488 69.6049 69.6049C62.5488 76.6609 52.9788 80.625 43 80.625C33.0212 80.625 23.4512 76.6609 16.3951 69.6049C9.33905 62.5488 5.375 52.9788 5.375 43C5.375 33.0212 9.33905 23.4512 16.3951 16.3951C23.4512 9.33905 33.0212 5.375 43 5.375C52.9788 5.375 62.5488 9.33905 69.6049 16.3951C76.6609 23.4512 80.625 33.0212 80.625 43ZM0 43C0 54.4043 4.53034 65.3415 12.5944 73.4056C20.6585 81.4697 31.5957 86 43 86C54.4043 86 65.3415 81.4697 73.4056 73.4056C81.4697 65.3415 86 54.4043 86 43C86 31.5957 81.4697 20.6585 73.4056 12.5944C65.3415 4.53034 54.4043 0 43 0C31.5957 0 20.6585 4.53034 12.5944 12.5944C4.53034 20.6585 0 31.5957 0 43ZM24.1875 40.3125C23.4747 40.3125 22.7912 40.5956 22.2871 41.0997C21.7831 41.6037 21.5 42.2872 21.5 43C21.5 43.7128 21.7831 44.3963 22.2871 44.9004C22.7912 45.4044 23.4747 45.6875 24.1875 45.6875H55.3249L43.7847 57.2222C43.5349 57.4721 43.3367 57.7688 43.2014 58.0952C43.0662 58.4217 42.9966 58.7716 42.9966 59.125C42.9966 59.4784 43.0662 59.8283 43.2014 60.1548C43.3367 60.4812 43.5349 60.7779 43.7847 61.0278C44.0346 61.2776 44.3313 61.4758 44.6577 61.6111C44.9842 61.7463 45.3341 61.8159 45.6875 61.8159C46.0409 61.8159 46.3908 61.7463 46.7173 61.6111C47.0437 61.4758 47.3404 61.2776 47.5903 61.0278L63.7153 44.9028C63.9655 44.6531 64.1641 44.3565 64.2996 44.03C64.4351 43.7035 64.5048 43.3535 64.5048 43C64.5048 42.6465 64.4351 42.2965 64.2996 41.97C64.1641 41.6435 63.9655 41.3469 63.7153 41.0972L47.5903 24.9722C47.0856 24.4676 46.4012 24.1841 45.6875 24.1841C44.9738 24.1841 44.2894 24.4676 43.7847 24.9722C43.2801 25.4769 42.9966 26.1613 42.9966 26.875C42.9966 27.5887 43.2801 28.2731 43.7847 28.7778L55.3249 40.3125H24.1875Z" fill="#4244B4"/>
</svg>
