<svg width="586" height="445" viewBox="0 0 586 445" fill="none" xmlns="http://www.w3.org/2000/svg">
<g opacity="0.5">
<path opacity="0.5" d="M444.655 9.53357V177.324H145.809V9.53357H444.655ZM444.655 0H145.809C140.534 0 136.275 4.25833 136.275 9.53357V177.324C136.275 182.6 140.534 186.858 145.809 186.858H444.655C449.93 186.858 454.188 182.6 454.188 177.324V9.53357C454.188 4.25833 449.93 0 444.655 0Z" fill="#6AA0EF"/>
</g>
<path d="M412.494 357.191H487.047C490.479 357.191 493.212 354.394 493.212 351.026C493.402 349.056 493.657 347.085 493.847 345.115C466.708 344.924 439.633 344.67 412.494 344.479V357.191Z" fill="#179FC9"/>
<path d="M483.043 357.191H557.595C561.028 357.191 563.761 354.394 563.761 351.026C563.951 349.056 564.205 347.085 564.396 345.115C537.257 344.924 510.182 344.67 483.043 344.479V357.191Z" fill="#30C4FF"/>
<path d="M554.862 346.386C558.04 345.941 561.218 345.56 564.396 345.115C569.29 312.256 574.12 279.461 579.014 246.602C578.76 246.347 577.171 244.695 574.565 244.695C571.959 244.695 570.37 246.347 570.116 246.602C565.031 279.842 559.947 313.082 554.862 346.386Z" fill="#30C4FF"/>
<path d="M514.186 346.386C528.613 346.386 542.977 346.386 557.404 346.386C562.68 312.51 568.018 278.571 573.294 244.695C569.226 244.631 565.095 244.631 560.836 244.695C550.222 244.886 540.117 245.585 530.71 246.602C525.181 279.842 519.715 313.082 514.186 346.386Z" fill="#64D6F9"/>
<path d="M462.721 430.244L472.89 430.244L472.89 419.439L462.721 419.439L462.721 430.244Z" fill="#EFA584"/>
<path d="M437.917 430.282C442.366 430.282 446.815 430.282 451.264 430.282C449.993 426.659 448.722 423.1 447.451 419.477C443.638 419.477 439.824 419.477 436.011 419.477C436.646 423.036 437.282 426.659 437.917 430.282Z" fill="#EFA584"/>
<path d="M533.252 319.057C533.252 319.057 540.244 348.929 495.754 347.657L471.602 348.929C471.793 350.136 471.983 351.153 472.174 351.852C472.428 353.123 472.81 354.458 473.509 357.191C473.509 357.191 477.958 388.97 472.873 422.019H461.433C461.433 422.019 444.908 372.445 443.637 345.115L433.468 346.386C433.468 346.386 441.095 382.614 449.357 420.748L432.832 421.384C432.832 421.384 409.952 375.623 408.045 361.64C408.045 361.64 391.52 328.59 416.943 320.328C416.943 320.328 446.751 310.286 473.509 307.68L533.252 319.057Z" fill="#0E4886"/>
<path d="M472.874 286.007H490.034V280.287C488.7 279.588 485.967 278.38 482.407 278.38C477.005 278.444 473.319 281.24 472.238 282.194C472.429 283.465 472.683 284.736 472.874 286.007Z" fill="#EFA584"/>
<path d="M523.083 219.908C523.083 219.908 549.777 222.45 553.591 247.873C553.591 247.873 555.497 280.287 547.871 286.007C528.359 286.007 508.91 286.007 489.398 286.007C489.398 284.1 489.398 282.194 489.398 280.287C485.394 279.842 481.326 279.461 477.322 279.016L478.593 272.025C478.593 272.025 474.144 278.38 462.704 280.287L437.281 281.558L439.824 277.109C439.824 277.109 470.967 264.398 472.873 247.237C472.873 247.237 476.051 224.992 502.11 219.272L502.745 235.797L509.101 230.077L511.008 229.441L516.728 235.797C516.728 235.797 525.626 226.263 523.083 219.908Z" fill="#34A853"/>
<path d="M530.71 295.541L530.075 321.599C530.075 321.599 487.491 320.328 473.509 308.888V292.363L530.71 295.541Z" fill="#34A853"/>
<path d="M340.039 296.812H494.483V286.007H340.039C339.848 286.134 337.052 287.787 336.861 291.092C336.734 293.38 338.005 295.604 340.039 296.812Z" fill="#246EB2"/>
<path d="M487.491 296.812H582.191C584.225 295.668 585.496 293.443 585.369 291.092C585.179 287.787 582.382 286.134 582.191 286.007C550.603 286.007 519.079 286.007 487.491 286.007V296.812Z" fill="#084E82"/>
<path d="M510.388 423.888L518.65 423.888L518.65 357.153L510.388 357.153L510.388 423.888Z" fill="#30C4FF"/>
<path d="M518.635 423.926C523.719 426.278 528.804 428.566 533.889 430.917V436.637H490.034V431.553L510.372 423.926C513.105 423.926 515.902 423.926 518.635 423.926Z" fill="#30C4FF"/>
<path d="M530.09 444.226L538.988 444.226L538.988 296.774L530.09 296.774L530.09 444.226Z" fill="#246EB2"/>
<path d="M366.114 444.226L375.012 444.226L375.012 296.774L366.114 296.774L366.114 444.226Z" fill="#246EB2"/>
<path d="M491.94 443.629C494.046 443.629 495.754 441.921 495.754 439.815C495.754 437.709 494.046 436.002 491.94 436.002C489.834 436.002 488.127 437.709 488.127 439.815C488.127 441.921 489.834 443.629 491.94 443.629Z" fill="#30C4FF"/>
<path d="M457 443.59L479.245 443.59L479.245 439.777L457 439.777L457 443.59Z" fill="#214377"/>
<path d="M415.672 443.629H453.17V439.815H415.672C414.909 440.133 414.4 440.896 414.4 441.722C414.4 442.548 414.909 443.311 415.672 443.629Z" fill="#214377"/>
<path d="M456.984 439.815H479.229C478.912 438.036 478.212 435.557 476.687 432.824C475.416 430.599 474.018 428.883 472.874 427.739C469.505 427.739 466.073 427.739 462.705 427.739C461.688 429.074 460.544 430.79 459.527 432.824C458.192 435.43 457.429 437.845 456.984 439.815Z" fill="#081A48"/>
<path d="M415.036 439.815C427.748 439.815 440.459 439.815 453.17 439.815C453.361 438.036 453.425 435.303 452.535 432.188C452.026 430.345 451.264 428.883 450.628 427.739C445.544 427.93 440.459 428.184 435.374 428.375C432.959 428.566 428.955 429.265 424.57 431.553C419.549 434.222 416.562 437.781 415.036 439.815Z" fill="#081A48"/>
<path d="M384.529 280.922C404.423 280.922 424.38 280.922 444.273 280.922C443.892 279.206 443.574 277.554 443.192 275.838C440.777 264.588 438.426 253.339 436.01 242.153C416.308 242.153 396.605 242.153 376.902 242.153C379.445 255.055 381.987 267.957 384.529 280.922Z" fill="#51B6CF"/>
<path d="M382.622 280.922C402.515 280.922 422.472 280.922 442.366 280.922C441.984 279.206 441.667 277.554 441.285 275.838C438.87 264.588 436.518 253.339 434.103 242.153C414.401 242.153 394.698 242.153 374.995 242.153C377.537 255.055 380.08 267.957 382.622 280.922Z" fill="#71DBF4"/>
<path d="M382.638 285.969L442.382 285.969L442.382 280.249L382.638 280.249L382.638 285.969Z" fill="#71DBF4"/>
<path d="M442.366 286.007C452.98 286.007 463.531 286.007 474.145 286.007C475.543 285.816 476.56 284.736 476.687 283.465C476.751 282.511 476.242 281.494 475.416 280.922C464.421 280.732 453.362 280.478 442.366 280.287V286.007Z" fill="#51B6CF"/>
<path d="M519.27 210.374L519.906 219.908C519.906 219.908 515.457 230.712 507.83 226.899L504.652 215.459C504.652 215.459 490.034 209.103 497.025 190.671L504.652 187.494L517.999 190.036C518.444 193.214 518.826 196.392 519.27 199.569C519.588 199.569 521.686 199.379 523.084 200.841C524.546 202.366 524.673 205.099 523.084 207.196C523.084 207.196 523.084 210.374 519.27 210.374Z" fill="#EFA584"/>
<path d="M521.177 209.739C522.449 209.739 533.889 205.925 531.347 186.858C531.347 186.858 526.262 168.426 518 174.782C518 174.782 513.551 167.155 509.102 173.511C509.102 173.511 505.924 174.147 505.288 171.604C504.653 169.062 505.288 171.604 505.288 171.604C505.288 171.604 497.026 162.071 492.577 177.96C492.577 177.96 490.034 185.587 497.026 190.671C497.026 190.671 502.11 190.671 504.653 188.129C504.653 188.129 512.915 190.671 515.457 190.671C515.457 190.671 519.906 193.214 517.364 199.569L518 203.383C518.19 203.065 518.635 202.557 519.271 202.112C520.351 201.413 521.432 201.476 521.813 201.476C522.194 201.794 522.83 202.429 523.084 203.383C523.465 204.908 522.703 206.688 521.177 207.832V209.739Z" fill="#051424"/>
<path d="M92.1669 221.814V216.73C92.1669 216.73 98.5226 211.645 99.1581 205.925C99.1581 205.925 101.065 195.756 96.6159 193.849L76.9132 192.578L69.9219 197.663L73.0997 209.738C73.7353 213.997 74.3709 218.192 75.0064 222.45C74.6887 223.213 74.498 224.039 74.3709 224.992C73.7989 229.632 76.5954 233.382 77.5487 234.526C83.2689 235.606 88.989 236.623 94.7092 237.704L101.7 231.983C101.7 231.983 95.9803 222.45 92.1669 221.814Z" fill="#EFA584"/>
<path d="M98.5227 197.027C98.8405 196.646 103.289 191.625 101.573 185.269C100.366 180.756 96.8702 178.532 95.9804 177.96C95.9804 177.96 87.0824 169.062 69.922 181.138C69.922 181.138 54.6683 203.383 45.1347 204.654C45.1347 204.654 26.7031 206.306 26.7031 226.899C26.7031 227.534 27.9743 233.89 29.2454 236.432C29.2454 236.432 30.5166 228.17 35.6011 228.806C35.6011 228.806 30.8979 245.902 41.1941 256.135L53.3971 233.89C59.7528 230.522 66.1085 227.09 72.4642 223.721C73.1634 223.594 74.1167 223.213 75.0065 222.45C75.7692 221.751 76.7226 220.48 76.9132 216.73C77.0404 214.632 76.9768 211.264 75.6421 207.196C74.7523 203.637 75.5785 199.951 77.9302 197.853C79.964 196.074 82.6334 195.756 83.269 195.756C84.2859 195.756 85.8112 195.819 87.718 196.264C90.3874 196.836 91.3407 197.472 93.4381 197.663C94.5821 197.726 96.2982 197.726 98.5227 197.027Z" fill="#02111E"/>
<path d="M106.784 228.17C106.784 228.17 125.216 249.779 126.487 255.5C126.487 255.5 129.665 260.584 134.114 255.5L157.63 233.255C157.63 233.255 159.537 228.17 159.537 226.263C159.537 226.263 158.901 214.823 162.714 224.992C162.714 224.992 169.07 226.263 176.061 218.636C176.061 218.636 181.146 230.712 167.163 235.797C167.163 235.797 160.808 238.339 160.172 241.517C160.172 241.517 141.741 268.211 135.385 270.118C135.385 270.118 130.936 275.838 125.216 270.753L110.598 259.313L106.784 228.17Z" fill="#EFA584"/>
<path d="M172.884 357.191H98.3319C94.8998 357.191 92.1668 354.394 92.1668 351.026C91.9761 349.056 91.7219 347.085 91.5312 345.115C118.67 344.924 145.745 344.67 172.884 344.479C173.456 345.306 174.791 347.594 174.791 350.835C174.791 354.077 173.456 356.301 172.884 357.191Z" fill="#179FC9"/>
<path d="M102.336 357.191H27.783C24.3509 357.191 21.618 354.394 21.618 351.026C21.4273 349.056 21.1731 347.085 20.9824 345.115C48.1213 344.924 75.1966 344.67 102.336 344.479V357.191Z" fill="#30C4FF"/>
<path d="M30.516 346.386C27.3381 345.941 24.1603 345.56 20.9824 345.115C16.0885 312.256 11.2582 279.461 6.36426 246.602C6.61849 246.347 8.20741 244.695 10.8133 244.695C13.4191 244.695 15.008 246.347 15.2623 246.602C20.3468 279.842 25.4314 313.082 30.516 346.386Z" fill="#30C4FF"/>
<path d="M80.0911 346.386C63.5027 346.386 46.9143 346.386 30.3894 346.386C24.2879 312.447 18.1864 278.571 12.085 244.695C16.7246 244.631 21.4914 244.631 26.3853 244.695C38.6518 244.886 50.2192 245.585 61.0875 246.602C67.4432 279.842 73.7354 313.082 80.0911 346.386Z" fill="#64D6F9"/>
<path d="M75.0066 357.191H66.7441V423.926H75.0066V357.191Z" fill="#30C4FF"/>
<path d="M66.7439 423.926C61.6594 426.278 56.5748 428.566 51.4902 430.917V436.637H95.3446V431.553L75.0064 423.926C72.2734 423.926 69.4769 423.926 66.7439 423.926Z" fill="#30C4FF"/>
<path d="M55.3033 296.812H46.4053V444.264H55.3033V296.812Z" fill="#246EB2"/>
<path d="M219.281 296.812H210.383V444.264H219.281V296.812Z" fill="#246EB2"/>
<path d="M93.4375 443.629C95.5435 443.629 97.2509 441.921 97.2509 439.815C97.2509 437.709 95.5435 436.002 93.4375 436.002C91.3314 436.002 89.624 437.709 89.624 439.815C89.624 441.921 91.3314 443.629 93.4375 443.629Z" fill="#30C4FF"/>
<path d="M200.849 280.922C180.956 280.922 160.999 280.922 141.105 280.922C141.487 279.206 141.805 277.554 142.186 275.838C144.601 264.588 146.953 253.339 149.368 242.153C169.071 242.153 188.773 242.153 208.476 242.153C205.934 255.055 203.391 267.957 200.849 280.922Z" fill="#51B6CF"/>
<path d="M202.755 280.922C182.862 280.922 162.905 280.922 143.012 280.922C143.393 279.206 143.711 277.554 144.092 275.838C146.507 264.588 148.859 253.339 151.274 242.153C170.977 242.153 190.68 242.153 210.382 242.153C207.84 255.055 205.298 267.957 202.755 280.922Z" fill="#71DBF4"/>
<path d="M202.755 280.287H143.012V286.007H202.755V280.287Z" fill="#71DBF4"/>
<path d="M143.013 286.007C132.399 286.007 121.848 286.007 111.234 286.007C109.836 285.816 108.819 284.736 108.692 283.465C108.628 282.511 109.137 281.494 109.963 280.922C120.958 280.732 132.017 280.478 143.013 280.287V286.007Z" fill="#51B6CF"/>
<path d="M51.4901 229.441C49.5834 230.776 47.2318 232.746 45.1979 235.479C39.2871 243.424 39.7956 252.512 40.0498 255.5C41.0667 262.554 41.3209 268.084 41.3209 272.024C41.3209 275.012 41.1938 278.761 43.2277 282.829C44.2446 284.863 45.5157 286.325 46.4055 287.278C49.5834 287.087 52.7612 286.833 55.9391 286.643L82.6331 287.278L124.581 286.643C124.581 286.643 114.92 279.397 108.628 281.431C108.628 281.431 64.2015 279.651 60.3881 280.922H58.4814C58.4814 280.922 54.0324 269.482 57.8458 259.313C57.8458 259.313 61.0236 238.339 51.4901 229.441Z" fill="#EFA584"/>
<path d="M245.339 296.812H90.8955V286.007H245.339C245.53 286.134 248.326 287.787 248.517 291.092C248.644 293.38 247.437 295.604 245.339 296.812Z" fill="#246EB2"/>
<path d="M97.8867 296.812H3.18658C1.15276 295.668 -0.118387 293.443 0.00872752 291.092C0.199399 287.787 2.99591 286.134 3.18658 286.007C34.7745 286.007 66.2988 286.007 97.8867 286.007V296.812Z" fill="#084E82"/>
<path d="M113.076 296.685C113.331 298.401 113.585 300.18 113.839 301.896C107.039 303.358 100.301 304.884 93.5009 306.345L60.4512 303.803V295.541L113.076 296.685Z" fill="#DD2F26"/>
<path d="M164.621 358.462C165.892 359.098 163.35 422.019 167.163 429.011C170.977 436.002 167.163 429.646 167.163 429.646C167.163 429.646 172.248 436.002 177.333 435.366L177.968 439.18L154.452 441.086C154.071 438.608 153.689 436.065 153.308 433.46C152.99 431.044 152.736 428.756 152.545 426.468C151.211 417.57 150.003 408.291 149.05 398.503C147.715 384.838 147.079 371.873 146.825 359.733L164.621 358.462Z" fill="#EFA584"/>
<path d="M137.292 361.64C137.292 361.64 134.114 402.952 130.301 410.579C130.301 410.579 125.852 432.188 126.487 436.002L125.852 440.451H118.225L116.318 434.731C116.318 434.731 117.589 408.672 116.954 406.766C116.954 406.766 113.14 371.809 116.318 361.004L137.292 361.64Z" fill="#EFA584"/>
<path d="M167.8 359.098C167.8 359.098 172.249 312.701 137.928 309.523C137.928 309.523 118.861 305.71 113.776 301.261C113.776 301.261 87.718 306.981 60.3885 301.896C60.3885 301.896 44.4992 347.022 78.82 350.2C82.9512 350.454 88.0358 351.217 93.5653 352.869C102.908 355.729 109.899 360.115 114.412 363.547C121.785 364.119 130.365 364.246 139.835 363.547C150.512 362.72 159.919 361.004 167.8 359.098Z" fill="#0E4886"/>
<path d="M92.8024 221.814C92.8024 221.814 111.869 225.628 112.505 244.059L111.869 281.558H59.1171L58.4815 266.94C58.4815 266.94 61.0238 235.797 51.4902 229.441C51.4902 229.441 66.1084 223.085 75.0064 222.45C75.0064 222.45 73.7352 231.983 84.5399 233.255C84.5399 233.255 96.6158 235.797 92.8024 221.814Z" fill="#DD2F26"/>
<path d="M151.911 442.993C163.796 442.993 175.618 442.993 187.503 442.993C187.439 442.04 187.185 439.879 185.596 437.909C182.609 434.222 177.778 434.667 177.334 434.731C176.062 435.557 173.901 436.765 170.978 437.273C169.834 437.464 166.402 438.036 162.715 436.637C160.809 435.938 160.745 435.43 158.902 434.731C156.169 433.714 153.627 433.841 151.911 434.095C151.529 434.731 150.449 436.637 150.64 439.18C150.767 440.959 151.466 442.294 151.911 442.993Z" fill="#000545"/>
<path d="M113.141 443.629C115.556 444.01 118.289 444.264 121.403 444.264C124.772 444.264 127.759 444.01 130.301 443.629C130.492 443.057 130.873 441.468 130.301 439.561C129.412 436.701 126.869 435.684 126.488 435.493C126.107 435.811 124.073 437.337 121.403 436.828C119.052 436.383 117.145 434.604 116.319 432.125C115.62 432.633 114.031 433.904 113.141 436.193C111.743 439.688 112.887 442.93 113.141 443.629Z" fill="#000545"/>
<path d="M172.82 64.4469H191.887C196.336 64.4469 200.341 65.146 203.963 66.4807C207.522 67.8154 210.573 69.7857 213.116 72.328C215.658 74.8067 217.565 77.7939 218.836 81.226C220.17 84.7216 220.869 88.4715 220.869 92.6663C220.869 96.861 220.17 100.674 218.836 104.17C217.501 107.666 215.594 110.589 213.116 113.068C210.573 115.547 207.522 117.454 203.963 118.788C200.404 120.123 196.4 120.822 191.887 120.822H172.82V64.4469ZM191.443 110.78C194.557 110.78 197.29 110.335 199.641 109.509C201.993 108.619 203.963 107.412 205.552 105.823C207.141 104.234 208.285 102.327 209.111 100.166C209.874 97.8779 210.319 95.3992 210.319 92.6663C210.319 89.9333 209.938 87.4546 209.111 85.2936C208.349 83.0056 207.141 81.0989 205.552 79.5735C203.963 77.9846 201.993 76.777 199.641 75.9507C197.29 75.0609 194.557 74.616 191.443 74.616H183.498V110.844H191.443V110.78Z" fill="#FC5251"/>
<path d="M253.284 111.543C251.504 114.721 249.089 117.263 246.038 119.17C243.051 121.14 239.365 122.093 234.979 122.093C232.056 122.093 229.323 121.585 226.78 120.568C224.302 119.487 222.141 118.089 220.297 116.246C218.454 114.403 216.992 112.242 215.976 109.763C214.959 107.221 214.45 104.488 214.45 101.501C214.45 98.7042 214.959 96.0984 215.976 93.6196C216.992 91.0773 218.391 88.9164 220.17 87.0732C221.95 85.1665 224.047 83.7047 226.462 82.5607C228.941 81.4802 231.611 80.9082 234.598 80.9082C237.712 80.9082 240.445 81.4167 242.86 82.4971C245.275 83.514 247.309 84.9123 248.898 86.7555C250.551 88.5351 251.758 90.696 252.584 93.1112C253.411 95.5899 253.856 98.2593 253.856 101.119C253.856 101.501 253.856 101.818 253.856 102.073C253.792 102.391 253.792 102.708 253.792 102.963C253.728 103.217 253.729 103.535 253.729 103.852H224.683C224.874 105.441 225.318 106.776 225.954 107.92C226.653 109 227.479 109.954 228.369 110.78C229.386 111.543 230.467 112.051 231.611 112.433C232.755 112.75 233.962 112.877 235.17 112.877C237.521 112.877 239.492 112.369 241.017 111.289C242.606 110.208 243.814 108.81 244.703 107.221L253.284 111.543ZM243.941 96.5433C243.877 95.8441 243.623 95.0814 243.242 94.2552C242.86 93.429 242.288 92.6027 241.526 91.9036C240.763 91.1409 239.873 90.5689 238.665 90.0604C237.585 89.6155 236.25 89.3613 234.661 89.3613C232.437 89.3613 230.53 89.9969 228.814 91.268C227.162 92.5392 225.954 94.3188 225.255 96.5433H243.941Z" fill="#5A90FC"/>
<path d="M245.021 82.2429H256.78L266.377 106.839H266.949L276.609 82.2429H288.24L271.652 120.822H261.483L245.021 82.2429Z" fill="#FBC235"/>
<path d="M283.537 122.411C279.151 122.411 275.338 121.203 272.033 118.852C268.792 116.5 266.504 113.195 265.232 109L274.83 105.06C275.529 107.539 276.609 109.382 278.071 110.653C279.596 111.86 281.376 112.496 283.537 112.496C285.952 112.496 287.859 111.733 289.193 110.144C290.528 108.619 291.227 106.458 291.227 103.662V65.718H301.651V103.598C301.651 106.712 301.142 109.445 300.189 111.797C299.235 114.149 297.964 116.055 296.312 117.708C294.723 119.233 292.816 120.441 290.592 121.203C288.367 121.966 286.016 122.411 283.537 122.411Z" fill="#39AA68"/>
<path d="M322.688 117.136H322.052C320.845 118.598 319.446 119.805 317.73 120.822C316.078 121.839 313.917 122.347 311.311 122.347C309.341 122.347 307.498 122.03 305.718 121.331C304.002 120.695 302.54 119.805 301.205 118.725C299.934 117.581 298.917 116.246 298.218 114.593C297.519 113.005 297.138 111.225 297.138 109.318C297.138 107.348 297.519 105.632 298.282 104.043C299.044 102.454 300.125 101.056 301.523 99.9118C302.921 98.7678 304.51 97.9415 306.417 97.3695C308.324 96.7339 310.421 96.4161 312.582 96.4161C315.061 96.4161 317.095 96.6068 318.684 97.0517C320.272 97.4331 321.607 97.8144 322.624 98.1957V97.0517C322.624 95.0179 321.798 93.3654 320.209 92.0943C318.62 90.7596 316.65 90.0604 314.235 90.0604C310.739 90.0604 307.752 91.5223 305.337 94.4459L298.091 89.6155C302.095 84.531 307.625 82.0522 314.552 82.0522C320.463 82.0522 324.912 83.4505 328.026 86.247C331.141 88.98 332.666 93.0476 332.666 98.45V121.203H322.688V117.136ZM322.688 105.759C321.48 105.187 320.272 104.742 319.001 104.424C317.794 104.043 316.395 103.852 314.87 103.852C312.455 103.852 310.548 104.424 309.214 105.505C307.942 106.522 307.307 107.856 307.307 109.382C307.307 110.907 307.942 112.178 309.15 113.068C310.421 114.021 311.883 114.466 313.535 114.466C314.87 114.466 316.141 114.212 317.222 113.767C318.366 113.259 319.319 112.623 320.082 111.861C320.908 111.034 321.544 110.081 321.925 109.064C322.497 107.984 322.688 106.903 322.688 105.759Z" fill="#568EF4"/>
<path d="M329.552 83.2598H339.086V88.2172H339.721C340.929 86.3741 342.518 84.8487 344.488 83.7047C346.522 82.5607 348.81 81.9886 351.289 81.9886C354.149 81.9886 356.627 82.6878 358.534 84.0225C360.504 85.3572 361.903 87.0097 362.729 88.9799C363.937 87.0732 365.589 85.4207 367.75 84.086C369.911 82.6878 372.517 81.9886 375.631 81.9886C377.983 81.9886 379.953 82.37 381.669 83.1327C383.385 83.8318 384.783 84.9123 385.864 86.247C387.008 87.5817 387.834 89.2342 388.406 91.1409C388.978 92.984 389.232 95.0179 389.232 97.2424V121.14H379.063V99.0855C379.063 93.9374 376.966 91.3315 372.707 91.3315C371.373 91.3315 370.165 91.6493 369.148 92.2849C368.131 92.8569 367.241 93.6832 366.542 94.7001C365.843 95.6534 365.335 96.861 364.89 98.2593C364.508 99.6575 364.318 101.119 364.318 102.772V121.203H354.149V99.1491C354.149 94.0009 351.924 91.3951 347.475 91.3951C346.204 91.3951 345.06 91.7129 344.043 92.3485C343.09 92.9205 342.264 93.7467 341.564 94.7636C340.865 95.717 340.357 96.9246 340.039 98.3228C339.658 99.7211 339.467 101.183 339.467 102.835V121.267H329.298V83.2598H329.552Z" fill="#F45658"/>
<path d="M401.435 122.411C398.957 122.411 396.732 122.093 394.762 121.458C392.855 120.822 391.203 120.059 389.741 119.042C388.342 118.026 387.135 116.818 386.182 115.547C385.228 114.212 384.465 112.877 383.957 111.543L392.982 107.666C393.872 109.636 395.016 111.098 396.478 112.051C398.003 113.005 399.656 113.449 401.435 113.449C403.278 113.449 404.74 113.132 405.821 112.433C406.901 111.733 407.473 110.971 407.473 110.017C407.473 109 407.028 108.174 406.075 107.539C405.185 106.839 403.66 106.267 401.435 105.759L396.096 104.615C394.889 104.361 393.681 103.916 392.41 103.407C391.203 102.835 390.059 102.136 388.978 101.246C387.961 100.357 387.071 99.3397 386.436 98.0686C385.8 96.7975 385.419 95.3992 385.419 93.7467C385.419 91.9036 385.8 90.2511 386.563 88.7893C387.389 87.3274 388.47 86.1199 389.868 85.1665C391.266 84.1496 392.855 83.3869 394.762 82.8149C396.668 82.2429 398.702 81.9886 400.863 81.9886C404.486 81.9886 407.727 82.6878 410.524 84.1496C413.384 85.5478 415.481 87.7723 416.816 90.8866L408.045 94.4458C407.346 92.9205 406.266 91.84 404.867 91.2044C403.469 90.5053 402.071 90.1875 400.673 90.1875C399.211 90.1875 397.94 90.5053 396.859 91.1409C395.779 91.7129 395.207 92.4756 395.207 93.3654C395.207 94.2552 395.652 94.9543 396.541 95.4628C397.495 95.9712 398.702 96.4161 400.228 96.861L406.011 98.2593C409.888 99.2126 412.748 100.674 414.592 102.772C416.498 104.806 417.452 107.157 417.452 109.954C417.452 111.606 417.07 113.195 416.308 114.657C415.545 116.182 414.401 117.517 413.003 118.661C411.604 119.805 409.888 120.695 407.918 121.394C406.075 122.093 403.85 122.411 401.435 122.411Z" fill="#F9C531"/>
</svg>
