<svg width="538" height="369" viewBox="0 0 538 369" fill="none" xmlns="http://www.w3.org/2000/svg">
<path d="M339.883 348.153V262.562H347.326V348.153H339.883Z" fill="#246EB2"/>
<path d="M379.164 348.153V262.562H387.433V348.153H379.164Z" fill="#246EB2"/>
<path d="M16.9531 344.336V265.456H24.4277V344.336H16.9531Z" fill="#246EB2"/>
<path d="M56.4025 344.336V265.456H64.7077V344.336H56.4025Z" fill="#246EB2"/>
<path d="M324.584 325.825V240.234H332.027V325.825H324.584Z" fill="#246EB2"/>
<path d="M363.865 325.825V240.234H372.135V325.825H363.865Z" fill="#246EB2"/>
<path d="M30.5977 322.008V243.128H38.0723V322.008H30.5977Z" fill="#246EB2"/>
<path d="M70.0471 322.008V243.128H78.3522V322.008H70.0471Z" fill="#246EB2"/>
<path d="M131.487 167.982L133.242 149.267H137.627C139.82 155.07 144.223 165.632 143.872 166.677C143.521 167.721 140.99 164.786 140.259 162.755C140.259 163.19 140.961 164.936 140.259 166.677C139.382 168.853 141.969 176.928 141.53 177.363C141.179 177.711 138.651 173.64 137.627 171.899C138.066 173.06 138.68 175.381 137.627 175.381C136.575 175.381 133.095 170.448 131.487 167.982Z" fill="#FFBEBE"/>
<path d="M152.941 298.121L155.266 310.244L144.719 314.562V298.121H152.941Z" fill="#F9A19A"/>
<path d="M181.058 298.121L183.383 310.244L172.836 314.562V298.121H181.058Z" fill="#F9A19A"/>
<path d="M154.851 308.045C154.851 308.045 184.168 316.265 182.175 322.493C182.175 322.493 183.753 324.818 173.621 324.486C163.488 324.07 144.719 322.493 144.719 322.493V308.045C144.719 308.045 151.363 316.265 154.851 308.045Z" fill="#381516"/>
<path d="M182.968 308.045C182.968 308.045 212.285 316.265 210.292 322.492C210.292 322.492 211.87 324.817 201.738 324.485C191.606 324.07 172.836 322.492 172.836 322.492V308.045C172.836 308.045 179.48 316.265 182.968 308.045Z" fill="#381516"/>
<path d="M149.681 15.4533C149.681 25.6852 155.508 27.4804 157.486 29.3573L176.883 26.4196C177.213 25.93 180.732 21.7683 182.323 19.3702C183.418 17.7207 182.076 13.7397 182.323 12.5157C182.571 11.2916 180.345 8.10915 176.883 4.68186C173.421 1.25458 170.453 1.7442 168.475 0.520168C166.497 -0.703862 160.948 0.520098 159.217 1.25452C157.486 1.98893 154.519 4.19219 153.53 4.6818C152.54 5.17141 152.648 8.10915 151.659 9.57799C150.67 11.0468 149.681 11.4159 149.681 15.4533Z" fill="#452626"/>
<path d="M141.411 240.321L146.289 137.88L192.361 139.506L206.995 226.229C200.852 241.225 188.241 271.975 186.941 275.011C185.64 278.046 183.869 295.065 183.146 303.195H172.848C174.113 290.187 176.534 262.002 176.1 253.33C175.667 244.658 182.062 231.649 185.314 226.229L171.222 167.149H166.886L157.672 304.821H150.625L141.411 240.321Z" fill="#313131"/>
<path d="M140.031 153.515H132.588L131.348 144.212H128.454C128.247 131.118 127.957 103.318 128.454 96.8679C129.074 88.805 134.863 58.8275 135.69 57.7938C136.351 56.9668 142.443 54.2792 145.406 53.0387C146.096 50.6957 148.838 45.3893 154.296 42.9084C159.754 40.4275 170.629 41.8747 175.384 42.9084C177.658 44.4245 182.331 48.4077 182.827 52.2118C184.756 52.005 189.318 52.0877 192.13 54.0724C195.645 56.5533 207.842 94.5938 207.842 95.4207C207.842 96.2477 211.77 110.306 210.944 112.374C211.495 115.199 209.083 121.098 195.024 122.09L192.957 121.47H191.303C191.579 127.121 192.295 138.671 192.957 139.663C193.619 140.656 192.13 143.66 191.303 145.039H146.854L146.027 91.4926C145.751 91.6994 144.952 92.4023 143.959 93.5601C142.967 94.7178 141.341 105.758 140.651 111.133L141.478 142.558L140.031 143.178V153.515Z" fill="#006837"/>
<path d="M157.95 55.5969L166.84 60.5587L174.283 55.5969L173.249 36.7835L160.431 34.0958L157.95 55.5969Z" fill="#E29893"/>
<path d="M163.456 12.0696C170.747 14.939 177.433 15.5958 180.279 14.7758C179.358 16.5799 177.517 20.877 177.517 23.6324C177.517 26.3878 175.843 34.6213 175.006 38.3935C171.591 39.7712 163.205 37.8195 159.438 36.6714C158.434 33.1451 156.124 25.9942 154.919 25.6006C153.412 25.1085 151.152 19.9422 152.659 18.22C153.864 16.8423 157.179 19.4501 158.685 20.9262L162.857 11.7896C162.527 11.5775 162.954 11.5775 162.954 11.5775L162.857 11.7896C162.964 11.8582 163.15 11.9492 163.456 12.0696Z" fill="#F9A19A"/>
<path d="M484.813 337.402L482.534 351.427L492.871 356.423V337.402H484.813Z" fill="#F9A19A"/>
<ellipse cx="43.8292" cy="258.634" rx="43.8292" ry="12.6112" fill="#084E82"/>
<ellipse cx="364.566" cy="257.436" rx="37.7884" ry="13.7002" fill="#084E82"/>
<path d="M518.921 336.989H508.171V351.874H518.921V336.989Z" fill="#F9A19A"/>
<path d="M309.26 326.87C309.26 326.87 306.648 325.992 304.308 330.308C301.968 334.625 300.66 342.568 299.971 347.111C299.277 351.75 298.628 358.404 299.868 359.939C301.191 361.481 298.702 365.499 306.656 357.796C314.61 350.094 311.819 350.83 316.913 342.23C322.008 333.63 324.876 330.218 315.405 325.729L309.26 326.87Z" fill="#DD2C48"/>
<path d="M456.736 74.2587L461.811 82.6639C461.811 82.6639 469.158 88.873 474.081 82.6639C474.081 82.6639 478.246 82.0581 470.521 70.3969L465.976 58.13L454.312 65.0207L456.736 74.2587Z" fill="#BB7973"/>
<path d="M446.436 34.959C446.436 34.959 441.058 37.0792 440.453 43.0612C439.847 49.0432 439.165 56.8425 441.21 60.4015C443.331 63.9604 444.921 67.595 448.784 72.0626L450.98 74.6372C452.041 75.8487 453.707 76.2273 455.146 75.5458C459.463 73.577 467.719 68.8823 467.264 62.2188C466.734 53.2079 467.264 49.649 467.264 49.649C467.264 49.649 467.567 47.5288 462.796 40.941C458.024 34.3532 455.903 34.959 451.132 34.959C446.36 34.959 446.436 34.959 446.436 34.959Z" fill="#F9A19A"/>
<path d="M264.84 333.268L262.997 340.615L261.321 347.39L270.034 348.153L274.139 337.466L265.51 333.268H264.84Z" fill="#BB7973"/>
<path d="M262.58 344.509L241.756 357.424C241.756 357.424 231.469 363.206 233.46 364.652C235.368 366.098 243.001 365.905 243.001 365.905L268.387 364.459C268.387 364.459 276.683 365.616 274.028 357.038C271.374 348.46 268.802 344.412 268.802 344.412H262.58V344.509Z" fill="#DD2C48"/>
<path d="M427.349 40.3352C427.349 40.3352 430.605 49.8762 439.467 49.8762C439.846 49.8762 438.028 49.2704 440.755 49.2704L442.345 46.5444L447.723 43.2884L445.526 47.6045C445.45 47.756 445.602 47.9074 445.753 47.8317L450.677 45.1057L456.963 40.3352L451.283 46.923L456.963 46.0144L460.22 43.5913L463.477 48.0589L467.112 55.7068L467.339 62.1431L468.551 64.5662H470.066L470.142 68.8824V60.0986V51.3906C470.142 51.3906 471.126 45.7115 470.142 42.1526C469.157 38.5936 467.112 32.0058 463.78 31.4001C460.523 30.7943 454.236 26.9325 451.207 29.2799C448.177 31.6272 448.48 34.6561 444.617 34.959C440.755 35.2619 440.755 40.3352 440.755 40.3352L436.286 40.941L434.468 43.3641L427.349 40.3352Z" fill="black" stroke="black" stroke-width="0.911966" stroke-miterlimit="10"/>
<path d="M316.789 110.173C316.789 110.173 309.645 110.104 310.616 105.904C311.379 102.53 313.598 98.7433 317.621 97.1597C318.661 96.7465 319.84 96.4711 321.089 96.4711C327.262 96.1957 340.994 95.0941 342.589 110.242C344.184 125.389 335.099 124.012 335.099 124.012L316.789 110.173Z" fill="black"/>
<path d="M317.555 99.6496C317.555 99.6496 323.223 92.805 332.072 93.4963C340.921 94.1877 348.042 100.617 348.387 103.867C348.733 107.116 355.231 122.396 355.231 122.396L361.384 140.925L348.387 142.238L317.555 99.6496Z" fill="black"/>
<path d="M332.576 110.257C332.576 110.257 324.131 99.5779 318.247 103.754C312.362 107.929 317.624 117.924 318.247 120.457C318.87 122.99 323.439 129.767 325.723 130.451C328.008 131.067 332.576 128.261 332.576 128.261L336.453 134.627C336.453 134.627 342.337 137.845 348.152 132.71L340.33 117.924L338.668 110.257C338.668 110.257 339.845 96.9766 331.746 104.37L332.576 110.257Z" fill="#BB7973"/>
<path d="M345.962 129.817C345.962 129.817 370.545 140.777 373.286 145.427C376.027 150.076 395.128 181.379 400.195 193.419C405.261 205.458 407.586 211.021 404.845 214.093C402.105 217.249 385.827 216.418 385.827 216.418L363.403 216.501H353.271L350.945 205.458C350.945 205.458 371.625 205.458 379.432 204.296C387.239 203.133 385.827 199.231 385.827 199.231C385.827 199.231 381.01 179.303 372.788 176.231C364.566 173.076 379.017 209.776 379.017 209.776L350.862 215.671C350.862 215.671 345.879 211.769 342.723 202.801C339.567 193.834 339.235 195.245 333.421 188.271C327.525 181.213 327.026 174.488 329.435 166.516C331.843 158.545 334.999 136.874 334.999 136.874L345.962 129.817Z" fill="#F9316D"/>
<path d="M354.856 223.779C354.856 223.779 292.822 225.275 288.652 233.292C284.556 241.308 288.652 245.37 288.652 245.37L262.976 341.889L270.437 346.912L283.824 323.825L297.211 296.141L303.429 324.787L313.744 322.221C313.744 322.221 315.792 280.963 313.086 270.916C310.306 260.868 310.306 260.868 310.306 260.868L345.712 261.83H368.39C368.39 261.83 389.019 264.396 387.336 245.797C385.581 227.199 379.07 221.214 379.07 221.214L354.856 223.779Z" fill="#072B47"/>
<path d="M342.524 120.324C342.524 120.324 340.304 134.685 342.524 142.177C344.744 149.67 345.854 151.335 345.854 151.335H352.761C352.761 151.335 351.034 140.582 352.761 132.395C354.487 124.209 352.761 122.613 352.761 122.613L342.524 120.324Z" fill="black"/>
<path d="M350.163 209.769C350.163 209.769 340.612 203.542 334.051 205.452C327.49 207.361 324.998 212.094 324.998 212.094V215.997L350.08 214.419V209.769H350.163Z" fill="#BB7973"/>
<path d="M348.184 212.722L326.076 214.014L307.848 178.187L303.058 169.167C303.058 169.167 300.324 164.183 294.671 164.183C290.426 164.115 241.964 164.183 241.964 164.183C241.964 164.183 237.938 164.931 239.988 170.709C241.964 176.488 260.339 216.665 260.339 216.665H353.528" fill="#999999"/>
<path d="M280.824 197.307C282.548 196.701 283.147 193.94 282.163 191.139C281.179 188.338 278.984 186.559 277.26 187.164C275.537 187.77 274.937 190.531 275.922 193.332C276.906 196.133 279.101 197.912 280.824 197.307Z" fill="white"/>
<path d="M155.703 317.41L165.068 325.451L159.5 335.395L149.268 322.528L155.703 317.41Z" fill="#F9A19A"/>
<path d="M163.4 324.285C163.4 324.285 191.463 312.472 193.778 318.586C193.778 318.586 196.461 319.424 188.323 325.47C180.135 331.452 164.462 341.9 164.462 341.9L155.47 330.592C155.47 330.592 165.786 332.89 163.4 324.285Z" fill="black" stroke="black" stroke-miterlimit="10"/>
<path d="M116.706 321.187L119.032 333.31L108.484 337.627V321.187H116.706Z" fill="#F9A19A"/>
<path d="M118.617 329.989C118.617 329.989 147.934 338.209 145.941 344.436C145.941 344.436 147.519 346.761 137.386 346.429C127.254 346.014 108.484 344.436 108.484 344.436V329.989C108.484 329.989 115.128 338.126 118.617 329.989Z" fill="black" stroke="black" stroke-miterlimit="10"/>
<path d="M2.68764 215.838C2.68764 215.838 0 232.194 0 243.335C0 254.475 15.9011 257.537 38.9634 257.893C62.0256 258.25 84.2834 257.893 84.2834 257.893C84.2834 257.893 102.637 262.973 105.319 276.253C107.911 289.621 108.865 297.554 108.865 309.318C108.865 321.082 108.865 324.915 108.865 324.915L117.804 328.658C117.804 328.658 128.531 292.652 128.531 290.958C128.441 289.265 153.195 328.658 153.195 328.658L156.297 316.935L137.112 276.253C137.112 276.253 128.531 254.654 117.804 241.138C103.084 235.871 93.2222 230.354 64.2603 228.304C35.2985 226.254 37.0067 215.838 37.0067 215.838H2.68764Z" fill="#141B36"/>
<path d="M119.083 368V222.041H124.872V368H119.083Z" fill="#246EB2"/>
<path d="M161.672 342.364V224.108H167.461V342.364H161.672Z" fill="#246EB2"/>
<path d="M65.7441 216.665H471.452L471.784 236.926H71.973L65.7441 216.665Z" fill="#084E82"/>
<path d="M68.2641 130.773C68.2641 130.773 58.69 131.934 56.9417 129.695C55.1934 127.457 57.8575 124.388 56.9417 124.223C56.0259 124.057 53.1121 122.896 50.9475 118.833C48.7829 114.77 49.6154 111.95 50.9475 111.95C52.2795 111.95 54.7771 111.121 55.6097 111.95C55.6097 111.95 54.1944 104.902 58.9398 102.829C63.6852 100.756 65.6833 97.6876 70.5952 96.8584C75.5071 96.0292 79.5865 91.1368 79.5865 91.1368L82.5004 89.3125C82.5004 89.3125 86.2467 90.3905 86.996 95.117C87.8286 99.8436 86.5798 102.58 83.1664 105.482C79.753 108.385 76.4229 114.106 76.4229 114.106L69.0966 130.939L68.2641 130.773Z" fill="black"/>
<path d="M58.3008 144.94C68.8725 133.227 67.9711 132.728 67.9711 132.728L76.494 137.297L68.7906 150.921L58.3008 144.94Z" fill="#F9A19A"/>
<path d="M69.5529 124.897C69.5529 124.897 60.6259 118.207 62.2111 124.897C63.7963 131.587 68.8855 134.23 68.8855 134.23C68.8855 134.23 71.9724 139.02 81.9006 137.947C91.8288 136.873 92.4128 134.808 92.4128 134.808C92.4128 134.808 95.4997 124.154 87.9076 116.886C87.9076 116.886 84.9875 106.727 78.8971 107.553C72.8067 108.379 64.7974 115.812 64.7974 115.812C64.7974 115.812 64.3803 122.502 69.5529 124.897Z" fill="#F9A19A"/>
<path d="M56.5776 138.103C56.5776 138.103 26.9564 137.719 8.26981 202.4C8.02066 203.396 6.2024 205.708 2.89453 215.838C2.89453 215.838 15.8694 218.495 37.2136 215.838L59.335 180.692C59.335 180.692 94.4491 212.998 103.169 212.832C111.807 212.665 117.843 214.184 117.843 214.184L126.341 212.832V207.351C126.341 207.351 109.066 208.514 98.6847 194.648C88.3033 180.781 81.7422 162.847 81.7422 162.847C81.7422 162.847 78.0049 143.749 56.5776 138.103Z" fill="#E73026"/>
<path d="M118.484 216.584V211.851H175.79L203.031 156.304C203.031 156.304 212.415 153.647 210.007 158.961C207.598 164.358 184.51 216.501 184.51 216.501H118.484V216.584Z" fill="#999999"/>
<path d="M126.097 207.453C126.097 207.453 139.385 203.467 145.365 207.453C151.344 211.438 151.427 211.438 151.427 211.438C151.427 211.438 126.097 218.413 126.097 212.933C126.097 207.453 126.097 207.453 126.097 207.453Z" fill="#F9A19A"/>
<path d="M412.242 342.364V236.926H418.031V342.364H412.242Z" fill="#246EB2"/>
<path d="M444.907 368V236.926H450.696V368H444.907Z" fill="#246EB2"/>
<path d="M301.156 314.846C301.156 314.846 303.296 324.978 304.613 326.616C305.925 328.348 307.933 329.562 307.933 329.562L315.273 327.941L310.976 313.518L301.156 314.846Z" fill="#BB7973"/>
<path d="M482.719 347.739C482.719 347.739 453.345 357.231 455.343 364.421C455.343 364.421 453.762 367.105 463.913 366.722C474.065 366.338 492.871 364.421 492.871 364.421V347.739C492.955 347.739 486.298 357.231 482.719 347.739Z" fill="black" stroke="black" stroke-miterlimit="10"/>
<path d="M508.301 348.153C508.301 348.153 500.314 358.838 500.314 361.192C500.314 364.568 500.314 368 504.38 368C509.886 368 518.479 368 518.479 368C518.479 368 521.816 368 521.816 361.192C521.232 349.879 518.479 348.153 518.479 348.153C518.479 348.153 511.944 353.108 508.301 348.153Z" fill="black" stroke="black" stroke-miterlimit="10"/>
<path d="M529.504 232.611C530.735 177.021 523.032 165.801 519.955 166.427L474.265 171.802L468.269 193.924L471.553 263.912L482.835 339.033L493.092 341.537L498.221 201.31H503.349L507.965 341.537L519.247 339.033L529.504 232.611Z" fill="#106DB4"/>
<path d="M425.193 111.596C425.193 111.596 417.392 100.54 412.62 100.843C407.849 101.146 404.516 97.2085 404.516 97.2085C404.516 97.2085 401.487 100.237 404.516 101.676C407.546 103.191 412.015 105.538 408.985 106.749C405.955 107.961 397.321 111.52 397.321 111.52C397.321 111.52 391.943 112.731 389.217 116.593C386.49 120.455 387.702 120.455 387.702 120.455H396.488H406.41C406.41 120.455 418.074 116.896 419.589 118.032C421.103 119.168 425.269 125.528 425.269 125.528L431.555 127.346V122.575C431.48 122.651 429.435 114.019 425.193 111.596Z" fill="#F9A19A"/>
<path d="M461.332 83.443C461.332 83.443 453.786 86.2555 453.326 88.3486C453.326 92.4135 444.534 135.377 444.534 135.377L427.67 113.923L421.371 118.894L436.463 148.066C436.463 148.066 442.172 157.093 448.143 155.065C454.114 152.972 456.673 148.589 456.673 148.589L459.757 128.444L473.471 173.379L523.208 167.95L518.549 145.712L512.521 128.444L504.31 108.625L500.439 98.9447C500.439 98.9447 520.911 103.327 523.274 107.709C525.636 112.092 517.237 130.079 516.515 134.265C516.45 134.788 516.45 135.246 516.646 135.704C517.696 138.713 523.667 139.498 523.667 139.498L533.904 119.09L537.513 106.663C537.513 106.663 534.888 97.6366 517.565 90.3763C500.242 83.116 493.746 77.2292 483.379 78.5374C473.011 79.8456 461.332 83.443 461.332 83.443Z" fill="#F98531"/>
<path d="M518.658 137.933C518.658 137.933 515.17 138.7 511.534 143.243C507.974 147.711 508.504 153.087 508.504 153.087C508.504 153.087 510.625 155.207 512.367 155.51C514.109 155.813 513.806 149.68 518.957 145.591C524.107 141.502 522.429 139.065 522.429 139.065L518.658 137.933Z" fill="#F9A19A"/>
<path d="M189.566 111.838C189.566 111.838 184.822 106.958 181.199 106.993C177.525 107.042 175.993 106.462 175.993 106.462C175.993 106.462 171.023 102.291 172.983 109.195C174.943 116.098 179.985 119.919 187.963 119.707C195.994 119.482 189.566 111.838 189.566 111.838Z" fill="#F9A19A"/>
</svg>
