<svg width="500" height="344" viewBox="0 0 500 344" fill="none" xmlns="http://www.w3.org/2000/svg">
<path d="M56.0328 40.1406L53.9521 59.7579V72.0187L74.2382 69.5666L73.1979 59.7579L72.1576 43.5737L56.0328 40.1406Z" fill="#F8B788"/>
<path d="M35.9423 134.784L26.8896 147.231H33.1133L35.9423 143.837V134.784Z" fill="#494947"/>
<path d="M106.1 118.942C105.195 121.658 95.1618 122.337 90.2583 122.337L89.1267 105.363V165.337H37.6399L35.3767 107.06L29.153 122.337C23.2688 123.242 15.7627 120.451 12.7451 118.942C17.2714 101.025 26.8899 64.9655 29.153 64.0602C31.4162 63.155 44.8065 59.1567 51.2188 57.2708L64.0955 67.9802L74.982 57.2708C79.3197 58.0251 88.9004 60.4392 92.5214 64.0602C96.1425 67.6813 103.083 102.157 106.1 118.942Z" fill="#FF5E55"/>
<path d="M82.3895 59.5337C84.2083 64.9903 64.2008 121.678 53.9697 149.34H59.0853C66.8154 135.244 81.6316 84.7325 88.0734 61.2389L82.3895 59.5337Z" fill="#494947"/>
<path d="M26.3238 125.731L25.8764 122.337L14.4423 119.508C13.1221 122.714 11.1607 127.881 11.6133 131.955C12.0659 136.029 21.6089 137.047 26.3238 137.047H52.9159C56.3107 137.047 60.2712 135.35 62.5344 135.35C64.7975 135.35 64.2317 132.521 65.3633 131.955C66.2686 131.502 67.6265 134.029 68.1922 135.35C69.1352 135.538 71.1343 135.463 71.587 133.652C72.1528 131.389 69.3238 125.731 66.4949 125.731H60.2712C58.4607 125.731 54.6133 129.126 52.9159 130.823C46.1265 128.56 32.3589 126.486 26.3238 125.731Z" fill="#FFC8A1"/>
<path d="M95.3502 151.192C93.8414 141.762 91.5028 124.6 91.9554 122.337L104.969 120.073L106.666 149.494L95.3502 151.192Z" fill="#FFC8A1"/>
<path d="M85.4352 331.947C87.6984 332.852 89.773 337.228 90.5273 339.302C84.1151 339.679 71.2905 340.207 71.2905 339.302C71.2905 338.397 73.9309 334.021 75.251 331.947C77.7028 331.57 83.1721 331.042 85.4352 331.947Z" fill="#1F1F1F"/>
<path d="M26.7607 339.253V331.62L18.2202 327.167C17.7647 331.747 12.3367 333.74 9.67967 334.164C1.93624 333.655 0.000389099 337.344 0.000389099 339.253H26.7607Z" fill="#1F1F1F"/>
<path d="M73.5532 333.079H86.5664C88.0751 314.973 91.0927 277.857 91.0927 274.236C91.0927 270.615 89.9611 253.491 89.3953 245.381L92.79 165.039H44.6979L27.7242 251.605L18.1058 327.986L27.7242 333.079L44.6979 281.026V256.697L65.0664 189.934H69.0269L73.5532 333.079Z" fill="#106DB4"/>
<rect width="19.2368" height="3.39474" transform="matrix(-1 0 0 1 90.5273 339.302)" fill="white"/>
<rect width="26.0263" height="3.39474" transform="matrix(-1 0 0 1 26.0273 339.302)" fill="white"/>
<path d="M46.5575 19.884C43.6222 24.7762 49.4113 32.1145 52.6728 35.1721C62.2533 32.726 81.4145 27.1 81.4145 24.1647C81.4145 20.4955 82.026 19.884 81.4145 18.0494C80.8029 16.2149 80.8029 11.3226 78.3568 8.26495C75.9107 5.20732 75.2992 8.26495 73.4646 8.26495C71.63 8.26495 68.5724 7.65343 66.1263 8.26495C63.6802 8.87648 61.2341 9.48801 59.3995 11.3226C57.5649 13.1572 54.5073 11.9341 52.6728 13.1572C50.8382 14.3802 50.2267 13.7687 46.5575 19.884Z" fill="#1A1212"/>
<path d="M22.3633 192.494L26.8896 146.1L53.4817 148.929C53.4817 173.823 49.3326 192.494 47.258 198.718L22.3633 192.494Z" fill="#636160"/>
<path d="M60.2713 149.494H53.4819C53.4819 175.294 48.9555 193.437 46.6924 199.284H55.1792C57.4424 196.568 59.5169 164.959 60.2713 149.494Z" fill="#494947"/>
<path d="M117.981 147.797L89.126 151.757L93.0865 194.757L123.639 191.928L117.981 147.797Z" fill="#536B65"/>
<path d="M114.588 148.363L85.7324 152.323L89.6929 195.323L120.246 192.494L114.588 148.363Z" fill="#85BCAE"/>
<path d="M64.2913 22.33C57.4422 21.3516 54.9145 28.0376 54.5069 31.5029C52.0607 30.5245 51.4492 31.0952 51.4492 31.5029C51.6531 32.5221 52.3054 35.2944 53.2838 38.2297C54.5069 41.8989 55.7299 43.122 57.5645 46.1796C59.3991 49.2372 71.6296 52.2949 74.0757 52.2949C76.5218 52.2949 77.7449 48.0142 79.5795 46.1796C81.414 44.345 80.191 31.5029 80.8025 28.4453C81.414 25.3877 79.5795 19.8839 75.2988 22.33C71.0181 24.7761 72.8527 23.5531 64.2913 22.33Z" fill="#FFC8A1"/>
<path d="M139.966 16.154C144.945 6.64876 154.111 7.28999 158.072 8.79876C162.598 6.53563 172.216 8.79876 174.48 16.154C176.743 23.5093 174.48 44.4435 180.137 54.0619C184.664 61.7566 180.137 68.2066 177.309 70.4698C161.466 72.5443 130.348 74.5435 132.611 65.9435C135.44 55.1935 134.874 58.0224 137.137 44.4435C139.401 30.8645 133.743 28.0356 139.966 16.154Z" fill="#331B1B"/>
<path d="M125.139 118.25C122.423 111.46 126.271 97.6928 128.534 91.6577L141.547 95.6182C138.907 100.333 133.626 110.555 133.626 113.723C133.626 116.892 141.924 123.342 146.073 126.171L143.81 136.921C138.718 133.526 127.855 125.039 125.139 118.25Z" fill="#FDC4A4"/>
<path d="M183.415 113.723C184.321 111.913 180.398 99.7673 178.323 93.9208C178.323 89.3945 184.736 88.2629 187.942 88.2629C190.205 93.355 194.505 105.237 193.6 112.026C192.694 118.816 181.529 133.715 176.06 140.316V130.697C178.135 125.794 182.51 115.534 183.415 113.723Z" fill="#FDC4A4"/>
<path d="M124.573 92.6996C128.156 92.6996 135.875 96.5314 139.287 98.4473L146.325 72.5827C148.884 69.364 145.258 64.3443 143.126 62.2368C141.846 63.0032 138.392 64.8808 134.809 66.2602C131.227 67.6397 126.492 84.4613 124.573 92.6996Z" fill="#569548"/>
<path d="M189.639 89.9602C186.056 89.9602 176.639 94.268 173.227 96.1839L166.19 70.3193C163.631 67.1006 168.269 63.2125 170.402 61.105C171.681 61.8713 174.123 62.6173 177.705 63.9968C181.288 65.3762 187.719 81.7219 189.639 89.9602Z" fill="#569548"/>
<path d="M151.165 58.8419V41.8682H161.915C160.104 43.2261 162.669 53.7497 164.178 58.8419L168.704 62.2366L160.218 80.3419L146.639 62.2366L151.165 58.8419Z" fill="#FFAE80"/>
<path d="M146.64 23.763C150.261 23.763 157.578 19.6139 160.784 17.5393C163.048 20.1797 167.574 25.5735 167.574 26.0261C167.574 26.5919 170.969 29.4209 169.837 30.5525C168.705 31.684 167.574 32.8156 167.574 35.0788C167.574 37.3419 160.784 50.3551 154.561 48.0919C148.337 45.8288 146.64 35.6446 146.64 32.8156C146.64 29.9867 142.113 23.763 146.64 23.763Z" fill="#FDC4A4"/>
<rect x="142.678" y="330.421" width="10.1842" height="7.92105" fill="#FDC4A4"/>
<path d="M160.218 336.645L161.915 332.118L168.705 330.421C169.082 331.175 169.836 332.91 169.836 333.816C169.836 334.721 174.74 337.21 177.191 338.342C177.569 338.719 177.644 339.474 174.928 339.474C172.213 339.474 163.99 337.588 160.218 336.645Z" fill="#FDC4A4"/>
<path d="M138.207 208.483C134.137 184.599 136.511 161.405 138.207 152.793C144.086 160.601 170.426 156.046 182.862 152.793C187.384 156.927 190.022 216.138 190.776 245.226L169.861 331.919L160.817 333.641L165.339 265.895L174.948 248.097L162.513 187.24L154.034 331.919H142.164C140.845 317.183 138.207 286.219 138.207 280.248C138.207 272.784 135.946 265.321 142.164 257.283C148.382 249.245 143.294 238.337 138.207 208.483Z" fill="#072B47"/>
<path d="M152.297 336.079C149.581 337.437 145.131 336.645 143.245 336.079L141.547 336.645C139.85 337.21 139.284 340.039 139.85 341.737C140.416 343.434 153.429 342.302 155.126 341.737C156.824 341.171 155.692 334.381 152.297 336.079Z" fill="#FF4747"/>
<path d="M163.613 336.079C161.35 335.626 160.03 336.267 159.653 336.645V342.303C166.253 343.057 180.134 344.113 182.85 342.303C185.566 340.492 179.078 338.153 175.495 337.21C175.042 339.021 173.043 338.719 172.1 338.342C170.403 338.908 166.442 336.645 163.613 336.079Z" fill="#FF4747"/>
<path d="M147.771 59.9736L142.678 62.2368C145.394 71.2894 141.547 90.1491 139.284 98.4473C143.81 112.026 139.661 143.71 137.021 157.855C155.578 166.455 175.683 159.175 183.415 154.46C182.095 138.807 179.907 106.708 181.718 103.539C183.528 100.371 183.604 93.921 183.415 91.0921L173.231 62.2368L166.442 59.9736L160.784 73.5526L147.771 59.9736Z" fill="#74BE63"/>
<path d="M224.4 196.329L212.519 153.329L219.308 147.671L231.19 182.184L224.4 196.329Z" fill="#E49898"/>
<path d="M279.281 177.658L291.163 153.895L301.347 158.987C296.255 165.211 286.07 178.563 286.07 182.184V192.368C282.676 189.54 275.66 183.542 274.755 182.184C273.849 180.826 277.395 178.601 279.281 177.658Z" fill="#E49898"/>
<rect x="233.452" y="328.158" width="10.1842" height="7.92105" fill="#C4C4C4"/>
<rect x="261.742" y="328.158" width="10.1842" height="7.92105" fill="#C4C4C4"/>
<path d="M221.005 233.671C219.647 183.429 226.097 172 229.492 172.566H288.334L284.939 261.96L272.492 329.855L261.176 332.118L255.518 205.382H249.861L244.768 332.118L232.321 329.855L221.005 233.671Z" fill="#2D2D2D"/>
<path d="M250.426 67.329L239.11 57.1448L229.491 60.5395C228.171 61.4825 224.739 64.1606 221.57 67.329C218.402 70.4974 217.233 79.5878 217.044 83.7369C214.781 87.6974 213.65 103.54 210.821 117.118C208.619 127.688 208.369 149.934 210.821 160.684L225.531 158.421C224.965 154.838 223.721 145.068 223.268 134.658C222.815 124.247 225.908 108.82 229.491 103.54C232.698 110.706 232.886 126.511 232.886 132.395C232.886 139.75 225.531 177.092 225.531 182.184C251.331 189.426 278.526 179.167 288.899 173.132L279.281 129L284.373 99.579L286.07 119.382C286.636 128.434 284.939 149.934 286.07 156.158C286.976 161.137 297.009 162.759 301.912 162.947C301.158 157.29 295.689 139.75 300.215 119.382C305.873 93.9211 284.939 67.329 281.544 63.3685C278.828 60.2 267.588 57.8992 262.307 57.1448L250.426 67.329Z" fill="#C4C4C4"/>
<path d="M235.149 333.25C231.528 334.155 228.737 338.531 227.794 340.605H244.202V334.381C242.693 333.627 238.77 332.345 235.149 333.25Z" fill="#67B1E3"/>
<path d="M262.873 334.381C259.704 335.287 258.912 339.662 258.912 341.737H279.847V339.474C279.847 337.663 274.566 334.57 271.926 333.25C270.228 333.25 266.041 333.476 262.873 334.381Z" fill="#67B1E3"/>
<path d="M240.242 38.4736V59.4078L252.124 69.5921L262.874 60.5394L255.519 38.4736H240.242Z" fill="#D08989"/>
<path d="M228.926 20.3682C228.021 22.6314 232.321 27.7235 234.584 29.9867L257.781 27.7235C258.347 27.3463 259.705 26.2525 260.61 24.8946C261.742 23.1972 261.742 19.8025 262.308 18.1051C262.873 16.4077 259.479 13.013 258.913 11.8814C258.347 10.7498 255.518 7.92087 253.821 6.78929C252.123 5.65771 248.163 5.65771 245.334 5.65771C242.505 5.65771 238.545 6.78929 237.413 7.92087C236.281 9.05245 234.584 10.184 232.887 12.4472C231.189 14.7103 230.058 17.5393 228.926 20.3682Z" fill="#2D1313"/>
<path d="M236.847 19.8026C234.584 19.8026 234.772 25.8376 235.149 28.8552C234.584 28.8552 233.339 29.0815 232.886 29.9868C232.321 31.1184 235.149 32.25 235.149 32.8158C235.149 33.3815 236.847 34.5131 236.847 36.7763C236.847 39.0394 236.847 40.7368 239.676 44.6973C242.505 48.6579 254.952 45.8289 257.781 44.6973C260.61 43.5658 259.478 32.25 261.176 31.1184C262.873 29.9868 261.742 28.8552 261.176 25.4605C260.61 22.0658 258.347 27.1578 259.478 23.7631C260.61 20.3684 255.518 13.5789 254.952 15.2762C254.386 16.9736 253.255 19.8026 249.294 22.0657C245.334 24.3289 239.676 19.8026 236.847 19.8026Z" fill="#E49898"/>
<path d="M224.442 64.527L232.569 118.695L234.267 58.7002L229.406 60.6425L224.442 64.527Z" fill="#4E4E4E"/>
<path d="M270.41 58.7002L280.121 123.875L281.848 114.163V63.6638L280.337 62.1531L276.884 60.6425L273.863 59.5634L270.41 58.7002Z" fill="#4E4E4E"/>
<path d="M307.521 195.197L309.785 170.868H315.443C318.271 178.412 323.951 192.142 323.499 193.5C323.046 194.858 319.78 191.042 318.837 188.401C318.837 188.967 319.743 191.237 318.837 193.5C317.706 196.329 321.043 206.827 320.477 207.393C320.025 207.845 316.763 202.553 315.443 200.289C316.008 201.798 316.8 204.816 315.443 204.816C314.085 204.816 309.596 198.403 307.521 195.197Z" fill="#FFBEBE"/>
<path d="M401.469 196.329L399.206 172H393.548C390.719 179.544 385.174 194.971 385.627 196.329C386.079 197.687 388.078 192.746 389.021 190.105C389.021 190.671 389.248 192.368 390.153 194.632C391.285 197.461 388.456 207.079 389.021 207.645C389.474 208.097 392.228 203.684 393.548 201.421C392.982 202.93 392.19 205.947 393.548 205.947C394.906 205.947 399.394 199.535 401.469 196.329Z" fill="#FFBEBE"/>
<path d="M342.034 25.4604L338.073 54.8815L350.521 63.3683L359.007 54.8815V36.7762L342.034 25.4604Z" fill="#FCB6B6"/>
<path d="M341.469 6.78947C339.658 8.6 341.091 16.2193 342.034 19.8026L348.258 20.9342C351.087 19.2368 358.555 15.7289 365.798 15.2763C373.04 14.8237 375.227 7.92105 375.416 4.52632C375.605 4.14912 375.303 3.73421 372.587 5.09211C369.192 6.78947 365.232 2.82895 359.574 1.13158C353.916 -0.56579 350.521 0 349.39 0.56579C348.258 1.13158 347.692 4.52632 346.561 4.52632C345.429 4.52632 343.732 4.52632 341.469 6.78947Z" fill="#3D2D2D"/>
<path d="M362.969 36.7763C362.516 37.6816 359.385 38.2851 357.877 38.4737C353.727 38.4737 345.316 38.1342 344.863 36.7763C344.298 35.0789 343.732 28.8553 343.166 27.7237C342.6 26.5921 340.903 23.1974 339.771 22.0658C338.64 20.9342 339.206 18.6711 340.903 17.5395C342.261 16.6342 344.486 18.6711 345.429 19.8026C345.618 19.0482 346.221 17.3132 347.127 16.4079C348.258 15.2763 349.956 10.75 351.087 10.75C352.219 10.75 355.048 13.5789 356.745 14.1447C358.442 14.7105 365.232 14.1447 366.363 14.1447C367.495 14.1447 366.363 15.8421 365.232 17.5395C364.1 19.2368 363.534 35.6447 362.969 36.7763Z" fill="#FFBEBE"/>
<path d="M323.929 268.184L329.021 161.25L377.113 162.947L392.389 253.474C385.977 269.127 372.813 301.226 371.455 304.395C370.097 307.563 368.249 325.329 367.494 333.816H356.744C358.065 320.237 360.592 290.816 360.139 281.763C359.687 272.711 366.363 259.132 369.758 253.474L355.047 191.803H350.521L340.902 335.513H333.547L323.929 268.184Z" fill="#313131"/>
<path d="M334.68 334.382C331.964 334.834 327.513 339.097 325.627 341.171C331.473 341.548 343.393 342.076 344.298 341.171C345.203 340.266 342.789 336.268 341.469 334.382C340.337 334.193 337.395 333.929 334.68 334.382Z" fill="white"/>
<path d="M356.745 334.382V341.171H382.206C382.395 340.794 382.659 339.587 382.206 337.776C381.64 335.513 366.93 330.987 366.364 332.119C365.911 333.024 359.763 334.005 356.745 334.382Z" fill="white"/>
<rect x="325.627" y="340.605" width="19.2368" height="3.39474" fill="#C4C4C4"/>
<rect x="356.179" y="340.605" width="26.0263" height="3.39474" fill="#C4C4C4"/>
<path d="M379.376 164.645C377.113 168.718 342.6 166.342 325.626 164.645L321.1 110.895C321.1 112.969 320.534 117.797 318.271 120.513C315.442 123.908 318.271 137.487 321.1 144.276C323.363 149.708 320.157 166.531 318.271 174.263H308.653C306.39 167.285 301.863 152.537 301.863 149.368C301.863 145.408 306.39 66.1972 312.613 61.1051C317.592 57.0314 329.776 51.8639 335.245 49.7893L350.521 57.7104L360.705 49.7893L379.376 57.7104C385.412 73.5525 398.274 108.292 401.442 120.513C401.829 122.005 401.922 123.164 401.771 124.051C402.187 129.567 402.7 139.358 402.7 144.276C402.7 150.16 401.996 166.531 400.11 174.263H391.824C389.561 167.285 386.299 158.62 384.572 138.118L379.376 123.227V164.645Z" fill="#106DB4"/>
<path d="M415.021 100.778L417.285 91.7251H427.469L424.64 110.962C422.829 116.846 418.227 122.844 416.153 125.107C412.532 123.749 409.741 119.637 408.798 117.751C407.666 116.62 405.969 86.633 405.969 84.3699C405.969 82.1067 404.837 79.8435 403.706 77.5804C402.574 75.3172 401.442 71.9225 401.442 67.962C401.442 64.0015 412.192 57.2119 409.929 61.1725C408.235 64.1383 409.382 68.9878 410.309 71.4521C410.349 71.1438 410.409 70.7418 410.495 70.2251C411.061 66.8304 413.89 67.3962 413.324 67.962C412.758 68.5278 413.324 73.6199 413.324 75.3172C413.324 77.0146 411.627 82.1067 410.495 83.8041C409.59 85.162 413.135 95.6857 415.021 100.778Z" fill="#FFD29E"/>
<path d="M428.519 15.0224C433.498 5.51717 442.664 6.1584 446.625 7.66717C451.151 5.40404 460.769 7.66717 463.033 15.0224C465.296 22.3777 463.033 43.3119 468.69 52.9303C465.458 51.6256 461.954 52.96 459.458 52.9303C454.77 52.8745 452 52.3856 449.746 51.3624C439.693 51.3264 436.798 53.7498 426.337 53.7498C426.121 50.7323 425.69 44.4201 425.69 43.3119C427.954 29.7329 422.296 26.904 428.519 15.0224Z" fill="#331B1B"/>
<path d="M471.968 112.592C472.873 110.782 468.95 98.636 466.875 92.7895C466.875 88.2632 473.288 87.1316 476.494 87.1316C478.757 92.2237 483.057 104.105 482.152 110.895C481.247 117.684 470.082 132.583 464.612 139.184V129.566C466.687 124.662 471.062 114.403 471.968 112.592Z" fill="#FDC4A4"/>
<path d="M413.126 91.5678C416.709 91.5678 424.428 95.3996 427.84 97.3155L434.877 71.4508C437.436 68.2321 433.811 63.2125 431.679 61.105C430.399 61.8713 426.945 63.7489 423.362 65.1284C419.779 66.5078 415.045 83.3294 413.126 91.5678Z" fill="#6C5FFF"/>
<path d="M478.191 88.8287C474.609 88.8287 465.192 93.1364 461.78 95.0523L454.743 69.1877C452.184 65.969 456.822 62.0809 458.955 59.9734C460.234 60.7397 462.675 61.4858 466.258 62.8652C469.841 64.2447 476.272 80.5903 478.191 88.8287Z" fill="#6C5FFF"/>
<path d="M436.323 58.842L431.231 61.1052C433.947 70.1578 430.1 89.0175 427.836 97.3157C432.363 110.895 428.214 142.579 425.573 156.724C444.131 165.324 464.236 158.044 471.968 153.329C470.648 137.675 468.46 105.576 470.271 102.408C472.081 99.2394 472.157 92.7894 471.968 89.9605L461.784 61.1052L454.994 58.842L449.336 72.421L436.323 58.842Z" fill="#6C5FFF"/>
<path d="M439.719 57.7103V40.7366H450.469C448.658 42.0945 451.223 52.6182 452.732 57.7103L457.258 61.105L448.771 79.2103L435.192 61.105L439.719 57.7103Z" fill="#FFAE80"/>
<path d="M435.192 22.6314C437.41 19.7694 446.131 18.4823 449.337 16.4077C451.6 19.0481 456.126 24.4419 456.126 24.8946C456.126 25.4603 459.521 28.2893 458.389 29.4209C457.258 30.5525 456.126 33.9472 456.126 33.9472C453.863 33.9472 449.337 49.2235 443.113 46.9603C436.889 44.6972 435.192 34.513 435.192 31.684C435.192 28.8551 432.561 26.0261 435.192 22.6314Z" fill="#FDC4A4"/>
<rect x="431.231" y="329.289" width="10.1842" height="7.92105" fill="#FDC4A4"/>
<path d="M448.771 335.513L450.468 330.987L457.257 329.289C457.635 330.044 458.389 331.779 458.389 332.684C458.389 333.589 463.292 336.079 465.744 337.21C466.121 337.588 466.197 338.342 463.481 338.342C460.765 338.342 452.542 336.456 448.771 335.513Z" fill="#FDC4A4"/>
<path d="M426.704 209.342C422.631 185.805 425.007 162.947 426.704 154.46C432.589 162.155 458.954 157.667 471.402 154.46C475.928 158.534 478.568 216.886 479.323 245.553L457.299 329.325L450.178 331.699L453.862 265.921L463.481 248.382L451.033 188.408L441.33 330.987H431.402C430.082 316.465 426.704 285.95 426.704 280.066C426.704 272.71 424.441 265.355 430.665 257.434C436.889 249.513 431.796 238.763 426.704 209.342Z" fill="#FDC4A4"/>
<path d="M440.85 334.947C438.134 336.305 433.683 335.513 431.797 334.947L430.1 335.513C428.403 336.079 427.837 338.908 428.403 340.605C428.968 342.302 441.982 341.171 443.679 340.605C445.376 340.039 444.245 333.25 440.85 334.947Z" fill="#47B2FF"/>
<path d="M452.166 334.947C449.903 334.494 448.582 335.136 448.205 335.513V341.171C454.806 341.925 468.687 342.981 471.403 341.171C474.118 339.36 467.631 337.022 464.047 336.079C463.595 337.889 461.596 337.587 460.653 337.21C458.955 337.776 454.995 335.513 452.166 334.947Z" fill="#47B2FF"/>
<path d="M471.034 140.881C459.186 146.844 438.102 145.048 427.468 143.71L412.758 222.355C419.593 228.279 441.551 239.857 456.589 229.767C471.627 219.677 491.716 217.919 499.881 218.301C500.337 209.128 480.338 163.432 471.034 140.881Z" fill="#FE3E83"/>
</svg>
