<svg width="509" height="69" viewBox="0 0 509 108" fill="none" xmlns="http://www.w3.org/2000/svg">
<path d="M6.43707 21.987H28.0728C33.139 21.987 37.6986 22.7618 41.7515 24.3115C45.8045 25.8611 49.2614 28.0664 52.1223 30.9273C54.9833 33.7286 57.1588 37.0962 58.6488 41.0299C60.1985 44.9637 60.9733 49.2849 60.9733 53.9935C60.9733 58.7617 60.1985 63.1127 58.6488 67.0464C57.1588 70.9802 54.9833 74.3477 52.1223 77.149C49.2614 79.9504 45.8045 82.1258 41.7515 83.6755C37.6986 85.2252 33.139 86 28.0728 86H6.43707V21.987ZM27.5363 74.5563C31.0529 74.5563 34.1522 74.0795 36.8343 73.1259C39.5164 72.1126 41.7515 70.712 43.5396 68.9239C45.3277 67.1358 46.6687 64.9901 47.5628 62.4868C48.4568 59.9239 48.9038 57.0928 48.9038 53.9935C48.9038 50.8942 48.4568 48.0928 47.5628 45.5895C46.6687 43.0266 45.3277 40.8511 43.5396 39.0631C41.7515 37.275 39.5164 35.9041 36.8343 34.9505C34.1522 33.9373 31.0529 33.4306 27.5363 33.4306H18.5066V74.5563H27.5363ZM187.257 47.914H187.972C189.343 45.7087 191.19 43.9803 193.515 42.7286C195.839 41.4174 198.492 40.7617 201.472 40.7617C204.214 40.7617 206.628 41.2088 208.714 42.1028C210.8 42.9968 212.498 44.2783 213.81 45.9472C215.18 47.5564 216.194 49.5233 216.849 51.8478C217.565 54.1127 217.922 56.6458 217.922 59.4471V86H206.21V60.8776C206.21 57.7186 205.495 55.3941 204.065 53.9041C202.694 52.3544 200.667 51.5796 197.985 51.5796C196.376 51.5796 194.945 51.9372 193.694 52.6524C192.502 53.3081 191.459 54.2319 190.565 55.4239C189.73 56.5564 189.075 57.9272 188.598 59.5365C188.181 61.0862 187.972 62.755 187.972 64.5431V86H176.26V42.1922H187.257V47.914ZM330.5 80.2782H329.785C328.414 82.4835 326.566 84.2417 324.242 85.553C321.917 86.8046 319.265 87.4305 316.285 87.4305C310.742 87.4305 306.6 85.7318 303.858 82.3344C301.176 78.9371 299.835 74.4073 299.835 68.7451V42.1922H311.547V67.3146C311.547 70.4736 312.232 72.8279 313.603 74.3775C315.033 75.8676 317.09 76.6126 319.772 76.6126C321.381 76.6126 322.782 76.2848 323.974 75.6292C325.225 74.9139 326.268 73.9901 327.103 72.8577C327.997 71.6656 328.653 70.2948 329.07 68.7451C329.547 67.1358 329.785 65.4372 329.785 63.6491V42.1922H341.497V86H330.5V80.2782Z" fill="#4285F4"/>
<path d="M100.02 75.4504C97.9939 79.0265 95.2522 81.9172 91.7952 84.1225C88.3979 86.3278 84.2257 87.4305 79.2787 87.4305C75.941 87.4305 72.8417 86.8642 69.9807 85.7318C67.1794 84.5397 64.7357 82.9007 62.6496 80.8146C60.5635 78.7285 58.9245 76.2848 57.7324 73.4835C56.6 70.6226 56.0338 67.4934 56.0338 64.0961C56.0338 60.9372 56.6 57.957 57.7324 55.1557C58.8649 52.2948 60.4443 49.8213 62.4708 47.7352C64.4973 45.5895 66.8814 43.8909 69.6231 42.6392C72.4244 41.3876 75.494 40.7617 78.8317 40.7617C82.3482 40.7617 85.4774 41.3578 88.2191 42.5498C90.9608 43.6823 93.2555 45.2915 95.1032 47.3776C96.9508 49.4041 98.3515 51.818 99.3051 54.6193C100.259 57.4206 100.736 60.4603 100.736 63.7385C100.736 64.1557 100.736 64.5133 100.736 64.8113C100.676 65.1689 100.646 65.4968 100.646 65.7948C100.587 66.0928 100.557 66.4206 100.557 66.7782H67.5668C67.8052 68.5663 68.2821 70.1159 68.9973 71.4272C69.7721 72.6789 70.696 73.7517 71.7688 74.6457C72.9013 75.4802 74.1231 76.106 75.4344 76.5232C76.7456 76.8808 78.0867 77.0596 79.4575 77.0596C82.1396 77.0596 84.3449 76.4636 86.0734 75.2716C87.8615 74.0199 89.2621 72.4702 90.2754 70.6226L100.02 75.4504ZM89.3813 58.4637C89.3217 57.6888 89.0535 56.8246 88.5767 55.871C88.1595 54.9173 87.5039 54.0233 86.6098 53.1888C85.7754 52.3544 84.7025 51.669 83.3913 51.1326C82.1396 50.5961 80.6198 50.3279 78.8317 50.3279C76.3284 50.3279 74.1231 51.0432 72.2158 52.4736C70.3085 53.9041 68.9675 55.9008 68.1927 58.4637H89.3813ZM234.213 87.4305C231.352 87.4305 228.789 87.0728 226.524 86.3576C224.319 85.6424 222.382 84.7185 220.713 83.5861C219.104 82.3941 217.733 81.053 216.601 79.5629C215.468 78.0133 214.604 76.4636 214.008 74.9139L224.468 70.4438C225.481 72.7087 226.822 74.4073 228.491 75.5398C230.22 76.6126 232.127 77.149 234.213 77.149C236.359 77.149 238.058 76.7616 239.309 75.9868C240.561 75.212 241.187 74.2881 241.187 73.2153C241.187 72.0232 240.65 71.0696 239.577 70.3544C238.564 69.5795 236.776 68.8941 234.213 68.2981L228.044 66.957C226.673 66.659 225.243 66.1822 223.753 65.5266C222.323 64.8709 221.011 64.0365 219.819 63.0233C218.627 62.01 217.644 60.7882 216.869 59.3577C216.094 57.9272 215.707 56.2584 215.707 54.3511C215.707 52.2054 216.154 50.2981 217.048 48.6293C218.001 46.9604 219.283 45.5597 220.892 44.4273C222.501 43.2352 224.379 42.3412 226.524 41.7452C228.73 41.0895 231.084 40.7617 233.587 40.7617C237.76 40.7617 241.485 41.5962 244.763 43.265C248.041 44.8743 250.455 47.467 252.005 51.0432L241.902 55.1557C241.067 53.4273 239.846 52.1756 238.236 51.4008C236.627 50.6259 235.018 50.2385 233.409 50.2385C231.74 50.2385 230.279 50.5961 229.028 51.3114C227.776 51.967 227.15 52.8312 227.15 53.9041C227.15 54.9173 227.657 55.722 228.67 56.318C229.743 56.914 231.173 57.4504 232.962 57.9272L239.667 59.5365C244.137 60.6094 247.445 62.3378 249.591 64.7219C251.796 67.0464 252.899 69.8179 252.899 73.0365C252.899 74.9437 252.452 76.7616 251.558 78.4901C250.663 80.2186 249.382 81.7682 247.713 83.1391C246.104 84.4503 244.137 85.4934 241.813 86.2682C239.548 87.043 237.015 87.4305 234.213 87.4305ZM398.198 75.7186C395.039 79.5331 391.314 82.4537 387.023 84.4801C382.732 86.447 377.934 87.4305 372.629 87.4305C367.861 87.4305 363.42 86.5662 359.308 84.8378C355.255 83.1093 351.738 80.755 348.758 77.7749C345.778 74.7947 343.424 71.2782 341.695 67.2252C339.967 63.1127 339.103 58.7021 339.103 53.9935C339.103 49.2849 339.967 44.9041 341.695 40.8511C343.424 36.7386 345.778 33.1922 348.758 30.2121C351.738 27.232 355.255 24.8777 359.308 23.1492C363.42 21.4207 367.861 20.5565 372.629 20.5565C377.755 20.5565 382.255 21.4505 386.129 23.2386C390.063 25.0267 393.549 27.6194 396.589 31.0167L388.096 39.2419C386.189 37.0366 383.983 35.2783 381.48 33.9671C379.036 32.6558 376.116 32.0002 372.718 32.0002C369.738 32.0002 366.937 32.5366 364.314 33.6094C361.692 34.6227 359.397 36.0829 357.43 37.9902C355.523 39.8975 354.003 42.222 352.871 44.9637C351.738 47.6458 351.172 50.6557 351.172 53.9935C351.172 57.3312 351.738 60.3709 352.871 63.1127C354.003 65.7948 355.523 68.0895 357.43 69.9967C359.397 71.904 361.692 73.3941 364.314 74.4669C366.937 75.4802 369.738 75.9868 372.718 75.9868C376.295 75.9868 379.453 75.2716 382.195 73.8411C384.996 72.351 387.47 70.265 389.616 67.5828L398.198 75.7186Z" fill="#EA4335"/>
<path d="M139.06 74.8245C137.152 78.5199 134.47 81.5596 131.013 83.9437C127.616 86.2682 123.354 87.4305 118.229 87.4305C114.831 87.4305 111.702 86.8642 108.841 85.7318C106.04 84.5397 103.596 82.9007 101.51 80.8146C99.4837 78.7285 97.8744 76.2848 96.6824 73.4835C95.5499 70.6226 94.9837 67.4934 94.9837 64.0961C94.9837 60.6988 95.5499 57.5696 96.6824 54.7087C97.8744 51.8478 99.4837 49.4041 101.51 47.3776C103.596 45.2915 106.04 43.6823 108.841 42.5498C111.702 41.3578 114.831 40.7617 118.229 40.7617C123.295 40.7617 127.556 41.924 131.013 44.2485C134.47 46.573 137.003 49.5829 138.613 53.2783L127.884 57.7484C126.871 55.722 125.56 54.2021 123.951 53.1888C122.401 52.116 120.434 51.5796 118.05 51.5796C116.5 51.5796 115.04 51.8776 113.669 52.4736C112.298 53.0696 111.076 53.9041 110.004 54.9769C108.99 56.0498 108.186 57.361 107.59 58.9107C106.994 60.4603 106.696 62.1888 106.696 64.0961C106.696 66.0034 106.994 67.7318 107.59 69.2815C108.186 70.8312 108.99 72.1424 110.004 73.2153C111.076 74.2881 112.298 75.1226 113.669 75.7186C115.04 76.3146 116.5 76.6126 118.05 76.6126C120.494 76.6126 122.55 76.0762 124.219 75.0033C125.947 73.8709 127.318 72.2616 128.331 70.1755L139.06 74.8245ZM254.186 52.2054H246.497V42.1922H254.186V28.7816H265.898V42.1922H276.626V52.2054H265.898V69.1921C265.898 70.2053 265.987 71.159 266.166 72.053C266.404 72.8875 266.822 73.6027 267.418 74.1987C268.252 75.1524 269.444 75.6292 270.994 75.6292C272.007 75.6292 272.812 75.5398 273.408 75.361C274.004 75.1226 274.57 74.8245 275.106 74.4669L278.414 84.7483C277.043 85.404 275.553 85.8808 273.944 86.1788C272.394 86.5364 270.666 86.7152 268.759 86.7152C266.553 86.7152 264.557 86.3874 262.769 85.7318C261.04 85.0166 259.58 84.0629 258.388 82.8709C255.587 80.1888 254.186 76.3742 254.186 71.4272V52.2054ZM410.748 86V33.4306H392.868V21.987H440.699V33.4306H422.818V86H410.748Z" fill="#FBBC05"/>
<path d="M156.218 40.7617C159.616 40.7617 162.715 41.3578 165.516 42.5498C168.377 43.6823 170.821 45.2915 172.847 47.3776C174.933 49.4041 176.543 51.8478 177.675 54.7087C178.867 57.5696 179.463 60.6988 179.463 64.0961C179.463 67.4934 178.867 70.6226 177.675 73.4835C176.543 76.3444 174.933 78.8179 172.847 80.904C170.821 82.9305 168.377 84.5397 165.516 85.7318C162.715 86.8642 159.616 87.4305 156.218 87.4305C152.821 87.4305 149.692 86.8642 146.831 85.7318C144.03 84.5397 141.586 82.9305 139.5 80.904C137.473 78.8179 135.864 76.3444 134.672 73.4835C133.54 70.6226 132.973 67.4934 132.973 64.0961C132.973 60.6988 133.54 57.5696 134.672 54.7087C135.864 51.8478 137.473 49.4041 139.5 47.3776C141.586 45.2915 144.03 43.6823 146.831 42.5498C149.692 41.3578 152.821 40.7617 156.218 40.7617ZM156.218 76.6126C157.708 76.6126 159.139 76.3444 160.51 75.808C161.94 75.212 163.192 74.3775 164.265 73.3047C165.337 72.2318 166.172 70.9206 166.768 69.3709C167.424 67.8213 167.751 66.063 167.751 64.0961C167.751 62.1292 167.424 60.3709 166.768 58.8213C166.172 57.2716 165.337 55.9604 164.265 54.8875C163.192 53.8147 161.94 53.01 160.51 52.4736C159.139 51.8776 157.708 51.5796 156.218 51.5796C154.669 51.5796 153.208 51.8776 151.837 52.4736C150.467 53.01 149.245 53.8147 148.172 54.8875C147.099 55.9604 146.235 57.2716 145.579 58.8213C144.983 60.3709 144.685 62.1292 144.685 64.0961C144.685 66.063 144.983 67.8213 145.579 69.3709C146.235 70.9206 147.099 72.2318 148.172 73.3047C149.245 74.3775 150.467 75.212 151.837 75.808C153.208 76.3444 154.669 76.6126 156.218 76.6126ZM274.513 42.1922H285.51V48.2716H286.225C286.762 47.1988 287.477 46.2154 288.371 45.3213C289.265 44.4273 290.248 43.6525 291.321 42.9968C292.454 42.3412 293.646 41.8346 294.897 41.477C296.209 41.1194 297.49 40.9405 298.742 40.9405C300.291 40.9405 301.603 41.0896 302.675 41.3876C303.808 41.6856 304.762 42.073 305.536 42.5498L302.407 53.1888C301.692 52.8312 300.887 52.563 299.993 52.3842C299.159 52.1458 298.116 52.0266 296.864 52.0266C295.255 52.0266 293.795 52.3544 292.483 53.01C291.172 53.6061 290.04 54.4703 289.086 55.6027C288.192 56.7352 287.477 58.0762 286.94 59.6259C286.464 61.116 286.225 62.755 286.225 64.5431V86H274.513V42.1922ZM444.186 86.5364C442.04 86.5364 440.193 85.7914 438.643 84.3013C437.153 82.7517 436.408 80.904 436.408 78.7583C436.408 76.6126 437.153 74.7947 438.643 73.3047C440.193 71.8146 442.04 71.0696 444.186 71.0696C446.332 71.0696 448.15 71.8146 449.64 73.3047C451.13 74.7947 451.875 76.6126 451.875 78.7583C451.875 80.904 451.13 82.7517 449.64 84.3013C448.15 85.7914 446.332 86.5364 444.186 86.5364Z" fill="#34A853"/>
<path d="M477.461 61C474.19 58.1104 469.089 58.1907 466.947 58.592V19.7075C470.685 18.2627 475.514 20.3095 477.461 21.5135V25.1254C478.629 26.7307 483.184 28.9782 492.062 25.1254C500.94 21.2726 507.053 23.5201 509 25.1254V64.0099C506.274 62.204 499.071 59.6756 492.062 64.0099C485.053 68.3443 479.407 65.8159 477.461 64.0099V61Z" fill="#4285F4"/>
<path d="M459 20.6048L469 19V86H459V20.6048Z" fill="#4285F4"/>
<path d="M477.5 37.2086C469.1 33.2086 465.667 35.5419 465 37.2086V46.7086C465.667 45.042 469.1 42.7086 477.5 46.7086V50.2086C478.833 51.8753 483.7 54.2086 492.5 50.2086C501.3 46.2086 507.167 48.542 509 50.2086V40.7086C507.167 39.042 501.3 36.7086 492.5 40.7086C483.7 44.7086 478.833 42.3753 477.5 40.7086V37.2086Z" fill="white"/>
</svg>
