<svg width="110" height="136" viewBox="0 0 110 136" fill="none" xmlns="http://www.w3.org/2000/svg">
<path d="M108.122 0.719231C108.699 1.10539 109.172 1.62774 109.5 2.24016C109.827 2.85258 109.999 3.53623 110 4.23077V67.6923C110 68.5372 109.747 69.3627 109.273 70.0625C108.8 70.7622 108.127 71.3042 107.343 71.6185L105.769 67.6923L107.343 71.6185L107.318 71.6269L107.267 71.6523L107.072 71.7285C105.96 72.1706 104.84 72.5938 103.713 72.9977C101.479 73.8015 98.3738 74.8846 94.8538 75.9592C87.9492 78.0915 78.9546 80.3846 71.9231 80.3846C64.7561 80.3846 58.8246 78.0154 53.6631 75.9423L53.4262 75.8577C48.0615 73.7 43.4923 71.9231 38.0769 71.9231C32.1538 71.9231 24.2169 73.8692 17.4562 75.9592C14.4291 76.9026 11.4296 77.9326 8.46154 79.0477V131.154C8.46154 132.276 8.0158 133.352 7.22237 134.145C6.42895 134.939 5.35284 135.385 4.23077 135.385C3.1087 135.385 2.03259 134.939 1.23916 134.145C0.445741 133.352 0 132.276 0 131.154V4.23077C0 3.1087 0.445741 2.03259 1.23916 1.23916C2.03259 0.445741 3.1087 0 4.23077 0C5.35284 0 6.42895 0.445741 7.22237 1.23916C8.0158 2.03259 8.46154 3.1087 8.46154 4.23077V6.61692C10.3738 5.94846 12.6585 5.17846 15.1462 4.41692C22.0508 2.30154 31.0538 0 38.0769 0C45.1846 0 50.9723 2.34385 56.0238 4.39154L56.3877 4.54385C61.6508 6.66769 66.2369 8.46154 71.9231 8.46154C77.8462 8.46154 85.7831 6.51539 92.5438 4.42538C96.3965 3.22226 100.204 1.8788 103.958 0.397692L104.119 0.338462L104.153 0.321538H104.162" fill="#E74E46"/>
<path d="M34.664 36.784V47.216H43.56V50H35.272L31.56 47.856V36.144L35.272 34H43.56V36.784H34.664ZM46.7488 36.784V34H49.6927V31.312L52.7968 29.52V34H56.6368V36.784H52.7968V47.216H56.6368V50H53.4048L49.6927 47.856V36.784H46.7488ZM59.8425 36.784V34H62.7865V28.784L66.4985 26.64H69.7305V29.424H65.8905V34H69.7305V36.784H65.8905V50H62.7865V36.784H59.8425Z" fill="#FCFCFC"/>
</svg>
