<svg width="137" height="137" viewBox="0 0 137 137" fill="none" xmlns="http://www.w3.org/2000/svg">
<path d="M36.5512 37.1377C33.8638 37.8973 31.4029 39.3026 29.383 41.231C27.3631 43.1595 25.8455 45.5527 24.9624 48.2021L0 123.086L3.93072 127.017L44.0969 86.8511C43.2968 85.176 42.8125 83.3244 42.8125 81.3443C42.8125 74.2508 48.5628 68.5005 55.6562 68.5005C62.7497 68.5005 68.5 74.2508 68.5 81.3443C68.5 88.4378 62.7497 94.188 55.6562 94.188C53.6762 94.188 51.8245 93.7037 50.1495 92.9037L9.98334 133.07L13.9141 137.001L88.7985 112.038C91.4478 111.155 93.841 109.637 95.7695 107.618C97.698 105.598 99.1032 103.137 99.8628 100.449L111.312 59.938L77.0625 25.688L36.5512 37.1377ZM133.238 19.8468L117.154 3.7627C112.137 -1.25439 104 -1.25439 98.9825 3.7627L83.851 18.8942L118.106 53.1496L133.238 38.018C138.255 33.001 138.255 24.8666 133.238 19.8468Z" fill="#F0C52D"/>
</svg>
