<svg width="429" height="125" viewBox="0 0 429 125" fill="none" xmlns="http://www.w3.org/2000/svg">
<path d="M6.86358 32.8579H29.9327C35.3346 32.8579 40.1963 33.6841 44.5178 35.3364C48.8393 36.9888 52.5253 39.3402 55.5757 42.3906C58.6262 45.3776 60.9458 48.9682 62.5346 53.1626C64.1869 57.357 65.0131 61.9645 65.0131 66.985C65.0131 72.0692 64.1869 76.7084 62.5346 80.9028C60.9458 85.0972 58.6262 88.6878 55.5757 91.6748C52.5253 94.6617 48.8393 96.9813 44.5178 98.6336C40.1963 100.286 35.3346 101.112 29.9327 101.112H6.86358V32.8579ZM29.3608 88.9103C33.1103 88.9103 36.415 88.4019 39.2748 87.385C42.1346 86.3047 44.5178 84.8112 46.4243 82.9047C48.3309 80.9981 49.7608 78.7103 50.714 76.0411C51.6673 73.3084 52.144 70.2897 52.144 66.985C52.144 63.6804 51.6673 60.6935 50.714 58.0243C49.7608 55.2916 48.3309 52.972 46.4243 51.0654C44.5178 49.1589 42.1346 47.6972 39.2748 46.6804C36.415 45.6 33.1103 45.0598 29.3608 45.0598H19.7327V88.9103H29.3608Z" fill="#FC5251"/>
<path d="M104.264 89.8635C102.103 93.6766 99.1799 96.7589 95.494 99.1103C91.8715 101.462 87.4229 102.637 82.1482 102.637C78.5893 102.637 75.2846 102.034 72.2341 100.826C69.2472 99.5551 66.6416 97.8075 64.4173 95.5832C62.193 93.3589 60.4454 90.7533 59.1743 87.7664C57.9669 84.7159 57.3631 81.3794 57.3631 77.757C57.3631 74.3888 57.9669 71.2112 59.1743 68.2243C60.3818 65.1738 62.0659 62.5364 64.2267 60.3121C66.3874 58.0243 68.9295 56.2131 71.8528 54.8785C74.8398 53.5439 78.1127 52.8766 81.6715 52.8766C85.4211 52.8766 88.7575 53.5121 91.6809 54.7832C94.6042 55.9907 97.051 57.7065 99.0211 59.9308C100.991 62.0916 102.485 64.6654 103.501 67.6523C104.518 70.6392 105.027 73.8804 105.027 77.3757C105.027 77.8206 105.027 78.2019 105.027 78.5196C104.963 78.9009 104.931 79.2505 104.931 79.5682C104.868 79.886 104.836 80.2355 104.836 80.6168H69.6603C69.9145 82.5234 70.4229 84.1757 71.1855 85.5738C72.0117 86.9084 72.9968 88.0523 74.1407 89.0056C75.3482 89.8953 76.651 90.5626 78.0491 91.0075C79.4472 91.3888 80.8771 91.5794 82.3388 91.5794C85.1986 91.5794 87.55 90.9439 89.393 89.6729C91.2996 88.3383 92.793 86.686 93.8734 84.7159L104.264 89.8635ZM92.9201 71.7514C92.8566 70.9252 92.5706 70.0037 92.0622 68.9869C91.6173 67.9701 90.9183 67.0168 89.965 66.1271C89.0753 65.2374 87.9313 64.5065 86.5332 63.9346C85.1986 63.3626 83.5781 63.0766 81.6715 63.0766C79.0024 63.0766 76.651 63.8392 74.6173 65.3645C72.5837 66.8897 71.1538 69.0187 70.3276 71.7514H92.9201Z" fill="#5A90FC"/>
<path d="M94.2227 54.4019H108.426L120.056 84.1439H120.724L132.449 54.4019H146.557L126.443 101.112H114.146L94.2227 54.4019Z" fill="#FBC235"/>
<path d="M145.208 102.637C139.806 102.637 135.071 101.176 131.004 98.2523C127 95.329 124.204 91.2935 122.615 86.1458L134.436 81.2841C135.262 84.3346 136.596 86.6224 138.439 88.1477C140.282 89.6729 142.538 90.4355 145.208 90.4355C148.194 90.4355 150.514 89.4822 152.166 87.5757C153.819 85.6692 154.645 83 154.645 79.5682V32.8579H167.514V79.4729C167.514 83.286 166.91 86.6542 165.703 89.5776C164.559 92.4374 162.97 94.8523 160.936 96.8224C158.966 98.729 156.615 100.159 153.882 101.112C151.213 102.129 148.322 102.637 145.208 102.637Z" fill="#39AA68"/>
<path d="M193.509 96.1551H192.746C191.284 97.9346 189.505 99.4598 187.408 100.731C185.374 102.002 182.737 102.637 179.495 102.637C177.081 102.637 174.793 102.224 172.632 101.398C170.535 100.636 168.692 99.5551 167.103 98.157C165.514 96.7589 164.275 95.0748 163.385 93.1047C162.495 91.1346 162.051 88.9738 162.051 86.6224C162.051 84.2075 162.527 82.0467 163.481 80.1402C164.434 78.1701 165.768 76.486 167.484 75.0879C169.2 73.6897 171.202 72.6411 173.49 71.9421C175.841 71.1794 178.383 70.7981 181.116 70.7981C184.167 70.7981 186.677 71.0523 188.647 71.5608C190.617 72.0056 192.238 72.4822 193.509 72.9907V71.5608C193.509 69.0822 192.524 67.0486 190.553 65.4598C188.583 63.8075 186.137 62.9813 183.213 62.9813C178.892 62.9813 175.238 64.7925 172.251 68.415L163.195 62.2187C168.152 55.9907 174.92 52.8766 183.499 52.8766C190.744 52.8766 196.273 54.5925 200.086 58.0243C203.899 61.3925 205.806 66.4131 205.806 73.086V101.112H193.509V96.1551ZM193.509 82.1421C192.047 81.443 190.522 80.9028 188.933 80.5215C187.408 80.0766 185.724 79.8542 183.881 79.8542C180.894 79.8542 178.574 80.5215 176.922 81.8561C175.333 83.1271 174.538 84.7159 174.538 86.6224C174.538 88.529 175.301 90.0542 176.826 91.1981C178.415 92.3421 180.226 92.914 182.26 92.914C183.912 92.914 185.438 92.628 186.836 92.0561C188.234 91.4206 189.41 90.6262 190.363 89.6729C191.38 88.6561 192.142 87.5122 192.651 86.2411C193.223 84.9065 193.509 83.5402 193.509 82.1421Z" fill="#568EF4"/>
<path d="M201.912 54.4019H213.637V60.5028H214.4C215.862 58.215 217.832 56.372 220.31 54.9738C222.852 53.5757 225.649 52.8766 228.699 52.8766C232.258 52.8766 235.245 53.7028 237.66 55.3551C240.075 57.0075 241.791 59.0411 242.808 61.4561C244.269 59.1047 246.335 57.1028 249.004 55.4505C251.673 53.7346 254.914 52.8766 258.727 52.8766C261.587 52.8766 264.066 53.3533 266.163 54.3065C268.26 55.1963 269.976 56.4673 271.31 58.1196C272.709 59.772 273.757 61.7738 274.456 64.1252C275.155 66.4131 275.505 68.9234 275.505 71.6561V101.112H263.017V73.9439C263.017 67.5888 260.411 64.4112 255.2 64.4112C253.548 64.4112 252.086 64.7925 250.815 65.5551C249.544 66.2542 248.464 67.2393 247.574 68.5103C246.748 69.7178 246.08 71.1794 245.572 72.8953C245.127 74.6112 244.905 76.4542 244.905 78.4243V101.112H232.417V73.9439C232.417 67.5888 229.684 64.4112 224.219 64.4112C222.63 64.4112 221.232 64.7925 220.024 65.5551C218.817 66.2542 217.8 67.2393 216.974 68.5103C216.148 69.7178 215.512 71.1794 215.067 72.8953C214.623 74.6112 214.4 76.4542 214.4 78.4243V101.112H201.912V54.4019Z" fill="#F45658"/>
<path d="M290.46 102.637C287.409 102.637 284.677 102.256 282.262 101.493C279.91 100.731 277.845 99.7458 276.066 98.5383C274.35 97.2673 272.888 95.8374 271.681 94.2486C270.473 92.5963 269.552 90.9439 268.916 89.2916L280.069 84.5252C281.15 86.9402 282.58 88.7514 284.359 89.9589C286.202 91.1028 288.236 91.6748 290.46 91.6748C292.748 91.6748 294.559 91.2617 295.894 90.4355C297.228 89.6093 297.895 88.6243 297.895 87.4804C297.895 86.2093 297.324 85.1925 296.18 84.4299C295.099 83.6037 293.193 82.8729 290.46 82.2374L283.882 80.8075C282.421 80.4897 280.895 79.9813 279.307 79.2822C277.781 78.5832 276.383 77.6935 275.112 76.6131C273.841 75.5327 272.793 74.2299 271.967 72.7047C271.14 71.1794 270.727 69.4 270.727 67.3664C270.727 65.0785 271.204 63.0449 272.157 61.2654C273.174 59.486 274.54 57.9925 276.256 56.785C277.972 55.514 279.974 54.5607 282.262 53.9252C284.613 53.2262 287.124 52.8766 289.793 52.8766C294.241 52.8766 298.213 53.7664 301.709 55.5458C305.204 57.2617 307.778 60.0262 309.43 63.8393L298.658 68.2243C297.768 66.3813 296.466 65.0467 294.75 64.2206C293.034 63.3944 291.318 62.9813 289.602 62.9813C287.823 62.9813 286.266 63.3626 284.931 64.1252C283.596 64.8243 282.929 65.7458 282.929 66.8897C282.929 67.9701 283.469 68.828 284.55 69.4636C285.694 70.0991 287.219 70.671 289.125 71.1794L296.275 72.8953C301.041 74.0393 304.568 75.8822 306.856 78.4243C309.208 80.9028 310.383 83.8579 310.383 87.2897C310.383 89.3234 309.907 91.2617 308.953 93.1047C308 94.9477 306.634 96.6 304.854 98.0617C303.138 99.4598 301.041 100.572 298.563 101.398C296.148 102.224 293.447 102.637 290.46 102.637Z" fill="#F9C531"/>
<path d="M314.579 45.385L319.441 37.9495C318.043 37.4411 316.836 36.5514 315.819 35.2804C314.865 33.9458 314.389 32.357 314.389 30.514C314.389 28.2262 315.183 26.2878 316.772 24.6991C318.424 23.0467 320.394 22.2206 322.682 22.2206C324.97 22.2206 326.908 23.0467 328.497 24.6991C330.086 26.2878 330.88 28.2262 330.88 30.514C330.88 31.7215 330.658 32.8019 330.213 33.7551C329.832 34.7084 329.26 35.7252 328.497 36.8056L320.204 49.1028L314.579 45.385Z" fill="#39AA68"/>
<path d="M341.067 101.346V90.0019C344.817 86.3159 348.28 82.8841 351.458 79.7065C352.793 78.372 354.159 77.0056 355.557 75.6075C356.955 74.2093 358.258 72.9065 359.465 71.6991C360.673 70.4916 361.753 69.4112 362.707 68.4579C363.66 67.4411 364.391 66.6467 364.899 66.0748C365.916 64.8673 366.806 63.7869 367.568 62.8336C368.394 61.8804 369.03 60.9589 369.475 60.0692C369.983 59.1159 370.364 58.1944 370.619 57.3047C370.873 56.3514 371 55.3346 371 54.2542C371 52.157 370.174 50.3458 368.522 48.8206C366.869 47.2318 364.613 46.4374 361.753 46.4374C358.893 46.4374 356.669 47.2635 355.08 48.9159C353.492 50.5047 352.411 52.3159 351.839 54.3495L340.495 49.6785C341.004 47.9626 341.83 46.2149 342.974 44.4355C344.118 42.5925 345.579 40.972 347.359 39.5738C349.138 38.1121 351.236 36.9364 353.65 36.0467C356.129 35.0934 358.893 34.6168 361.944 34.6168C365.249 34.6168 368.236 35.1252 370.905 36.1421C373.574 37.0953 375.83 38.4299 377.673 40.1458C379.516 41.8617 380.946 43.8953 381.963 46.2467C382.979 48.5346 383.488 51.0131 383.488 53.6822C383.488 57.7495 382.471 61.4991 380.437 64.9308C378.467 68.2991 376.052 71.4449 373.193 74.3682L364.994 82.5664C362.834 84.7271 360.387 87.1421 357.654 89.8112L358.036 90.3832H384.441V101.346H341.067ZM407.621 101.346V50.8224L396.086 55.6841L391.51 45.1028L410.671 36.1421H420.108V101.346H407.621Z" fill="#568EF4"/>
</svg>
