<svg viewBox="0 0 208 69" fill="none" xmlns="http://www.w3.org/2000/svg">
<path d="M18.5051 19.1895C24.1127 19.1895 28.4541 20.7483 31.5292 23.8659C34.6043 26.9473 36.1419 31.3699 36.1419 37.1339C36.1419 42.8616 34.6043 47.2842 31.5292 50.4018C28.4541 53.5198 24.1127 55.0784 18.5051 55.0784H4.66699V19.1895H18.5051ZM18.1252 49.0968C21.526 49.0968 24.0765 48.082 25.7769 46.0518C27.5135 43.9856 28.3817 41.0129 28.3817 37.1339C28.3817 33.255 27.5135 30.3006 25.7769 28.2704C24.0765 26.2041 21.526 25.1709 18.1252 25.1709H12.1558V49.0968H18.1252Z" fill="#FC5251"/>
<path d="M48.1134 55.6222C45.2552 55.6222 42.759 55.0604 40.6245 53.9364C38.5262 52.8128 36.8982 51.1996 35.7405 49.0968C34.5828 46.9945 34.0039 44.4568 34.0039 41.484C34.0039 38.5115 34.5828 35.9739 35.7405 33.8713C36.8982 31.7688 38.5081 30.1556 40.5704 29.0318C42.6685 27.908 45.0561 27.3461 47.7333 27.3461C50.483 27.3461 52.8165 27.908 54.734 29.0318C56.6515 30.1193 58.1168 31.6237 59.1296 33.5451C60.1424 35.4301 60.649 37.5871 60.649 40.016C60.649 40.7409 60.631 41.4299 60.5949 42.0823C60.5585 42.7348 60.5044 43.3147 60.4319 43.8223H38.7794V38.6565H57.1761L53.5942 39.9616C53.5942 37.6777 53.0696 35.9196 52.0208 34.687C51.0076 33.4545 49.5607 32.8382 47.6792 32.8382C46.3044 32.8382 45.1106 33.1644 44.0974 33.817C43.1207 34.4695 42.379 35.4483 41.8728 36.7533C41.3662 38.0221 41.1131 39.6353 41.1131 41.5928C41.1131 43.5141 41.3842 45.1093 41.9268 46.3781C42.5059 47.6105 43.3017 48.535 44.3149 49.1514C45.3637 49.7678 46.612 50.0756 48.0593 50.0756C49.6508 50.0756 50.9351 49.7678 51.9122 49.1514C52.889 48.535 53.6487 47.6831 54.1913 46.5956L60.1063 48.8793C59.5277 50.2931 58.641 51.5078 57.4472 52.5226C56.2894 53.5379 54.8966 54.3172 53.2687 54.8609C51.6768 55.3685 49.9583 55.6222 48.1134 55.6222Z" fill="#5A90FC"/>
<path d="M76.1569 27.8899H83.8632L73.5522 55.0785H64.9781L54.6675 27.8899H62.6445L69.3196 49.3689L76.1569 27.8899Z" fill="#FFBE55"/>
<path d="M92.5535 19.5701V46.2147C92.5535 47.5201 92.8791 48.4808 93.5302 49.0968C94.2174 49.677 95.1401 49.9668 96.2979 49.9668C97.2382 49.9668 98.0344 49.8399 98.6855 49.5863C99.3727 49.2962 99.9879 48.9158 100.531 48.4443L101.724 53.3925C100.856 54.0815 99.7708 54.6253 98.4685 55.0242C97.1661 55.4226 95.7913 55.6221 94.344 55.6221C92.5351 55.6221 90.9252 55.3504 89.5143 54.8067C88.1395 54.2625 87.0542 53.3925 86.2584 52.1963C85.4987 51.0001 85.1187 49.405 85.1187 47.4114V21.6364L92.5535 19.5701ZM101.236 27.8898V33.4362H80.126V27.8898H101.236Z" fill="#39AA68"/>
<path d="M172.046 27.8898L159.51 40.9948L158.045 41.7015L149.905 50.4564L149.796 42.5173L163.58 27.8898H172.046ZM151.858 15.9812V55.0784H144.424V15.9812H151.858ZM160.541 36.5358L172.697 55.0784H164.285L155.44 40.8861L160.541 36.5358Z" fill="#FFBE55"/>
<path d="M178.111 55.6222C175.361 55.6222 172.847 55.133 170.568 54.1539C168.325 53.1751 166.498 51.7975 165.087 50.0214L169.374 45.6711C170.242 46.9764 171.4 48.0455 172.847 48.8793C174.294 49.7132 176.013 50.1301 178.003 50.1301C179.413 50.1301 180.535 49.9307 181.367 49.5318C182.235 49.0968 182.669 48.4263 182.669 47.5202C182.669 46.9399 182.47 46.4508 182.073 46.0519C181.675 45.6169 180.879 45.2726 179.685 45.0186L174.909 44.0398C171.762 43.3873 169.519 42.4086 168.18 41.1036C166.878 39.7622 166.227 38.0403 166.227 35.9377C166.227 34.4514 166.661 33.0557 167.529 31.7506C168.433 30.4456 169.772 29.3943 171.545 28.5968C173.317 27.763 175.524 27.3461 178.165 27.3461C180.879 27.3461 183.23 27.7811 185.22 28.6511C187.246 29.4849 188.838 30.7356 189.996 32.4032L185.546 36.7533C184.75 35.4845 183.701 34.5239 182.398 33.8713C181.132 33.1826 179.793 32.8382 178.382 32.8382C177.369 32.8382 176.501 32.9469 175.778 33.1644C175.054 33.3819 174.511 33.6901 174.15 34.0888C173.788 34.4514 173.607 34.9226 173.607 35.5027C173.607 36.0827 173.86 36.5902 174.367 37.0252C174.873 37.424 175.796 37.7684 177.134 38.0584L182.669 39.2003C185.346 39.7441 187.264 40.6686 188.422 41.9736C189.579 43.2425 190.158 44.783 190.158 46.5956C190.158 48.3356 189.688 49.8946 188.747 51.2722C187.843 52.6133 186.486 53.6827 184.677 54.4805C182.904 55.2417 180.716 55.6222 178.111 55.6222Z" fill="#39AA68"/>
<path d="M132.47 18.7901C131.849 19.1525 131.332 19.5447 130.881 20.0078C130.252 20.6449 130.264 20.5659 130.65 21.1859C132.725 24.4923 136.036 26.9064 139.852 27.8996C141.569 28.3475 143.403 28.4737 145.24 28.2729C146.341 28.1569 146.244 28.24 146.334 27.3237C146.676 23.782 144.131 20.0494 140.322 18.5233C137.647 17.4534 134.597 17.5531 132.47 18.7901Z" fill="#5A90FC"/>
<path d="M129.009 23.6481C128.921 24.1083 128.902 24.8352 128.958 25.5077C129.002 26.1301 129.028 26.2364 129.439 27.3704C129.846 28.4923 129.902 28.608 130.297 29.1975C131.369 30.7974 132.767 31.9796 134.541 32.7932C136.176 33.5357 137.655 33.8119 139.382 33.6986C140.303 33.6415 141.068 33.4511 142.08 33.0346C143.146 32.5986 143.681 32.2403 144.47 31.45C145.024 30.9016 145.024 30.8814 144.46 30.9034C143.731 30.9316 142.755 30.9133 142.188 30.8688C141.903 30.8435 141.669 30.8272 141.663 30.8293C141.591 30.8553 139.827 30.5337 139.228 30.3851C136.812 29.785 134.368 28.5561 132.361 26.9168C131.596 26.292 130.482 25.1492 129.749 24.2412L129.055 23.3866L129.009 23.6481Z" fill="#5A90FC"/>
<path d="M128.789 34.1018C128.426 35.1379 127.881 36.695 127.58 37.5519C127.282 38.4149 126.444 40.8127 125.725 42.8887C125.006 44.9644 124.206 47.2602 123.951 47.985C122.105 53.2567 121.865 53.983 121.809 54.4043C121.752 54.8397 121.764 54.91 121.953 55.4663L122.162 56.0622L121.915 56.4921C121.504 57.2125 121.152 58.3189 121.05 59.2395C120.941 60.1825 120.979 60.5288 121.263 61.3289C121.509 62.0069 121.547 62.0744 121.897 62.4635C122.507 63.1442 123.553 63.728 124.359 63.8352C124.656 63.876 125.709 63.7775 126.348 63.6468C128.285 63.2597 130.049 62.0053 131.522 59.9874C132.226 59.0177 132.148 59.1547 134.411 55.1439C135.331 53.5107 136.126 52.4602 137.058 51.6381C137.792 50.9903 138.258 50.7186 139.234 50.3696C141.713 49.4729 144.657 49.6362 148.086 50.8588C149.031 51.2007 151.133 52.214 152.075 52.788C153.002 53.3604 153.284 53.4342 153.762 53.2669C154.53 52.9937 154.845 52.0636 154.401 51.3966C154.208 51.1069 153.922 50.8921 153.024 50.3633C149.202 48.1153 145.146 47.0192 141.589 47.2622C140.501 47.3396 139.767 47.4848 138.653 47.8433C136.661 48.4879 135.19 49.5675 133.769 51.4308C133.114 52.2945 132.713 52.9301 131.794 54.5688C130.147 57.5133 129.713 58.2081 128.976 59.0679C128.562 59.5583 128.079 60.0062 127.593 60.3529C127.253 60.5994 125.685 61.1711 125.158 61.2405C124.67 61.303 124.169 61.1259 123.834 60.7789C123.64 60.5778 123.627 60.5417 123.59 60.1613C123.569 59.9379 123.58 59.5602 123.613 59.3176C123.686 58.8697 124.309 57.2907 124.423 57.2695C124.461 57.2624 124.644 57.2298 124.835 57.2007C125.232 57.1446 125.494 57.015 125.949 56.6586C126.302 56.3877 126.264 56.4493 127.979 53.5072C128.587 52.457 129.417 51.0401 129.813 50.3523C131.096 48.1452 132.668 45.4531 133.607 43.8537C134.741 41.919 137.27 37.5867 137.708 36.8293L138.032 36.2765L137.236 36.1791C134.458 35.8604 131.982 34.6706 129.92 32.6775L129.444 32.2191L128.789 34.1018Z" fill="#5A90FC"/>
<path d="M116.81 52.1512H116.358C115.493 53.2065 114.439 54.1115 113.198 54.8656C111.994 55.6194 110.432 55.9967 108.513 55.9967C107.084 55.9967 105.729 55.7517 104.45 55.2614C103.208 54.8091 102.117 54.168 101.176 53.3388C100.236 52.5093 99.5019 51.5101 98.9753 50.3414C98.4483 49.1726 98.1851 47.8908 98.1851 46.4959C98.1851 45.0633 98.4672 43.7811 99.0317 42.6504C99.5959 41.4817 100.386 40.4825 101.402 39.653C102.418 38.8235 103.603 38.2015 104.958 37.7868C106.35 37.3344 107.855 37.1081 109.473 37.1081C111.279 37.1081 112.765 37.2589 113.931 37.5606C115.097 37.8245 116.057 38.1072 116.81 38.4088V37.5606C116.81 36.0902 116.226 34.8837 115.06 33.9412C113.893 32.961 112.445 32.4708 110.714 32.4708C108.156 32.4708 105.992 33.5453 104.224 35.6943L98.8625 32.0184C101.797 28.3237 105.804 26.4763 110.884 26.4763C115.173 26.4763 118.446 27.4942 120.704 29.5301C122.961 31.5283 124.09 34.5067 124.09 38.4654V55.0918H116.81V52.1512ZM116.81 43.838C115.944 43.4231 115.041 43.1027 114.1 42.8766C113.198 42.6128 112.201 42.4804 111.109 42.4804C109.341 42.4804 107.968 42.8766 106.989 43.668C106.049 44.4222 105.578 45.3648 105.578 46.4959C105.578 47.627 106.03 48.5315 106.933 49.2103C107.873 49.8891 108.946 50.2283 110.15 50.2283C111.128 50.2283 112.031 50.0587 112.859 49.7191C113.687 49.3422 114.383 48.8711 114.947 48.3054C115.549 47.7023 116.001 47.0236 116.301 46.2698C116.64 45.4779 116.81 44.6672 116.81 43.838Z" fill="#FC5251"/>
</svg>
