<svg width="296" height="40" viewBox="0 0 296 40" fill="none" xmlns="http://www.w3.org/2000/svg">
<path d="M46.1438 14.1291C45.1401 13.5599 44.3095 12.7295 43.7402 11.7261C43.1536 10.6958 42.8529 9.52757 42.8693 8.34218C42.8525 7.15675 43.1532 5.9884 43.7402 4.95827C44.3088 3.95437 45.1396 3.1238 46.1438 2.55529C47.1536 1.97499 48.2999 1.67445 49.4647 1.68465C50.3711 1.67828 51.2702 1.8478 52.1121 2.18382C52.8911 2.48593 53.5875 2.96829 54.1441 3.59136L53.0584 4.67677C52.6448 4.1648 52.1086 3.76551 51.4996 3.5159C50.8558 3.24819 50.1648 3.11202 49.4676 3.11541C48.5898 3.11373 47.7266 3.33972 46.9624 3.77129C46.185 4.20396 45.539 4.83871 45.0929 5.60836C44.612 6.43791 44.368 7.38354 44.3875 8.34218C44.368 9.30083 44.612 10.2465 45.0929 11.076C45.54 11.8441 46.1858 12.4777 46.9624 12.9102C47.6709 13.2896 48.4543 13.5086 49.2569 13.5517C50.0595 13.5948 50.8618 13.461 51.607 13.1598C52.1689 12.9017 52.6786 12.5427 53.1107 12.1005C53.4322 11.7451 53.686 11.334 53.8596 10.8874C54.0537 10.392 54.1674 9.86884 54.1963 9.33762H49.4937V7.93298H55.6217C55.6796 8.23822 55.7097 8.54809 55.7116 8.85877C55.7127 9.6364 55.5862 10.409 55.3372 11.1457C55.0938 11.8784 54.6857 12.5456 54.1441 13.0959C52.9481 14.3671 51.3883 15.0026 49.4647 15.0026C48.2999 15.0105 47.1538 14.7091 46.1438 14.1291Z" fill="#656C73"/>
<path d="M59.0471 14.3874C58.3636 13.9835 57.8058 13.3977 57.436 12.6954C57.0444 11.9587 56.8448 11.1353 56.8554 10.3011C56.8448 9.46698 57.0444 8.64357 57.436 7.90686C57.8058 7.20455 58.3636 6.61878 59.0471 6.21491C59.7603 5.81153 60.5658 5.59954 61.3853 5.59954C62.2048 5.59954 63.0103 5.81153 63.7236 6.21491C64.4108 6.61678 64.9719 7.20285 65.3434 7.90686C65.7349 8.64357 65.9346 9.46698 65.924 10.3011C65.9346 11.1353 65.7349 11.9587 65.3434 12.6954C64.9719 13.3994 64.4108 13.9855 63.7236 14.3874C63.0103 14.7907 62.2048 15.0027 61.3853 15.0027C60.5658 15.0027 59.7603 14.7907 59.0471 14.3874ZM62.8759 13.2265C63.3464 12.9484 63.7318 12.5469 63.9906 12.0656C64.2758 11.5302 64.4197 10.9309 64.4087 10.3244C64.4217 9.713 64.2778 9.1085 63.9906 8.56856C63.7314 8.08762 63.346 7.68632 62.8759 7.40769C62.4283 7.12433 61.9108 6.97063 61.381 6.96367C60.8574 6.96326 60.3439 7.10792 59.8976 7.38158C59.4275 7.6602 59.0422 8.0615 58.7829 8.54244C58.4958 9.08238 58.3519 9.68688 58.3649 10.2982C58.3538 10.9048 58.4977 11.5041 58.7829 12.0395C59.0417 12.5208 59.4271 12.9222 59.8976 13.2004C60.3424 13.4799 60.8556 13.6316 61.381 13.6386C61.908 13.6376 62.4248 13.4931 62.8759 13.2207V13.2265Z" fill="#656C73"/>
<path d="M69.1462 14.3874C68.4627 13.9835 67.9049 13.3977 67.5351 12.6954C67.1436 11.9587 66.9439 11.1353 66.9545 10.3011C66.9439 9.46698 67.1436 8.64357 67.5351 7.90686C67.9049 7.20455 68.4627 6.61878 69.1462 6.21491C69.8594 5.81153 70.665 5.59954 71.4844 5.59954C72.3039 5.59954 73.1094 5.81153 73.8227 6.21491C74.51 6.61678 75.071 7.20285 75.4425 7.90686C75.834 8.64357 76.0337 9.46698 76.0231 10.3011C76.0337 11.1353 75.834 11.9587 75.4425 12.6954C75.0734 13.3983 74.5155 13.9842 73.8314 14.3874C73.1182 14.7907 72.3126 15.0027 71.4932 15.0027C70.6737 15.0027 69.8681 14.7907 69.1549 14.3874H69.1462ZM72.978 13.2265C73.4469 12.9474 73.8312 12.5461 74.0898 12.0656C74.375 11.5302 74.5188 10.9309 74.5078 10.3244C74.5208 9.713 74.3769 9.1085 74.0898 8.56856C73.8307 8.08843 73.4465 7.6873 72.978 7.40769C72.5291 7.12465 72.0107 6.971 71.4801 6.96367C70.9591 6.96303 70.448 7.1056 70.0025 7.37577C69.5324 7.6544 69.1471 8.0557 68.8878 8.53663C68.6007 9.07658 68.4568 9.68107 68.4698 10.2924C68.4588 10.899 68.6026 11.4983 68.8878 12.0337C69.1466 12.515 69.5321 12.9164 70.0025 13.1946C70.4452 13.4749 70.9562 13.6285 71.4801 13.6386C72.0081 13.6381 72.526 13.4936 72.978 13.2207V13.2265Z" fill="#656C73"/>
<path d="M78.8184 18.0818C78.1932 17.64 77.7157 17.02 77.4482 16.3028L78.8532 15.7224C79.0275 16.238 79.3621 16.6845 79.8083 16.9964C80.2851 17.329 80.8556 17.5008 81.4368 17.4869C82.3754 17.4869 83.0972 17.2141 83.6023 16.6685C84.1074 16.1258 84.3571 15.3654 84.3571 14.3874V13.4355H84.2816C83.9733 13.9064 83.5509 14.2918 83.0537 14.5557C82.4968 14.8593 81.8707 15.0133 81.2365 15.0026C80.4974 15.0053 79.7734 14.7936 79.1522 14.3932C78.5014 13.9787 77.9725 13.3988 77.6195 12.7128C77.2284 11.9697 77.0289 11.1408 77.0389 10.3011C77.0293 9.4606 77.2288 8.63085 77.6195 7.88655C77.9735 7.20127 78.5022 6.62161 79.1522 6.2062C79.7742 5.80784 80.4979 5.59724 81.2365 5.59965C81.8703 5.58939 82.4961 5.7423 83.0537 6.04368C83.5511 6.30862 83.9735 6.69497 84.2816 7.16681H84.3513V5.88406H85.8027V14.3613C85.826 15.2227 85.626 16.0755 85.2221 16.8368C84.8685 17.4876 84.3247 18.0151 83.6633 18.3488C82.9723 18.6938 82.2092 18.8698 81.4368 18.8625C80.5016 18.899 79.5808 18.6245 78.8184 18.0818ZM82.9144 13.2265C83.3681 12.9441 83.7356 12.5425 83.9768 12.0656C84.2537 11.5164 84.3903 10.9073 84.3745 10.2924C84.3929 9.679 84.2614 9.07033 83.9913 8.51922C83.753 8.04034 83.3849 7.63809 82.9289 7.35836C82.4907 7.09558 81.9884 6.95898 81.4774 6.96366C80.9654 6.95946 80.4624 7.09924 80.026 7.36706C79.5741 7.65084 79.2078 8.0521 78.9664 8.52792C78.6882 9.07674 78.5505 9.68603 78.5659 10.3011C78.5509 10.9162 78.6885 11.5254 78.9664 12.0744C79.2075 12.5504 79.5738 12.9518 80.026 13.2352C80.4609 13.4991 80.96 13.6386 81.4687 13.6386C81.9775 13.6386 82.4765 13.4991 82.9115 13.2352L82.9144 13.2265Z" fill="#656C73"/>
<path d="M87.8496 1.96616H89.362V14.7153H87.8496V1.96616Z" fill="#656C73"/>
<path d="M92.9527 14.3961C92.2828 13.9939 91.7373 13.4144 91.3764 12.7215C90.9841 11.9758 90.7845 11.1437 90.7959 10.3011C90.7877 9.48348 90.9717 8.67532 91.3329 7.94169C91.6708 7.24136 92.1976 6.64932 92.854 6.23232C93.534 5.805 94.3239 5.58514 95.127 5.59966C95.9168 5.58325 96.6961 5.78403 97.3796 6.18009C98.0254 6.56492 98.5426 7.1325 98.8659 7.8111C99.2233 8.567 99.4002 9.39557 99.3826 10.2315C99.3878 10.3515 99.3761 10.4717 99.3477 10.5885H92.3373C92.3425 11.1828 92.5091 11.7646 92.8192 12.2717C93.092 12.706 93.4758 13.0597 93.931 13.2962C94.3581 13.5177 94.8316 13.635 95.3127 13.6386C96.4313 13.6386 97.2925 13.093 97.8963 12.0018L99.2316 12.6432C98.8624 13.3416 98.3196 13.9333 97.6554 14.3613C96.9439 14.7794 96.1351 15.0035 95.3099 15.0111C94.4846 15.0188 93.6718 14.8097 92.9527 14.4048V14.3961ZM97.7889 9.32021C97.7638 8.94852 97.6651 8.58551 97.4986 8.25222C97.2984 7.87444 96.9968 7.55989 96.6278 7.34385C96.1643 7.07439 95.6336 6.94252 95.0979 6.96367C94.4622 6.95352 93.8457 7.18242 93.3707 7.60504C92.8747 8.05146 92.5476 8.65514 92.4447 9.31441L97.7889 9.32021Z" fill="#656C73"/>
<path d="M105.183 1.96614H109.049C110.24 1.93844 111.417 2.21727 112.469 2.77584C113.419 3.29452 114.199 4.07786 114.713 5.03082C115.25 6.05062 115.519 7.1899 115.497 8.34217C115.519 9.49441 115.249 10.6336 114.713 11.6535C114.199 12.6056 113.419 13.388 112.469 13.9056C111.417 14.4642 110.24 14.743 109.049 14.7153H105.183V1.96614ZM109.049 13.2845C110.557 13.2845 111.75 12.8521 112.628 11.9873C113.507 11.1224 113.946 9.91127 113.946 8.35378C113.946 6.80597 113.507 5.5948 112.628 4.72029C111.75 3.84577 110.557 3.41238 109.049 3.42012H106.698V13.2874L109.049 13.2845Z" fill="#656C73"/>
<path d="M118.922 14.3961C118.252 13.9939 117.707 13.4144 117.346 12.7215C116.953 11.9758 116.754 11.1437 116.765 10.3011C116.756 9.48371 116.939 8.67556 117.299 7.94169C117.639 7.24061 118.168 6.6485 118.826 6.23232C119.506 5.805 120.296 5.58514 121.099 5.59966C121.889 5.58325 122.668 5.78403 123.352 6.18009C123.998 6.56492 124.515 7.1325 124.838 7.8111C125.195 8.567 125.372 9.39557 125.355 10.2315C125.36 10.3515 125.348 10.4717 125.32 10.5885H118.307C118.31 11.183 118.477 11.7652 118.788 12.2717C119.061 12.706 119.445 13.0597 119.9 13.2962C120.327 13.5177 120.801 13.635 121.282 13.6386C122.397 13.6386 123.258 13.093 123.866 12.0018L125.201 12.6432C124.832 13.3416 124.289 13.9333 123.625 14.3613C122.913 14.7794 122.104 15.0035 121.279 15.0111C120.454 15.0188 119.641 14.8097 118.922 14.4048V14.3961ZM123.761 9.32021C123.731 8.94754 123.628 8.58451 123.456 8.25222C123.257 7.87361 122.955 7.55878 122.585 7.34385C122.125 7.07653 121.599 6.94473 121.067 6.96367C120.426 6.94985 119.804 7.17899 119.325 7.60504C118.829 8.05146 118.502 8.65514 118.399 9.31441L123.761 9.32021Z" fill="#656C73"/>
<path d="M125.717 5.88406H127.355L130.063 12.9363H130.098L132.841 5.88406H134.443L130.829 14.7153H129.297L125.717 5.88406Z" fill="#656C73"/>
<path d="M137.213 14.3961C136.543 13.9939 135.997 13.4144 135.637 12.7215C135.245 11.9753 135.046 11.1436 135.056 10.3011C135.047 9.48371 135.23 8.67555 135.59 7.94169C135.93 7.24176 136.458 6.64997 137.114 6.23232C137.793 5.80538 138.582 5.58553 139.384 5.59965C140.174 5.58294 140.953 5.78374 141.637 6.18008C142.283 6.56474 142.802 7.13229 143.126 7.81109C143.482 8.56747 143.659 9.39571 143.643 10.2315C143.647 10.3517 143.635 10.4719 143.605 10.5885H136.6C136.603 11.1827 136.769 11.7649 137.079 12.2717C137.354 12.7058 137.738 13.0593 138.194 13.2962C138.62 13.5176 139.093 13.635 139.573 13.6386C140.69 13.6386 141.551 13.093 142.156 12.0018L143.492 12.6432C143.123 13.3416 142.58 13.9333 141.916 14.3612C141.204 14.7794 140.395 15.0035 139.57 15.0111C138.745 15.0188 137.932 14.8097 137.213 14.4048V14.3961ZM142.049 9.32021C142.025 8.94828 141.927 8.585 141.759 8.25222C141.559 7.87379 141.258 7.55902 140.888 7.34384C140.425 7.07447 139.896 6.94258 139.361 6.96366C138.725 6.95294 138.108 7.18191 137.634 7.60504C137.138 8.05146 136.811 8.65513 136.708 9.3144L142.049 9.32021Z" fill="#656C73"/>
<path d="M145.184 1.96616H146.694V14.7153H145.184V1.96616Z" fill="#656C73"/>
<path d="M150.331 14.3874C149.649 13.9827 149.094 13.397 148.726 12.6954C148.334 11.9587 148.134 11.1353 148.145 10.3011C148.134 9.46698 148.334 8.64357 148.726 7.90686C149.095 7.20455 149.653 6.61878 150.337 6.21491C151.05 5.81153 151.855 5.59954 152.675 5.59954C153.494 5.59954 154.3 5.81153 155.013 6.21491C155.7 6.61678 156.261 7.20285 156.633 7.90686C157.024 8.64357 157.224 9.46698 157.214 10.3011C157.224 11.1353 157.024 11.9587 156.633 12.6954C156.261 13.3994 155.7 13.9855 155.013 14.3874C154.3 14.7907 153.494 15.0027 152.675 15.0027C151.855 15.0027 151.05 14.7907 150.337 14.3874H150.331ZM154.163 13.2265C154.632 12.9474 155.016 12.5461 155.274 12.0656C155.56 11.5302 155.703 10.9309 155.692 10.3244C155.705 9.713 155.562 9.1085 155.274 8.56856C155.015 8.08843 154.631 7.6873 154.163 7.40769C153.714 7.12465 153.195 6.971 152.665 6.96367C152.144 6.96303 151.633 7.1056 151.187 7.37577C150.717 7.65376 150.333 8.05529 150.075 8.53663C149.786 9.07584 149.641 9.68068 149.654 10.2924C149.643 10.8994 149.788 11.499 150.075 12.0337C150.332 12.5154 150.717 12.9171 151.187 13.1946C151.63 13.4749 152.141 13.6285 152.665 13.6386C153.193 13.6381 153.711 13.4936 154.163 13.2207V13.2265Z" fill="#656C73"/>
<path d="M158.595 5.88406H160.047V7.18423H160.116C160.426 6.7112 160.848 6.3223 161.344 6.05239C161.912 5.74238 162.552 5.58631 163.199 5.59965C163.935 5.59959 164.655 5.81335 165.272 6.21491C165.921 6.63189 166.449 7.21115 166.805 7.89525C167.195 8.63644 167.395 9.46338 167.385 10.3011C167.395 11.138 167.196 11.9641 166.805 12.7041C166.45 13.3896 165.921 13.97 165.272 14.3874C164.647 14.7926 163.918 15.0064 163.173 15.0026C162.523 15.0161 161.88 14.859 161.309 14.547C160.805 14.2775 160.384 13.8762 160.09 13.3861H160.021L160.09 14.6166V18.5723H158.595V5.88406ZM164.401 13.2207C164.856 12.9377 165.225 12.5364 165.469 12.0598C165.743 11.521 165.881 10.923 165.87 10.3186C165.883 9.70924 165.745 9.10614 165.469 8.56275C165.224 8.08649 164.855 7.68535 164.401 7.40189C163.969 7.12064 163.465 6.96861 162.95 6.96366C162.438 6.96043 161.936 7.09907 161.498 7.36416C161.04 7.6436 160.669 8.04571 160.427 8.52502C160.152 9.07487 160.015 9.6836 160.029 10.2982C160.017 10.909 160.154 11.5135 160.427 12.0598C160.668 12.5395 161.039 12.9418 161.498 13.2207C161.934 13.4919 162.436 13.6366 162.95 13.6386C163.463 13.6385 163.966 13.4936 164.401 13.2207Z" fill="#656C73"/>
<path d="M170.912 14.3961C170.242 13.994 169.697 13.4144 169.336 12.7215C168.945 11.9753 168.745 11.1436 168.755 10.3011C168.746 9.48371 168.929 8.67556 169.289 7.9417C169.629 7.24177 170.157 6.64998 170.813 6.23233C171.5 5.80046 172.299 5.58041 173.11 5.59966C173.899 5.58295 174.679 5.78375 175.362 6.18009C176.009 6.56475 176.527 7.13229 176.851 7.8111C177.207 8.56748 177.384 9.39572 177.368 10.2315C177.373 10.3517 177.36 10.4719 177.33 10.5885H170.3C170.302 11.1827 170.468 11.7649 170.779 12.2717C171.053 12.7058 171.438 13.0593 171.893 13.2962C172.319 13.5176 172.792 13.635 173.272 13.6386C174.391 13.6386 175.252 13.093 175.856 12.0018L177.191 12.6432C176.822 13.3416 176.279 13.9333 175.615 14.3613C174.903 14.7794 174.094 15.0035 173.269 15.0111C172.444 15.0188 171.631 14.8097 170.912 14.4048V14.3961ZM175.748 9.32022C175.725 8.94829 175.626 8.58501 175.458 8.25223C175.259 7.8738 174.957 7.55903 174.587 7.34385C174.125 7.07448 173.595 6.94259 173.06 6.96367C172.419 6.94927 171.797 7.17848 171.318 7.60505C170.822 8.05146 170.495 8.65514 170.392 9.31441L175.748 9.32022Z" fill="#656C73"/>
<path d="M178.884 5.88407H180.335V7.33514H180.408C180.591 6.81621 180.949 6.37713 181.421 6.09302C181.875 5.78001 182.411 5.60651 182.962 5.59385C183.315 5.59043 183.665 5.65039 183.996 5.77088V7.39899C183.61 7.20533 183.182 7.11342 182.75 7.13199C182.335 7.13238 181.93 7.26 181.589 7.49766C181.221 7.74284 180.922 8.07736 180.718 8.46988C180.504 8.87666 180.394 9.33051 180.399 9.79036V14.724H178.884V5.88407Z" fill="#656C73"/>
<path d="M190.631 14.6021C190.025 14.3344 189.485 13.9383 189.047 13.4413C188.576 12.8993 188.237 12.2556 188.057 11.5607L189.508 10.9802C189.688 11.7011 190.079 12.3519 190.631 12.8492C191.15 13.3261 191.831 13.5876 192.536 13.5806C193.215 13.6024 193.882 13.3914 194.426 12.9827C194.674 12.7885 194.871 12.5371 195.001 12.2501C195.131 11.963 195.189 11.6488 195.172 11.3343C195.179 11.0577 195.126 10.7827 195.016 10.5289C194.906 10.2752 194.741 10.0488 194.533 9.86581C193.897 9.37655 193.174 9.01131 192.402 8.78911L191.601 8.4989C190.787 8.22962 190.036 7.79929 189.392 7.23356C189.102 6.95441 188.875 6.61595 188.728 6.24131C188.581 5.86667 188.516 5.46467 188.539 5.06275C188.536 4.46477 188.709 3.87924 189.038 3.3795C189.38 2.85313 189.856 2.42663 190.417 2.14318C191.03 1.82736 191.712 1.66786 192.402 1.67884C193.07 1.66373 193.732 1.80381 194.336 2.08804C194.84 2.32543 195.289 2.66547 195.653 3.08638C195.95 3.42551 196.177 3.82004 196.321 4.24724L194.913 4.85089C194.754 4.32793 194.423 3.87359 193.975 3.56054C193.526 3.24749 192.986 3.09382 192.44 3.12411C191.835 3.10829 191.243 3.3032 190.765 3.67552C190.547 3.83565 190.371 4.04521 190.25 4.28692C190.13 4.52862 190.068 4.79554 190.071 5.06565C190.065 5.30019 190.114 5.53285 190.215 5.74468C190.316 5.9565 190.466 6.14149 190.652 6.28455C191.193 6.67181 191.796 6.96606 192.434 7.1552L193.253 7.44542C194.191 7.75376 195.055 8.25385 195.79 8.91391C196.103 9.2276 196.347 9.60355 196.506 10.0175C196.665 10.4314 196.736 10.8741 196.713 11.3169C196.739 12.0561 196.516 12.7826 196.08 13.3803C195.673 13.9296 195.121 14.3555 194.487 14.6108C193.854 14.8707 193.176 15.0038 192.492 15.0026C191.851 15.0027 191.216 14.8662 190.631 14.6021Z" fill="#656C73"/>
<path d="M200.397 14.8198C200.109 14.7076 199.846 14.541 199.622 14.3293C199.387 14.1041 199.207 13.8281 199.096 13.5225C198.977 13.1695 198.92 12.7982 198.928 12.4255V7.25388H197.36V5.88406H198.928V3.24891H200.423V5.88406H202.597V7.25388H200.423V12.0656C200.387 12.4641 200.49 12.8628 200.713 13.1946C200.824 13.3313 200.966 13.4392 201.127 13.5089C201.288 13.5787 201.464 13.6082 201.639 13.5951C201.976 13.6028 202.309 13.5164 202.6 13.3455V14.7966C202.425 14.8647 202.243 14.9153 202.057 14.9475C201.831 14.9829 201.601 14.9985 201.372 14.9939C201.039 14.9986 200.708 14.9395 200.397 14.8198Z" fill="#656C73"/>
<path d="M204.952 14.0565C204.388 13.4297 204.104 12.5561 204.104 11.4446V5.88406H205.622V11.1921C205.622 12.8173 206.353 13.6299 207.814 13.6299C208.283 13.6352 208.741 13.492 209.123 13.2207C209.507 12.9481 209.813 12.5799 210.011 12.1527C210.219 11.7189 210.326 11.2437 210.325 10.7626V5.88406H211.82V14.7153H210.395V13.3977H210.325C210.038 13.8758 209.629 14.2693 209.141 14.5383C208.625 14.843 208.038 15.0034 207.439 15.0026C206.345 15.0026 205.515 14.6863 204.952 14.0565Z" fill="#656C73"/>
<path d="M215.378 14.3961C214.728 13.9804 214.2 13.3995 213.848 12.7128C213.458 11.9694 213.259 11.1407 213.268 10.3011C213.259 9.46069 213.458 8.63111 213.848 7.88655C214.201 7.20092 214.729 6.62105 215.378 6.20621C216.005 5.80523 216.735 5.59455 217.48 5.59966C218.127 5.5891 218.766 5.74501 219.335 6.05239C219.836 6.31578 220.26 6.70606 220.563 7.18423H220.635L220.563 5.97404V1.96616H222.061V14.7153H220.635V13.3977H220.563C220.267 13.8895 219.843 14.2909 219.335 14.5586C218.766 14.8682 218.127 15.0252 217.48 15.0142C216.735 15.0144 216.005 14.7998 215.378 14.3961ZM219.152 13.2352C219.61 12.9561 219.98 12.5538 220.22 12.0744C220.497 11.5289 220.635 10.9241 220.624 10.3128C220.637 9.69751 220.498 9.08847 220.22 8.53954C219.98 8.06044 219.61 7.65829 219.152 7.37868C218.715 7.11358 218.212 6.97495 217.701 6.97818C217.187 6.97532 216.684 7.11824 216.249 7.39029C215.795 7.67375 215.426 8.07489 215.181 8.55115C214.905 9.09454 214.767 9.69764 214.78 10.3069C214.769 10.9114 214.907 11.5094 215.181 12.0482C215.425 12.5248 215.794 12.9261 216.249 13.2091C216.685 13.479 217.188 13.6208 217.701 13.6183C218.215 13.6272 218.722 13.4925 219.164 13.2294L219.152 13.2352Z" fill="#656C73"/>
<path d="M225.666 14.3961C224.996 13.9939 224.451 13.4144 224.09 12.7215C223.697 11.9758 223.498 11.1437 223.509 10.3011C223.5 9.48371 223.683 8.67556 224.043 7.94169C224.381 7.24136 224.908 6.64932 225.564 6.23232C226.245 5.805 227.034 5.58514 227.837 5.59966C228.627 5.58325 229.407 5.78403 230.09 6.18009C230.736 6.56492 231.253 7.1325 231.576 7.8111C231.934 8.567 232.111 9.39557 232.093 10.2315C232.098 10.3515 232.087 10.4717 232.058 10.5885H225.051C225.056 11.1828 225.222 11.7646 225.533 12.2717C225.805 12.706 226.189 13.0597 226.644 13.2962C227.071 13.5177 227.545 13.635 228.026 13.6386C229.143 13.6386 230.004 13.093 230.61 12.0018L231.945 12.6432C231.576 13.3416 231.033 13.9333 230.369 14.3613C229.657 14.7794 228.848 15.0035 228.023 15.0111C227.198 15.0188 226.385 14.8097 225.666 14.4048V14.3961ZM230.502 9.32021C230.477 8.94852 230.378 8.58551 230.212 8.25222C230.012 7.87444 229.71 7.55989 229.341 7.34385C228.878 7.07439 228.347 6.94252 227.811 6.96367C227.171 6.94985 226.548 7.17899 226.07 7.60504C225.574 8.05146 225.247 8.65514 225.144 9.31441L230.502 9.32021Z" fill="#656C73"/>
<path d="M233.638 5.88406H235.089V7.20164H235.159C235.435 6.72334 235.837 6.32913 236.32 6.06109C236.839 5.75791 237.429 5.59861 238.03 5.59965C239.11 5.59965 239.934 5.91308 240.497 6.54285C241.06 7.17262 241.342 8.03456 241.342 9.12577V14.7153H239.847V9.35794C239.847 7.76563 239.105 6.96947 237.62 6.96947C237.159 6.96423 236.709 7.10885 236.337 7.38157C235.959 7.65586 235.659 8.02395 235.467 8.44957C235.259 8.88252 235.152 9.3567 235.153 9.8368V14.7153H233.641L233.638 5.88406Z" fill="#656C73"/>
<path d="M245.296 14.8198C245.007 14.709 244.744 14.5423 244.521 14.3293C244.286 14.1041 244.106 13.8281 243.995 13.5225C243.874 13.1697 243.816 12.7984 243.824 12.4255V7.25388H242.256V5.88406H243.824V3.24891H245.322V5.88406H247.493V7.25388H245.322V12.0656C245.288 12.464 245.39 12.8621 245.612 13.1946C245.724 13.3332 245.868 13.4422 246.032 13.5121C246.196 13.5819 246.375 13.6104 246.553 13.5951C246.889 13.6032 247.22 13.5178 247.511 13.3484V14.7995C247.335 14.868 247.153 14.9186 246.968 14.9504C246.741 14.9858 246.512 15.0014 246.283 14.9968C245.945 15.0021 245.61 14.942 245.296 14.8198Z" fill="#656C73"/>
<path d="M255.598 14.1291C254.604 13.5591 253.785 12.7281 253.229 11.7261C252.647 10.6939 252.347 9.52697 252.358 8.34219C252.346 7.15735 252.647 5.99029 253.229 4.95828C253.786 3.9545 254.609 3.1232 255.607 2.5553C256.625 1.97104 257.782 1.6704 258.956 1.68465C259.856 1.6745 260.748 1.85965 261.569 2.22735C262.351 2.58649 263.044 3.1125 263.601 3.7684L262.533 4.81897C262.106 4.27581 261.561 3.8371 260.939 3.53622C260.309 3.25499 259.626 3.1153 258.936 3.12702C258.057 3.12136 257.191 3.34331 256.422 3.7713C255.652 4.20319 255.015 4.83745 254.579 5.60546C254.111 6.43954 253.875 7.38329 253.894 8.33929C253.875 9.29528 254.111 10.239 254.579 11.0731C255.015 11.8416 255.652 12.4767 256.422 12.9102C257.195 13.3431 258.068 13.5672 258.954 13.5603C259.714 13.5633 260.465 13.3932 261.15 13.0628C261.835 12.7325 262.436 12.2505 262.907 11.6535L263.993 12.7215C263.401 13.4316 262.658 14.0008 261.819 14.3874C260.835 14.8329 259.76 15.0416 258.68 14.9967C257.601 14.9519 256.547 14.6547 255.604 14.1291H255.598Z" fill="#656C73"/>
<path d="M265.465 1.96616H266.98V14.7153H265.465V1.96616Z" fill="#656C73"/>
<path d="M269.775 14.0565C269.212 13.4297 268.931 12.559 268.931 11.4446V5.88406H270.443V11.1921C270.443 12.8173 271.174 13.6299 272.635 13.6299C273.103 13.6356 273.562 13.4924 273.944 13.2207C274.329 12.9483 274.636 12.5801 274.835 12.1527C275.042 11.7186 275.148 11.2434 275.146 10.7626V5.88406H276.644V14.7153H275.218V13.3977H275.146C274.859 13.8758 274.45 14.2693 273.961 14.5383C273.446 14.8434 272.859 15.0038 272.26 15.0026C271.184 15.0026 270.356 14.6873 269.775 14.0565Z" fill="#656C73"/>
<path d="M281.434 14.547C280.93 14.2775 280.508 13.8763 280.214 13.3861H280.142V14.7037H278.69V1.96616H280.226V5.97404L280.153 7.18423H280.226C280.535 6.71121 280.957 6.32231 281.454 6.05239C282.021 5.74238 282.66 5.58629 283.306 5.59966C284.052 5.59445 284.783 5.80839 285.408 6.21492C286.056 6.6319 286.585 7.21116 286.94 7.89526C287.331 8.63644 287.531 9.46338 287.521 10.3011C287.531 11.138 287.331 11.9641 286.94 12.7041C286.586 13.3896 286.057 13.97 285.408 14.3874C284.782 14.7927 284.052 15.0065 283.306 15.0026C282.653 15.0177 282.007 14.8606 281.434 14.547ZM284.516 13.2207C284.971 12.9377 285.34 12.5364 285.585 12.0599C285.859 11.521 285.996 10.923 285.985 10.3186C285.998 9.70925 285.861 9.10615 285.585 8.56276C285.34 8.0865 284.971 7.68536 284.516 7.4019C284.081 7.13029 283.578 6.98741 283.065 6.98979C282.554 6.98746 282.051 7.12603 281.614 7.39029C281.157 7.67122 280.787 8.07301 280.545 8.55115C280.268 9.10034 280.131 9.70936 280.145 10.3244C280.132 10.9355 280.27 11.5403 280.545 12.086C280.786 12.5648 281.156 12.9669 281.614 13.2468C282.051 13.5111 282.554 13.6497 283.065 13.6473C283.579 13.6441 284.082 13.4963 284.516 13.2207Z" fill="#656C73"/>
<path d="M289.672 14.2887C289.048 13.853 288.57 13.239 288.302 12.5271L289.637 11.9466C289.84 12.4627 290.189 12.9084 290.641 13.2294C291.057 13.5195 291.551 13.6745 292.058 13.6734C292.557 13.694 293.05 13.5646 293.475 13.302C293.639 13.2118 293.776 13.0808 293.875 12.9216C293.973 12.7624 294.028 12.5805 294.035 12.3936C294.04 12.2257 294.004 12.0591 293.931 11.9077C293.859 11.7563 293.751 11.6244 293.617 11.5229C293.184 11.2332 292.696 11.0356 292.183 10.9425L290.967 10.6378C290.34 10.5024 289.756 10.2154 289.266 9.80196C289.035 9.60532 288.852 9.35903 288.73 9.08157C288.609 8.80411 288.551 8.5027 288.563 8.19997C288.551 7.69031 288.717 7.1924 289.033 6.79242C289.365 6.38861 289.799 6.08098 290.29 5.90146C290.837 5.7003 291.417 5.60192 292 5.61125C292.726 5.60243 293.441 5.78352 294.076 6.13654C294.677 6.4632 295.146 6.98843 295.402 7.62244L294.067 8.20287C293.895 7.79608 293.587 7.46163 293.196 7.25677C292.795 7.0567 292.352 6.9571 291.904 6.96655C291.463 6.96068 291.028 7.07829 290.65 7.30611C290.485 7.3855 290.346 7.50875 290.246 7.66234C290.147 7.81593 290.092 7.99391 290.087 8.17675C290.082 8.31952 290.113 8.4613 290.177 8.58908C290.24 8.71686 290.335 8.82655 290.453 8.90809C290.809 9.13447 291.202 9.29747 291.614 9.38985L292.932 9.70909C293.668 9.85862 294.348 10.2069 294.9 10.7161C295.11 10.9246 295.275 11.1731 295.387 11.4468C295.499 11.7205 295.554 12.0138 295.55 12.3094C295.555 12.8075 295.399 13.2938 295.106 13.6966C294.786 14.1304 294.355 14.4694 293.858 14.6776C293.284 14.9234 292.665 15.0451 292.041 15.0345C291.191 15.0476 290.36 14.786 289.672 14.2887Z" fill="#656C73"/>
<path d="M8.27742 8.53663L13.9845 5.23978C14.6296 4.86763 15.1005 4.2545 15.2935 3.53526C15.4865 2.81602 15.3858 2.0496 15.0135 1.40459C14.6413 0.759581 14.028 0.288827 13.3086 0.0958876C12.5892 -0.0970523 11.8226 0.00362653 11.1774 0.375776L1.30762 6.0698L8.27742 8.53663Z" fill="#EA4335"/>
<path d="M12.5798 17.0051C13.198 17.0048 13.7989 16.8006 14.2894 16.4241C14.7798 16.0477 15.1323 15.5201 15.2924 14.923C15.4524 14.326 15.411 13.6928 15.1746 13.1217C14.9382 12.5505 14.52 12.0732 13.9847 11.7638L4.11497 6.0698C3.47214 5.73279 2.72381 5.65755 2.02673 5.85982C1.32965 6.06209 0.737905 6.52619 0.375443 7.15491C0.0129809 7.78362 -0.0920751 8.52816 0.0822811 9.23258C0.256637 9.937 0.696879 10.5466 1.31079 10.9338L11.1806 16.6278C11.6057 16.8744 12.0883 17.0045 12.5798 17.0051Z" fill="#4285F4"/>
<path d="M22.3915 17.0051C22.884 17.0054 23.3678 16.8752 23.7936 16.6278L33.6634 10.9338L26.7836 8.41474L20.9778 11.7609C20.4405 12.0701 20.0205 12.5482 19.7832 13.1208C19.546 13.6934 19.5048 14.3284 19.6661 14.9269C19.8275 15.5254 20.1822 16.0537 20.6752 16.4296C21.1681 16.8055 21.7716 17.0078 22.3915 17.0051Z" fill="#FBBC04"/>
<path d="M32.2525 11.3169C32.8711 11.3172 33.4724 11.1134 33.9633 10.7372C34.4542 10.3611 34.8073 9.83344 34.9677 9.23622C35.1281 8.639 35.087 8.00556 34.8506 7.43411C34.6143 6.86266 34.1959 6.38514 33.6604 6.0756L23.7936 0.375776C23.1484 0.00362653 22.3818 -0.0970523 21.6624 0.0958876C20.9429 0.288827 20.3297 0.759581 19.9574 1.40459C19.5852 2.0496 19.4845 2.81602 19.6775 3.53526C19.8704 4.2545 20.3413 4.86763 20.9865 5.23978L30.8563 10.9338C31.2801 11.1815 31.7616 11.3136 32.2525 11.3169Z" fill="#34A853"/>
<path d="M48.1454 33.6121L51.5177 23.8763H53.2201L48.8426 35.6792H47.4645L43.0951 23.8763H44.7894L48.1454 33.6121ZM57.8569 35.8414C56.668 35.8414 55.7006 35.4523 54.9548 34.674C54.2091 33.8904 53.8362 32.8447 53.8362 31.5369V31.2612C53.8362 30.3911 54.001 29.6156 54.3307 28.9347C54.6657 28.2483 55.1305 27.7133 55.725 27.3296C56.3248 26.9405 56.9733 26.746 57.6705 26.746C58.8108 26.746 59.6971 27.1216 60.3294 27.8727C60.9617 28.6239 61.2779 29.6994 61.2779 31.0991V31.7233H55.3358C55.3575 32.588 55.6088 33.2878 56.0897 33.8229C56.5761 34.3525 57.1922 34.6173 57.938 34.6173C58.4676 34.6173 58.9162 34.5092 59.2837 34.293C59.6512 34.0769 59.9727 33.7904 60.2483 33.4338L61.1644 34.1471C60.4294 35.2766 59.3269 35.8414 57.8569 35.8414ZM57.6705 27.9781C57.0652 27.9781 56.5572 28.1997 56.1465 28.6429C55.7358 29.0806 55.4818 29.6967 55.3845 30.4911H59.7782V30.3776C59.7349 29.6156 59.5296 29.0266 59.1621 28.6104C58.7946 28.1889 58.2974 27.9781 57.6705 27.9781ZM64.6501 35.6792H63.1504V23.2278H64.6501V35.6792ZM68.6871 35.6792H67.1874V23.2278H68.6871V35.6792ZM70.6975 31.2126C70.6975 30.3533 70.8651 29.5805 71.2001 28.8942C71.5406 28.2078 72.0108 27.6782 72.6106 27.3053C73.2159 26.9324 73.905 26.746 74.6778 26.746C75.8721 26.746 76.8368 27.1594 77.5718 27.9862C78.3122 28.8131 78.6824 29.9129 78.6824 31.2856V31.3909C78.6824 32.2448 78.5175 33.0122 78.1879 33.6932C77.8636 34.3687 77.3961 34.8956 76.7855 35.2739C76.1802 35.6522 75.483 35.8414 74.694 35.8414C73.5051 35.8414 72.5404 35.4279 71.8 34.6011C71.065 33.7742 70.6975 32.6799 70.6975 31.318V31.2126ZM72.2053 31.3909C72.2053 32.3637 72.4296 33.1446 72.8782 33.7337C73.3321 34.3228 73.9374 34.6173 74.694 34.6173C75.456 34.6173 76.0613 34.3201 76.5098 33.7256C76.9584 33.1257 77.1827 32.288 77.1827 31.2126C77.1827 30.2506 76.953 29.4724 76.4936 28.8779C76.0397 28.2781 75.4344 27.9781 74.6778 27.9781C73.9374 27.9781 73.3402 28.2727 72.8863 28.8617C72.4323 29.4508 72.2053 30.2939 72.2053 31.3909ZM84.8027 28.2537C84.5757 28.2159 84.3298 28.197 84.065 28.197C83.0814 28.197 82.414 28.6158 82.0627 29.4535V35.6792H80.563V26.9081H82.0222L82.0465 27.9214C82.5383 27.1378 83.2355 26.746 84.138 26.746C84.4298 26.746 84.6514 26.7838 84.8027 26.8594V28.2537ZM89.6666 35.8414C88.4776 35.8414 87.5103 35.4523 86.7645 34.674C86.0187 33.8904 85.6458 32.8447 85.6458 31.5369V31.2612C85.6458 30.3911 85.8106 29.6156 86.1403 28.9347C86.4753 28.2483 86.9401 27.7133 87.5346 27.3296C88.1345 26.9405 88.783 26.746 89.4801 26.746C90.6204 26.746 91.5067 27.1216 92.139 27.8727C92.7713 28.6239 93.0875 29.6994 93.0875 31.0991V31.7233H87.1455C87.1671 32.588 87.4184 33.2878 87.8994 33.8229C88.3858 34.3525 89.0018 34.6173 89.7476 34.6173C90.2773 34.6173 90.7258 34.5092 91.0933 34.293C91.4608 34.0769 91.7823 33.7904 92.058 33.4338L92.974 34.1471C92.239 35.2766 91.1365 35.8414 89.6666 35.8414ZM89.4801 27.9781C88.8748 27.9781 88.3668 28.1997 87.9561 28.6429C87.5454 29.0806 87.2914 29.6967 87.1941 30.4911H91.5878V30.3776C91.5446 29.6156 91.3392 29.0266 90.9717 28.6104C90.6042 28.1889 90.107 27.9781 89.4801 27.9781ZM100.853 35.6792H99.297V23.8763H100.853V35.6792ZM104.89 26.9081L104.939 28.0106C105.609 27.1675 106.485 26.746 107.566 26.746C109.419 26.746 110.354 27.7917 110.37 29.8831V35.6792H108.871V29.875C108.865 29.2427 108.719 28.7753 108.433 28.4726C108.152 28.17 107.711 28.0187 107.112 28.0187C106.625 28.0187 106.198 28.1484 105.831 28.4078C105.463 28.6672 105.177 29.0076 104.972 29.4292V35.6792H103.472V26.9081H104.89ZM117.739 33.3527C117.739 32.9474 117.585 32.6339 117.277 32.4123C116.974 32.1854 116.442 31.9908 115.68 31.8287C114.923 31.6666 114.321 31.472 113.872 31.245C113.429 31.018 113.1 30.7478 112.883 30.4344C112.673 30.1209 112.567 29.748 112.567 29.3157C112.567 28.5969 112.87 27.9889 113.475 27.4917C114.086 26.9946 114.864 26.746 115.81 26.746C116.804 26.746 117.609 27.0027 118.226 27.5161C118.847 28.0295 119.158 28.6861 119.158 29.4859H117.65C117.65 29.0752 117.474 28.7212 117.123 28.424C116.777 28.1267 116.339 27.9781 115.81 27.9781C115.264 27.9781 114.837 28.097 114.529 28.3348C114.221 28.5726 114.067 28.8833 114.067 29.2671C114.067 29.6291 114.21 29.9021 114.497 30.0858C114.783 30.2695 115.299 30.4452 116.045 30.6127C116.796 30.7803 117.404 30.9802 117.869 31.2126C118.334 31.445 118.677 31.726 118.898 32.0557C119.125 32.3799 119.239 32.7771 119.239 33.2473C119.239 34.0309 118.925 34.6605 118.298 35.1361C117.672 35.6063 116.858 35.8414 115.858 35.8414C115.156 35.8414 114.534 35.7171 113.994 35.4685C113.454 35.2199 113.029 34.874 112.721 34.4308C112.419 33.9823 112.267 33.4986 112.267 32.9798H113.767C113.794 33.4824 113.994 33.8823 114.367 34.1795C114.745 34.4714 115.242 34.6173 115.858 34.6173C116.426 34.6173 116.88 34.5038 117.22 34.2768C117.566 34.0444 117.739 33.7364 117.739 33.3527ZM123.227 24.7842V26.9081H124.865V28.0673H123.227V33.5067C123.227 33.858 123.3 34.1228 123.446 34.3011C123.592 34.4741 123.841 34.5606 124.192 34.5606C124.365 34.5606 124.603 34.5281 124.905 34.4633V35.6792C124.511 35.7873 124.127 35.8414 123.754 35.8414C123.084 35.8414 122.579 35.6387 122.238 35.2334C121.898 34.8281 121.727 34.2525 121.727 33.5067V28.0673H120.131V26.9081H121.727V24.7842H123.227ZM128.253 35.6792H126.753V26.9081H128.253V35.6792ZM126.632 24.5815C126.632 24.3383 126.705 24.133 126.851 23.9654C127.002 23.7979 127.224 23.7142 127.515 23.7142C127.807 23.7142 128.029 23.7979 128.18 23.9654C128.332 24.133 128.407 24.3383 128.407 24.5815C128.407 24.8247 128.332 25.0274 128.18 25.1895C128.029 25.3516 127.807 25.4327 127.515 25.4327C127.224 25.4327 127.002 25.3516 126.851 25.1895C126.705 25.0274 126.632 24.8247 126.632 24.5815ZM132.695 24.7842V26.9081H134.333V28.0673H132.695V33.5067C132.695 33.858 132.768 34.1228 132.914 34.3011C133.06 34.4741 133.309 34.5606 133.66 34.5606C133.833 34.5606 134.071 34.5281 134.374 34.4633V35.6792C133.979 35.7873 133.595 35.8414 133.222 35.8414C132.552 35.8414 132.047 35.6387 131.707 35.2334C131.366 34.8281 131.196 34.2525 131.196 33.5067V28.0673H129.599V26.9081H131.196V24.7842H132.695ZM141.507 34.8118C140.924 35.4982 140.067 35.8414 138.937 35.8414C138.002 35.8414 137.289 35.5712 136.797 35.0307C136.311 34.4849 136.065 33.6797 136.06 32.615V26.9081H137.559V32.5745C137.559 33.9039 138.1 34.5687 139.181 34.5687C140.326 34.5687 141.088 34.1417 141.467 33.2878V26.9081H142.966V35.6792H141.54L141.507 34.8118ZM147.287 24.7842V26.9081H148.925V28.0673H147.287V33.5067C147.287 33.858 147.36 34.1228 147.506 34.3011C147.652 34.4741 147.9 34.5606 148.252 34.5606C148.425 34.5606 148.662 34.5281 148.965 34.4633V35.6792C148.571 35.7873 148.187 35.8414 147.814 35.8414C147.144 35.8414 146.639 35.6387 146.298 35.2334C145.958 34.8281 145.787 34.2525 145.787 33.5067V28.0673H144.19V26.9081H145.787V24.7842H147.287ZM154.323 35.8414C153.134 35.8414 152.167 35.4523 151.421 34.674C150.676 33.8904 150.303 32.8447 150.303 31.5369V31.2612C150.303 30.3911 150.467 29.6156 150.797 28.9347C151.132 28.2483 151.597 27.7133 152.191 27.3296C152.791 26.9405 153.44 26.746 154.137 26.746C155.277 26.746 156.164 27.1216 156.796 27.8727C157.428 28.6239 157.744 29.6994 157.744 31.0991V31.7233H151.802C151.824 32.588 152.075 33.2878 152.556 33.8229C153.043 34.3525 153.659 34.6173 154.405 34.6173C154.934 34.6173 155.383 34.5092 155.75 34.293C156.118 34.0769 156.439 33.7904 156.715 33.4338L157.631 34.1471C156.896 35.2766 155.793 35.8414 154.323 35.8414ZM154.137 27.9781C153.532 27.9781 153.024 28.1997 152.613 28.6429C152.202 29.0806 151.948 29.6967 151.851 30.4911H156.245V30.3776C156.201 29.6156 155.996 29.0266 155.629 28.6104C155.261 28.1889 154.764 27.9781 154.137 27.9781ZM163.208 31.2126C163.208 30.3533 163.376 29.5805 163.711 28.8942C164.051 28.2078 164.521 27.6782 165.121 27.3053C165.726 26.9324 166.416 26.746 167.188 26.746C168.383 26.746 169.347 27.1594 170.082 27.9862C170.823 28.8131 171.193 29.9129 171.193 31.2856V31.3909C171.193 32.2448 171.028 33.0122 170.698 33.6932C170.374 34.3687 169.907 34.8956 169.296 35.2739C168.691 35.6522 167.994 35.8414 167.205 35.8414C166.016 35.8414 165.051 35.4279 164.311 34.6011C163.576 33.7742 163.208 32.6799 163.208 31.318V31.2126ZM164.716 31.3909C164.716 32.3637 164.94 33.1446 165.389 33.7337C165.843 34.3228 166.448 34.6173 167.205 34.6173C167.967 34.6173 168.572 34.3201 169.02 33.7256C169.469 33.1257 169.693 32.288 169.693 31.2126C169.693 30.2506 169.464 29.4724 169.004 28.8779C168.55 28.2781 167.945 27.9781 167.188 27.9781C166.448 27.9781 165.851 28.2727 165.397 28.8617C164.943 29.4508 164.716 30.2939 164.716 31.3909ZM173.811 35.6792V28.0673H172.425V26.9081H173.811V26.0083C173.811 25.0679 174.063 24.341 174.565 23.8276C175.068 23.3142 175.778 23.0575 176.697 23.0575C177.043 23.0575 177.386 23.1035 177.727 23.1953L177.646 24.4113C177.392 24.3627 177.121 24.3383 176.835 24.3383C176.349 24.3383 175.973 24.4816 175.708 24.768C175.443 25.049 175.311 25.4543 175.311 25.984V26.9081H177.184V28.0673H175.311V35.6792H173.811ZM191.029 25.1571H187.236V35.6792H185.687V25.1571H181.902V23.8763H191.029V25.1571ZM195.374 35.8414C194.185 35.8414 193.218 35.4523 192.472 34.674C191.726 33.8904 191.354 32.8447 191.354 31.5369V31.2612C191.354 30.3911 191.518 29.6156 191.848 28.9347C192.183 28.2483 192.648 27.7133 193.242 27.3296C193.842 26.9405 194.491 26.746 195.188 26.746C196.328 26.746 197.215 27.1216 197.847 27.8727C198.479 28.6239 198.795 29.6994 198.795 31.0991V31.7233H192.853C192.875 32.588 193.126 33.2878 193.607 33.8229C194.094 34.3525 194.71 34.6173 195.455 34.6173C195.985 34.6173 196.434 34.5092 196.801 34.293C197.169 34.0769 197.49 33.7904 197.766 33.4338L198.682 34.1471C197.947 35.2766 196.844 35.8414 195.374 35.8414ZM195.188 27.9781C194.583 27.9781 194.075 28.1997 193.664 28.6429C193.253 29.0806 192.999 29.6967 192.902 30.4911H197.296V30.3776C197.252 29.6156 197.047 29.0266 196.68 28.6104C196.312 28.1889 195.815 27.9781 195.188 27.9781ZM204.056 34.6173C204.591 34.6173 205.059 34.4552 205.459 34.1309C205.859 33.8067 206.08 33.4013 206.124 32.9149H207.542C207.515 33.4175 207.342 33.8958 207.023 34.3498C206.704 34.8037 206.278 35.1658 205.743 35.436C205.213 35.7063 204.651 35.8414 204.056 35.8414C202.862 35.8414 201.911 35.4442 201.203 34.6497C200.5 33.8499 200.149 32.7582 200.149 31.3747V31.1234C200.149 30.2695 200.306 29.5102 200.619 28.8455C200.933 28.1808 201.381 27.6647 201.965 27.2972C202.554 26.9297 203.248 26.746 204.048 26.746C205.032 26.746 205.848 27.0405 206.496 27.6296C207.15 28.2186 207.499 28.9833 207.542 29.9237H206.124C206.08 29.3562 205.864 28.8915 205.475 28.5294C205.091 28.1619 204.616 27.9781 204.048 27.9781C203.286 27.9781 202.694 28.2537 202.273 28.805C201.857 29.3508 201.649 30.1425 201.649 31.1802V31.4639C201.649 32.4745 201.857 33.2527 202.273 33.7985C202.689 34.3444 203.284 34.6173 204.056 34.6173ZM210.728 27.97C211.393 27.154 212.257 26.746 213.322 26.746C215.176 26.746 216.111 27.7917 216.127 29.8831V35.6792H214.627V29.875C214.622 29.2427 214.476 28.7753 214.189 28.4726C213.908 28.17 213.468 28.0187 212.868 28.0187C212.382 28.0187 211.955 28.1484 211.587 28.4078C211.22 28.6672 210.933 29.0076 210.728 29.4292V35.6792H209.228V23.2278H210.728V27.97ZM219.791 26.9081L219.84 28.0106C220.51 27.1675 221.385 26.746 222.466 26.746C224.32 26.746 225.255 27.7917 225.271 29.8831V35.6792H223.771V29.875C223.766 29.2427 223.62 28.7753 223.333 28.4726C223.052 28.17 222.612 28.0187 222.012 28.0187C221.526 28.0187 221.099 28.1484 220.731 28.4078C220.364 28.6672 220.077 29.0076 219.872 29.4292V35.6792H218.372V26.9081H219.791ZM227.135 31.2126C227.135 30.3533 227.303 29.5805 227.638 28.8942C227.978 28.2078 228.449 27.6782 229.048 27.3053C229.654 26.9324 230.343 26.746 231.116 26.746C232.31 26.746 233.275 27.1594 234.01 27.9862C234.75 28.8131 235.12 29.9129 235.12 31.2856V31.3909C235.12 32.2448 234.955 33.0122 234.626 33.6932C234.301 34.3687 233.834 34.8956 233.223 35.2739C232.618 35.6522 231.921 35.8414 231.132 35.8414C229.943 35.8414 228.978 35.4279 228.238 34.6011C227.503 33.7742 227.135 32.6799 227.135 31.318V31.2126ZM228.643 31.3909C228.643 32.3637 228.867 33.1446 229.316 33.7337C229.77 34.3228 230.375 34.6173 231.132 34.6173C231.894 34.6173 232.499 34.3201 232.948 33.7256C233.396 33.1257 233.621 32.288 233.621 31.2126C233.621 30.2506 233.391 29.4724 232.931 28.8779C232.477 28.2781 231.872 27.9781 231.116 27.9781C230.375 27.9781 229.778 28.2727 229.324 28.8617C228.87 29.4508 228.643 30.2939 228.643 31.3909ZM238.63 35.6792H237.131V23.2278H238.63V35.6792ZM240.641 31.2126C240.641 30.3533 240.808 29.5805 241.143 28.8942C241.484 28.2078 241.954 27.6782 242.554 27.3053C243.159 26.9324 243.848 26.746 244.621 26.746C245.815 26.746 246.78 27.1594 247.515 27.9862C248.255 28.8131 248.626 29.9129 248.626 31.2856V31.3909C248.626 32.2448 248.461 33.0122 248.131 33.6932C247.807 34.3687 247.339 34.8956 246.729 35.2739C246.123 35.6522 245.426 35.8414 244.637 35.8414C243.448 35.8414 242.484 35.4279 241.743 34.6011C241.008 33.7742 240.641 32.6799 240.641 31.318V31.2126ZM242.148 31.3909C242.148 32.3637 242.373 33.1446 242.821 33.7337C243.275 34.3228 243.881 34.6173 244.637 34.6173C245.399 34.6173 246.004 34.3201 246.453 33.7256C246.902 33.1257 247.126 32.288 247.126 31.2126C247.126 30.2506 246.896 29.4724 246.437 28.8779C245.983 28.2781 245.378 27.9781 244.621 27.9781C243.881 27.9781 243.283 28.2727 242.829 28.8617C242.375 29.4508 242.148 30.2939 242.148 31.3909ZM250.15 31.2207C250.15 29.8534 250.466 28.7672 251.098 27.9619C251.73 27.1513 252.568 26.746 253.611 26.746C254.681 26.746 255.516 27.1243 256.116 27.8809L256.189 26.9081H257.559V35.4685C257.559 36.6034 257.221 37.4978 256.545 38.1517C255.875 38.8056 254.973 39.1326 253.838 39.1326C253.206 39.1326 252.587 38.9975 251.982 38.7273C251.376 38.457 250.914 38.0868 250.595 37.6167L251.374 36.7169C252.017 37.5113 252.803 37.9085 253.733 37.9085C254.462 37.9085 255.03 37.7031 255.435 37.2924C255.846 36.8817 256.051 36.3034 256.051 35.5576V34.8037C255.451 35.4955 254.632 35.8414 253.595 35.8414C252.568 35.8414 251.736 35.4279 251.098 34.6011C250.466 33.7742 250.15 32.6474 250.15 31.2207ZM251.657 31.3909C251.657 32.3799 251.86 33.1581 252.265 33.7256C252.671 34.2876 253.238 34.5687 253.968 34.5687C254.913 34.5687 255.608 34.139 256.051 33.2797V29.2752C255.592 28.4375 254.903 28.0187 253.984 28.0187C253.254 28.0187 252.684 28.3024 252.273 28.8698C251.863 29.4373 251.657 30.2777 251.657 31.3909ZM262.698 33.4824L264.741 26.9081H266.346L262.82 37.033C262.274 38.4922 261.407 39.2217 260.218 39.2217L259.934 39.1974L259.375 39.092V37.8761L259.78 37.9085C260.288 37.9085 260.682 37.8058 260.963 37.6005C261.25 37.3951 261.485 37.0195 261.669 36.4737L262.001 35.582L258.872 26.9081H260.51L262.698 33.4824Z" fill="#656C73"/>
</svg>
