<svg viewBox="0 0 297 37" fill="none" xmlns="http://www.w3.org/2000/svg">
<path d="M14.8694 12.7302L5.00284 7.0395C4.68291 6.85581 4.32994 6.73694 3.96408 6.68967C3.59821 6.64239 3.22661 6.66763 2.87051 6.76397C2.5144 6.8603 2.18076 7.02584 1.88863 7.25112C1.5965 7.4764 1.3516 7.757 1.16791 8.07693C0.984227 8.39685 0.865354 8.74982 0.818081 9.11569C0.770808 9.48155 0.796065 9.85316 0.8924 10.2093C0.988736 10.5654 1.15427 10.899 1.37954 11.1911C1.60482 11.4833 1.88544 11.7282 2.20536 11.9119L12.072 17.6026C12.7165 17.9747 13.4825 18.0755 14.2015 17.8829C14.9204 17.6902 15.5333 17.2199 15.9054 16.5753C16.2775 15.9307 16.3784 15.1647 16.1857 14.4458C15.9931 13.7269 15.5227 13.1139 14.8781 12.7418L14.8694 12.7302Z" fill="white"/>
<path d="M34.5213 7.03946L24.6547 1.35164C24.0101 0.979522 23.2441 0.878706 22.5252 1.07136C21.8063 1.26401 21.1934 1.73437 20.8213 2.37894C20.4491 3.02352 20.3483 3.78951 20.541 4.50843C20.7336 5.22734 21.204 5.84028 21.8485 6.2124L31.7151 11.9002C32.3597 12.2723 33.1257 12.3732 33.8446 12.1805C34.5635 11.9879 35.1765 11.5175 35.5486 10.8729C35.9207 10.2283 36.0216 9.46235 35.8289 8.74343C35.6363 8.02452 35.1659 7.41158 34.5213 7.03946Z" fill="white"/>
<path d="M31.3264 12.5764L26.7268 9.92114L21.8602 12.7302C21.5411 12.9145 21.2613 13.1598 21.037 13.4522C20.8126 13.7445 20.6481 14.0782 20.5527 14.4342C20.4573 14.7902 20.4329 15.1614 20.481 15.5268C20.5291 15.8922 20.6487 16.2445 20.833 16.5637C21.0172 16.8829 21.2625 17.1626 21.5549 17.3869C21.8473 17.6113 22.181 17.7759 22.5369 17.8713C22.8929 17.9667 23.2642 17.991 23.6296 17.9429C23.9949 17.8948 24.3473 17.7752 24.6664 17.591L32.5887 13.0175C32.1441 12.9506 31.7159 12.801 31.3264 12.5764Z" fill="white"/>
<path d="M5.39773 6.36333L10.0031 9.0099L14.8697 6.20082C15.2162 6.03245 15.5244 5.79452 15.775 5.50185C16.0255 5.20919 16.2132 4.86806 16.3261 4.49972C16.4391 4.13138 16.4751 3.7437 16.4317 3.36087C16.3883 2.97804 16.2666 2.60825 16.074 2.27452C15.8815 1.94079 15.6223 1.65027 15.3126 1.42108C15.0029 1.19189 14.6493 1.02895 14.2739 0.94237C13.8985 0.855795 13.5093 0.847455 13.1305 0.917874C12.7517 0.988293 12.3914 1.13595 12.0722 1.35167L4.1499 5.92513C4.58927 5.99317 5.01229 6.14173 5.39773 6.36333Z" fill="white"/>
<path d="M46.9882 14.9996C45.9843 14.4311 45.1538 13.6006 44.5854 12.5968C44.0069 11.5628 43.7031 10.3979 43.7031 9.21309C43.7031 8.02833 44.0069 6.86335 44.5854 5.82942C45.1538 4.82559 45.9843 3.99508 46.9882 3.42662C47.9977 2.84636 49.1436 2.54584 50.308 2.55604C51.214 2.55106 52.1126 2.72051 52.9546 3.05516C53.7333 3.35726 54.4295 3.83959 54.9859 4.46262L53.9006 5.54794C53.4871 5.03601 52.9511 4.63675 52.3422 4.38716C51.6986 4.11947 51.0079 3.9833 50.3109 3.98669C49.4349 3.98375 48.5731 4.2077 47.8094 4.63672C47.0331 5.06915 46.3875 5.70268 45.9406 6.47075C45.4798 7.3082 45.2381 8.24853 45.2381 9.20438C45.2381 10.1602 45.4798 11.1006 45.9406 11.938C46.3875 12.7061 47.0331 13.3396 47.8094 13.772C48.7768 14.3476 49.9098 14.5807 51.0259 14.4339C52.1419 14.287 53.176 13.7687 53.9615 12.9624C54.2839 12.6078 54.5377 12.1965 54.7102 11.7494C54.9035 11.2547 55.0181 10.7328 55.0498 10.2026H50.3486V8.79521H56.4717C56.5296 9.10043 56.5597 9.41027 56.5617 9.72093C56.5627 10.4985 56.4363 11.271 56.1873 12.0077C55.9441 12.7403 55.536 13.4074 54.9946 13.9578C53.7971 15.2288 52.2358 15.8643 50.3109 15.8643C49.1463 15.8754 47.9996 15.577 46.9882 14.9996Z" fill="white"/>
<path d="M59.8876 15.2578C59.2044 14.8539 58.6468 14.2682 58.2771 13.5659C57.8976 12.8249 57.6997 12.0043 57.6997 11.1718C57.6997 10.3393 57.8976 9.51874 58.2771 8.77773C58.6468 8.07547 59.2044 7.48974 59.8876 7.0859C60.6007 6.68255 61.4059 6.47058 62.2252 6.47058C63.0444 6.47058 63.8496 6.68255 64.5627 7.0859C65.2499 7.48841 65.8116 8.07421 66.1849 8.77773C66.5643 9.51874 66.7622 10.3393 66.7622 11.1718C66.7622 12.0043 66.5643 12.8249 66.1849 13.5659C65.8116 14.2695 65.2499 14.8553 64.5627 15.2578C63.8496 15.6611 63.0444 15.8731 62.2252 15.8731C61.4059 15.8731 60.6007 15.6611 59.8876 15.2578ZM63.7182 14.097C64.187 13.8179 64.5711 13.4167 64.8296 12.9362C65.1043 12.3923 65.2475 11.7914 65.2475 11.182C65.2475 10.5726 65.1043 9.97173 64.8296 9.42777C64.5706 8.94767 64.1866 8.54658 63.7182 8.26699C63.2662 7.99518 62.7482 7.85265 62.2208 7.85492C61.7 7.85429 61.189 7.99683 60.7437 8.26699C60.274 8.54496 59.8896 8.94646 59.6323 9.42777C59.3558 9.97119 59.2116 10.5723 59.2116 11.182C59.2116 11.7917 59.3558 12.3928 59.6323 12.9362C59.8891 13.4179 60.2737 13.8195 60.7437 14.097C61.1898 14.365 61.7004 14.5065 62.2208 14.5062C62.7484 14.5065 63.2661 14.3631 63.7182 14.0912V14.097Z" fill="white"/>
<path d="M69.9862 15.2578C69.3015 14.8548 68.7428 14.2689 68.3728 13.5659C67.9933 12.8249 67.7954 12.0043 67.7954 11.1718C67.7954 10.3393 67.9933 9.51872 68.3728 8.77772C68.7428 8.07471 69.3015 7.48881 69.9862 7.08588C70.6895 6.67296 71.4923 6.46021 72.3078 6.47067C73.1298 6.45901 73.9395 6.67171 74.6497 7.08588C75.3369 7.48839 75.8986 8.07419 76.2718 8.77772C76.6513 9.51872 76.8492 10.3393 76.8492 11.1718C76.8492 12.0043 76.6513 12.8249 76.2718 13.5659C75.8986 14.2695 75.3369 14.8552 74.6497 15.2578C73.9395 15.6719 73.1298 15.8846 72.3078 15.873C71.4923 15.8834 70.6895 15.6707 69.9862 15.2578ZM73.8139 14.097C74.2827 13.8179 74.6668 13.4166 74.9253 12.9362C75.2 12.3922 75.3432 11.7914 75.3432 11.182C75.3432 10.5726 75.2 9.97171 74.9253 9.42775C74.6663 8.94765 74.2823 8.54656 73.8139 8.26697C73.3625 7.99313 72.8445 7.84857 72.3165 7.84909C71.7957 7.84846 71.2847 7.99101 70.8394 8.26116C70.3704 8.53995 69.9861 8.94124 69.728 9.42194C69.4515 9.96536 69.3073 10.5665 69.3073 11.1762C69.3073 11.7859 69.4515 12.387 69.728 12.9304C69.9856 13.4114 70.37 13.8129 70.8394 14.0912C71.2855 14.3592 71.7961 14.5007 72.3165 14.5003C72.8435 14.5025 73.3612 14.361 73.8139 14.0912V14.097Z" fill="white"/>
<path d="M79.6525 18.9519C79.0275 18.5101 78.5501 17.8902 78.2827 17.1731L79.6902 16.5927C79.8623 17.1086 80.1961 17.5553 80.642 17.8666C81.1187 18.1992 81.689 18.371 82.27 18.357C83.2064 18.357 83.928 18.0843 84.4349 17.5387C84.9417 16.9931 85.1942 16.2328 85.1923 15.2578V14.3146H85.1139C84.8065 14.7862 84.3841 15.1717 83.8864 15.4348C83.3299 15.7388 82.7038 15.8928 82.0698 15.8817C81.3309 15.8844 80.6071 15.6727 79.9862 15.2723C79.3356 14.8579 78.8068 14.278 78.454 13.592C78.0799 12.8427 77.8853 12.0166 77.8853 11.1791C77.8853 10.3416 78.0799 9.5155 78.454 8.76612C78.8078 8.08089 79.3364 7.50128 79.9862 7.0859C80.6079 6.68757 81.3314 6.47699 82.0698 6.4794C82.7034 6.46875 83.3291 6.62167 83.8864 6.92339C84.3842 7.18759 84.8066 7.57405 85.1139 8.04644H85.1865V6.76379H86.6374V15.2403C86.661 16.1017 86.4611 16.9546 86.057 17.7157C85.7036 18.3665 85.1599 18.894 84.4987 19.2276C83.804 19.5689 83.0381 19.74 82.2642 19.7268C81.332 19.7637 80.4137 19.4913 79.6525 18.9519ZM83.75 14.097C84.202 13.8136 84.5683 13.4123 84.8092 12.9362C85.087 12.3873 85.2246 11.7782 85.2097 11.1631C85.2241 10.5454 85.0866 9.93351 84.8092 9.38134C84.5711 8.90333 84.2043 8.5013 83.75 8.22057C83.3117 7.9585 82.8097 7.82196 82.299 7.82589C81.7871 7.82137 81.2842 7.96117 80.8481 8.22926C80.3954 8.51284 80.0283 8.91405 79.786 9.39004C79.5224 9.94397 79.3856 10.5497 79.3856 11.1631C79.3856 11.7766 79.5224 12.3823 79.786 12.9362C80.0271 13.4131 80.3945 13.8146 80.8481 14.097C81.2829 14.3609 81.7817 14.5004 82.2903 14.5004C82.7989 14.5004 83.2978 14.3609 83.7326 14.097H83.75Z" fill="white"/>
<path d="M88.6807 2.8374H90.1955V15.5885H88.6807V2.8374Z" fill="white"/>
<path d="M93.7821 15.2664C93.1124 14.8643 92.5671 14.2848 92.2063 13.592C91.8141 12.8463 91.6146 12.0143 91.6259 11.1718C91.6169 10.3544 91.7998 9.54634 92.1599 8.81253C92.4984 8.11277 93.0249 7.52096 93.6805 7.10328C94.3603 6.67598 95.1499 6.45614 95.9527 6.47066C96.7424 6.45425 97.5213 6.65502 98.2046 7.05105C98.8502 7.43585 99.3673 8.00339 99.6904 8.68194C100.048 9.43778 100.225 10.2663 100.207 11.1022C100.212 11.2222 100.2 11.3423 100.172 11.4591H93.1669C93.1717 12.0535 93.3382 12.6353 93.6486 13.1422C93.9217 13.5772 94.3065 13.931 94.7629 14.1666C95.1888 14.3877 95.6616 14.5032 96.1414 14.5032C97.2596 14.5032 98.1205 13.9577 98.7241 12.8665L100.059 13.5079C99.6899 14.2063 99.1472 14.7979 98.4832 15.2258C97.772 15.6439 96.9635 15.868 96.1385 15.8757C95.3135 15.8833 94.5009 15.6742 93.7821 15.2693V15.2664ZM98.6167 10.1909C98.5916 9.81928 98.493 9.4563 98.3265 9.12304C98.1255 8.74591 97.8242 8.43159 97.456 8.21473C96.9937 7.94839 96.4655 7.81857 95.9324 7.84037C95.2919 7.82655 94.6698 8.05568 94.1913 8.4817C93.6954 8.92809 93.3685 9.53172 93.2656 10.1909H98.6167Z" fill="white"/>
<path d="M106.008 2.83745H109.873C111.063 2.80975 112.24 3.08857 113.292 3.6471C114.242 4.16574 115.021 4.94902 115.535 5.9019C116.05 6.92962 116.318 8.0634 116.318 9.21303C116.318 10.3627 116.05 11.4964 115.535 12.5241C115.021 13.477 114.242 14.2603 113.292 14.779C112.24 15.3365 111.063 15.6153 109.873 15.5886H106.008V2.83745ZM109.873 14.155C111.38 14.155 112.573 13.7217 113.451 12.855C114.33 11.9882 114.769 10.7772 114.769 9.22172C114.769 7.67402 114.33 6.46296 113.451 5.58851C112.573 4.71405 111.38 4.28068 109.873 4.28842H107.523V14.155H109.873Z" fill="white"/>
<path d="M119.743 15.2664C119.073 14.8643 118.528 14.2848 118.167 13.592C117.775 12.8463 117.576 12.0143 117.587 11.1718C117.578 10.3544 117.761 9.54634 118.121 8.81253C118.46 8.11336 118.987 7.52177 119.641 7.10328C120.321 6.67598 121.111 6.45614 121.914 6.47066C122.703 6.45425 123.482 6.65502 124.166 7.05105C124.812 7.43448 125.33 8.0024 125.651 8.68194C126.009 9.43778 126.185 10.2663 126.168 11.1022C126.173 11.2222 126.161 11.3423 126.133 11.4591H119.128C119.131 12.0537 119.298 12.6359 119.61 13.1422C119.882 13.5765 120.266 13.9301 120.721 14.1666C121.148 14.3874 121.622 14.5029 122.102 14.5032C123.217 14.5032 124.078 13.9577 124.685 12.8665L126.02 13.5079C125.651 14.2063 125.108 14.7979 124.444 15.2258C123.733 15.6439 122.924 15.868 122.099 15.8757C121.274 15.8833 120.462 15.6742 119.743 15.2693V15.2664ZM124.581 10.1909C124.555 9.81928 124.457 9.4563 124.29 9.12304C124.089 8.74591 123.788 8.43159 123.42 8.21473C122.958 7.94839 122.429 7.81857 121.896 7.84037C121.256 7.82655 120.634 8.05568 120.155 8.4817C119.659 8.92809 119.332 9.53172 119.229 10.1909H124.581Z" fill="white"/>
<path d="M126.536 6.75513H128.173L130.88 13.8069H130.915L133.658 6.75513H135.262L131.646 15.5886H130.114L126.536 6.75513Z" fill="white"/>
<path d="M138.028 15.2665C137.36 14.8627 136.815 14.2836 136.452 13.5921C136.061 12.8459 135.862 12.0142 135.872 11.1718C135.863 10.3545 136.046 9.54637 136.406 8.81256C136.746 8.11319 137.274 7.52163 137.929 7.10331C138.608 6.6764 139.397 6.45657 140.199 6.47069C140.988 6.45399 141.767 6.65477 142.451 7.05108C143.097 7.43571 143.615 8.00321 143.939 8.68197C144.295 9.43829 144.472 10.2665 144.456 11.1022C144.462 11.2224 144.449 11.3428 144.418 11.4591H137.416C137.418 12.0534 137.584 12.6357 137.895 13.1423C138.169 13.5763 138.553 13.9298 139.009 14.1666C139.435 14.3874 139.908 14.5029 140.387 14.5033C141.506 14.5033 142.366 13.9577 142.97 12.8666L144.308 13.5079C143.936 14.2056 143.393 14.7969 142.729 15.2258C142.018 15.644 141.209 15.868 140.384 15.8757C139.559 15.8833 138.747 15.6743 138.028 15.2694V15.2665ZM142.863 10.191C142.837 9.81934 142.739 9.45639 142.573 9.12307C142.373 8.74467 142.072 8.42992 141.702 8.21476C141.241 7.94851 140.713 7.81868 140.181 7.8404C139.541 7.826 138.918 8.0552 138.44 8.48173C137.944 8.92812 137.617 9.53176 137.514 10.191H142.863Z" fill="white"/>
<path d="M145.997 2.8374H147.506V15.5885H145.997V2.8374Z" fill="white"/>
<path d="M151.145 15.2578C150.462 14.854 149.906 14.2682 149.537 13.5659C149.158 12.8249 148.96 12.0043 148.96 11.1718C148.96 10.3393 149.158 9.51872 149.537 8.77772C149.907 8.07471 150.466 7.48881 151.151 7.08588C151.854 6.67296 152.657 6.46021 153.472 6.47067C154.294 6.45901 155.104 6.67171 155.814 7.08588C156.501 7.48839 157.063 8.07419 157.436 8.77772C157.816 9.51872 158.014 10.3393 158.014 11.1718C158.014 12.0043 157.816 12.8249 157.436 13.5659C157.063 14.2695 156.501 14.8552 155.814 15.2578C155.104 15.6719 154.294 15.8846 153.472 15.873C152.655 15.8845 151.85 15.6717 151.145 15.2578ZM154.973 14.097C155.441 13.8179 155.826 13.4166 156.084 12.9362C156.359 12.3922 156.502 11.7914 156.502 11.182C156.502 10.5726 156.359 9.97171 156.084 9.42775C155.825 8.94765 155.441 8.54656 154.973 8.26697C154.521 7.99516 154.003 7.85263 153.475 7.8549C152.954 7.85427 152.443 7.99682 151.998 8.26697C151.53 8.54656 151.146 8.94765 150.887 9.42775C150.61 9.97117 150.466 10.5722 150.466 11.182C150.466 11.7917 150.61 12.3928 150.887 12.9362C151.145 13.4166 151.529 13.8179 151.998 14.097C152.444 14.365 152.955 14.5065 153.475 14.5061C154.003 14.5065 154.521 14.363 154.973 14.0912V14.097Z" fill="white"/>
<path d="M159.404 6.75502H160.855V8.0551H160.924C161.234 7.58211 161.655 7.19324 162.152 6.92334C162.72 6.61336 163.359 6.4573 164.006 6.47064C164.752 6.46729 165.482 6.68107 166.107 7.08585C166.756 7.50326 167.283 8.08367 167.637 8.76897C168.012 9.5142 168.208 10.3372 168.208 11.1718C168.208 12.0064 168.012 12.8294 167.637 13.5746C167.283 14.2599 166.756 14.8403 166.107 15.2577C165.482 15.6625 164.752 15.8763 164.006 15.8729C163.356 15.886 162.714 15.7289 162.143 15.4173C161.639 15.1478 161.218 14.7466 160.924 14.2566H160.855L160.924 15.487V19.422H159.404V6.75502ZM165.208 14.0911C165.662 13.8082 166.031 13.4069 166.276 12.9304C166.539 12.3831 166.676 11.7835 166.676 11.1761C166.676 10.5687 166.539 9.96914 166.276 9.42191C166.031 8.94568 165.662 8.54457 165.208 8.26113C164.773 7.98866 164.27 7.84572 163.757 7.84906C163.245 7.84548 162.742 7.98521 162.306 8.25243C161.848 8.53293 161.478 8.93473 161.235 9.41321C160.973 9.96559 160.837 10.5692 160.837 11.1805C160.837 11.7918 160.973 12.3954 161.235 12.9478C161.477 13.4268 161.848 13.8288 162.306 14.1086C162.743 14.3736 163.245 14.5123 163.757 14.509C164.27 14.5093 164.773 14.3645 165.208 14.0911Z" fill="white"/>
<path d="M171.717 15.2665C171.048 14.8627 170.503 14.2836 170.141 13.5921C169.75 12.8459 169.55 12.0142 169.56 11.1718C169.551 10.3545 169.734 9.54637 170.094 8.81256C170.435 8.11319 170.962 7.52163 171.618 7.10331C172.297 6.6764 173.085 6.45657 173.887 6.47069C174.677 6.45399 175.456 6.65477 176.139 7.05108C176.786 7.43571 177.304 8.00321 177.628 8.68197C177.984 9.43829 178.16 10.2665 178.144 11.1022C178.15 11.2224 178.138 11.3428 178.107 11.4591H171.093C171.095 12.0534 171.261 12.6357 171.571 13.1423C171.846 13.5763 172.23 13.9298 172.686 14.1666C173.112 14.3871 173.585 14.5025 174.064 14.5033C175.182 14.5033 176.043 13.9577 176.647 12.8666L177.985 13.5079C177.614 14.2052 177.072 14.7965 176.409 15.2258C175.697 15.6439 174.888 15.868 174.063 15.8756C173.237 15.8833 172.424 15.6742 171.705 15.2694L171.717 15.2665ZM176.554 10.191C176.529 9.81934 176.43 9.45639 176.264 9.12307C176.065 8.74467 175.763 8.42992 175.393 8.21476C174.932 7.94851 174.405 7.81868 173.873 7.8404C173.237 7.82968 172.621 8.05864 172.146 8.48173C171.65 8.92812 171.323 9.53176 171.22 10.191H176.554Z" fill="white"/>
<path d="M179.686 6.75506H181.137V8.20603H181.209C181.398 7.69047 181.76 7.25655 182.233 6.97851C182.686 6.6656 183.221 6.4921 183.771 6.47939C184.124 6.47597 184.474 6.53592 184.805 6.6564V8.27858C184.419 8.08456 183.991 7.99265 183.56 8.0116C183.144 8.01199 182.739 8.1396 182.399 8.37725C182.032 8.62346 181.733 8.95769 181.528 9.34939C181.315 9.75665 181.205 10.2101 181.209 10.6698V15.6031H179.694L179.686 6.75506Z" fill="white"/>
<path d="M191.429 15.4726C190.824 15.2049 190.283 14.8088 189.845 14.3118C189.375 13.7707 189.036 13.1281 188.855 12.4342L190.306 11.8538C190.486 12.5747 190.877 13.2254 191.429 13.7227C191.948 14.1996 192.629 14.461 193.333 14.454C194.013 14.4758 194.679 14.2649 195.222 13.8562C195.471 13.6614 195.669 13.4091 195.799 13.121C195.929 12.8329 195.987 12.5176 195.968 12.2021C195.975 11.9245 195.92 11.6488 195.808 11.3949C195.696 11.141 195.528 10.9152 195.318 10.7337C194.684 10.2428 193.962 9.87646 193.191 9.65416L192.387 9.36397C191.574 9.09472 190.823 8.66442 190.179 8.09873C189.889 7.81959 189.662 7.48117 189.515 7.10655C189.368 6.73194 189.303 6.32997 189.326 5.92808C189.323 5.33015 189.496 4.74466 189.825 4.24496C190.167 3.71863 190.643 3.29215 191.203 3.00873C191.817 2.69258 192.5 2.53307 193.191 2.54441C193.857 2.52954 194.518 2.66962 195.121 2.95359C195.625 3.19014 196.074 3.53028 196.438 3.95186C196.735 4.29096 196.962 4.68546 197.106 5.11264L195.701 5.71624C195.541 5.19336 195.21 4.73926 194.761 4.42633C194.312 4.1134 193.772 3.95966 193.226 3.98959C192.621 3.97376 192.029 4.16865 191.551 4.54094C191.334 4.70155 191.158 4.9112 191.038 5.15277C190.917 5.39435 190.856 5.66102 190.858 5.93099C190.852 6.1655 190.901 6.39815 191.002 6.60996C191.103 6.82177 191.252 7.00675 191.438 7.14981C191.98 7.53704 192.582 7.83127 193.22 8.02039L194.038 8.31058C194.976 8.61891 195.84 9.11895 196.575 9.77896C196.886 10.0925 197.129 10.4677 197.287 10.8805C197.445 11.2933 197.514 11.7346 197.492 12.176C197.517 12.9151 197.295 13.6415 196.859 14.2392C196.452 14.7885 195.9 15.2144 195.266 15.4697C194.633 15.7295 193.956 15.8626 193.272 15.8614C192.637 15.8627 192.01 15.7302 191.429 15.4726Z" fill="white"/>
<path d="M201.192 15.6843C200.904 15.5733 200.64 15.4066 200.417 15.1939C200.182 14.9687 200.003 14.6928 199.892 14.3872C199.772 14.0342 199.715 13.6629 199.723 13.2902V8.1393H198.156V6.76668H199.723V4.13171H201.221V6.76668H203.391V8.1393H201.221V12.9478C201.185 13.3463 201.287 13.7449 201.511 14.0767C201.621 14.2134 201.763 14.3212 201.924 14.391C202.086 14.4607 202.261 14.4903 202.437 14.4771C202.774 14.4849 203.106 14.3984 203.397 14.2276V15.6785C203.222 15.7467 203.04 15.7972 202.854 15.8294C202.628 15.8649 202.399 15.8804 202.17 15.8759C201.834 15.8754 201.502 15.8104 201.192 15.6843Z" fill="white"/>
<path d="M205.745 14.9299C205.182 14.3002 204.897 13.4267 204.897 12.3182V6.75513H206.415V12.0628C206.415 13.6879 207.146 14.5004 208.606 14.5004C209.075 14.5057 209.533 14.3625 209.915 14.0912C210.3 13.8188 210.607 13.4507 210.806 13.0233C211.011 12.5888 211.117 12.114 211.116 11.6333V6.75513H212.611V15.5886H211.186V14.2683H211.116C210.829 14.7463 210.421 15.1398 209.932 15.4087C209.418 15.7151 208.83 15.8757 208.232 15.873C207.138 15.873 206.308 15.5567 205.745 14.9299Z" fill="white"/>
<path d="M216.168 15.2664C215.519 14.8508 214.991 14.27 214.639 13.5833C214.263 12.8345 214.067 12.0082 214.067 11.1703C214.067 10.3325 214.263 9.50616 214.639 8.75737C214.991 8.07179 215.519 7.49197 216.168 7.07715C216.797 6.67749 217.527 6.46695 218.272 6.47064C218.918 6.46058 219.556 6.61646 220.124 6.92334C220.625 7.18671 221.048 7.57696 221.351 8.05511H221.424L221.351 6.84498V2.8374H222.849V15.5885H221.424V14.2682H221.351C221.056 14.7599 220.631 15.1613 220.124 15.4289C219.556 15.7382 218.919 15.8952 218.272 15.8845C217.526 15.8848 216.796 15.6702 216.168 15.2664ZM219.941 14.1056C220.399 13.8259 220.77 13.4239 221.012 12.9449C221.275 12.393 221.412 11.7892 221.412 11.1776C221.412 10.566 221.275 9.96217 221.012 9.41031C220.769 8.93183 220.398 8.53003 219.941 8.24953C219.504 7.9823 219.002 7.84257 218.49 7.84616C217.977 7.8433 217.474 7.9862 217.039 8.25823C216.585 8.54167 216.216 8.94278 215.971 9.41901C215.708 9.96623 215.571 10.5658 215.571 11.1732C215.571 11.7806 215.708 12.3802 215.971 12.9275C216.215 13.404 216.584 13.8053 217.039 14.0882C217.475 14.3581 217.978 14.4999 218.49 14.4974C219.005 14.5037 219.512 14.366 219.953 14.0998L219.941 14.1056Z" fill="white"/>
<path d="M226.453 15.2664C225.783 14.8643 225.238 14.2848 224.877 13.592C224.485 12.8463 224.285 12.0143 224.297 11.1718C224.288 10.3544 224.471 9.54634 224.831 8.81253C225.17 8.11336 225.697 7.52177 226.351 7.10328C227.031 6.67598 227.821 6.45614 228.624 6.47066C229.413 6.45425 230.192 6.65502 230.876 7.05105C231.521 7.43585 232.038 8.00339 232.361 8.68194C232.719 9.43778 232.895 10.2663 232.878 11.1022C232.883 11.2222 232.871 11.3423 232.843 11.4591H225.826C225.831 12.0535 225.997 12.6353 226.308 13.1422C226.581 13.5772 226.966 13.931 227.422 14.1666C227.848 14.3877 228.321 14.5032 228.801 14.5032C229.917 14.5032 230.778 13.9577 231.383 12.8665L232.718 13.5079C232.349 14.2063 231.806 14.7979 231.143 15.2258C230.431 15.6439 229.623 15.868 228.798 15.8757C227.973 15.8833 227.16 15.6742 226.441 15.2693L226.453 15.2664ZM231.288 10.1909C231.263 9.81928 231.164 9.4563 230.997 9.12304C230.796 8.74591 230.495 8.43159 230.127 8.21473C229.665 7.94839 229.136 7.81857 228.603 7.84037C227.963 7.82655 227.341 8.05568 226.862 8.4817C226.366 8.92809 226.039 9.53172 225.936 10.1909H231.288Z" fill="white"/>
<path d="M234.422 6.7551H235.873V8.07259H235.942C236.218 7.59458 236.62 7.20117 237.103 6.93502C237.621 6.62965 238.211 6.46928 238.813 6.47071C239.895 6.47071 240.716 6.78702 241.279 7.41384C241.842 8.04066 242.127 8.90545 242.127 9.99658V15.5886H240.629V10.2287C240.629 8.63847 239.887 7.84236 238.403 7.84042C237.943 7.83518 237.494 7.97984 237.124 8.25251C236.746 8.52687 236.446 8.89491 236.253 9.32042C236.046 9.75335 235.938 10.2275 235.94 10.7075V15.5886H234.428L234.422 6.7551Z" fill="white"/>
<path d="M246.076 15.6843C245.787 15.5746 245.524 15.4078 245.301 15.1939C245.067 14.9687 244.887 14.6928 244.776 14.3872C244.655 14.0343 244.597 13.6631 244.605 13.2902V8.1393H243.038V6.76668H244.605V4.13171H246.102V6.76668H248.273V8.1393H246.102V12.9478C246.068 13.3461 246.17 13.7442 246.392 14.0767C246.503 14.2132 246.645 14.3209 246.806 14.3906C246.967 14.4604 247.143 14.4901 247.318 14.4771C247.656 14.4845 247.989 14.3981 248.281 14.2276V15.6785C248.105 15.7467 247.922 15.7973 247.736 15.8294C247.509 15.8649 247.28 15.8804 247.051 15.8759C246.717 15.875 246.386 15.81 246.076 15.6843Z" fill="white"/>
<path d="M256.375 14.9996C255.378 14.4309 254.556 13.5998 253.999 12.5967C253.431 11.5592 253.134 10.3956 253.134 9.21308C253.134 8.03052 253.431 6.86694 253.999 5.82941C254.556 4.82633 255.378 3.99531 256.375 3.42661C257.394 2.8424 258.55 2.54178 259.724 2.55603C260.624 2.54587 261.515 2.73102 262.336 3.09869C263.117 3.4578 263.811 3.98377 264.367 4.63962L263.299 5.69012C262.873 5.14634 262.328 4.70753 261.706 4.40747C261.077 4.12598 260.393 3.98628 259.704 3.99828C258.826 3.99855 257.964 4.22546 257.199 4.65703C256.43 5.08971 255.793 5.72374 255.357 6.49106C254.908 7.33224 254.673 8.27111 254.673 9.22468C254.673 10.1783 254.908 11.1171 255.357 11.9583C255.793 12.7256 256.43 13.3597 257.199 13.7923C257.972 14.2252 258.844 14.4493 259.73 14.4424C260.49 14.4456 261.241 14.2756 261.926 13.9453C262.611 13.6149 263.212 13.1329 263.682 12.5358L264.768 13.6037C264.176 14.3138 263.434 14.8828 262.594 15.2694C261.61 15.7149 260.536 15.9236 259.457 15.8787C258.378 15.8339 257.325 15.5367 256.381 15.0112L256.375 14.9996Z" fill="white"/>
<path d="M266.239 2.8374H267.754V15.5885H266.239V2.8374Z" fill="white"/>
<path d="M270.548 14.9299C269.985 14.3012 269.704 13.4306 269.704 12.3182V6.75513H271.218V12.0628C271.218 13.6879 271.948 14.5004 273.406 14.5004C273.875 14.5061 274.333 14.3629 274.715 14.0912C275.1 13.8188 275.407 13.4507 275.606 13.0233C275.813 12.5893 275.919 12.1141 275.917 11.6333V6.75513H277.414V15.5886H275.989V14.2683H275.917C275.63 14.7463 275.221 15.1398 274.733 15.4087C274.219 15.7151 273.631 15.8757 273.032 15.873C271.95 15.873 271.128 15.5567 270.548 14.9299Z" fill="white"/>
<path d="M282.202 15.4173C281.698 15.1478 281.277 14.7466 280.983 14.2566H280.911V15.5769H279.46V2.8374H280.995V6.84498L280.923 8.05511H280.995C281.304 7.58212 281.726 7.19324 282.223 6.92334C282.79 6.61335 283.428 6.45727 284.074 6.47064C284.819 6.46679 285.55 6.6806 286.175 7.08585C286.824 7.50319 287.353 8.08355 287.707 8.76897C288.083 9.5142 288.279 10.3372 288.279 11.1718C288.279 12.0064 288.083 12.8294 287.707 13.5746C287.353 14.26 286.824 14.8404 286.175 15.2577C285.55 15.663 284.819 15.8768 284.074 15.8729C283.421 15.888 282.775 15.7309 282.202 15.4173ZM285.284 14.0911C285.739 13.8082 286.108 13.4069 286.352 12.9304C286.616 12.3831 286.753 11.7835 286.753 11.1761C286.753 10.5687 286.616 9.96914 286.352 9.42191C286.107 8.94568 285.738 8.54457 285.284 8.26113C284.849 7.98911 284.346 7.84621 283.833 7.84906C283.322 7.8464 282.819 7.98606 282.382 8.25244C281.926 8.53335 281.556 8.93511 281.314 9.41321C281.051 9.96508 280.914 10.5689 280.914 11.1805C280.914 11.7921 281.051 12.3959 281.314 12.9478C281.556 13.4259 281.926 13.8276 282.382 14.1086C282.82 14.3728 283.322 14.5113 283.833 14.509C284.347 14.5089 284.849 14.364 285.284 14.0911Z" fill="white"/>
<path d="M290.438 15.1591C289.814 14.7235 289.337 14.1095 289.068 13.3976L290.403 12.8172C290.606 13.3332 290.955 13.7789 291.407 14.0999C291.822 14.392 292.317 14.5482 292.823 14.5468C293.322 14.5665 293.816 14.4361 294.24 14.1724C294.404 14.0823 294.541 13.9513 294.639 13.7921C294.738 13.6329 294.793 13.451 294.8 13.2641C294.804 13.0963 294.769 12.9297 294.696 12.7783C294.623 12.6269 294.516 12.495 294.382 12.3936C293.948 12.105 293.46 11.9075 292.948 11.8132L291.738 11.523C291.112 11.3876 290.528 11.1007 290.038 10.6872C289.807 10.4906 289.624 10.2443 289.503 9.96688C289.381 9.68944 289.324 9.38806 289.335 9.08535C289.323 8.57573 289.489 8.07785 289.805 7.6779C290.138 7.27473 290.572 6.96727 291.062 6.78702C291.609 6.58587 292.188 6.48749 292.771 6.49682C293.497 6.4876 294.212 6.6687 294.846 7.02207C295.447 7.34872 295.916 7.8739 296.172 8.50787L294.837 9.08825C294.666 8.6815 294.358 8.34707 293.967 8.14222C293.566 7.94217 293.123 7.84257 292.675 7.85202C292.246 7.83405 291.82 7.93336 291.442 8.13931C291.278 8.21896 291.138 8.34227 291.039 8.49579C290.94 8.64931 290.884 8.82715 290.879 9.0099C290.874 9.15266 290.905 9.29443 290.969 9.4222C291.033 9.54997 291.128 9.65965 291.245 9.74119C291.601 9.96756 291.994 10.1305 292.406 10.2229L293.723 10.5421C294.459 10.6917 295.139 11.0399 295.691 11.5491C295.9 11.7575 296.066 12.006 296.177 12.2797C296.289 12.5534 296.345 12.8467 296.341 13.1423C296.344 13.641 296.189 14.128 295.897 14.5323C295.576 14.9644 295.145 15.3022 294.649 15.5103C294.075 15.7561 293.456 15.8777 292.832 15.8672C291.979 15.8969 291.138 15.6484 290.438 15.1591Z" fill="white"/>
<path d="M47.6706 31.9951L50.2058 24.6758H51.4856L48.1947 33.5492H47.1586L43.8738 24.6758H45.1475L47.6706 31.9951ZM54.9716 33.6711C54.0778 33.6711 53.3505 33.3786 52.7898 32.7935C52.2291 32.2044 51.9488 31.4182 51.9488 30.435V30.2278C51.9488 29.5736 52.0727 28.9906 52.3206 28.4787C52.5725 27.9627 52.9219 27.5605 53.3688 27.272C53.8198 26.9795 54.3073 26.8332 54.8314 26.8332C55.6887 26.8332 56.355 27.1156 56.8304 27.6803C57.3057 28.2451 57.5434 29.0536 57.5434 30.1059V30.5751H53.0763C53.0925 31.2252 53.2814 31.7514 53.643 32.1536C54.0087 32.5518 54.4719 32.7508 55.0325 32.7508C55.4307 32.7508 55.7679 32.6696 56.0442 32.5071C56.3205 32.3445 56.5622 32.1292 56.7694 31.8611L57.4581 32.3974C56.9055 33.2465 56.0767 33.6711 54.9716 33.6711ZM54.8314 27.7596C54.3764 27.7596 53.9945 27.9261 53.6857 28.2593C53.3769 28.5884 53.186 29.0516 53.1128 29.6488H56.416V29.5635C56.3835 28.9906 56.2291 28.5478 55.9528 28.2349C55.6765 27.918 55.3027 27.7596 54.8314 27.7596ZM60.0787 33.5492H58.9512V24.1883H60.0787V33.5492ZM63.1137 33.5492H61.9862V24.1883H63.1137V33.5492ZM64.6251 30.1912C64.6251 29.5452 64.751 28.9642 65.0029 28.4482C65.2589 27.9322 65.6124 27.5341 66.0633 27.2537C66.5184 26.9734 67.0364 26.8332 67.6174 26.8332C68.5153 26.8332 69.2405 27.144 69.7931 27.7656C70.3497 28.3873 70.628 29.2141 70.628 30.2461V30.3253C70.628 30.9672 70.5041 31.5441 70.2563 32.0561C70.0125 32.5639 69.661 32.9601 69.2019 33.2445C68.7469 33.5289 68.2228 33.6711 67.6296 33.6711C66.7358 33.6711 66.0105 33.3603 65.4539 32.7386C64.9013 32.117 64.6251 31.2943 64.6251 30.2704V30.1912ZM65.7586 30.3253C65.7586 31.0566 65.9272 31.6437 66.2645 32.0865C66.6057 32.5294 67.0608 32.7508 67.6296 32.7508C68.2025 32.7508 68.6575 32.5274 68.9947 32.0805C69.332 31.6295 69.5006 30.9997 69.5006 30.1912C69.5006 29.468 69.3279 28.8829 68.9825 28.436C68.6413 27.985 68.1862 27.7596 67.6174 27.7596C67.0608 27.7596 66.6118 27.981 66.2705 28.4238C65.9293 28.8667 65.7586 29.5005 65.7586 30.3253ZM75.2293 27.9668C75.0586 27.9383 74.8738 27.9241 74.6747 27.9241C73.9352 27.9241 73.4335 28.239 73.1694 28.8687V33.5492H72.0419V26.9551H73.1389L73.1572 27.7169C73.5269 27.1278 74.051 26.8332 74.7295 26.8332C74.9489 26.8332 75.1155 26.8616 75.2293 26.9185V27.9668ZM78.8859 33.6711C77.992 33.6711 77.2648 33.3786 76.7041 32.7935C76.1434 32.2044 75.8631 31.4182 75.8631 30.435V30.2278C75.8631 29.5736 75.987 28.9906 76.2348 28.4787C76.4867 27.9627 76.8361 27.5605 77.2831 27.272C77.734 26.9795 78.2216 26.8332 78.7457 26.8332C79.603 26.8332 80.2693 27.1156 80.7447 27.6803C81.22 28.2451 81.4577 29.0536 81.4577 30.1059V30.5751H76.9905C77.0068 31.2252 77.1957 31.7514 77.5573 32.1536C77.923 32.5518 78.3861 32.7508 78.9468 32.7508C79.345 32.7508 79.6822 32.6696 79.9585 32.5071C80.2348 32.3445 80.4765 32.1292 80.6837 31.8611L81.3724 32.3974C80.8198 33.2465 79.991 33.6711 78.8859 33.6711ZM78.7457 27.7596C78.2907 27.7596 77.9087 27.9261 77.6 28.2593C77.2912 28.5884 77.1002 29.0516 77.0271 29.6488H80.3302V29.5635C80.2977 28.9906 80.1433 28.5478 79.8671 28.2349C79.5908 27.918 79.217 27.7596 78.7457 27.7596ZM87.2961 33.5492H86.126V24.6758H87.2961V33.5492ZM90.3311 26.9551L90.3677 27.7839C90.8715 27.1501 91.5296 26.8332 92.3422 26.8332C93.7358 26.8332 94.4387 27.6194 94.4509 29.1917V33.5492H93.3234V29.1856C93.3194 28.7103 93.2097 28.3588 92.9943 28.1313C92.7831 27.9038 92.4519 27.79 92.0009 27.79C91.6353 27.79 91.3143 27.8875 91.038 28.0826C90.7618 28.2776 90.5464 28.5335 90.392 28.8504V33.5492H89.2646V26.9551H90.3311ZM99.9907 31.8001C99.9907 31.4954 99.8749 31.2597 99.6433 31.0932C99.4158 30.9225 99.0156 30.7763 98.4427 30.6544C97.8739 30.5325 97.4209 30.3862 97.0836 30.2156C96.7505 30.0449 96.5026 29.8418 96.3401 29.6061C96.1817 29.3705 96.1025 29.0902 96.1025 28.7651C96.1025 28.2248 96.33 27.7677 96.785 27.3939C97.2441 27.0201 97.8292 26.8332 98.5402 26.8332C99.2878 26.8332 99.8931 27.0262 100.356 27.4122C100.824 27.7981 101.057 28.2918 101.057 28.8931H99.9236C99.9236 28.5843 99.7916 28.3182 99.5275 28.0947C99.2675 27.8713 98.9384 27.7596 98.5402 27.7596C98.1298 27.7596 97.8089 27.8489 97.5773 28.0277C97.3457 28.2065 97.2299 28.4401 97.2299 28.7286C97.2299 29.0008 97.3376 29.2059 97.5529 29.3441C97.7682 29.4822 98.1563 29.6143 98.7169 29.7402C99.2817 29.8662 99.7388 30.0165 100.088 30.1912C100.438 30.3659 100.696 30.5772 100.862 30.825C101.033 31.0688 101.118 31.3674 101.118 31.7209C101.118 32.31 100.882 32.7833 100.411 33.1409C99.9399 33.4943 99.3284 33.6711 98.5768 33.6711C98.0486 33.6711 97.5814 33.5776 97.1751 33.3907C96.7688 33.2038 96.4498 32.9438 96.2182 32.6107C95.9907 32.2734 95.877 31.9098 95.877 31.5198H97.0044C97.0247 31.8976 97.1751 32.1983 97.4554 32.4217C97.7398 32.6411 98.1136 32.7508 98.5768 32.7508C99.0034 32.7508 99.3447 32.6655 99.6006 32.4949C99.8606 32.3202 99.9907 32.0886 99.9907 31.8001ZM104.117 25.3584V26.9551H105.348V27.8266H104.117V31.9159C104.117 32.18 104.171 32.3791 104.281 32.5132C104.391 32.6432 104.578 32.7082 104.842 32.7082C104.972 32.7082 105.151 32.6838 105.378 32.635V33.5492C105.081 33.6305 104.793 33.6711 104.513 33.6711C104.009 33.6711 103.629 33.5187 103.373 33.214C103.117 32.9093 102.989 32.4766 102.989 31.9159V27.8266H101.788V26.9551H102.989V25.3584H104.117ZM107.895 33.5492H106.768V26.9551H107.895V33.5492ZM106.676 25.206C106.676 25.0232 106.731 24.8688 106.841 24.7428C106.954 24.6169 107.121 24.5539 107.34 24.5539C107.56 24.5539 107.726 24.6169 107.84 24.7428C107.954 24.8688 108.011 25.0232 108.011 25.206C108.011 25.3888 107.954 25.5412 107.84 25.6631C107.726 25.785 107.56 25.8459 107.34 25.8459C107.121 25.8459 106.954 25.785 106.841 25.6631C106.731 25.5412 106.676 25.3888 106.676 25.206ZM111.235 25.3584V26.9551H112.466V27.8266H111.235V31.9159C111.235 32.18 111.29 32.3791 111.399 32.5132C111.509 32.6432 111.696 32.7082 111.96 32.7082C112.09 32.7082 112.269 32.6838 112.496 32.635V33.5492C112.2 33.6305 111.911 33.6711 111.631 33.6711C111.127 33.6711 110.747 33.5187 110.491 33.214C110.235 32.9093 110.107 32.4766 110.107 31.9159V27.8266H108.907V26.9551H110.107V25.3584H111.235ZM117.859 32.8971C117.421 33.4131 116.777 33.6711 115.927 33.6711C115.225 33.6711 114.688 33.4679 114.319 33.0616C113.953 32.6513 113.768 32.0459 113.764 31.2455V26.9551H114.891V31.2151C114.891 32.2145 115.298 32.7143 116.11 32.7143C116.972 32.7143 117.544 32.3933 117.829 31.7514V26.9551H118.956V33.5492H117.884L117.859 32.8971ZM122.205 25.3584V26.9551H123.436V27.8266H122.205V31.9159C122.205 32.18 122.259 32.3791 122.369 32.5132C122.479 32.6432 122.666 32.7082 122.93 32.7082C123.06 32.7082 123.239 32.6838 123.466 32.635V33.5492C123.17 33.6305 122.881 33.6711 122.601 33.6711C122.097 33.6711 121.717 33.5187 121.461 33.214C121.205 32.9093 121.077 32.4766 121.077 31.9159V27.8266H119.877V26.9551H121.077V25.3584H122.205ZM127.495 33.6711C126.601 33.6711 125.873 33.3786 125.313 32.7935C124.752 32.2044 124.472 31.4182 124.472 30.435V30.2278C124.472 29.5736 124.596 28.9906 124.843 28.4787C125.095 27.9627 125.445 27.5605 125.892 27.272C126.343 26.9795 126.83 26.8332 127.354 26.8332C128.212 26.8332 128.878 27.1156 129.353 27.6803C129.829 28.2451 130.066 29.0536 130.066 30.1059V30.5751H125.599C125.615 31.2252 125.804 31.7514 126.166 32.1536C126.532 32.5518 126.995 32.7508 127.555 32.7508C127.954 32.7508 128.291 32.6696 128.567 32.5071C128.843 32.3445 129.085 32.1292 129.292 31.8611L129.981 32.3974C129.428 33.2465 128.6 33.6711 127.495 33.6711ZM127.354 27.7596C126.899 27.7596 126.517 27.9261 126.209 28.2593C125.9 28.5884 125.709 29.0516 125.636 29.6488H128.939V29.5635C128.906 28.9906 128.752 28.5478 128.476 28.2349C128.199 27.918 127.826 27.7596 127.354 27.7596ZM134.174 30.1912C134.174 29.5452 134.3 28.9642 134.552 28.4482C134.808 27.9322 135.161 27.5341 135.612 27.2537C136.067 26.9734 136.585 26.8332 137.166 26.8332C138.064 26.8332 138.789 27.144 139.342 27.7656C139.899 28.3873 140.177 29.2141 140.177 30.2461V30.3253C140.177 30.9672 140.053 31.5441 139.805 32.0561C139.561 32.5639 139.21 32.9601 138.751 33.2445C138.296 33.5289 137.772 33.6711 137.178 33.6711C136.285 33.6711 135.559 33.3603 135.003 32.7386C134.45 32.117 134.174 31.2943 134.174 30.2704V30.1912ZM135.307 30.3253C135.307 31.0566 135.476 31.6437 135.813 32.0865C136.155 32.5294 136.61 32.7508 137.178 32.7508C137.751 32.7508 138.206 32.5274 138.544 32.0805C138.881 31.6295 139.049 30.9997 139.049 30.1912C139.049 29.468 138.877 28.8829 138.531 28.436C138.19 27.985 137.735 27.7596 137.166 27.7596C136.61 27.7596 136.161 27.981 135.819 28.4238C135.478 28.8667 135.307 29.5005 135.307 30.3253ZM142.145 33.5492V27.8266H141.103V26.9551H142.145V26.2786C142.145 25.5717 142.334 25.0252 142.712 24.6392C143.09 24.2533 143.624 24.0603 144.315 24.0603C144.575 24.0603 144.833 24.0948 145.089 24.1639L145.028 25.078C144.837 25.0415 144.634 25.0232 144.419 25.0232C144.053 25.0232 143.771 25.1308 143.571 25.3462C143.372 25.5575 143.273 25.8622 143.273 26.2603V26.9551H144.681V27.8266H143.273V33.5492H142.145ZM155.09 25.6387H152.238V33.5492H151.074V25.6387H148.228V24.6758H155.09V25.6387ZM158.356 33.6711C157.463 33.6711 156.735 33.3786 156.175 32.7935C155.614 32.2044 155.334 31.4182 155.334 30.435V30.2278C155.334 29.5736 155.457 28.9906 155.705 28.4787C155.957 27.9627 156.307 27.5605 156.754 27.272C157.205 26.9795 157.692 26.8332 158.216 26.8332C159.073 26.8332 159.74 27.1156 160.215 27.6803C160.69 28.2451 160.928 29.0536 160.928 30.1059V30.5751H156.461C156.477 31.2252 156.666 31.7514 157.028 32.1536C157.393 32.5518 157.857 32.7508 158.417 32.7508C158.815 32.7508 159.153 32.6696 159.429 32.5071C159.705 32.3445 159.947 32.1292 160.154 31.8611L160.843 32.3974C160.29 33.2465 159.461 33.6711 158.356 33.6711ZM158.216 27.7596C157.761 27.7596 157.379 27.9261 157.07 28.2593C156.762 28.5884 156.571 29.0516 156.498 29.6488H159.801V29.5635C159.768 28.9906 159.614 28.5478 159.338 28.2349C159.061 27.918 158.687 27.7596 158.216 27.7596ZM164.883 32.7508C165.286 32.7508 165.637 32.6289 165.938 32.3852C166.238 32.1414 166.405 31.8367 166.437 31.471H167.504C167.484 31.8489 167.354 32.2084 167.114 32.5497C166.874 32.891 166.553 33.1632 166.151 33.3664C165.753 33.5695 165.33 33.6711 164.883 33.6711C163.986 33.6711 163.27 33.3725 162.738 32.7752C162.21 32.1739 161.946 31.3532 161.946 30.3131V30.1242C161.946 29.4822 162.064 28.9114 162.299 28.4116C162.535 27.9119 162.872 27.5239 163.311 27.2476C163.754 26.9713 164.276 26.8332 164.877 26.8332C165.617 26.8332 166.23 27.0546 166.718 27.4975C167.209 27.9403 167.471 28.5153 167.504 29.2222H166.437C166.405 28.7956 166.242 28.4462 165.95 28.174C165.661 27.8977 165.304 27.7596 164.877 27.7596C164.304 27.7596 163.86 27.9668 163.543 28.3812C163.23 28.7915 163.073 29.3867 163.073 30.1668V30.3801C163.073 31.1399 163.23 31.7249 163.543 32.1353C163.856 32.5457 164.302 32.7508 164.883 32.7508ZM169.899 27.7535C170.399 27.14 171.049 26.8332 171.849 26.8332C173.243 26.8332 173.946 27.6194 173.958 29.1917V33.5492H172.83V29.1856C172.826 28.7103 172.717 28.3588 172.501 28.1313C172.29 27.9038 171.959 27.79 171.508 27.79C171.142 27.79 170.821 27.8875 170.545 28.0826C170.269 28.2776 170.053 28.5335 169.899 28.8504V33.5492H168.772V24.1883H169.899V27.7535ZM176.713 26.9551L176.749 27.7839C177.253 27.1501 177.911 26.8332 178.724 26.8332C180.117 26.8332 180.82 27.6194 180.832 29.1917V33.5492H179.705V29.1856C179.701 28.7103 179.591 28.3588 179.376 28.1313C179.165 27.9038 178.833 27.79 178.382 27.79C178.017 27.79 177.696 27.8875 177.42 28.0826C177.143 28.2776 176.928 28.5335 176.774 28.8504V33.5492H175.646V26.9551H176.713ZM182.234 30.1912C182.234 29.5452 182.36 28.9642 182.612 28.4482C182.868 27.9322 183.221 27.5341 183.672 27.2537C184.127 26.9734 184.645 26.8332 185.226 26.8332C186.124 26.8332 186.85 27.144 187.402 27.7656C187.959 28.3873 188.237 29.2141 188.237 30.2461V30.3253C188.237 30.9672 188.113 31.5441 187.865 32.0561C187.621 32.5639 187.27 32.9601 186.811 33.2445C186.356 33.5289 185.832 33.6711 185.239 33.6711C184.345 33.6711 183.62 33.3603 183.063 32.7386C182.51 32.117 182.234 31.2943 182.234 30.2704V30.1912ZM183.368 30.3253C183.368 31.0566 183.536 31.6437 183.873 32.0865C184.215 32.5294 184.67 32.7508 185.239 32.7508C185.811 32.7508 186.267 32.5274 186.604 32.0805C186.941 31.6295 187.11 30.9997 187.11 30.1912C187.11 29.468 186.937 28.8829 186.592 28.436C186.25 27.985 185.795 27.7596 185.226 27.7596C184.67 27.7596 184.221 27.981 183.88 28.4238C183.538 28.8667 183.368 29.5005 183.368 30.3253ZM190.876 33.5492H189.748V24.1883H190.876V33.5492ZM192.387 30.1912C192.387 29.5452 192.513 28.9642 192.765 28.4482C193.021 27.9322 193.375 27.5341 193.826 27.2537C194.281 26.9734 194.799 26.8332 195.38 26.8332C196.278 26.8332 197.003 27.144 197.555 27.7656C198.112 28.3873 198.39 29.2141 198.39 30.2461V30.3253C198.39 30.9672 198.266 31.5441 198.018 32.0561C197.775 32.5639 197.423 32.9601 196.964 33.2445C196.509 33.5289 195.985 33.6711 195.392 33.6711C194.498 33.6711 193.773 33.3603 193.216 32.7386C192.664 32.117 192.387 31.2943 192.387 30.2704V30.1912ZM193.521 30.3253C193.521 31.0566 193.689 31.6437 194.027 32.0865C194.368 32.5294 194.823 32.7508 195.392 32.7508C195.965 32.7508 196.42 32.5274 196.757 32.0805C197.094 31.6295 197.263 30.9997 197.263 30.1912C197.263 29.468 197.09 28.8829 196.745 28.436C196.403 27.985 195.948 27.7596 195.38 27.7596C194.823 27.7596 194.374 27.981 194.033 28.4238C193.691 28.8667 193.521 29.5005 193.521 30.3253ZM199.536 30.1973C199.536 29.1694 199.774 28.3527 200.249 27.7474C200.724 27.1379 201.354 26.8332 202.138 26.8332C202.943 26.8332 203.57 27.1176 204.021 27.6864L204.076 26.9551H205.106V33.3907C205.106 34.244 204.852 34.9164 204.344 35.408C203.841 35.8996 203.162 36.1454 202.309 36.1454C201.834 36.1454 201.368 36.0438 200.913 35.8407C200.458 35.6375 200.111 35.3592 199.871 35.0057L200.456 34.3293C200.94 34.9265 201.531 35.2251 202.23 35.2251C202.778 35.2251 203.205 35.0708 203.509 34.762C203.818 34.4532 203.973 34.0185 203.973 33.4578V32.891C203.522 33.4111 202.906 33.6711 202.126 33.6711C201.354 33.6711 200.728 33.3603 200.249 32.7386C199.774 32.117 199.536 31.2699 199.536 30.1973ZM200.67 30.3253C200.67 31.0688 200.822 31.6538 201.127 32.0805C201.431 32.503 201.858 32.7143 202.406 32.7143C203.117 32.7143 203.64 32.3913 203.973 31.7453V28.7346C203.627 28.1049 203.109 27.79 202.419 27.79C201.87 27.79 201.441 28.0033 201.133 28.4299C200.824 28.8565 200.67 29.4883 200.67 30.3253ZM208.97 31.8976L210.506 26.9551H211.713L209.061 34.567C208.651 35.6639 207.999 36.2124 207.105 36.2124L206.892 36.1941L206.471 36.1149V35.2008L206.776 35.2251C207.158 35.2251 207.455 35.1479 207.666 34.9936C207.881 34.8392 208.058 34.5568 208.196 34.1464L208.446 33.4761L206.094 26.9551H207.325L208.97 31.8976Z" fill="white"/>
</svg>
