<svg width="191" height="47" viewBox="0 0 191 47" fill="none" xmlns="http://www.w3.org/2000/svg">
<path d="M57.9175 34.0954C56.6422 36.3482 54.9167 38.1696 52.741 39.5586C50.6028 40.948 47.9773 41.6429 44.8638 41.6429C42.763 41.6429 40.8126 41.2859 39.012 40.5726C37.249 39.8215 35.711 38.7891 34.3981 37.4746C33.0852 36.1605 32.0536 34.6209 31.3034 32.8562C30.5907 31.0536 30.2344 29.082 30.2344 26.9419C30.2344 24.9517 30.5907 23.0741 31.3034 21.3093C32.0162 19.5069 33.0102 17.9485 34.2856 16.6342C35.561 15.2824 37.0614 14.2122 38.7869 13.4237C40.5499 12.6352 42.4816 12.2408 44.5824 12.2408C46.7955 12.2408 48.765 12.6163 50.4905 13.3674C52.216 14.0808 53.6601 15.0947 54.8228 16.409C55.9858 17.6856 56.8671 19.2065 57.4673 20.9713C58.0676 22.7362 58.3677 24.6513 58.3677 26.7165C58.3677 26.9794 58.3677 27.2045 58.3677 27.3926C58.3303 27.6177 58.3116 27.8241 58.3116 28.0121C58.2738 28.1998 58.2551 28.4062 58.2551 28.6317H37.4928C37.6428 29.7582 37.9429 30.7344 38.3931 31.5604C38.8807 32.3489 39.4621 33.0251 40.1371 33.5881C40.85 34.1141 41.619 34.5082 42.4442 34.7711C43.2693 34.9963 44.1135 35.109 44.9761 35.109C46.6642 35.109 48.0521 34.7337 49.14 33.9826C50.2652 33.1941 51.1469 32.2178 51.7845 31.0536L57.9175 34.0954ZM51.2217 23.3933C51.1843 22.9052 51.0155 22.3607 50.7154 21.7599C50.4527 21.1591 50.0403 20.5958 49.4775 20.0701C48.9525 19.5444 48.2774 19.1126 47.4519 18.7746C46.6642 18.4367 45.7077 18.2677 44.5824 18.2677C43.007 18.2677 41.619 18.7183 40.4186 19.6195C39.2183 20.5207 38.3743 21.7786 37.8866 23.3933H51.2217Z" fill="#FC5251"/>
<path d="M61.5609 26.7166L52.1082 13.1421H60.8297L65.8374 20.8024H66.2311L70.9574 13.1421H79.9602L70.2823 26.7166L79.9602 40.7416H71.2953L66.1188 32.8562H65.7247L60.717 40.7416H51.9956L61.5609 26.7166Z" fill="#FFBE55"/>
<path d="M94.2171 37.8125H93.7673C92.9044 38.8641 91.854 39.7654 90.6161 40.5164C89.416 41.2671 87.8592 41.6429 85.9459 41.6429C84.5205 41.6429 83.1704 41.3986 81.895 40.9105C80.6571 40.4599 79.5693 39.8215 78.6315 38.9955C77.6937 38.1695 76.9621 37.1742 76.4371 36.0103C75.9117 34.846 75.6494 33.5694 75.6494 32.18C75.6494 30.7531 75.9304 29.4765 76.4933 28.35C77.0561 27.1858 77.8438 26.1908 78.8564 25.3647C79.8694 24.5386 81.0508 23.919 82.4013 23.5059C83.7893 23.0554 85.2895 22.8301 86.9028 22.8301C88.7031 22.8301 90.185 22.9803 91.3477 23.2807C92.5103 23.5435 93.4672 23.8251 94.2171 24.1255V23.2807C94.2171 21.8162 93.636 20.6146 92.4729 19.6758C91.3102 18.6995 89.8662 18.2114 88.1407 18.2114C85.5896 18.2114 83.4327 19.2815 81.6697 21.4219L76.3245 17.7608C79.2505 14.0808 83.2452 12.2408 88.3094 12.2408C92.5856 12.2408 95.8491 13.2547 98.0996 15.2824C100.35 17.2726 101.476 20.2391 101.476 24.1819V40.7416H94.2171V37.8125ZM94.2171 29.5327C93.3546 29.1199 92.4542 28.8007 91.5164 28.5752C90.6161 28.3126 89.6222 28.1811 88.5343 28.1811C86.7714 28.1811 85.4022 28.5752 84.427 29.3637C83.4892 30.1148 83.0203 31.0536 83.0203 32.18C83.0203 33.3064 83.4705 34.2077 84.3704 34.8839C85.3082 35.5597 86.3773 35.8976 87.5778 35.8976C88.553 35.8976 89.4534 35.7286 90.2785 35.3907C91.1037 35.015 91.7978 34.5456 92.3607 33.9826C92.9605 33.3817 93.4107 32.7059 93.7108 31.9549C94.0483 31.1663 94.2171 30.359 94.2171 29.5327Z" fill="#34A853"/>
<path d="M100.922 19.9515H96.0835V13.643H100.922V5.19421H108.293V13.643H115.045V19.9515H108.293V30.6532C108.293 31.2915 108.349 31.8924 108.462 32.4558C108.612 32.9814 108.874 33.432 109.25 33.8074C109.775 34.4083 110.525 34.7087 111.5 34.7087C112.138 34.7087 112.645 34.6525 113.02 34.5397C113.395 34.3895 113.751 34.2019 114.089 33.9767L116.171 40.454C115.308 40.8672 114.37 41.1676 113.357 41.3553C112.382 41.5804 111.294 41.6932 110.094 41.6932C108.706 41.6932 107.449 41.4868 106.324 41.0736C105.236 40.6229 104.317 40.0221 103.567 39.271C101.804 37.5815 100.922 35.1781 100.922 32.0614V19.9515Z" fill="#4285F4"/>
<path d="M114.093 0.913452H121.464V12.2349L121.014 17.2479H121.464C122.252 15.9336 123.377 14.8634 124.84 14.0373C126.341 13.1737 128.01 12.7418 129.848 12.7418C133.412 12.7418 136.037 13.7933 137.725 15.8961C139.451 17.9989 140.314 20.8715 140.314 24.5139V41.2425H132.943V25.4151C132.943 23.5 132.493 22.0543 131.592 21.078C130.692 20.0641 129.435 19.5572 127.822 19.5572C126.809 19.5572 125.909 19.7825 125.122 20.2331C124.334 20.6462 123.659 21.2282 123.096 21.9792C122.571 22.7302 122.158 23.6126 121.858 24.6265C121.595 25.6028 121.464 26.6542 121.464 27.7808V41.2425H114.093V0.913452Z" fill="#FC5251"/>
<path d="M152.081 12.7418C154.219 12.7418 156.169 13.1173 157.932 13.8683C159.733 14.5818 161.271 15.5957 162.546 16.9099C163.859 18.1866 164.872 19.7262 165.585 21.5286C166.335 23.331 166.71 25.3024 166.71 27.4429C166.71 29.583 166.335 31.5545 165.585 33.3571C164.872 35.1593 163.859 36.7177 162.546 38.0318C161.271 39.3089 159.733 40.3225 157.932 41.0736C156.169 41.7868 154.219 42.1439 152.081 42.1439C149.942 42.1439 147.973 41.7868 146.173 41.0736C144.41 40.3225 142.872 39.3089 141.559 38.0318C140.283 36.7177 139.271 35.1593 138.52 33.3571C137.807 31.5545 137.451 29.583 137.451 27.4429C137.451 25.3024 137.807 23.331 138.52 21.5286C139.271 19.7262 140.283 18.1866 141.559 16.9099C142.872 15.5957 144.41 14.5818 146.173 13.8683C147.973 13.1173 149.942 12.7418 152.081 12.7418ZM152.081 35.3283C153.018 35.3283 153.918 35.1593 154.781 34.8215C155.682 34.4461 156.469 33.9202 157.145 33.2444C157.82 32.5686 158.345 31.7422 158.72 30.766C159.133 29.7898 159.339 28.6821 159.339 27.4429C159.339 26.2036 159.133 25.0959 158.72 24.1196C158.345 23.1433 157.82 22.3172 157.145 21.6413C156.469 20.9654 155.682 20.4584 154.781 20.1205C153.918 19.745 153.018 19.5572 152.081 19.5572C151.105 19.5572 150.186 19.745 149.323 20.1205C148.461 20.4584 147.692 20.9654 147.016 21.6413C146.341 22.3172 145.798 23.1433 145.385 24.1196C145.01 25.0959 144.822 26.2036 144.822 27.4429C144.822 28.6821 145.01 29.7898 145.385 30.766C145.798 31.7422 146.341 32.5686 147.016 33.2444C147.692 33.9202 148.461 34.4461 149.323 34.8215C150.186 35.1593 151.105 35.3283 152.081 35.3283Z" fill="#FFBE55"/>
<path d="M171.491 17.2479H171.942C172.804 15.8585 173.967 14.7696 175.43 13.981C176.893 13.1549 178.562 12.7418 180.438 12.7418C182.163 12.7418 183.683 13.0234 184.995 13.5867C186.308 14.15 187.377 14.9573 188.203 16.0087C189.065 17.0226 189.703 18.2617 190.116 19.7262C190.566 21.1531 190.791 22.749 190.791 24.5139V41.2426H183.42V25.4151C183.42 23.4249 182.97 21.9605 182.069 21.0217C181.207 20.0454 179.931 19.5572 178.243 19.5572C177.23 19.5572 176.33 19.7825 175.543 20.2331C174.792 20.6462 174.136 21.2282 173.573 21.9792C173.048 22.6927 172.635 23.5564 172.335 24.5702C172.073 25.5465 171.942 26.5979 171.942 27.7246V41.2426H164.57V13.643H171.491V17.2479Z" fill="#34A853"/>
<path d="M4.71266 46.3199L7.56042 28.7604H0L0.748734 23.544H8.17878L8.9173 18.849H1.35689L2.04044 13.6326H9.53569L11.3606 1.69299H18.5951L16.7702 13.6326H24.0699L25.8948 1.69299H33.0642L31.3044 13.6326H38.7996L38.1161 18.849H30.686L29.8823 23.544H37.5079L36.8244 28.7604H29.264L26.4162 46.3199H19.2469L22.0294 28.7604H14.7298L11.9472 46.3199H4.71266ZM15.2178 23.6745H22.7782L23.647 18.7185H16.0866L15.2178 23.6745Z" fill="#4285F4"/>
</svg>
