<svg width="307" height="65" viewBox="0 0 307 65" fill="none" xmlns="http://www.w3.org/2000/svg">
<path d="M56.2058 13.9495H63.3638V30.2273H63.788L77.6798 13.9495H86.3224V14.3737L72.5897 30.0683L87.754 51.4893V51.9135H79.0054L67.7116 35.7417L63.3638 40.7788V51.9135H56.2058V13.9495Z" fill="#5A90FC"/>
<path d="M87.5637 29.326H87.9879C88.8009 28.0181 89.8967 26.993 91.2753 26.2507C92.6539 25.473 94.2269 25.0842 95.9943 25.0842C97.6203 25.0842 99.0519 25.3493 100.289 25.8795C101.526 26.4097 102.534 27.1697 103.311 28.1595C104.124 29.1139 104.725 30.2804 105.114 31.6589C105.538 33.0022 105.75 34.5045 105.75 36.1658V51.9135H98.8045V37.0142C98.8045 35.1407 98.3803 33.7622 97.5319 32.8785C96.7189 31.9594 95.5171 31.4999 93.9264 31.4999C92.972 31.4999 92.1237 31.712 91.3813 32.1361C90.6744 32.525 90.0558 33.0729 89.5256 33.7798C89.0307 34.4515 88.6419 35.2645 88.3591 36.2189C88.1116 37.1379 87.9879 38.1277 87.9879 39.1881V51.9135H81.042V25.9325H87.5637V29.326ZM189.61 49.1563H189.185C188.372 50.146 187.383 50.9944 186.216 51.7014C185.085 52.4083 183.618 52.7618 181.815 52.7618C180.472 52.7618 179.2 52.532 177.998 52.0725C176.831 51.6483 175.806 51.0474 174.922 50.2698C174.039 49.4921 173.349 48.5554 172.855 47.4596C172.36 46.3638 172.112 45.1619 172.112 43.8541C172.112 42.5108 172.377 41.309 172.908 40.2486C173.438 39.1528 174.18 38.216 175.135 37.4384C176.089 36.6607 177.202 36.0775 178.475 35.6886C179.783 35.2645 181.197 35.0524 182.717 35.0524C184.413 35.0524 185.81 35.1938 186.906 35.4765C188.001 35.724 188.903 35.9891 189.61 36.2719V35.4765C189.61 34.098 189.062 32.9668 187.966 32.0831C186.87 31.1641 185.509 30.7045 183.883 30.7045C181.48 30.7045 179.447 31.712 177.786 33.7268L172.749 30.2804C175.506 26.8162 179.27 25.0842 184.042 25.0842C188.072 25.0842 191.147 26.0386 193.268 27.9474C195.389 29.8208 196.45 32.6133 196.45 36.3249V51.9135H189.61V49.1563ZM189.61 41.362C188.797 40.9732 187.948 40.6727 187.065 40.4606C186.216 40.2132 185.279 40.0895 184.254 40.0895C182.593 40.0895 181.303 40.4606 180.384 41.203C179.5 41.9099 179.058 42.7936 179.058 43.8541C179.058 44.9145 179.482 45.7629 180.331 46.3991C181.214 47.0354 182.222 47.3535 183.353 47.3535C184.272 47.3535 185.12 47.1945 185.898 46.8763C186.676 46.5229 187.33 46.081 187.86 45.5508C188.425 44.9852 188.85 44.3489 189.132 43.642C189.451 42.8997 189.61 42.1397 189.61 41.362ZM265.321 29.326H265.745C266.558 28.0181 267.654 26.993 269.032 26.2507C270.411 25.473 271.984 25.0842 273.751 25.0842C275.377 25.0842 276.809 25.3493 278.046 25.8795C279.283 26.4097 280.291 27.1697 281.068 28.1595C281.882 29.1139 282.482 30.2804 282.871 31.6589C283.295 33.0022 283.508 34.5045 283.508 36.1658V51.9135H276.562V37.0142C276.562 35.1407 276.137 33.7622 275.289 32.8785C274.476 31.9594 273.274 31.4999 271.684 31.4999C270.729 31.4999 269.881 31.712 269.138 32.1361C268.432 32.525 267.813 33.0729 267.283 33.7798C266.788 34.4515 266.399 35.2645 266.116 36.2189C265.869 37.1379 265.745 38.1277 265.745 39.1881V51.9135H258.799V25.9325H265.321V29.326Z" fill="#FBC235"/>
<path d="M117.427 25.0842C119.442 25.0842 121.28 25.4377 122.941 26.1446C124.638 26.8162 126.087 27.7706 127.289 29.0078C128.526 30.2097 129.481 31.6589 130.152 33.3557C130.859 35.0524 131.213 36.9082 131.213 38.923C131.213 40.9378 130.859 42.7936 130.152 44.4903C129.481 46.187 128.526 47.654 127.289 48.8912C126.087 50.093 124.638 51.0474 122.941 51.7544C121.28 52.426 119.442 52.7618 117.427 52.7618C115.412 52.7618 113.556 52.426 111.86 51.7544C110.198 51.0474 108.749 50.093 107.512 48.8912C106.31 47.654 105.355 46.187 104.649 44.4903C103.977 42.7936 103.641 40.9378 103.641 38.923C103.641 36.9082 103.977 35.0524 104.649 33.3557C105.355 31.6589 106.31 30.2097 107.512 29.0078C108.749 27.7706 110.198 26.8162 111.86 26.1446C113.556 25.4377 115.412 25.0842 117.427 25.0842ZM117.427 46.3461C118.311 46.3461 119.159 46.187 119.972 45.8689C120.82 45.5154 121.563 45.0206 122.199 44.3843C122.835 43.748 123.33 42.9704 123.684 42.0513C124.072 41.1323 124.267 40.0895 124.267 38.923C124.267 37.7565 124.072 36.7137 123.684 35.7947C123.33 34.8756 122.835 34.098 122.199 33.4617C121.563 32.8254 120.82 32.3482 119.972 32.0301C119.159 31.6766 118.311 31.4999 117.427 31.4999C116.508 31.4999 115.642 31.6766 114.829 32.0301C114.016 32.3482 113.291 32.8254 112.655 33.4617C112.019 34.098 111.506 34.8756 111.117 35.7947C110.764 36.7137 110.587 37.7565 110.587 38.923C110.587 40.0895 110.764 41.1323 111.117 42.0513C111.506 42.9704 112.019 43.748 112.655 44.3843C113.291 45.0206 114.016 45.5154 114.829 45.8689C115.642 46.187 116.508 46.3461 117.427 46.3461ZM198.473 31.871H193.913V25.9325H198.473V17.9792H205.419V25.9325H211.781V31.871H205.419V41.9453C205.419 42.5462 205.472 43.1118 205.578 43.642C205.719 44.1369 205.966 44.561 206.32 44.9145C206.815 45.4801 207.522 45.7629 208.441 45.7629C209.042 45.7629 209.519 45.7098 209.872 45.6038C210.226 45.4624 210.562 45.2857 210.88 45.0736L212.842 51.1711C212.029 51.56 211.145 51.8428 210.191 52.0195C209.272 52.2316 208.246 52.3376 207.115 52.3376C205.807 52.3376 204.623 52.1432 203.563 51.7544C202.538 51.3302 201.672 50.7646 200.965 50.0577C199.303 48.467 198.473 46.2047 198.473 43.2708V31.871ZM293.169 52.7618C291.472 52.7618 289.952 52.5497 288.609 52.1255C287.301 51.7014 286.153 51.1535 285.163 50.4819C284.208 49.7749 283.395 48.9796 282.724 48.0958C282.052 47.1768 281.54 46.2577 281.186 45.3387L287.39 42.6876C287.991 44.0308 288.786 45.0382 289.776 45.7098C290.801 46.3461 291.932 46.6642 293.169 46.6642C294.442 46.6642 295.449 46.4345 296.191 45.975C296.934 45.5154 297.305 44.9675 297.305 44.3313C297.305 43.6243 296.987 43.0587 296.351 42.6346C295.75 42.175 294.689 41.7685 293.169 41.415L289.511 40.6197C288.698 40.443 287.849 40.1602 286.966 39.7714C286.117 39.3825 285.34 38.8876 284.633 38.2867C283.926 37.6858 283.342 36.9612 282.883 36.1128C282.423 35.2645 282.194 34.2747 282.194 33.1436C282.194 31.871 282.459 30.7399 282.989 29.7501C283.554 28.7604 284.314 27.9297 285.269 27.2581C286.223 26.5511 287.337 26.0209 288.609 25.6674C289.917 25.2786 291.313 25.0842 292.798 25.0842C295.272 25.0842 297.482 25.5791 299.426 26.5688C301.37 27.5232 302.802 29.0609 303.721 31.1817L297.729 33.6208C297.234 32.5957 296.51 31.8534 295.555 31.3938C294.601 30.9343 293.646 30.7045 292.692 30.7045C291.702 30.7045 290.836 30.9166 290.094 31.3408C289.352 31.7296 288.98 32.2422 288.98 32.8785C288.98 33.4794 289.281 33.9566 289.882 34.3101C290.518 34.6635 291.366 34.9817 292.427 35.2645L296.404 36.2189C299.055 36.8551 301.016 37.8802 302.289 39.2942C303.597 40.6727 304.251 42.3164 304.251 44.2252C304.251 45.3564 303.986 46.4345 303.455 47.4596C302.925 48.4847 302.165 49.4037 301.176 50.2167C300.221 50.9944 299.055 51.613 297.676 52.0725C296.333 52.532 294.831 52.7618 293.169 52.7618Z" fill="#39AA68"/>
<path d="M153.968 45.2857C152.837 47.4773 151.247 49.28 149.196 50.6939C147.181 52.0725 144.654 52.7618 141.614 52.7618C139.599 52.7618 137.744 52.426 136.047 51.7544C134.385 51.0474 132.936 50.0753 131.699 48.8382C130.497 47.601 129.543 46.1517 128.836 44.4903C128.164 42.7936 127.828 40.9378 127.828 38.923C127.828 36.9082 128.164 35.0524 128.836 33.3557C129.543 31.6589 130.497 30.2097 131.699 29.0078C132.936 27.7706 134.385 26.8162 136.047 26.1446C137.744 25.4377 139.599 25.0842 141.614 25.0842C144.619 25.0842 147.146 25.7735 149.196 27.1521C151.247 28.5306 152.749 30.3157 153.703 32.5073L147.341 35.1584C146.74 33.9566 145.962 33.0552 145.008 32.4543C144.089 31.818 142.922 31.4999 141.508 31.4999C140.589 31.4999 139.723 31.6766 138.91 32.0301C138.097 32.3836 137.372 32.8785 136.736 33.5147C136.135 34.151 135.658 34.9287 135.304 35.8477C134.951 36.7668 134.774 37.7919 134.774 38.923C134.774 40.0541 134.951 41.0792 135.304 41.9983C135.658 42.9173 136.135 43.695 136.736 44.3313C137.372 44.9675 138.097 45.4624 138.91 45.8159C139.723 46.1694 140.589 46.3461 141.508 46.3461C142.957 46.3461 144.177 46.028 145.167 45.3917C146.192 44.7201 147.005 43.7657 147.606 42.5285L153.968 45.2857ZM210.528 13.9495H217.474V24.607L217.05 29.326H217.474C218.216 28.0888 219.277 27.0814 220.655 26.3037C222.069 25.4907 223.642 25.0842 225.374 25.0842C228.732 25.0842 231.207 26.0739 232.798 28.0534C234.424 30.0329 235.237 32.7371 235.237 36.1658V51.9135H228.291V37.0142C228.291 35.2114 227.866 33.8505 227.018 32.9315C226.17 31.9771 224.986 31.4999 223.466 31.4999C222.511 31.4999 221.663 31.712 220.921 32.1361C220.178 32.525 219.542 33.0729 219.012 33.7798C218.517 34.4868 218.128 35.3175 217.845 36.2719C217.598 37.1909 217.474 38.1807 217.474 39.2411V51.9135H210.528V13.9495Z" fill="#FC5251"/>
<path d="M151.843 13.9495H158.789V34.6282H159.107L167.803 25.9325H176.393V26.3567L166.743 35.7417L177.188 51.4893V51.9135H168.969L161.865 40.5137L158.789 43.5359V51.9135H151.843V13.9495ZM246.913 25.0842C248.928 25.0842 250.766 25.4377 252.427 26.1446C254.124 26.8162 255.573 27.7706 256.775 29.0078C258.012 30.2097 258.967 31.6589 259.638 33.3557C260.345 35.0524 260.699 36.9082 260.699 38.923C260.699 40.9378 260.345 42.7936 259.638 44.4903C258.967 46.187 258.012 47.654 256.775 48.8912C255.573 50.093 254.124 51.0474 252.427 51.7544C250.766 52.426 248.928 52.7618 246.913 52.7618C244.898 52.7618 243.042 52.426 241.346 51.7544C239.684 51.0474 238.235 50.093 236.998 48.8912C235.796 47.654 234.842 46.187 234.135 44.4903C233.463 42.7936 233.127 40.9378 233.127 38.923C233.127 36.9082 233.463 35.0524 234.135 33.3557C234.842 31.6589 235.796 30.2097 236.998 29.0078C238.235 27.7706 239.684 26.8162 241.346 26.1446C243.042 25.4377 244.898 25.0842 246.913 25.0842ZM246.913 46.3461C247.797 46.3461 248.645 46.187 249.458 45.8689C250.306 45.5154 251.049 45.0206 251.685 44.3843C252.321 43.748 252.816 42.9704 253.17 42.0513C253.559 41.1323 253.753 40.0895 253.753 38.923C253.753 37.7565 253.559 36.7137 253.17 35.7947C252.816 34.8756 252.321 34.098 251.685 33.4617C251.049 32.8254 250.306 32.3482 249.458 32.0301C248.645 31.6766 247.797 31.4999 246.913 31.4999C245.994 31.4999 245.128 31.6766 244.315 32.0301C243.502 32.3482 242.777 32.8254 242.141 33.4617C241.505 34.098 240.992 34.8756 240.603 35.7947C240.25 36.7137 240.073 37.7565 240.073 38.923C240.073 40.0895 240.25 41.1323 240.603 42.0513C240.992 42.9704 241.505 43.748 242.141 44.3843C242.777 45.0206 243.502 45.5154 244.315 45.8689C245.128 46.187 245.994 46.3461 246.913 46.3461Z" fill="#568EF4"/>
<path d="M9.04672 46.2648C9.04672 46.2648 7.85625 46.0012 8.15757 42.9623C8.44655 39.9803 10.185 36.0645 12.6377 34.3374C14.4693 33.0105 16.6702 34.0945 16.1597 35.3553C16.1597 35.3553 17.3974 33.4789 20.2097 33.3842C23.0344 33.2325 25.9548 34.834 27.6232 36.4572C29.2916 38.0803 32.0758 43.0562 29.642 47.714C27.7388 51.2946 22.1011 54.2882 19.715 55.4329C19.0494 55.7635 18.2558 55.5878 17.7186 55.0509L9.04672 46.2648Z" fill="#FC5251"/>
<path d="M3.21153 50.1703L7.53552 46.1095C8.05572 45.6275 8.8863 45.6319 9.42351 46.1688L17.6346 54.6145C18.1151 55.1388 18.1125 55.9744 17.649 56.4689L13.4777 60.9217C12.9452 61.4611 12.0456 61.5009 11.5207 60.907L3.14457 52.1263C2.60736 51.5894 2.62231 50.6968 3.21153 50.1703Z" fill="#FC5251"/>
<path d="M15.9149 35.8615C15.9593 35.931 14.6626 37.2569 13.2672 39.0385C11.8718 40.8204 10.8781 42.3923 10.7771 42.3102C10.7204 42.2976 10.9325 41.8669 11.3072 41.2329C11.682 40.5992 12.2885 39.7181 12.9517 38.8492C13.6839 37.9362 14.3791 37.1942 14.9116 36.6549C15.5008 36.1282 15.8706 35.7919 15.9149 35.8615Z" fill="#263238"/>
<path d="M38.6635 16.5201C38.6635 16.5201 38.4071 15.3347 35.4192 15.4711C32.4314 15.6075 28.4049 17.1809 26.5764 19.592C25.1747 21.4288 26.102 23.6369 27.4022 23.2092C27.4022 23.2092 25.4941 24.3819 25.2311 27.2568C24.9679 30.1317 26.3962 33.1803 27.924 34.8789C29.4521 36.5772 34.3303 39.6813 39.0796 37.4256C42.8191 35.6661 46.0303 30.123 47.2743 27.6926C47.6449 27.0575 47.4947 26.2286 46.9847 25.6821L38.6635 16.5201Z" fill="#568EF4"/>
<path d="M42.8758 10.7747L38.5953 14.929C38.0532 15.4406 38.207 16.1519 38.717 16.6985L46.6414 25.4353C47.1513 25.9818 47.9058 26.1833 48.4479 25.6717L53.0755 21.6466C53.6762 21.1368 53.7029 20.255 53.1948 19.6496L44.7478 10.7778C44.2382 10.2313 43.3612 10.2023 42.8758 10.7747Z" fill="#568EF4"/>
<path d="M28.1748 22.9668C28.1748 22.9668 28.4798 22.5649 29.0218 22.0532C29.5639 21.5415 30.3451 20.8612 31.302 20.1866C32.2586 19.5121 33.0948 18.9513 33.8069 18.6218C34.4623 18.2316 34.8769 18.0687 34.9334 18.1295C34.99 18.1902 33.3815 19.1374 31.5267 20.4883C29.6154 21.7786 28.29 23.0294 28.1748 22.9668Z" fill="#263238"/>
<path d="M35.0117 44.8135L35.6881 51.2672" stroke="#AEAEAE" stroke-width="0.611795" stroke-linecap="round"/>
<path d="M17.7861 30.3184L11.7274 27.9947" stroke="#AEAEAE" stroke-width="0.611795" stroke-linecap="round"/>
<path d="M39.0874 45.0305L43.4872 49.8002" stroke="#AEAEAE" stroke-width="0.611795" stroke-linecap="round"/>
<path d="M18.9199 26.4379L15.4515 20.9535" stroke="#AEAEAE" stroke-width="0.611795" stroke-linecap="round"/>
<path d="M39.0537 40.76L45.3075 42.4914" stroke="#AEAEAE" stroke-width="0.611795" stroke-linecap="round"/>
<path d="M22.7476 27.4634L22.6937 20.9745" stroke="#AEAEAE" stroke-width="0.611795" stroke-linecap="round"/>
</svg>
