<svg width="1177" height="95" viewBox="0 0 1177 95" fill="none" xmlns="http://www.w3.org/2000/svg">
<path d="M324.592 1.90723H9.95682C4.48057 1.90723 0 6.39806 0 11.8869V83.84C0 89.3288 4.48057 93.8196 9.95682 93.8196H324.592C330.069 93.8196 334.549 89.3288 334.549 83.84V11.8869C334.549 6.39806 330.069 1.90723 324.592 1.90723Z" fill="white"/>
<path d="M663.719 1.90723H349.083C343.607 1.90723 339.126 6.39806 339.126 11.8869V83.84C339.126 89.3288 343.607 93.8196 349.083 93.8196H663.719C669.195 93.8196 673.675 89.3288 673.675 83.84V11.8869C673.675 6.39806 669.195 1.90723 663.719 1.90723Z" fill="white"/>
<path d="M1092.86 20.2685C1163.65 43.7206 1178.29 70.0669 1176.69 81.1443C1173.01 90.4253 1148.92 94.1178 1137.27 94.1178H1030.73H1025.45H975.468H970.091H785.691C780.613 94.1178 780.314 94.2176 778.322 94.1178H732.422C723.162 94.1178 724.356 94.1178 720.872 94.1178H701.456H686.62C680.347 91.5231 678.456 85.3357 678.256 82.5414V22.1646C678.256 10.9874 678.754 10.0892 681.94 5.39882C684.529 1.70635 695.98 1.10756 701.356 1.20736C770.058 0.309193 914.631 -0.98816 943.207 1.20736C978.952 4.00166 1004.44 -8.97183 1092.86 20.2685Z" fill="white"/>
<path d="M1065.58 65.275H1172.22C1177.89 73.8575 1177.19 79.3463 1176.4 81.0428H1030.33H678.158V75.4543C781.61 75.7536 990.404 76.1528 997.872 75.4543C1005.24 74.7557 1000.96 67.0714 997.872 63.3789C989.508 52.7007 971.884 30.2465 968.2 25.7557C964.516 21.2648 958.941 20.4664 956.65 20.666H840.853H678.158V16.4746H840.753H966.309C981.642 16.4746 989.508 17.3728 1004.34 29.4481C1033.32 58.0897 1057.21 65.275 1065.58 65.275Z" fill="#FF5E55"/>
<path d="M339.126 76.1553H673.675V81.7439H339.126V76.1553Z" fill="#F57575"/>
<path d="M0 76.1553H334.549V81.7439H0V76.1553Z" fill="#F57575"/>
<path d="M339.126 28.8525H673.675V44.6204H339.126V28.8525Z" fill="#204B61"/>
<path d="M0 28.8525H334.549V44.6204H0V28.8525Z" fill="#204B61"/>
<path d="M1042.88 35.6346H1130.9C1115.36 26.3535 1085.89 17.3719 1072.35 13.9788C1055.03 13.7792 1016.59 13.38 1007.63 13.7792C996.48 14.2782 1000.66 17.0724 1009.52 22.1621C1022.47 32.9401 1037.1 35.6346 1042.88 35.6346Z" fill="#387999"/>
<path d="M955.855 28.8525H678.358V44.5205C774.74 44.6203 967.903 44.9197 971.189 44.6203C974.474 44.3209 973.479 42.1255 972.085 40.4289C970.691 38.7324 968.401 36.2374 965.115 32.8444C961.431 28.8525 958.643 28.8525 955.855 28.8525Z" fill="#204B61"/>
<path d="M339.527 17.9736H674.076V20.9675H339.527V17.9736Z" fill="#F57575"/>
<path d="M0 17.9736H334.549V20.9675H0V17.9736Z" fill="#F57575"/>
</svg>
