<svg viewBox="0 0 19200 1080" fill="none" xmlns="http://www.w3.org/2000/svg">
<g>
<path d="M7698 1003H9618V1222H7698V1003Z" fill="url(#paint0_linear)"/>
<rect x="8352" y="1025" width="58" height="2" rx="1" fill="white"/>
<rect x="8206" y="1051" width="34" height="2" rx="1" fill="white"/>
<rect x="8224" y="1044" width="58" height="2" rx="1" fill="white"/>
<rect x="8529" y="1063" width="58" height="2" rx="1" fill="white"/>
<rect x="8568" y="1075" width="58" height="2" rx="1" fill="white"/>
<rect x="8909" y="1039" width="39" height="2" rx="1" fill="white"/>
<rect x="8938" y="1027" width="39" height="2" rx="1" fill="white"/>
<path d="M9912 961H11832V1180H9912V961Z" fill="url(#paint1_linear)"/>
<rect x="10566" y="983" width="58" height="2" rx="1" fill="white"/>
<rect x="10420" y="1009" width="34" height="2" rx="1" fill="white"/>
<rect x="10438" y="1002" width="58" height="2" rx="1" fill="white"/>
<rect x="10743" y="1021" width="58" height="2" rx="1" fill="white"/>
<rect x="10782" y="1033" width="58" height="2" rx="1" fill="white"/>
<rect x="11123" y="997" width="39" height="2" rx="1" fill="white"/>
<rect x="11152" y="985" width="39" height="2" rx="1" fill="white"/>
<path d="M15307 1046H17243V1216H15307V1046Z" fill="url(#paint2_linear)"/>
<rect x="15966.4" y="1063.08" width="58.4833" height="1.55251" rx="0.776256" fill="white"/>
<rect x="15383.6" y="1077.83" width="58.4833" height="1.55251" rx="0.776256" fill="white"/>
<rect x="16528.1" y="1073.95" width="39.325" height="1.55251" rx="0.776256" fill="white"/>
<rect x="16900.2" y="1064.63" width="39.325" height="1.55251" rx="0.776256" fill="white"/>
<path d="M9599.5 493C9515.33 478.898 9468.16 534.562 9445.02 543.039C9435.13 546.657 9428.42 550.037 9426.6 550.961C9381.8 573.777 9361.51 611.591 9345.01 638.103C9301.37 708.213 9292.26 686.269 9244.99 759.574C9200.88 827.994 9202.91 856.249 9163.4 878.405C9146.71 887.753 9147.24 882.207 9089.7 904.811C9033.72 926.782 9018.93 937.661 9010.74 944.422C8987.69 963.487 8974.08 985.748 8966 1002.52C9176.56 999.876 9387.12 997.235 9597.68 994.595H9602.94L9599.5 493Z" fill="#001A4A"/>
<path d="M11464 376.875C11357.7 359.068 11298.2 429.363 11268.9 440.068C11256.4 444.637 11248 448.905 11245.7 450.072C11189.1 478.885 11163.5 526.639 11142.6 560.121C11087.5 648.659 11076 620.947 11016.3 713.521C10960.6 799.925 10963.2 835.607 10913.3 863.586C10892.2 875.391 10892.9 868.389 10820.2 896.934C10749.5 924.68 10730.8 938.419 10720.5 946.956C10691.4 971.033 10674.2 999.146 10664 1020.32C10929.9 1016.99 11195.8 1013.65 11461.7 1010.32H11468.4L11464 376.875Z" fill="#001A4A"/>
<path d="M11463.3 376.875C11569.6 359.068 11629.2 429.363 11658.4 440.068C11670.9 444.637 11679.4 448.905 11681.7 450.072C11738.3 478.885 11763.9 526.639 11784.7 560.121C11839.8 648.659 11851.3 620.947 11911 713.521C11966.7 799.925 11964.2 835.607 12014.1 863.586C12035.2 875.391 12034.5 868.389 12107.1 896.934C12177.8 924.68 12196.5 938.419 12206.9 946.956C12236 971.033 12253.2 999.146 12263.4 1020.32C11997.5 1016.99 11731.6 1013.65 11465.6 1010.32H11459L11463.3 376.875Z" fill="#001A4A"/>
<path d="M9597.45 493.277C9681.62 479.176 9728.79 534.84 9751.92 543.316C9761.82 546.934 9768.53 550.314 9770.35 551.238C9815.14 574.054 9835.43 611.868 9851.94 638.381C9895.58 708.491 9904.68 686.546 9951.95 759.852C9996.07 828.271 9994.04 856.527 10033.5 878.682C10050.2 888.03 10049.7 882.485 10107.2 905.089C10163.2 927.059 10178 937.939 10186.2 944.699C10209.3 963.765 10222.9 986.026 10230.9 1002.79C10020.4 1000.15 9809.83 997.513 9599.27 994.872H9594L9597.45 493.277Z" fill="#001A4A"/>
<path d="M9599.94 994.597C9599.94 994.597 9599.94 748.142 9599.94 624.902C9594.91 624.559 9586.2 624.453 9576.25 627.543C9561.41 632.164 9552.14 641.301 9549.93 643.387C9528.85 663.271 9473.34 678.085 9426.23 701.482C9395.8 716.586 9290.29 769.004 9273.57 836.156C9271.49 844.527 9266.76 869.27 9249.88 875.766C9238.07 880.308 9231.43 871.62 9218.3 875.766C9202.3 880.81 9200.32 897.42 9184.08 918.017C9184.08 918.017 9167.58 938.958 9141.97 952.346C9108.41 969.906 9090.49 956.888 9052.48 970.831C9039.51 975.584 9021.61 984.456 9002.48 1002.52L9599.94 994.597Z" fill="#0A0019"/>
<path d="M11464.5 1002.07C11464.5 1002.07 11464.5 708.166 11464.5 561.2C11458.5 560.791 11448.1 560.665 11436.2 564.349C11418.5 569.86 11407.5 580.756 11404.8 583.244C11379.7 606.956 11313.5 624.622 11257.3 652.522C11221 670.535 11095.2 733.043 11075.3 813.124C11072.8 823.106 11067.2 852.613 11047 860.359C11032.9 865.776 11025 855.415 11009.4 860.359C10990.3 866.374 10987.9 886.181 10968.6 910.744C10968.6 910.744 10948.9 935.716 10918.4 951.681C10878.3 972.623 10857 957.098 10811.6 973.725C10796.2 979.393 10774.8 989.974 10752 1011.51L11464.5 1002.07Z" fill="#0A0019"/>
<path d="M11463.9 1002.07C11463.9 1002.07 11463.9 708.166 11463.9 561.2C11469.9 560.791 11480.3 560.665 11492.1 564.349C11509.8 569.86 11520.9 580.756 11523.5 583.244C11548.7 606.956 11614.9 624.622 11671 652.522C11707.3 670.535 11833.2 733.043 11853.1 813.124C11855.6 823.106 11861.2 852.613 11881.3 860.359C11895.4 865.776 11903.3 855.415 11919 860.359C11938.1 866.374 11940.4 886.181 11959.8 910.744C11959.8 910.744 11979.5 935.716 12010 951.681C12050 972.623 12071.4 957.098 12116.7 973.725C12132.2 979.393 12153.5 989.974 12176.4 1011.51L11463.9 1002.07Z" fill="#0A0019"/>
<path d="M9597 994.874C9597 994.874 9597 748.42 9597 625.18C9602.03 624.836 9610.74 624.731 9620.69 627.82C9635.54 632.441 9644.8 641.578 9647.01 643.664C9668.1 663.549 9723.6 678.363 9770.72 701.759C9801.14 716.864 9906.66 769.281 9923.37 836.434C9925.45 844.804 9930.19 869.548 9947.06 876.044C9958.88 880.586 9965.51 871.898 9978.64 876.044C9994.65 881.087 9996.62 897.697 10012.9 918.294C10012.9 918.294 10029.4 939.235 10055 952.623C10088.5 970.184 10106.5 957.165 10144.5 971.108C10157.4 975.861 10175.3 984.734 10194.5 1002.8L9597 994.874Z" fill="#0A0019"/>
<path d="M11887 993.5C11958 981.001 12111.3 980.137 12228 993.5C12311 1003 12478 1002.5 12568 993.5C12655 984.806 12678.5 979.501 12808.5 961.501C12928.5 944.886 13077 947.501 13156 937.001C13213.4 929.367 13329.2 909.469 13408 923.001C13454.1 930.917 13494.8 933.111 13606 923.001C13729.5 911.77 13869.7 926.1 13935.5 937.001C14014 950.011 14098.1 956.79 14214 937C14296 923 14386.5 902.025 14494.7 911.77C14619.5 923.001 14736.5 954.501 14942.5 936.001C15035.9 935.334 15100 909.77 15223 924C15290 924 15354.8 962.001 15359 961.501V1080H14942.5H11887V993.5Z" fill="#134B61"/>
<path d="M7543 527.789C7629.36 513.322 7681.29 527.22 7705.03 535.917C7715.18 539.628 7722.06 543.096 7723.93 544.045C7769.89 567.452 7790.71 606.249 7807.64 633.45C7852.41 705.38 7861.75 682.866 7910.25 758.075C7955.51 828.272 7953.43 857.261 7993.96 879.991C8011.08 889.582 8010.54 883.893 8069.57 907.084C8127.01 929.625 8142.19 940.787 8150.58 947.723C8174.24 967.283 8188.2 990.122 8196.49 1007.33C7980.46 1004.62 7764.43 1001.91 7548.4 999.198H7543V527.789Z" fill="#001A4A"/>
<path d="M7543.48 528.672C7503.19 528.671 7439.95 557.107 7420.45 568.849C7410.3 572.56 7372.67 596.603 7371.35 598.048C7351.44 619.727 7323.12 646.164 7312.95 657.331C7244.82 732.1 7197.48 761.299 7169.16 785.632C7123.9 855.828 7133.06 858.144 7092.53 880.874C7075.41 890.465 7075.95 884.775 7016.92 907.967C6959.48 930.508 6944.3 941.67 6935.91 948.605C6912.25 968.166 6898.29 991.005 6890 1008.21C7106.03 1005.5 7322.06 1002.79 7538.08 1000.08H7543.48V528.672Z" fill="#001A4A"/>
<path d="M7543 999.198C7543 999.198 7543 746.343 7543 619.903C7548.16 619.55 7557.1 619.442 7567.31 622.612C7582.54 627.353 7592.04 636.727 7594.31 638.867C7615.94 659.268 7672.89 674.467 7721.23 698.471C7752.44 713.968 7860.7 767.746 7877.85 836.643C7879.98 845.231 7884.84 870.617 7902.15 877.281C7914.28 881.941 7921.08 873.028 7934.55 877.281C7950.97 882.456 7953 899.497 7969.66 920.629C7969.66 920.629 7986.59 942.114 8012.87 955.85C8047.29 973.866 8065.68 960.51 8104.68 974.814C8117.99 979.691 8136.35 988.794 8155.98 1007.33L7543 999.198Z" fill="#0A0019"/>
<path d="M7543.48 1000.08C7543.48 1000.08 7543.48 747.226 7543.48 620.786C7538.33 620.433 7529.39 620.325 7519.18 623.495C7503.95 628.236 7494.45 637.61 7492.18 639.75C7470.55 660.151 7413.6 675.35 7365.26 699.354C7334.05 714.851 7225.79 768.629 7208.64 837.525C7206.51 846.114 7201.65 871.499 7184.34 878.164C7172.21 882.824 7165.41 873.911 7151.93 878.164C7135.52 883.339 7133.49 900.38 7116.83 921.512C7116.83 921.512 7099.9 942.997 7073.62 956.732C7039.19 974.749 7020.8 961.392 6981.81 975.697C6968.5 980.574 6950.14 989.677 6930.5 1008.21L7543.48 1000.08Z" fill="#0A0019"/>
<path d="M5896 865C5856 866.2 5759 878.833 5716 882.5V1079.5H7486C7499.67 941.167 7518.8 667.001 7486 677.001C7445 689.501 7111 809 7072 835.5C7033 862 6708 909.5 6638 919.5C6607.64 923.836 6347.5 919.5 6233.5 907.5C6215.1 905.563 5946 863.5 5896 865Z" fill="#134B61"/>
<path d="M7684.29 641C7498.7 643.909 7449.07 693.532 7419.5 734.5C7415.84 739.583 7367.47 769.109 7339.43 809.404C7279.5 862.5 7257.8 879.488 7245.5 889.5C7206.86 921.037 7223.37 907.66 7150.22 944.127C7106.54 965.897 7062.81 996.852 7046.45 1008.43C7039.34 1013.45 7019.57 1027.62 6991.52 1045.17C6978.79 1053.13 6968.14 1059.41 6961 1063.54C7203.1 1061.49 7442.18 1065.59 7684.29 1063.54V641Z" fill="#134B61"/>
<path d="M7600.5 797C7567.85 806.461 7542.21 821.464 7530.31 833.743C7504.28 860.595 7507.58 881.661 7481.48 898.042C7457.8 912.923 7450.48 898.41 7417.39 913.352C7394.78 923.548 7392.25 933.009 7347.2 959.28C7336.95 965.25 7321.48 973.885 7307.53 968.465C7300.42 965.71 7301.06 962.189 7295.32 959.28C7274.9 948.992 7247.9 984.05 7194.61 1002.15C7183.29 1005.97 7173.25 1008.27 7173.25 1008.27C7148.8 1013.81 7141.69 1010.6 7127.47 1014.39C7105.53 1020.24 7107.51 1031.91 7084.74 1041.95C7080.35 1043.88 7073.94 1046.27 7026.76 1048.07C6983.33 1049.76 6973.66 1048.32 6956.57 1054.2C6941.25 1059.46 6929.93 1067.15 6923 1072.57C7148.83 1073.58 7374.67 1074.62 7600.5 1075.63V797Z" fill="#153053"/>
<path d="M7589 955C7553.98 962.095 7523.85 972.699 7504.87 981.377C7472.48 996.174 7450.03 1006.8 7436.52 1031.49C7428.32 1046.47 7426.37 1061.22 7426 1071.06C7480.34 1071.06 7534.66 1071.06 7589 1071.06V955Z" fill="#0A0019"/>
<path d="M7436.54 1069.5C7434.74 1061.51 7426.62 1030.03 7396.87 1011.32C7391.4 1007.89 7375.75 998.036 7357.19 999.077C7326.61 1000.79 7297.65 1031.59 7287 1075.62H7436.54V1069.5Z" fill="#012257"/>
<path d="M988.5 951.5C732.5 919.9 219.5 904 -5 900V1079.5H1984V900C1928.8 900 1662 934.333 1535.5 951.5C1459.83 964.667 1244.5 983.1 988.5 951.5Z" fill="#134B61"/>
<path d="M2962.5 951.5C2706.5 919.9 2193.5 904 1969 900V1079.5H3958C3958 1069.67 3976.5 1020 3976.5 892C3921.3 892 3636 934.333 3509.5 951.5C3433.83 964.667 3218.5 983.1 2962.5 951.5Z" fill="#134B61"/>
<path d="M241.995 974.281C37.6844 981.029 -103.124 1069.5 -119 1080H1062C856.769 1042.51 405.444 968.883 241.995 974.281Z" fill="#153053"/>
<path d="M2124.65 988.376C1851.49 997.398 1663.23 1115.69 1642 1129.72H3221C2946.61 1079.6 2343.18 981.158 2124.65 988.376Z" fill="#153053"/>
<path d="M4594.66 915.494C4509.67 887.76 4138.5 869.5 3958 893V1080.07H5954V871.813C5796.2 837.838 5651.71 846.406 5580.89 853.34C5510.06 860.273 5356.34 862.106 5073.66 915.494C4790.98 968.882 4700.89 950.162 4594.66 915.494Z" fill="#134B61"/>
<circle r="5.53846" transform="matrix(-0.682793 0.730612 0.730612 0.682793 5442.89 1033.77)" fill="#695070"/>
<circle r="5.53846" transform="matrix(-0.682793 0.730612 0.730612 0.682793 5449.55 1037.47)" fill="#695070"/>
<circle r="5.53846" transform="matrix(-0.682793 0.730612 0.730612 0.682793 5448.46 1044.03)" fill="#695070"/>
<circle r="5.53846" transform="matrix(-0.682793 0.730612 0.730612 0.682793 5440.72 1046.91)" fill="#695070"/>
<circle r="5.53846" transform="matrix(-0.682793 0.730612 0.730612 0.682793 5436.59 1040.52)" fill="#695070"/>
<circle r="3.69231" transform="matrix(-0.682793 0.730612 0.730612 0.682793 5444.42 1040.25)" fill="#8C8146"/>
<path d="M4698.05 1043.08C4655.35 1058.12 4312 1062.19 4292 1079H4390.5H5955.5V927C5893.26 934.24 5721.76 964.388 5589.74 967.061C5424.72 970.402 5317 1033.05 5242.5 1024.5C5218.05 1021.69 5095.41 1043.08 4990.46 1033.05C4885.51 1023.03 4740.76 1028.04 4698.05 1043.08Z" fill="#153053"/>
<circle cx="5832.5" cy="1020" r="3" fill="#695070"/>
<circle cx="5831.5" cy="1024" r="3" fill="#695070"/>
<circle cx="5834.5" cy="1026" r="3" fill="#695070"/>
<circle cx="5838.5" cy="1024" r="3" fill="#695070"/>
<circle cx="5837.5" cy="1020" r="3" fill="#695070"/>
<circle cx="5834.5" cy="1023" r="2" fill="#8C8146"/>
<circle cx="5626.5" cy="1006" r="3" fill="#695070"/>
<circle cx="5625.5" cy="1010" r="3" fill="#695070"/>
<circle cx="5628.5" cy="1012" r="3" fill="#695070"/>
<circle cx="5632.5" cy="1010" r="3" fill="#695070"/>
<circle cx="5631.5" cy="1006" r="3" fill="#695070"/>
<circle cx="5628.5" cy="1009" r="2" fill="#8C8146"/>
<circle r="3" transform="matrix(-1 0 0 1 5368.79 1019)" fill="#695070"/>
<circle r="3" transform="matrix(-1 0 0 1 5369.79 1023)" fill="#695070"/>
<circle r="3" transform="matrix(-1 0 0 1 5366.79 1025)" fill="#695070"/>
<circle r="3" transform="matrix(-1 0 0 1 5362.79 1023)" fill="#695070"/>
<circle r="3" transform="matrix(-1 0 0 1 5363.79 1019)" fill="#695070"/>
<circle r="2" transform="matrix(-1 0 0 1 5366.79 1022)" fill="#8C8146"/>
<circle cx="5748.04" cy="994.881" r="5.53846" transform="rotate(36.1252 5748.04 994.881)" fill="#695070"/>
<circle cx="5742.19" cy="999.758" r="5.53846" transform="rotate(36.1252 5742.19 999.758)" fill="#695070"/>
<circle cx="5744.49" cy="1006.01" r="5.53846" transform="rotate(36.1252 5744.49 1006.01)" fill="#695070"/>
<circle cx="5752.63" cy="1007.38" r="5.53846" transform="rotate(36.1252 5752.63 1007.38)" fill="#695070"/>
<circle cx="5755.49" cy="1000.32" r="5.53846" transform="rotate(36.1252 5755.49 1000.32)" fill="#695070"/>
<circle cx="5747.75" cy="1001.53" r="3.69231" transform="rotate(36.1252 5747.75 1001.53)" fill="#8C8146"/>
<circle cx="5812.26" cy="969.827" r="5.53846" transform="rotate(36.1252 5812.26 969.827)" fill="#695070"/>
<circle cx="5806.42" cy="974.704" r="5.53846" transform="rotate(36.1252 5806.42 974.704)" fill="#695070"/>
<circle cx="5808.71" cy="980.952" r="5.53846" transform="rotate(36.1252 5808.71 980.952)" fill="#695070"/>
<circle cx="5816.86" cy="982.323" r="5.53846" transform="rotate(36.1252 5816.86 982.323)" fill="#695070"/>
<circle cx="5819.72" cy="975.27" r="5.53846" transform="rotate(36.1252 5819.72 975.27)" fill="#695070"/>
<circle cx="5811.98" cy="976.478" r="3.69231" transform="rotate(36.1252 5811.98 976.478)" fill="#8C8146"/>
<circle cx="5566.88" cy="1032.54" r="5.53846" fill="#695070"/>
<circle cx="5565.04" cy="1039.92" r="5.53846" fill="#695070"/>
<circle cx="5570.58" cy="1043.61" r="5.53846" fill="#695070"/>
<circle cx="5577.96" cy="1039.92" r="5.53846" fill="#695070"/>
<circle cx="5576.12" cy="1032.54" r="5.53846" fill="#695070"/>
<circle cx="5570.58" cy="1038.08" r="3.69231" fill="#8C8146"/>
<circle r="5.53846" transform="matrix(-1 0 0 1 5425.12 1037.54)" fill="#695070"/>
<circle r="5.53846" transform="matrix(-1 0 0 1 5426.96 1044.92)" fill="#695070"/>
<circle r="5.53846" transform="matrix(-1 0 0 1 5421.42 1048.61)" fill="#695070"/>
<circle r="5.53846" transform="matrix(-1 0 0 1 5414.04 1044.92)" fill="#695070"/>
<circle r="5.53846" transform="matrix(-1 0 0 1 5415.88 1037.54)" fill="#695070"/>
<circle r="3.69231" transform="matrix(-1 0 0 1 5421.42 1043.08)" fill="#8C8146"/>
<circle cx="5525.35" cy="1001.38" r="4.38462" fill="#695070"/>
<circle cx="5523.88" cy="1007.23" r="4.38462" fill="#695070"/>
<circle cx="5528.27" cy="1010.15" r="4.38462" fill="#695070"/>
<circle cx="5534.12" cy="1007.23" r="4.38462" fill="#695070"/>
<circle cx="5532.65" cy="1001.38" r="4.38462" fill="#695070"/>
<circle cx="5528.27" cy="1005.77" r="2.92308" fill="#8C8146"/>
<circle r="4.38462" transform="matrix(-1 0 0 1 5481.65 1021.38)" fill="#695070"/>
<circle r="4.38462" transform="matrix(-1 0 0 1 5483.12 1027.23)" fill="#695070"/>
<circle r="4.38462" transform="matrix(-1 0 0 1 5478.73 1030.15)" fill="#695070"/>
<circle r="4.38462" transform="matrix(-1 0 0 1 5472.88 1027.23)" fill="#695070"/>
<circle r="4.38462" transform="matrix(-1 0 0 1 5474.35 1021.38)" fill="#695070"/>
<circle r="2.92308" transform="matrix(-1 0 0 1 5478.73 1025.77)" fill="#8C8146"/>
<circle cx="5696.39" cy="1024.92" r="5.53846" transform="rotate(46.9377 5696.39 1024.92)" fill="#695070"/>
<circle cx="5689.74" cy="1028.62" r="5.53846" transform="rotate(46.9377 5689.74 1028.62)" fill="#695070"/>
<circle cx="5690.82" cy="1035.18" r="5.53846" transform="rotate(46.9377 5690.82 1035.18)" fill="#695070"/>
<circle cx="5698.56" cy="1038.06" r="5.53846" transform="rotate(46.9377 5698.56 1038.06)" fill="#695070"/>
<circle cx="5702.7" cy="1031.67" r="5.53846" transform="rotate(46.9377 5702.7 1031.67)" fill="#695070"/>
<circle cx="5694.87" cy="1031.4" r="3.69231" transform="rotate(46.9377 5694.87 1031.4)" fill="#8C8146"/>
<circle cx="5884.88" cy="985.538" r="5.53846" fill="#695070"/>
<circle cx="5883.04" cy="992.923" r="5.53846" fill="#695070"/>
<circle cx="5888.58" cy="996.615" r="5.53846" fill="#695070"/>
<circle cx="5895.96" cy="992.923" r="5.53846" fill="#695070"/>
<circle cx="5894.12" cy="985.538" r="5.53846" fill="#695070"/>
<circle cx="5888.58" cy="991.077" r="3.69231" fill="#8C8146"/>
<circle cx="5908.88" cy="1028.54" r="5.53846" fill="#695070"/>
<circle cx="5907.04" cy="1035.92" r="5.53846" fill="#695070"/>
<circle cx="5912.58" cy="1039.61" r="5.53846" fill="#695070"/>
<circle cx="5919.96" cy="1035.92" r="5.53846" fill="#695070"/>
<circle cx="5918.12" cy="1028.54" r="5.53846" fill="#695070"/>
<circle cx="5912.58" cy="1034.08" r="3.69231" fill="#8C8146"/>
<path d="M7212.45 1043.08C7255.15 1058.12 7598.5 1062.19 7618.5 1079H7520H5955V927C6017.24 934.24 6188.74 964.388 6320.76 967.061C6485.78 970.402 6593.5 1033.05 6668 1024.5C6692.45 1021.69 6815.09 1043.08 6920.04 1033.05C7024.99 1023.03 7169.74 1028.04 7212.45 1043.08Z" fill="#153053"/>
<circle r="3" transform="matrix(-1 0 0 1 6078 1020)" fill="#695070"/>
<circle r="3" transform="matrix(-1 0 0 1 6079 1024)" fill="#695070"/>
<circle r="3" transform="matrix(-1 0 0 1 6076 1026)" fill="#695070"/>
<circle r="3" transform="matrix(-1 0 0 1 6072 1024)" fill="#695070"/>
<circle r="3" transform="matrix(-1 0 0 1 6073 1020)" fill="#695070"/>
<circle r="2" transform="matrix(-1 0 0 1 6076 1023)" fill="#8C8146"/>
<circle r="3" transform="matrix(-1 0 0 1 6284 1006)" fill="#695070"/>
<circle r="3" transform="matrix(-1 0 0 1 6285 1010)" fill="#695070"/>
<circle r="3" transform="matrix(-1 0 0 1 6282 1012)" fill="#695070"/>
<circle r="3" transform="matrix(-1 0 0 1 6278 1010)" fill="#695070"/>
<circle r="3" transform="matrix(-1 0 0 1 6279 1006)" fill="#695070"/>
<circle r="2" transform="matrix(-1 0 0 1 6282 1009)" fill="#8C8146"/>
<circle cx="6541.71" cy="1019" r="3" fill="#695070"/>
<circle cx="6540.71" cy="1023" r="3" fill="#695070"/>
<circle cx="6543.71" cy="1025" r="3" fill="#695070"/>
<circle cx="6547.71" cy="1023" r="3" fill="#695070"/>
<circle cx="6546.71" cy="1019" r="3" fill="#695070"/>
<circle cx="6543.71" cy="1022" r="2" fill="#8C8146"/>
<circle r="5.53846" transform="matrix(-0.807731 0.589551 0.589551 0.807731 6162.46 994.881)" fill="#695070"/>
<circle r="5.53846" transform="matrix(-0.807731 0.589551 0.589551 0.807731 6168.31 999.758)" fill="#695070"/>
<circle r="5.53846" transform="matrix(-0.807731 0.589551 0.589551 0.807731 6166.01 1006.01)" fill="#695070"/>
<circle r="5.53846" transform="matrix(-0.807731 0.589551 0.589551 0.807731 6157.87 1007.38)" fill="#695070"/>
<circle r="5.53846" transform="matrix(-0.807731 0.589551 0.589551 0.807731 6155.01 1000.32)" fill="#695070"/>
<circle r="3.69231" transform="matrix(-0.807731 0.589551 0.589551 0.807731 6162.75 1001.53)" fill="#8C8146"/>
<circle r="5.53846" transform="matrix(-0.807731 0.589551 0.589551 0.807731 6098.24 969.827)" fill="#695070"/>
<circle r="5.53846" transform="matrix(-0.807731 0.589551 0.589551 0.807731 6104.08 974.704)" fill="#695070"/>
<circle r="5.53846" transform="matrix(-0.807731 0.589551 0.589551 0.807731 6101.79 980.952)" fill="#695070"/>
<circle r="5.53846" transform="matrix(-0.807731 0.589551 0.589551 0.807731 6093.64 982.323)" fill="#695070"/>
<circle r="5.53846" transform="matrix(-0.807731 0.589551 0.589551 0.807731 6090.78 975.27)" fill="#695070"/>
<circle r="3.69231" transform="matrix(-0.807731 0.589551 0.589551 0.807731 6098.52 976.478)" fill="#8C8146"/>
<circle r="5.53846" transform="matrix(-1 0 0 1 6343.62 1032.54)" fill="#695070"/>
<circle r="5.53846" transform="matrix(-1 0 0 1 6345.46 1039.92)" fill="#695070"/>
<circle r="5.53846" transform="matrix(-1 0 0 1 6339.92 1043.61)" fill="#695070"/>
<circle r="5.53846" transform="matrix(-1 0 0 1 6332.54 1039.92)" fill="#695070"/>
<circle r="5.53846" transform="matrix(-1 0 0 1 6334.38 1032.54)" fill="#695070"/>
<circle r="3.69231" transform="matrix(-1 0 0 1 6339.92 1038.08)" fill="#8C8146"/>
<circle cx="6485.38" cy="1037.54" r="5.53846" fill="#695070"/>
<circle cx="6483.54" cy="1044.92" r="5.53846" fill="#695070"/>
<circle cx="6489.08" cy="1048.61" r="5.53846" fill="#695070"/>
<circle cx="6496.46" cy="1044.92" r="5.53846" fill="#695070"/>
<circle cx="6494.62" cy="1037.54" r="5.53846" fill="#695070"/>
<circle cx="6489.08" cy="1043.08" r="3.69231" fill="#8C8146"/>
<circle r="4.38462" transform="matrix(-1 0 0 1 6385.15 1001.38)" fill="#695070"/>
<circle r="4.38462" transform="matrix(-1 0 0 1 6386.62 1007.23)" fill="#695070"/>
<circle r="4.38462" transform="matrix(-1 0 0 1 6382.23 1010.15)" fill="#695070"/>
<circle r="4.38462" transform="matrix(-1 0 0 1 6376.38 1007.23)" fill="#695070"/>
<circle r="4.38462" transform="matrix(-1 0 0 1 6377.85 1001.38)" fill="#695070"/>
<circle r="2.92308" transform="matrix(-1 0 0 1 6382.23 1005.77)" fill="#8C8146"/>
<circle cx="6428.85" cy="1021.38" r="4.38462" fill="#695070"/>
<circle cx="6427.38" cy="1027.23" r="4.38462" fill="#695070"/>
<circle cx="6431.77" cy="1030.15" r="4.38462" fill="#695070"/>
<circle cx="6437.62" cy="1027.23" r="4.38462" fill="#695070"/>
<circle cx="6436.15" cy="1021.38" r="4.38462" fill="#695070"/>
<circle cx="6431.77" cy="1025.77" r="2.92308" fill="#8C8146"/>
<circle r="5.53846" transform="matrix(-0.682793 0.730612 0.730612 0.682793 6214.11 1024.92)" fill="#695070"/>
<circle r="5.53846" transform="matrix(-0.682793 0.730612 0.730612 0.682793 6220.76 1028.62)" fill="#695070"/>
<circle r="5.53846" transform="matrix(-0.682793 0.730612 0.730612 0.682793 6219.68 1035.18)" fill="#695070"/>
<circle r="5.53846" transform="matrix(-0.682793 0.730612 0.730612 0.682793 6211.94 1038.06)" fill="#695070"/>
<circle r="5.53846" transform="matrix(-0.682793 0.730612 0.730612 0.682793 6207.8 1031.67)" fill="#695070"/>
<circle r="3.69231" transform="matrix(-0.682793 0.730612 0.730612 0.682793 6215.63 1031.4)" fill="#8C8146"/>
<circle r="5.53846" transform="matrix(-1 0 0 1 6025.62 985.538)" fill="#695070"/>
<circle r="5.53846" transform="matrix(-1 0 0 1 6027.46 992.923)" fill="#695070"/>
<circle r="5.53846" transform="matrix(-1 0 0 1 6021.92 996.615)" fill="#695070"/>
<circle r="5.53846" transform="matrix(-1 0 0 1 6014.54 992.923)" fill="#695070"/>
<circle r="5.53846" transform="matrix(-1 0 0 1 6016.38 985.538)" fill="#695070"/>
<circle r="3.69231" transform="matrix(-1 0 0 1 6021.92 991.077)" fill="#8C8146"/>
<circle r="5.53846" transform="matrix(-1 0 0 1 6001.62 1028.54)" fill="#695070"/>
<circle r="5.53846" transform="matrix(-1 0 0 1 6003.46 1035.92)" fill="#695070"/>
<circle r="5.53846" transform="matrix(-1 0 0 1 5997.92 1039.61)" fill="#695070"/>
<circle r="5.53846" transform="matrix(-1 0 0 1 5990.54 1035.92)" fill="#695070"/>
<circle r="5.53846" transform="matrix(-1 0 0 1 5992.38 1028.54)" fill="#695070"/>
<circle r="3.69231" transform="matrix(-1 0 0 1 5997.92 1034.08)" fill="#8C8146"/>
<path fill-rule="evenodd" clip-rule="evenodd" d="M4068.55 979.874C4090.59 969.803 4125.56 957.498 4166.21 949.264V949.541C4206.77 957.774 4241.66 969.555 4263.66 979.609C4301.26 996.781 4327.32 1009.12 4343.01 1037.77C4352.53 1055.16 4354.79 1072.27 4355.21 1083.68C4334.19 1083.68 4306.48 1084.49 4278.78 1085.3C4224.56 1086.88 4170.35 1088.47 4166.2 1083.98C4163.95 1088.79 4108.69 1087.18 4053.43 1085.57C4025.73 1084.76 3998.03 1083.95 3977 1083.95C3977.43 1072.53 3979.69 1055.42 3989.21 1038.03C4004.89 1009.38 4030.96 997.047 4068.55 979.874Z" fill="#0A0019"/>
<path d="M4338 1073.48C4339.8 1065.49 4347.92 1034.02 4377.67 1015.32C4383.14 1011.89 4398.79 1002.04 4417.35 1003.08C4447.93 1004.79 4476.89 1035.59 4487.54 1079.6H4338V1073.48Z" fill="#012257"/>
<path d="M12114.1 1039.21C12071.3 1053.35 11728 1057.18 11708 1073H11806.5H13371.5V946.5C13309.3 953.311 13137.8 965.174 13005.7 967.689C12840.7 970.833 12733 1029.78 12658.5 1021.73C12634.1 1019.09 12511.4 1039.21 12406.5 1029.78C12301.5 1020.34 12156.8 1025.06 12114.1 1039.21Z" fill="#153053"/>
<ellipse cx="13248.5" cy="1017.49" rx="3" ry="2.82237" fill="#695070"/>
<ellipse cx="13247.5" cy="1021.26" rx="3" ry="2.82237" fill="#695070"/>
<ellipse cx="13250.5" cy="1023.14" rx="3" ry="2.82237" fill="#695070"/>
<ellipse cx="13254.5" cy="1021.26" rx="3" ry="2.82237" fill="#695070"/>
<ellipse cx="13253.5" cy="1017.49" rx="3" ry="2.82237" fill="#695070"/>
<ellipse cx="13250.5" cy="1020.32" rx="2" ry="1.88158" fill="#8C8146"/>
<ellipse cx="13042.5" cy="1004.32" rx="3" ry="2.82237" fill="#695070"/>
<ellipse cx="13041.5" cy="1008.09" rx="3" ry="2.82237" fill="#695070"/>
<ellipse cx="13044.5" cy="1009.97" rx="3" ry="2.82237" fill="#695070"/>
<ellipse cx="13048.5" cy="1008.09" rx="3" ry="2.82237" fill="#695070"/>
<ellipse cx="13047.5" cy="1004.32" rx="3" ry="2.82237" fill="#695070"/>
<ellipse cx="13044.5" cy="1007.15" rx="2" ry="1.88158" fill="#8C8146"/>
<ellipse rx="3" ry="2.82237" transform="matrix(-1 0 0 1 12784.8 1016.55)" fill="#695070"/>
<ellipse rx="3" ry="2.82237" transform="matrix(-1 0 0 1 12785.8 1020.32)" fill="#695070"/>
<ellipse rx="3" ry="2.82237" transform="matrix(-1 0 0 1 12782.8 1022.2)" fill="#695070"/>
<ellipse rx="3" ry="2.82237" transform="matrix(-1 0 0 1 12778.8 1020.32)" fill="#695070"/>
<ellipse rx="3" ry="2.82237" transform="matrix(-1 0 0 1 12779.8 1016.55)" fill="#695070"/>
<ellipse rx="2" ry="1.88158" transform="matrix(-1 0 0 1 12782.8 1019.38)" fill="#8C8146"/>
<ellipse rx="5.42673" ry="5.3268" transform="matrix(0.824362 0.566064 -0.612978 0.7901 13164 993.863)" fill="#695070"/>
<ellipse rx="5.42673" ry="5.3268" transform="matrix(0.824362 0.566064 -0.612978 0.7901 13158.2 998.449)" fill="#695070"/>
<ellipse rx="5.42673" ry="5.3268" transform="matrix(0.824362 0.566064 -0.612978 0.7901 13160.5 1004.33)" fill="#695070"/>
<ellipse rx="5.42673" ry="5.3268" transform="matrix(0.824362 0.566064 -0.612978 0.7901 13168.6 1005.61)" fill="#695070"/>
<ellipse rx="5.42673" ry="5.3268" transform="matrix(0.824362 0.566064 -0.612978 0.7901 13171.5 998.982)" fill="#695070"/>
<ellipse rx="3.61782" ry="3.5512" transform="matrix(0.824362 0.566064 -0.612978 0.7901 13163.8 1000.12)" fill="#8C8146"/>
<ellipse rx="5.42673" ry="5.3268" transform="matrix(0.824362 0.566064 -0.612978 0.7901 13228.3 970.29)" fill="#695070"/>
<ellipse rx="5.42673" ry="5.3268" transform="matrix(0.824362 0.566064 -0.612978 0.7901 13222.4 974.876)" fill="#695070"/>
<ellipse rx="5.42673" ry="5.3268" transform="matrix(0.824362 0.566064 -0.612978 0.7901 13224.7 980.753)" fill="#695070"/>
<ellipse rx="5.42673" ry="5.3268" transform="matrix(0.824362 0.566064 -0.612978 0.7901 13232.9 982.042)" fill="#695070"/>
<ellipse rx="5.42673" ry="5.3268" transform="matrix(0.824362 0.566064 -0.612978 0.7901 13235.7 975.409)" fill="#695070"/>
<ellipse rx="3.61782" ry="3.5512" transform="matrix(0.824362 0.566064 -0.612978 0.7901 13228 976.547)" fill="#8C8146"/>
<ellipse cx="12982.9" cy="1029.29" rx="5.53846" ry="5.21053" fill="#695070"/>
<ellipse cx="12981" cy="1036.24" rx="5.53846" ry="5.21053" fill="#695070"/>
<ellipse cx="12986.6" cy="1039.71" rx="5.53846" ry="5.21053" fill="#695070"/>
<ellipse cx="12994" cy="1036.24" rx="5.53846" ry="5.21053" fill="#695070"/>
<ellipse cx="12992.1" cy="1029.29" rx="5.53846" ry="5.21053" fill="#695070"/>
<ellipse cx="12986.6" cy="1034.5" rx="3.69231" ry="3.47368" fill="#8C8146"/>
<ellipse rx="5.53846" ry="5.21053" transform="matrix(-1 0 0 1 12841.1 1034)" fill="#695070"/>
<ellipse rx="5.53846" ry="5.21053" transform="matrix(-1 0 0 1 12843 1040.94)" fill="#695070"/>
<ellipse rx="5.53846" ry="5.21053" transform="matrix(-1 0 0 1 12837.4 1044.42)" fill="#695070"/>
<ellipse rx="5.53846" ry="5.21053" transform="matrix(-1 0 0 1 12830 1040.94)" fill="#695070"/>
<ellipse rx="5.53846" ry="5.21053" transform="matrix(-1 0 0 1 12831.9 1034)" fill="#695070"/>
<ellipse rx="3.69231" ry="3.47368" transform="matrix(-1 0 0 1 12837.4 1039.2)" fill="#8C8146"/>
<ellipse cx="12941.3" cy="999.98" rx="4.38462" ry="4.125" fill="#695070"/>
<ellipse cx="12939.9" cy="1005.48" rx="4.38462" ry="4.125" fill="#695070"/>
<ellipse cx="12944.3" cy="1008.23" rx="4.38462" ry="4.125" fill="#695070"/>
<ellipse cx="12950.1" cy="1005.48" rx="4.38462" ry="4.125" fill="#695070"/>
<ellipse cx="12948.7" cy="999.98" rx="4.38462" ry="4.125" fill="#695070"/>
<ellipse cx="12944.3" cy="1004.11" rx="2.92308" ry="2.75" fill="#8C8146"/>
<ellipse rx="4.38462" ry="4.125" transform="matrix(-1 0 0 1 12897.7 1018.8)" fill="#695070"/>
<ellipse rx="4.38462" ry="4.125" transform="matrix(-1 0 0 1 12899.1 1024.3)" fill="#695070"/>
<ellipse rx="4.38462" ry="4.125" transform="matrix(-1 0 0 1 12894.7 1027.05)" fill="#695070"/>
<ellipse rx="4.38462" ry="4.125" transform="matrix(-1 0 0 1 12888.9 1024.3)" fill="#695070"/>
<ellipse rx="4.38462" ry="4.125" transform="matrix(-1 0 0 1 12890.3 1018.8)" fill="#695070"/>
<ellipse rx="2.92308" ry="2.75" transform="matrix(-1 0 0 1 12894.7 1022.92)" fill="#8C8146"/>
<ellipse rx="5.36591" ry="5.38806" transform="matrix(0.70475 0.709455 -0.751006 0.660296 13112.4 1022.12)" fill="#695070"/>
<ellipse rx="5.36591" ry="5.38806" transform="matrix(0.70475 0.709455 -0.751006 0.660296 13105.7 1025.6)" fill="#695070"/>
<ellipse rx="5.36591" ry="5.38806" transform="matrix(0.70475 0.709455 -0.751006 0.660296 13106.8 1031.78)" fill="#695070"/>
<ellipse rx="5.36591" ry="5.38806" transform="matrix(0.70475 0.709455 -0.751006 0.660296 13114.6 1034.48)" fill="#695070"/>
<ellipse rx="5.36591" ry="5.38806" transform="matrix(0.70475 0.709455 -0.751006 0.660296 13118.7 1028.47)" fill="#695070"/>
<ellipse rx="3.57727" ry="3.59204" transform="matrix(0.70475 0.709455 -0.751006 0.660296 13110.9 1028.22)" fill="#8C8146"/>
<ellipse cx="13300.9" cy="985.072" rx="5.53846" ry="5.21053" fill="#695070"/>
<ellipse cx="13299" cy="992.017" rx="5.53846" ry="5.21053" fill="#695070"/>
<ellipse cx="13304.6" cy="995.494" rx="5.53846" ry="5.21053" fill="#695070"/>
<ellipse cx="13312" cy="992.017" rx="5.53846" ry="5.21053" fill="#695070"/>
<ellipse cx="13310.1" cy="985.072" rx="5.53846" ry="5.21053" fill="#695070"/>
<ellipse cx="13304.6" cy="990.28" rx="3.69231" ry="3.47368" fill="#8C8146"/>
<ellipse cx="13324.9" cy="1025.53" rx="5.53846" ry="5.21053" fill="#695070"/>
<ellipse cx="13323" cy="1032.47" rx="5.53846" ry="5.21053" fill="#695070"/>
<ellipse cx="13328.6" cy="1035.95" rx="5.53846" ry="5.21053" fill="#695070"/>
<ellipse cx="13336" cy="1032.47" rx="5.53846" ry="5.21053" fill="#695070"/>
<ellipse cx="13334.1" cy="1025.53" rx="5.53846" ry="5.21053" fill="#695070"/>
<ellipse cx="13328.6" cy="1030.74" rx="3.69231" ry="3.47368" fill="#8C8146"/>
<path d="M14694 1021.73C14756.6 1021.73 15013.5 1057.18 15033.5 1073H14935H13370V946.5C13432.2 953.311 13603.7 965.174 13735.8 967.689C13900.8 970.833 14008.9 1010.37 14083 1021.73C14135.5 1029.78 14230.1 1039.21 14335 1029.78C14440 1020.34 14649 1021.73 14694 1021.73Z" fill="#153053"/>
<ellipse rx="3" ry="2.82237" transform="matrix(-1 0 0 1 13495.1 1018.43)" fill="#695070"/>
<ellipse rx="3" ry="2.82237" transform="matrix(-1 0 0 1 13496.1 1022.2)" fill="#695070"/>
<ellipse rx="3" ry="2.82237" transform="matrix(-1 0 0 1 13493.1 1024.08)" fill="#695070"/>
<ellipse rx="3" ry="2.82237" transform="matrix(-1 0 0 1 13489.1 1022.2)" fill="#695070"/>
<ellipse rx="3" ry="2.82237" transform="matrix(-1 0 0 1 13490.1 1018.43)" fill="#695070"/>
<ellipse rx="2" ry="1.88158" transform="matrix(-1 0 0 1 13493.1 1021.26)" fill="#8C8146"/>
<ellipse rx="3" ry="2.82237" transform="matrix(-1 0 0 1 13701.1 1005.26)" fill="#695070"/>
<ellipse rx="3" ry="2.82237" transform="matrix(-1 0 0 1 13702.1 1009.03)" fill="#695070"/>
<ellipse rx="3" ry="2.82237" transform="matrix(-1 0 0 1 13699.1 1010.91)" fill="#695070"/>
<ellipse rx="3" ry="2.82237" transform="matrix(-1 0 0 1 13695.1 1009.03)" fill="#695070"/>
<ellipse rx="3" ry="2.82237" transform="matrix(-1 0 0 1 13696.1 1005.26)" fill="#695070"/>
<ellipse rx="2" ry="1.88158" transform="matrix(-1 0 0 1 13699.1 1008.08)" fill="#8C8146"/>
<ellipse cx="13958.8" cy="1017.49" rx="3" ry="2.82237" fill="#695070"/>
<ellipse cx="13957.8" cy="1021.26" rx="3" ry="2.82237" fill="#695070"/>
<ellipse cx="13960.8" cy="1023.14" rx="3" ry="2.82237" fill="#695070"/>
<ellipse cx="13964.8" cy="1021.26" rx="3" ry="2.82237" fill="#695070"/>
<ellipse cx="13963.8" cy="1017.49" rx="3" ry="2.82237" fill="#695070"/>
<ellipse cx="13960.8" cy="1020.32" rx="2" ry="1.88158" fill="#8C8146"/>
<ellipse rx="5.42673" ry="5.3268" transform="matrix(-0.824362 0.566064 0.612978 0.7901 13579.5 994.804)" fill="#695070"/>
<ellipse rx="5.42673" ry="5.3268" transform="matrix(-0.824362 0.566064 0.612978 0.7901 13585.4 999.39)" fill="#695070"/>
<ellipse rx="5.42673" ry="5.3268" transform="matrix(-0.824362 0.566064 0.612978 0.7901 13583.1 1005.27)" fill="#695070"/>
<ellipse rx="5.42673" ry="5.3268" transform="matrix(-0.824362 0.566064 0.612978 0.7901 13574.9 1006.56)" fill="#695070"/>
<ellipse rx="5.42673" ry="5.3268" transform="matrix(-0.824362 0.566064 0.612978 0.7901 13572.1 999.923)" fill="#695070"/>
<ellipse rx="3.61782" ry="3.5512" transform="matrix(-0.824362 0.566064 0.612978 0.7901 13579.8 1001.06)" fill="#8C8146"/>
<ellipse rx="5.42673" ry="5.3268" transform="matrix(-0.824362 0.566064 0.612978 0.7901 13515.3 971.236)" fill="#695070"/>
<ellipse rx="5.42673" ry="5.3268" transform="matrix(-0.824362 0.566064 0.612978 0.7901 13521.1 975.822)" fill="#695070"/>
<ellipse rx="5.42673" ry="5.3268" transform="matrix(-0.824362 0.566064 0.612978 0.7901 13518.8 981.699)" fill="#695070"/>
<ellipse rx="5.42673" ry="5.3268" transform="matrix(-0.824362 0.566064 0.612978 0.7901 13510.7 982.988)" fill="#695070"/>
<ellipse rx="5.42673" ry="5.3268" transform="matrix(-0.824362 0.566064 0.612978 0.7901 13507.8 976.355)" fill="#695070"/>
<ellipse rx="3.61782" ry="3.5512" transform="matrix(-0.824362 0.566064 0.612978 0.7901 13515.6 977.492)" fill="#8C8146"/>
<ellipse rx="5.53846" ry="5.21053" transform="matrix(-1 0 0 1 13760.7 1030.23)" fill="#695070"/>
<ellipse rx="5.53846" ry="5.21053" transform="matrix(-1 0 0 1 13762.5 1037.18)" fill="#695070"/>
<ellipse rx="5.53846" ry="5.21053" transform="matrix(-1 0 0 1 13757 1040.65)" fill="#695070"/>
<ellipse rx="5.53846" ry="5.21053" transform="matrix(-1 0 0 1 13749.6 1037.18)" fill="#695070"/>
<ellipse rx="5.53846" ry="5.21053" transform="matrix(-1 0 0 1 13751.4 1030.23)" fill="#695070"/>
<ellipse rx="3.69231" ry="3.47368" transform="matrix(-1 0 0 1 13757 1035.44)" fill="#8C8146"/>
<ellipse cx="13902.4" cy="1034.94" rx="5.53846" ry="5.21053" fill="#695070"/>
<ellipse cx="13900.6" cy="1041.88" rx="5.53846" ry="5.21053" fill="#695070"/>
<ellipse cx="13906.1" cy="1045.36" rx="5.53846" ry="5.21053" fill="#695070"/>
<ellipse cx="13913.5" cy="1041.88" rx="5.53846" ry="5.21053" fill="#695070"/>
<ellipse cx="13911.7" cy="1034.94" rx="5.53846" ry="5.21053" fill="#695070"/>
<ellipse cx="13906.1" cy="1040.14" rx="3.69231" ry="3.47368" fill="#8C8146"/>
<ellipse rx="4.38462" ry="4.125" transform="matrix(-1 0 0 1 13802.2 1000.92)" fill="#695070"/>
<ellipse rx="4.38462" ry="4.125" transform="matrix(-1 0 0 1 13803.7 1006.42)" fill="#695070"/>
<ellipse rx="4.38462" ry="4.125" transform="matrix(-1 0 0 1 13799.3 1009.17)" fill="#695070"/>
<ellipse rx="4.38462" ry="4.125" transform="matrix(-1 0 0 1 13793.4 1006.42)" fill="#695070"/>
<ellipse rx="4.38462" ry="4.125" transform="matrix(-1 0 0 1 13794.9 1000.92)" fill="#695070"/>
<ellipse rx="2.92308" ry="2.75" transform="matrix(-1 0 0 1 13799.3 1005.05)" fill="#8C8146"/>
<ellipse cx="13845.9" cy="1019.74" rx="4.38462" ry="4.125" fill="#695070"/>
<ellipse cx="13844.4" cy="1025.24" rx="4.38462" ry="4.125" fill="#695070"/>
<ellipse cx="13848.8" cy="1027.99" rx="4.38462" ry="4.125" fill="#695070"/>
<ellipse cx="13854.7" cy="1025.24" rx="4.38462" ry="4.125" fill="#695070"/>
<ellipse cx="13853.2" cy="1019.74" rx="4.38462" ry="4.125" fill="#695070"/>
<ellipse cx="13848.8" cy="1023.86" rx="2.92308" ry="2.75" fill="#8C8146"/>
<ellipse rx="5.36591" ry="5.38806" transform="matrix(-0.70475 0.709455 0.751006 0.660296 13631.2 1023.06)" fill="#695070"/>
<ellipse rx="5.36591" ry="5.38806" transform="matrix(-0.70475 0.709455 0.751006 0.660296 13637.8 1026.54)" fill="#695070"/>
<ellipse rx="5.36591" ry="5.38806" transform="matrix(-0.70475 0.709455 0.751006 0.660296 13636.7 1032.72)" fill="#695070"/>
<ellipse rx="5.36591" ry="5.38806" transform="matrix(-0.70475 0.709455 0.751006 0.660296 13629 1035.42)" fill="#695070"/>
<ellipse rx="5.36591" ry="5.38806" transform="matrix(-0.70475 0.709455 0.751006 0.660296 13624.9 1029.41)" fill="#695070"/>
<ellipse rx="3.57727" ry="3.59204" transform="matrix(-0.70475 0.709455 0.751006 0.660296 13632.7 1029.16)" fill="#8C8146"/>
<ellipse rx="5.53846" ry="5.21053" transform="matrix(-1 0 0 1 13412.6 962.496)" fill="#695070"/>
<ellipse rx="5.53846" ry="5.21053" transform="matrix(-1 0 0 1 13414.5 969.441)" fill="#695070"/>
<ellipse rx="5.53846" ry="5.21053" transform="matrix(-1 0 0 1 13408.9 972.918)" fill="#695070"/>
<ellipse rx="5.53846" ry="5.21053" transform="matrix(-1 0 0 1 13401.5 969.441)" fill="#695070"/>
<ellipse rx="5.53846" ry="5.21053" transform="matrix(-1 0 0 1 13403.4 962.496)" fill="#695070"/>
<ellipse rx="3.69231" ry="3.47368" transform="matrix(-1 0 0 1 13408.9 967.704)" fill="#8C8146"/>
<ellipse rx="5.53846" ry="5.21053" transform="matrix(-1 0 0 1 13418.7 1026.47)" fill="#695070"/>
<ellipse rx="5.53846" ry="5.21053" transform="matrix(-1 0 0 1 13420.5 1033.41)" fill="#695070"/>
<ellipse rx="5.53846" ry="5.21053" transform="matrix(-1 0 0 1 13415 1036.89)" fill="#695070"/>
<ellipse rx="5.53846" ry="5.21053" transform="matrix(-1 0 0 1 13407.6 1033.41)" fill="#695070"/>
<ellipse rx="5.53846" ry="5.21053" transform="matrix(-1 0 0 1 13409.4 1026.47)" fill="#695070"/>
<ellipse rx="3.69231" ry="3.47368" transform="matrix(-1 0 0 1 13415 1031.67)" fill="#8C8146"/>
<path d="M11754 1062.48C11755.8 1054.49 11763.9 1023.02 11793.7 1004.32C11799.1 1000.89 11814.8 991.036 11833.3 992.077C11863.9 993.791 11892.9 1024.59 11903.5 1068.6H11754V1062.48Z" fill="#012257"/>
<path d="M9600.38 705.824C9440.33 708.333 9378.48 744.431 9352.97 779.763C9349.82 784.147 9327.15 816.31 9302.97 851.061C9260.67 911.797 9258.3 916.365 9247.69 925C9214.37 952.199 9202.87 935.801 9139.78 967.251C9102.12 986.026 9064.4 1012.72 9050.29 1022.71C9044.16 1027.04 9027.11 1039.26 9002.92 1054.39C8991.94 1061.26 8982.76 1066.67 8976.6 1070.24C9185.39 1068.47 9391.59 1072.01 9600.38 1070.24V705.824Z" fill="#134B61"/>
<path d="M9600 705.43C9760.05 707.938 9821.9 744.036 9847.41 779.369C9850.57 783.752 9873.23 815.916 9897.42 850.667C9939.71 911.402 9942.08 915.971 9952.69 924.606C9986.01 951.805 9997.51 935.406 10060.6 966.856C10098.3 985.632 10136 1012.33 10150.1 1022.31C10156.2 1026.64 10173.3 1038.87 10197.5 1054C10208.4 1060.86 10217.6 1066.28 10223.8 1069.84C10015 1068.07 9808.8 1071.61 9600 1069.84V705.43Z" fill="#134B61"/>
<path d="M9599.71 832.195C9571.55 840.355 9549.44 853.294 9539.18 863.883C9516.73 887.042 9519.57 905.21 9497.07 919.338C9476.64 932.171 9470.32 919.654 9441.79 932.541C9422.29 941.334 9420.11 949.494 9381.26 972.151C9372.41 977.3 9359.07 984.747 9347.04 980.073C9340.91 977.696 9341.46 974.66 9336.51 972.151C9318.91 963.278 9295.61 993.514 9249.66 1009.12C9239.89 1012.42 9231.23 1014.4 9231.23 1014.4C9210.15 1019.18 9204.02 1016.41 9191.75 1019.68C9172.83 1024.73 9174.54 1034.79 9154.91 1043.45C9151.12 1045.11 9145.59 1047.17 9104.9 1048.73C9067.44 1050.18 9059.1 1048.94 9044.36 1054.01C9031.15 1058.55 9021.38 1065.18 9015.41 1069.86C9210.18 1070.73 9404.95 1071.63 9599.71 1072.5V832.195Z" fill="#153053"/>
<path d="M9599.72 953.67C9564.66 960.773 9534.49 971.389 9515.49 980.077C9483.07 994.891 9460.59 1005.53 9447.06 1030.25C9438.85 1045.25 9436.9 1060.01 9436.53 1069.86C9490.94 1069.86 9545.31 1069.86 9599.72 1069.86V953.67Z" fill="#0A0019"/>
<path d="M9434.97 1064.8C9433.42 1057.91 9426.41 1030.76 9400.75 1014.63C9396.04 1011.67 9382.54 1003.17 9366.54 1004.07C9340.16 1005.54 9315.19 1032.11 9306 1070.08H9434.97V1064.8Z" fill="#012257"/>
<path d="M9410.14 858.744C9371.39 857.35 9363.91 868.051 9343.66 865.177C9310.36 860.438 9279.68 824.242 9272.9 785.837C9272.32 782.556 9264.15 732.893 9290.06 710.785C9297.58 704.352 9306.72 701.35 9313.64 689.342C9320.55 677.355 9319.54 666.333 9320.08 659.321C9322.37 629.365 9358.93 595.12 9397.27 588.558C9453.95 578.844 9494.86 632.946 9500.2 640.022C9536.7 688.291 9525.76 744.387 9523.79 753.672C9530.05 756.181 9537.88 760.641 9543.09 768.682C9556.87 789.954 9544.29 823.62 9525.93 841.59C9502.97 864.062 9469.43 863.419 9448.74 863.033C9430.9 862.69 9431.09 859.495 9410.14 858.744Z" fill="#3C7474"/>
<path d="M9279.33 787.982C9283.04 786.224 9288.12 795.874 9296.49 794.415C9302.26 793.408 9306.44 787.682 9309.35 783.694C9314.54 776.596 9313.79 772.736 9317.93 770.828C9323.14 768.426 9327.13 773.208 9330.8 770.828C9335.3 767.911 9330.6 759.913 9335.08 751.529C9338.73 744.71 9347.54 739.306 9354.38 740.807C9360.77 742.201 9360.8 748.612 9369.39 751.529C9371.07 752.086 9377.05 754.102 9382.26 751.529C9388.84 748.269 9386.87 741.343 9392.98 736.518C9399.63 731.265 9411.23 732.144 9418.71 736.518C9427.87 741.858 9426.67 749.963 9433.72 751.529C9438.91 752.687 9440.91 748.591 9455.17 742.951C9464.07 739.435 9468.51 737.676 9472.32 738.663C9482.1 741.215 9487.83 755.474 9489.48 764.395C9490.7 770.956 9489.33 772.672 9491.62 777.261C9495.55 785.131 9504.04 789.033 9506.63 790.127C9514.01 793.215 9516.86 791.285 9519.5 794.415C9523.72 799.455 9517.67 806.016 9521.64 811.57C9525.39 816.824 9532.69 813.586 9538.8 820.148C9543.09 830.869 9509.68 855.443 9506.63 856.601C9466.62 871.826 9451.78 857.952 9380.12 863.034C9359.21 864.514 9346.56 866.68 9328.65 860.89C9321.94 858.724 9303.13 848.731 9290.05 826.581C9279.83 809.276 9274.36 790.341 9279.33 787.982Z" fill="#3B606C"/>
<path d="M9282.87 804.254C9285.12 801.981 9289.95 802.26 9293.06 804.254C9296.77 806.634 9295.84 810.108 9299.17 816.649C9300.6 819.479 9305.15 827.413 9313.41 831.101C9317.22 832.817 9320.35 832.945 9325.61 833.16C9334.57 833.546 9336.95 831.616 9345.96 831.101C9353.29 830.672 9359.62 830.287 9366.31 833.16C9374.37 836.612 9373.51 840.708 9382.58 845.554C9386.7 847.741 9394.89 852.116 9402.93 849.693C9411.7 847.034 9411.12 839.057 9419.21 837.298C9424.14 836.226 9429.26 838.649 9439.56 843.496C9447.17 847.077 9448.59 848.921 9453.8 849.693C9456.24 850.057 9462.5 850.979 9468.03 847.634C9474 844.053 9472.3 839.657 9478.22 835.24C9484.18 830.78 9491.62 830.973 9496.53 831.101C9503.42 831.294 9503.91 833.031 9508.73 833.16C9523.1 833.589 9531.79 818.6 9535.2 820.766C9537.98 822.524 9536.97 835.497 9529.08 845.533C9519.73 857.434 9497.63 860.5 9453.77 866.183C9446.48 867.126 9440.84 867.748 9435.46 868.241C9428.06 868.927 9412.39 870.364 9394.76 870.3C9377.22 870.235 9358.63 870.193 9335.73 864.103C9321.68 860.372 9312.55 857.82 9303.16 849.65C9292.41 840.301 9288.25 829.579 9284.84 820.744C9282.42 814.376 9279.78 807.364 9282.87 804.254Z" fill="#3C4D58"/>
<path d="M9474.49 807.579L9421.22 866.377C9418.44 869.443 9413.7 869.679 9410.63 866.891C9407.56 864.104 9407.33 859.365 9410.12 856.298L9463.36 797.501C9466.15 794.434 9470.89 794.198 9473.95 796.986C9477.04 799.752 9477.28 804.513 9474.49 807.579Z" fill="#001A4A"/>
<path d="M9460.92 740.44L9419.4 777.172C9416.29 779.917 9411.55 779.638 9408.81 776.529C9406.06 773.42 9406.34 768.681 9409.45 765.936L9450.97 729.204C9454.08 726.459 9458.81 726.738 9461.56 729.847C9464.33 732.956 9464.03 737.695 9460.92 740.44Z" fill="#001A4A"/>
<path d="M9404.11 830.568L9343.94 770.419C9341 767.482 9341 762.743 9343.94 759.805C9346.88 756.867 9351.62 756.867 9354.56 759.805L9414.73 819.975C9417.66 822.913 9417.66 827.652 9414.73 830.589C9411.79 833.506 9407.03 833.506 9404.11 830.568Z" fill="#293C7C"/>
<path d="M9412.28 1041.01C9408.72 1041.01 9405.85 1038.14 9405.85 1034.58V738.658C9405.85 735.098 9408.72 732.225 9412.28 732.225C9415.84 732.225 9418.71 735.098 9418.71 738.658V1034.58C9418.71 1038.14 9415.84 1041.01 9412.28 1041.01Z" fill="#001A4A"/>
<path d="M11643.8 795C11610.2 804.731 11583.8 820.161 11571.6 832.789C11544.8 860.406 11548.2 882.071 11521.4 898.918C11497 914.223 11489.5 899.296 11455.5 914.664C11432.2 925.15 11429.6 934.88 11383.3 961.899C11372.7 968.04 11356.8 976.92 11342.5 971.346C11335.2 968.512 11335.8 964.891 11329.9 961.899C11308.9 951.318 11281.1 987.375 11226.3 1005.99C11214.7 1009.92 11204.4 1012.28 11204.4 1012.28C11179.2 1017.98 11171.9 1014.68 11157.3 1018.58C11134.7 1024.6 11136.8 1036.59 11113.4 1046.92C11108.8 1048.91 11102.2 1051.36 11053.7 1053.22C11009.1 1054.95 10999.1 1053.47 10981.5 1059.52C10965.8 1064.94 10954.1 1072.84 10947 1078.41C11179.3 1079.45 11411.5 1080.52 11643.8 1081.56V795Z" fill="#153053"/>
<path d="M11643.8 939.857C11602 948.328 11566 960.988 11543.4 971.348C11504.7 989.014 11477.9 1001.7 11461.7 1031.18C11452 1049.07 11449.6 1066.67 11449.2 1078.42C11514.1 1078.42 11578.9 1078.42 11643.8 1078.42V939.857Z" fill="#0A0019"/>
<path d="M11447.3 1072.39C11445.5 1064.17 11437.1 1031.79 11406.5 1012.55C11400.9 1009.03 11384.8 998.887 11365.7 999.958C11334.3 1001.72 11304.5 1033.4 11293.5 1078.68H11447.3V1072.39Z" fill="#012257"/>
<path d="M11638.6 795C11672.2 804.731 11698.5 820.161 11710.8 832.789C11737.5 860.406 11734.1 882.071 11761 898.918C11785.3 914.223 11792.9 899.296 11826.9 914.664C11850.2 925.15 11852.8 934.88 11899.1 961.899C11909.6 968.04 11925.5 976.92 11939.9 971.346C11947.2 968.512 11946.5 964.891 11952.4 961.899C11973.4 951.318 12001.2 987.375 12056 1005.99C12067.7 1009.92 12078 1012.28 12078 1012.28C12103.1 1017.98 12110.4 1014.68 12125.1 1018.58C12147.6 1024.6 12145.6 1036.59 12169 1046.92C12173.5 1048.91 12180.1 1051.36 12228.7 1053.22C12273.3 1054.95 12283.3 1053.47 12300.8 1059.52C12316.6 1064.94 12328.2 1072.84 12335.4 1078.41C12103.1 1079.45 11870.8 1080.52 11638.6 1081.56V795Z" fill="#153053"/>
<path d="M11638.6 940.859C11680.4 949.33 11716.3 961.989 11739 972.35C11777.7 990.016 11804.5 1002.71 11820.6 1032.18C11830.4 1050.07 11832.7 1067.67 11833.2 1079.42C11768.3 1079.42 11703.4 1079.42 11638.6 1079.42V940.859Z" fill="#0A0019"/>
<path d="M11835 1072.39C11836.9 1064.17 11845.2 1031.79 11875.8 1012.55C11881.5 1009.03 11897.6 998.887 11916.6 999.958C11948.1 1001.72 11977.9 1033.4 11988.8 1078.68H11835V1072.39Z" fill="#012257"/>
<path d="M9599.67 831.801C9627.83 839.96 9649.94 852.9 9660.21 863.489C9682.66 886.648 9679.81 904.815 9702.32 918.943C9722.74 931.777 9729.06 919.26 9757.59 932.146C9777.09 940.94 9779.28 949.099 9818.12 971.756C9826.97 976.906 9840.31 984.352 9852.34 979.678C9858.47 977.302 9857.92 974.265 9862.87 971.756C9880.48 962.884 9903.77 993.12 9949.72 1008.73C9959.49 1012.03 9968.15 1014.01 9968.15 1014.01C9989.23 1018.79 9995.36 1016.01 10007.6 1019.29C10026.6 1024.33 10024.8 1034.39 10044.5 1043.05C10048.3 1044.72 10053.8 1046.78 10094.5 1048.34C10131.9 1049.79 10140.3 1048.55 10155 1053.62C10168.2 1058.16 10178 1064.79 10184 1069.46C9989.2 1070.33 9794.44 1071.23 9599.67 1072.1V831.801Z" fill="#153053"/>
<path d="M9599.67 953.275C9634.73 960.379 9664.89 970.994 9683.89 979.682C9716.32 994.496 9738.79 1005.14 9752.32 1029.86C9760.53 1044.85 9762.48 1059.62 9762.85 1069.47C9708.45 1069.47 9654.07 1069.47 9599.67 1069.47V953.275Z" fill="#0A0019"/>
<path d="M9764.41 1064.41C9765.97 1057.51 9772.97 1030.37 9798.63 1014.23C9803.34 1011.28 9816.84 1002.77 9832.85 1003.67C9859.22 1005.15 9884.2 1031.72 9893.38 1069.69H9764.41V1064.41Z" fill="#012257"/>
<path d="M7589.02 702.016C7753.22 704.589 7816.68 741.625 7842.85 777.875C7846.09 782.372 7869.34 815.371 7894.16 851.024C7937.55 913.337 7939.98 918.024 7950.86 926.883C7985.05 954.789 7996.85 937.964 8061.58 970.231C8100.22 989.494 8138.92 1016.88 8153.39 1027.13C8159.68 1031.57 8177.18 1044.11 8202 1059.64C8213.26 1066.68 8222.68 1072.23 8229 1075.89C8014.78 1074.08 7803.23 1077.71 7589.02 1075.89V702.016Z" fill="#134B61"/>
<path d="M7589.02 832.059C7617.91 840.43 7640.59 853.705 7651.12 864.57C7674.16 888.33 7671.24 906.969 7694.33 921.464C7715.29 934.631 7721.77 921.789 7751.04 935.01C7771.05 944.032 7773.29 952.403 7813.15 975.649C7822.22 980.932 7835.91 988.572 7848.25 983.777C7854.54 981.338 7853.98 978.223 7859.05 975.649C7877.12 966.546 7901.02 997.567 7948.16 1013.58C7958.18 1016.96 7967.07 1019 7967.07 1019C7988.7 1023.9 7994.99 1021.06 8007.57 1024.42C8026.99 1029.59 8025.23 1039.91 8045.38 1048.8C8049.26 1050.51 8054.94 1052.62 8096.68 1054.22C8135.11 1055.71 8143.67 1054.43 8158.79 1059.64C8172.35 1064.3 8182.36 1071.1 8188.49 1075.89C7988.67 1076.79 7788.84 1077.71 7589.02 1078.6V832.059Z" fill="#153053"/>
<path d="M7589.02 956.689C7624.99 963.977 7655.93 974.869 7675.43 983.782C7708.7 998.981 7731.76 1009.9 7745.64 1035.26C7754.06 1050.65 7756.06 1065.79 7756.44 1075.9C7700.62 1075.9 7644.83 1075.9 7589.02 1075.9V956.689Z" fill="#0A0019"/>
<path d="M7761.84 1070.48C7763.43 1063.41 7770.61 1035.56 7796.94 1019C7801.78 1015.97 7815.63 1007.24 7832.05 1008.17C7859.11 1009.68 7884.73 1036.94 7894.16 1075.9H7761.84V1070.48Z" fill="#012257"/>
<path d="M7570.24 895.169C7595.95 889.992 7601.79 895.941 7617.3 892.415C7638.39 887.623 7656.22 870.108 7664.35 851.104C7671.72 833.892 7675.62 804.864 7661.59 793.269C7648.24 782.253 7630.8 796.905 7614.53 785.007C7600.55 774.789 7607.66 759.752 7595.15 746.45C7578.32 728.549 7540.65 729.43 7514.87 743.696C7477.62 764.324 7473.96 808.031 7473.35 815.302C7471.08 842.347 7479.5 882.198 7506.57 895.169C7521.93 902.55 7542.58 900.925 7545.32 900.678C7555.51 899.796 7557.84 897.676 7570.24 895.169Z" fill="#FF5E55"/>
<path d="M7785.63 809.905C7756.21 808.393 7750.92 815.121 7741.76 809.905C7726.21 801.056 7732.4 776.436 7717.38 770.903C7710.41 768.344 7706.76 772.804 7697.88 773.341C7675.87 774.681 7649.94 750.086 7641.82 722.151C7633.31 692.851 7644.79 661.186 7666.2 644.147C7675.19 636.981 7684.43 633.617 7690.57 631.959C7680.58 595.566 7691.96 576.26 7695.45 571.019C7710.51 548.422 7741.56 542.84 7788.07 534.455C7801.79 531.993 7807.08 531.944 7810.01 532.017C7812.59 532.066 7857.15 533.699 7875.82 563.706C7888.49 584.085 7883.42 608.168 7892.88 610.021C7896.98 610.825 7898.27 606.389 7905.07 605.146C7918.13 602.757 7936.02 615.018 7939.19 629.522C7941.97 642.27 7932.39 652.216 7936.75 656.335C7940.51 659.894 7948.04 652.85 7956.25 653.898C7975.27 656.311 7998.25 702.162 7983.07 739.214C7974.8 759.373 7954.08 779.752 7931.88 780.653C7915.35 781.312 7903.22 770.952 7892.88 778.216C7885.98 783.067 7889.27 789.161 7883.13 797.717C7868.9 817.559 7830.02 814.244 7807.57 812.342C7796.75 811.416 7796.43 810.441 7785.63 809.905Z" fill="#3C7474"/>
<path d="M7646.7 724.588C7642.8 734.216 7654.01 748.964 7668.63 761.152C7688.55 777.752 7707.63 773.34 7714.95 770.902C7726.62 767.002 7729.45 795.083 7736.88 805.029C7746.36 817.753 7750.87 807.856 7817.32 812.342C7856.46 814.999 7867.75 816.144 7875.82 807.466C7885.08 797.521 7884.96 780.214 7895.32 778.215C7899.02 777.508 7901.7 779.214 7905.07 780.653C7924.54 788.989 7954.4 782.846 7958.69 770.902C7961.59 762.809 7953.72 749.476 7944.07 746.526C7933.59 743.333 7925.01 753.668 7917.25 748.964C7912.6 746.136 7914.48 741.675 7909.94 734.338C7901.46 720.663 7880.4 712.887 7870.94 719.712C7868.02 721.809 7869.14 725.465 7866.07 727.025C7860.95 729.633 7852.91 723.344 7851.44 722.15C7839.99 712.887 7843.2 702.527 7834.38 690.461C7824.95 677.517 7809.96 673.934 7807.57 673.398C7786.83 668.718 7762.16 679.516 7758.82 692.899C7757.45 698.359 7759.97 703.064 7756.38 709.962C7753.73 715.057 7749.39 717.884 7746.63 719.712C7744.66 721.029 7738.15 725.392 7730.79 725.806C7718.99 726.489 7717.07 716.324 7701.54 711.181C7688.96 707.012 7677.58 709.499 7669.85 711.181C7658.59 713.618 7649.33 718.079 7646.7 724.588Z" fill="#3B606C"/>
<path d="M7875.84 761.47L7815.3 828.309C7812.13 831.795 7806.74 832.063 7803.25 828.894C7799.77 825.725 7799.5 820.338 7802.67 816.852L7863.22 750.013C7866.38 746.527 7871.77 746.259 7875.26 749.428C7878.74 752.597 7879.01 757.984 7875.84 761.47Z" fill="#001A4A"/>
<path d="M7860.41 685.17L7813.22 726.927C7809.69 730.047 7804.3 729.73 7801.18 726.195C7798.06 722.661 7798.38 717.274 7801.91 714.154L7849.1 672.397C7852.64 669.277 7858.02 669.594 7861.14 673.129C7864.29 676.663 7863.95 682.05 7860.41 685.17Z" fill="#001A4A"/>
<path d="M7795.85 787.626L7727.45 719.227C7724.11 715.888 7724.11 710.5 7727.45 707.161C7730.79 703.821 7736.18 703.821 7739.52 707.161L7807.91 775.56C7811.25 778.9 7811.25 784.287 7807.91 787.626C7804.57 790.942 7799.16 790.942 7795.85 787.626Z" fill="#293C7C"/>
<path d="M7805.13 1026.85C7801.09 1026.85 7797.82 1023.59 7797.82 1019.54V683.151C7797.82 679.104 7801.09 675.838 7805.13 675.838C7809.18 675.838 7812.45 679.104 7812.45 683.151V1019.54C7812.45 1023.56 7809.16 1026.85 7805.13 1026.85Z" fill="#001A4A"/>
<path d="M8068.04 958.694C8045.57 954.17 8040.47 959.367 8026.92 956.287C8008.49 952.1 7992.92 936.796 7985.81 920.192C7979.37 905.153 7975.96 879.79 7988.23 869.659C7999.88 860.034 8015.12 872.836 8029.34 862.44C8041.56 853.513 8035.34 840.374 8046.27 828.752C8060.98 813.111 8093.9 813.881 8116.41 826.345C8148.97 844.369 8152.16 882.557 8152.69 888.91C8154.68 912.54 8147.32 947.36 8123.67 958.694C8110.24 965.143 8092.2 963.723 8089.81 963.506C8080.91 962.736 8078.88 960.883 8068.04 958.694Z" fill="#FF5E55"/>
<path d="M8105.91 920.519L8075.85 953.697C8074.28 955.427 8071.6 955.56 8069.87 953.987C8068.14 952.414 8068.01 949.74 8069.58 948.01L8099.63 914.832C8101.2 913.102 8103.87 912.969 8105.6 914.542C8107.34 916.103 8107.48 918.789 8105.91 920.519Z" fill="#001A4A"/>
<path d="M8066.2 933.495L8032.24 899.555C8030.59 897.897 8030.59 895.223 8032.24 893.566C8033.9 891.908 8036.57 891.908 8038.23 893.566L8072.18 927.518C8073.84 929.175 8073.84 931.849 8072.18 933.507C8070.53 935.153 8067.84 935.153 8066.2 933.495Z" fill="#293C7C"/>
<path d="M8070.81 1052.24C8068.8 1052.24 8067.18 1050.62 8067.18 1048.61V881.63C8067.18 879.621 8068.8 878 8070.81 878C8072.82 878 8074.44 879.621 8074.44 881.63V1048.61C8074.44 1050.62 8072.82 1052.24 8070.81 1052.24Z" fill="#001A4A"/>
<path d="M7554.09 856.519L7584.15 889.697C7585.72 891.427 7588.4 891.56 7590.13 889.987C7591.86 888.414 7591.99 885.74 7590.42 884.01L7560.37 850.832C7558.8 849.102 7556.13 848.969 7554.4 850.542C7552.66 852.103 7552.52 854.789 7554.09 856.519Z" fill="#001A4A"/>
<path d="M7593.8 869.495L7627.76 835.555C7629.41 833.897 7629.41 831.223 7627.76 829.566C7626.1 827.908 7623.43 827.908 7621.77 829.566L7587.82 863.518C7586.16 865.175 7586.16 867.849 7587.82 869.507C7589.47 871.153 7592.16 871.153 7593.8 869.495Z" fill="#293C7C"/>
<path d="M7589.19 988.237C7591.2 988.237 7592.82 986.616 7592.82 984.607V817.63C7592.82 815.621 7591.2 814 7589.19 814C7587.18 814 7585.56 815.621 7585.56 817.63V984.607C7585.56 986.616 7587.18 988.237 7589.19 988.237Z" fill="#001A4A"/>
<path d="M9163.76 952.823C9152.47 948.371 9145.03 956.205 9136.12 954.964C9117.43 952.352 9109.32 912.131 9108.47 907.872C9104.69 889.12 9103.16 854.721 9119.11 845.795C9124.21 842.948 9130.36 843.098 9133.99 837.233C9137.73 831.175 9133.86 826.658 9136.12 820.108C9140.07 808.613 9159.4 801.036 9174.4 805.124C9180.07 806.666 9185.47 809.983 9195.66 822.249C9211.52 841.321 9221.18 852.923 9225.43 871.482C9232.15 900.743 9222.69 935.142 9202.04 950.683C9198.38 953.444 9185.67 962.991 9174.4 959.245C9169.57 957.64 9169.23 954.985 9163.76 952.823Z" fill="#FF5E55"/>
<path d="M9764.79 980.819C9753.5 976.367 9746.06 984.202 9737.15 982.96C9718.46 980.349 9710.36 940.127 9709.5 935.868C9705.72 917.116 9704.19 882.717 9720.14 873.791C9725.24 870.944 9731.39 871.094 9735.02 865.229C9738.77 859.171 9734.9 854.655 9737.15 848.104C9741.1 836.61 9760.43 829.032 9775.43 833.12C9781.1 834.662 9786.51 837.98 9796.69 850.245C9812.56 869.317 9822.21 880.919 9826.46 899.478C9833.18 928.74 9823.72 963.138 9803.07 978.679C9799.41 981.44 9786.7 990.987 9775.43 987.241C9770.6 985.636 9770.26 982.981 9764.79 980.819Z" fill="#FF5E55"/>
<path d="M9195 924.979L9169.07 953.593C9167.72 955.085 9165.41 955.2 9163.92 953.843C9162.43 952.487 9162.31 950.181 9163.67 948.688L9189.58 920.075C9190.94 918.583 9193.24 918.468 9194.73 919.824C9196.24 921.171 9196.35 923.487 9195 924.979Z" fill="#001A4A"/>
<path d="M9160.75 936.169L9131.47 906.898C9130.04 905.468 9130.04 903.162 9131.47 901.732C9132.9 900.303 9135.2 900.303 9136.63 901.732L9165.91 931.014C9167.34 932.443 9167.34 934.75 9165.91 936.179C9164.48 937.598 9162.17 937.598 9160.75 936.169Z" fill="#293C7C"/>
<path d="M9164.73 1038.58C9162.99 1038.58 9161.6 1037.18 9161.6 1035.45V891.439C9161.6 889.707 9162.99 888.309 9164.73 888.309C9166.46 888.309 9167.86 889.707 9167.86 891.439V1035.45C9167.86 1037.18 9166.46 1038.58 9164.73 1038.58Z" fill="#001A4A"/>
<path d="M9796.03 952.976L9770.11 981.589C9768.75 983.081 9766.44 983.196 9764.95 981.84C9763.46 980.483 9763.34 978.177 9764.7 976.684L9790.61 948.071C9791.97 946.579 9794.27 946.464 9795.77 947.821C9797.27 949.167 9797.38 951.483 9796.03 952.976Z" fill="#001A4A"/>
<path d="M9761.78 964.165L9732.5 934.894C9731.07 933.464 9731.07 931.158 9732.5 929.728C9733.93 928.299 9736.23 928.299 9737.66 929.728L9766.94 959.01C9768.37 960.439 9768.37 962.746 9766.94 964.175C9765.52 965.595 9763.2 965.595 9761.78 964.165Z" fill="#293C7C"/>
<path d="M9765.76 1066.57C9764.02 1066.57 9762.63 1065.17 9762.63 1063.44V919.435C9762.63 917.703 9764.02 916.305 9765.76 916.305C9767.49 916.305 9768.89 917.703 9768.89 919.435V1063.44C9768.89 1065.17 9767.49 1066.57 9765.76 1066.57Z" fill="#001A4A"/>
<path d="M17065.5 984.951C17091.8 976.179 17368.5 923.998 17438 914.998L17446 1106L16406 1118V1099.72C16418.9 1098.02 16449.3 1091.83 16467.4 1080.72C16490.1 1066.83 16545.7 1055.86 16580 1055.86C16614.4 1055.86 16696.3 1050.74 16753.3 1030.28C16810.3 1009.81 16891.5 1011.27 16938.3 1009.81C16985.1 1008.34 17032.6 995.917 17065.5 984.951Z" fill="#134B61"/>
<path d="M18429.5 964.5C18685.5 932.9 19198.5 917 19423 913V1092.5H17434C17434 1082.67 17438 1043 17438 915C17506 909 17756 947.333 17882.5 964.5C17958.2 977.667 18173.5 996.1 18429.5 964.5Z" fill="#134B61"/>
<path d="M19111 987.281C19315.3 994.029 19456.1 1082.5 19472 1093H18291C18496.2 1055.51 18947.6 981.883 19111 987.281Z" fill="#153053"/>
<path d="M15918.2 1045.11C15916 1035.37 15874.7 1023.58 15847.1 999.527C15840.5 995.349 15797.4 989.919 15774.9 991.187C15737.9 993.276 15691.9 1000.5 15679 1054.14L15936 1101L15918.2 1045.11Z" fill="#012257"/>
<path d="M15932.6 1059.17C15915.5 1037.4 15893.7 1064.24 15885 1080.38L15922.5 1088H15961C15961 1080.38 15949.8 1080.93 15932.6 1059.17Z" fill="#04193C"/>
<path d="M15509.5 1013.5C15491.5 1007.5 15399.7 975 15356 959.5L15350.5 1104.5H15960.5V1092C15951.7 1090.83 15930.9 1086.6 15918.5 1079C15903 1069.5 15865 1062 15841.5 1062C15818 1062 15762 1058.5 15723 1044.5C15684 1030.5 15628.5 1031.5 15596.5 1030.5C15564.5 1029.5 15532 1021 15509.5 1013.5Z" fill="#134B61"/>
<path d="M16879 1074C16877 1065.03 16856 1033 16830.4 1010.83C16824.3 1006.98 16806.7 995.918 16785.9 997.086C16751.5 999.01 16719 1033.58 16707 1083L16916.5 1126.5L16879 1074Z" fill="#012257"/>
</g>
<defs>
<linearGradient id="paint0_linear" x1="8658" y1="649.181" x2="8658" y2="1222" gradientUnits="userSpaceOnUse">
<stop offset="0.425" stop-color="#35359F"/>
<stop offset="0.823923" stop-color="#05ABC2"/>
<stop offset="0.872917" stop-color="#00718F"/>
</linearGradient>
<linearGradient id="paint1_linear" x1="10872" y1="607.181" x2="10872" y2="1180" gradientUnits="userSpaceOnUse">
<stop offset="0.425" stop-color="#35359F"/>
<stop offset="0.823923" stop-color="#05ABC2"/>
<stop offset="0.872917" stop-color="#00718F"/>
</linearGradient>
<linearGradient id="paint2_linear" x1="16275" y1="771.346" x2="16275" y2="1216" gradientUnits="userSpaceOnUse">
<stop offset="0.602083" stop-color="#069FC2"/>
<stop offset="0.794792" stop-color="#00718F"/>
</linearGradient>
<clipPath id="clip0">
<rect width="19200" height="1080" fill="white"/>
</clipPath>
</defs>
</svg>
