<svg viewBox="0 0 5760 1080" fill="none" xmlns="http://www.w3.org/2000/svg">
<path fill-rule="evenodd" clip-rule="evenodd" d="M1920 736H0V1080H1920H3840H5760V736H3840H1920Z" fill="url(#paint0_linear)"/>
<path d="M4230 696.001C4188.4 705.201 4045.67 717.168 3979.5 722.001V740.5H4776.5V696.001H4685C4647 694.001 4562.8 689.5 4530 687.5C4489 685 4425.5 674.001 4400.5 666.501C4375.5 659.001 4365.5 652.001 4355 653.501C4344.5 655.001 4282 684.501 4230 696.001Z" fill="#3C3CB5"/>
<path d="M5213.5 686.704C5171.9 695.904 5029.17 707.871 4963 712.704V731.203H5760V686.704H5668.5C5630.5 684.704 5546.3 680.203 5513.5 678.203C5472.5 675.703 5409 664.704 5384 657.204C5359 649.704 5349 642.704 5338.5 644.204C5328 645.704 5265.5 675.204 5213.5 686.704Z" fill="#3C3CB5"/>
<path d="M2082.04 549.378C2041.37 571.354 1825.73 682.713 1723 735.645H2770C2717.95 727.693 2502.53 590.824 2467.1 570.342C2431.68 549.86 2308.07 443.835 2285.9 446.967C2268.16 449.473 2257.14 445.923 2253.85 443.835C2238.81 428.991 2224.13 441.987 2218.67 450.341C2137.22 527.45 2132.88 521.908 2082.04 549.378Z" fill="#3939B3"/>
<path d="M2112.55 542.596C2097.9 547.415 2094.08 544.604 2094 542.596C2111.91 533.358 2148.8 513.39 2153.04 507.414C2174.55 488.86 2217.92 451.221 2219.3 449.1C2222.97 442.353 2230.63 438.096 2234 436.811C2236.81 435.606 2244.46 434.835 2252.56 441.389C2260.65 447.944 2276.81 447.494 2283.88 446.45C2287.54 444.715 2294.89 447.815 2298.1 449.582C2305.33 449.1 2392.56 513.92 2394.49 516.571C2396.41 519.222 2394.49 529.101 2379.3 531.511C2367.16 533.439 2346.29 516.25 2337.38 507.414C2338.34 518.402 2334.89 523.077 2333.04 524.041C2324.28 529.071 2310.69 516.016 2302.25 505.483C2304.75 511.683 2303.51 519.813 2302.2 524.041C2296.81 527.013 2283.26 529.68 2272.07 516.571C2260.89 503.462 2247.82 511.109 2242.68 516.571C2242.27 520.748 2239.98 529.101 2234 529.101C2226.53 529.101 2227.98 529.101 2224.12 524.041C2220.27 518.981 2208.46 537.535 2190.63 542.596C2176.36 546.644 2175.21 535.286 2176.41 529.101C2174.96 530.708 2170.05 534.644 2161.95 537.535C2151.83 541.15 2151.59 524.523 2147.49 524.041C2143.4 523.559 2130.87 536.571 2112.55 542.596Z" fill="#7777D5"/>
<path d="M2189.03 699.137C2201.49 702.712 2266.53 723.372 2297.5 733.255V756H1354V677.611C1382.33 677.611 1439.01 704.742 1446.9 706.042C1454.79 707.342 1477.86 708.479 1488.42 708.885C1499.31 708.614 1528.79 704.824 1559.51 691.826C1590.24 678.829 1611.76 681.266 1618.68 684.109C1630.1 688.306 1655.73 696.538 1666.94 695.888C1678.15 695.238 1705.17 683.974 1717.28 678.423C1726.28 673.955 1748.84 663.882 1767.11 659.333C1785.37 654.784 1815 675 1831 680.499L1915.17 703.082C1927.34 706.347 1939.88 707.219 1951.56 702.495C1978.47 691.613 2024.04 668.227 2038.01 666.238C2056.28 663.639 2076.76 675.715 2084.72 682.078C2093.54 688.577 2115.13 700.681 2139.21 697.107C2169.31 692.639 2173.46 694.67 2189.03 699.137Z" fill="#35359F"/>
<path d="M2406.47 699.465C2394.01 703.04 2325.97 723.7 2295 733.583V756.328H3241.5V677.939C3213.17 677.939 3156.49 705.07 3148.6 706.37C3140.71 707.67 3117.64 708.807 3107.08 709.213C3096.19 708.943 3066.71 705.152 3035.99 692.154C3005.26 679.157 2983.74 681.594 2976.82 684.437C2965.4 688.634 2939.77 696.866 2928.56 696.216C2917.35 695.566 2890.33 684.302 2878.22 678.751C2869.22 674.283 2846.66 664.21 2828.39 659.661C2810.13 655.112 2780.5 675.328 2764.5 680.827L2680.33 703.41C2668.16 706.675 2655.62 707.547 2643.94 702.823C2617.03 691.942 2571.46 668.555 2557.49 666.566C2539.22 663.967 2518.74 676.043 2510.78 682.407C2501.96 688.905 2480.37 701.009 2456.29 697.435C2426.19 692.967 2422.04 694.998 2406.47 699.465Z" fill="#35359F"/>
<path d="M4184.5 733.583C4153.53 723.7 4088.49 703.04 4076.03 699.465C4060.46 694.998 4056.31 692.967 4026.21 697.435C4002.13 701.009 3980.54 688.905 3971.72 682.407C3963.76 676.043 3943.28 663.967 3925.01 666.566C3911.04 668.555 3865.47 691.942 3838.56 702.823C3826.88 707.547 3814.34 706.675 3802.17 703.41L3718 680.827C3702 675.328 3672.37 655.112 3654.11 659.661C3635.84 664.21 3613.28 674.283 3604.28 678.751C3592.17 684.302 3565.15 695.566 3553.94 696.216C3542.73 696.866 3517.1 688.634 3505.68 684.437C3498.76 681.594 3477.24 679.157 3446.51 692.154C3415.79 705.152 3386.31 708.943 3375.42 709.213C3364.86 708.807 3341.79 707.67 3333.9 706.37C3326.01 705.07 3269.33 677.939 3241 677.939V756.328H4184.5V756H4295.5H4406.5V733.583C4384.1 742.85 4249.17 737.444 4184.5 733.583Z" fill="#35359F"/>
<path d="M98.4263 622.593C81.8907 635.62 25.9189 650.509 0 656.324V729.603L344 736V656.324C310.863 653.998 234.156 646.786 192.423 636.551C140.258 623.756 119.096 606.309 98.4263 622.593Z" fill="#3939B2"/>
<path d="M155.658 699.137C137.783 702.711 44.4382 723.371 0 733.255V756H1354V677.61C1312.5 677.61 1232.01 704.742 1220.69 706.042C1209.36 707.341 1176.25 708.479 1161.1 708.885C1145.46 708.614 1103.16 704.823 1059.07 691.826C1014.98 678.829 984.095 681.266 974.165 684.109C957.78 688.306 920.988 696.537 904.901 695.888C888.814 695.238 850.036 683.973 832.658 678.423C819.748 673.955 787.376 663.882 761.159 659.333C734.943 654.784 704.06 637.941 691.895 630.089C673.028 616.685 632.611 587.36 621.887 577.287C611.162 567.215 597.557 571.466 592.096 574.85C578.69 584.192 549.495 602.876 539.961 602.876C530.428 602.876 522.087 603.959 519.108 604.501L426.011 658.927C419.06 662.447 398.603 668.837 372.387 666.238C346.171 663.638 316.777 675.715 305.358 682.078C292.696 688.577 261.714 700.68 227.156 697.106C183.959 692.638 178.001 694.669 155.658 699.137Z" fill="#35359F"/>
<path d="M4561.66 681.137C4543.78 684.711 4400.44 705.371 4356 715.255V756H5760V659.61C5718.5 659.61 5638.01 686.742 5626.69 688.042C5615.36 689.341 5582.25 690.479 5567.1 690.885C5551.46 690.614 5509.16 686.823 5465.07 673.826C5420.98 660.829 5390.1 663.266 5380.17 666.109C5363.78 670.306 5326.99 678.537 5310.9 677.888C5294.81 677.238 5256.04 665.973 5238.66 660.423C5225.75 655.955 5193.38 645.882 5167.16 641.333C5140.94 636.784 5110.06 619.941 5097.9 612.089C5079.03 598.685 5038.61 569.36 5027.89 559.287C5017.16 549.215 5003.56 553.466 4998.1 556.85C4984.69 566.192 4955.49 584.876 4945.96 584.876C4936.43 584.876 4928.09 585.959 4925.11 586.501L4832.01 640.927C4825.06 644.447 4804.6 650.837 4778.39 648.238C4752.17 645.638 4722.78 657.715 4711.36 664.078C4698.7 670.577 4667.71 682.68 4633.16 679.106C4589.96 674.638 4584 676.669 4561.66 681.137Z" fill="#35359F"/>
<path d="M1166.79 258.999L1159.6 233.594H1205.33L1198.97 258.999H1166.79Z" fill="#16387F"/>
<ellipse cx="1182.03" cy="203.532" rx="87.6487" ry="38.5315" fill="#E74E46"/>
<path fill-rule="evenodd" clip-rule="evenodd" d="M1269.68 203.955C1269.68 203.814 1269.68 203.673 1269.68 203.532C1269.68 182.251 1230.44 165 1182.03 165C1133.63 165 1094.39 182.251 1094.39 203.532C1094.39 203.673 1094.39 203.814 1094.39 203.955H1269.68Z" fill="#FF5E55"/>
<path d="M1137.58 194.216H1103.7L1091 170.928H1113.02L1137.58 194.216Z" fill="#E64E46"/>
<path d="M1137.58 213.271H1103.28L1091 236.559H1113.02L1137.58 213.271Z" fill="#FF5E55"/>
<path opacity="0.998" d="M1213.71 197.407L1204.21 192.092C1202.89 191.358 1202.44 189.733 1203.2 188.462C1203.96 187.191 1205.64 186.755 1206.95 187.489L1216.45 192.804C1217.77 193.537 1218.22 195.163 1217.46 196.434C1216.7 197.705 1215.02 198.14 1213.71 197.407Z" fill="white"/>
<path opacity="0.998" d="M1223.3 197.765C1222.82 197.765 1222.36 197.646 1221.94 197.42C1221.52 197.189 1221.17 196.849 1220.92 196.435C1220.74 196.139 1220.62 195.809 1220.57 195.466C1220.53 195.123 1220.55 194.774 1220.64 194.439C1220.73 194.095 1220.89 193.772 1221.11 193.491C1221.33 193.21 1221.61 192.977 1221.92 192.805L1227.31 189.792L1231.43 192.093C1231.84 192.323 1232.3 192.446 1232.78 192.449C1233.25 192.453 1233.71 192.338 1234.13 192.115L1224.67 197.408C1224.25 197.642 1223.78 197.765 1223.3 197.765ZM1234.86 191.545C1235.05 191.335 1235.21 191.096 1235.32 190.837C1235.21 191.097 1235.05 191.336 1234.86 191.545ZM1235.53 189.588C1235.51 189.265 1235.42 188.95 1235.28 188.659C1235.42 188.95 1235.51 189.265 1235.53 189.588H1235.53ZM1234.5 187.705C1234.39 187.626 1234.28 187.554 1234.17 187.49L1234.13 187.468C1234.26 187.537 1234.38 187.616 1234.5 187.705L1234.5 187.705Z" fill="white"/>
<path opacity="0.998" d="M1221.92 185.772L1231.43 191.087C1232.74 191.821 1234.42 191.385 1235.17 190.114C1235.93 188.843 1235.48 187.218 1234.17 186.483L1224.67 181.169C1223.35 180.435 1221.68 180.87 1220.92 182.141C1220.16 183.412 1220.61 185.038 1221.92 185.772Z" fill="white"/>
<path opacity="0.998" d="M1202.96 189.572C1202.88 189.339 1202.84 189.096 1202.83 188.851C1202.84 189.096 1202.88 189.339 1202.96 189.572V189.572ZM1211.06 188.786L1206.95 186.484C1206.54 186.255 1206.07 186.132 1205.6 186.128C1205.13 186.124 1204.66 186.238 1204.25 186.46L1213.71 181.169C1214.13 180.937 1214.59 180.815 1215.07 180.813C1215.55 180.81 1216.01 180.929 1216.43 181.157C1216.86 181.388 1217.21 181.728 1217.46 182.142C1217.64 182.438 1217.75 182.768 1217.8 183.111C1217.85 183.454 1217.83 183.803 1217.74 184.138C1217.64 184.483 1217.48 184.805 1217.26 185.086C1217.04 185.367 1216.77 185.6 1216.45 185.772L1211.06 188.786H1211.06ZM1203.24 187.389C1203.29 187.308 1203.35 187.231 1203.41 187.156C1203.35 187.231 1203.29 187.308 1203.24 187.389Z" fill="white"/>
<path d="M1922.46 428.079H1926.75L1964.4 390.757C1971.34 383.931 1984.22 364.929 1980.26 343.527C1974.18 301.78 1939.19 291.783 1922.46 292.004V428.079Z" fill="#F57575"/>
<path d="M1922.54 428.083H1918.25L1880.6 390.761C1873.66 383.935 1860.78 364.933 1864.74 343.531C1870.82 301.784 1905.81 291.787 1922.54 292.007V428.083Z" fill="#D75353"/>
<path d="M1912.88 447.896H1932.04V458.428C1932.04 460.637 1930.25 462.428 1928.04 462.428H1916.88C1914.67 462.428 1912.88 460.637 1912.88 458.428V447.896Z" fill="#1F238D"/>
<path d="M2727.27 297.504H2728.83L2742.53 283.927C2745.05 281.444 2749.74 274.531 2748.29 266.745C2746.08 251.558 2733.35 247.921 2727.27 248.001V297.504Z" fill="#F57575"/>
<path d="M2727.3 297.505H2725.73L2712.04 283.928C2709.51 281.445 2704.83 274.532 2706.27 266.746C2708.48 251.559 2721.21 247.922 2727.3 248.002V297.505Z" fill="#D75454"/>
<path d="M2723.78 304.713H2730.75V308.192C2730.75 309.19 2729.94 310 2728.94 310H2725.59C2724.59 310 2723.78 309.19 2723.78 308.192V304.713Z" fill="#1F238D"/>
<defs>
<linearGradient id="paint0_linear" x1="2880" y1="736" x2="2880" y2="1203.2" gradientUnits="userSpaceOnUse">
<stop stop-color="#3A3EB3"/>
<stop offset="0.746655" stop-color="#4A4AB4"/>
</linearGradient>
</defs>
</svg>
