<svg viewBox="0 0 5760 1080" fill="none" xmlns="http://www.w3.org/2000/svg">
<rect width="5760" height="1080" fill="white"/>
<path fill-rule="evenodd" clip-rule="evenodd" d="M960 0H0V1080H960H1920H2880V0H1920H960Z" fill="url(#paint0_linear)"/>
<rect x="546.5" y="114.5" width="826" height="850" stroke="white"/>
<rect x="1506.5" y="114.5" width="826" height="850" stroke="white"/>
<rect x="2466.5" y="114.5" width="826" height="850" stroke="#FAE0E0"/>
<rect x="3426" y="114" width="827" height="851" fill="#C4C4C4"/>
<rect x="4386" y="114" width="827" height="851" fill="#C4C4C4"/>
<path d="M1987.04 538.377C1946.37 560.353 1730.73 671.712 1628 724.644H2675C2622.95 716.692 2407.53 579.823 2372.1 559.341C2336.68 538.859 2213.07 432.834 2190.9 435.966C2173.16 438.472 2162.14 434.922 2158.85 432.834C2143.81 417.99 2129.13 430.986 2123.67 439.34C2042.22 516.449 2037.88 510.907 1987.04 538.377Z" fill="#3939B3"/>
<path d="M2017.55 531.596C2002.9 536.415 1999.08 533.604 1999 531.596C2016.91 522.358 2053.8 502.39 2058.04 496.414C2079.55 477.86 2122.92 440.221 2124.3 438.1C2127.97 431.353 2135.63 427.096 2139 425.811C2141.81 424.606 2149.46 423.835 2157.56 430.389C2165.65 436.944 2181.81 436.494 2188.88 435.45C2192.54 433.715 2199.89 436.815 2203.1 438.582C2210.33 438.1 2297.56 502.92 2299.49 505.571C2301.41 508.222 2299.49 518.101 2284.3 520.511C2272.16 522.439 2251.29 505.25 2242.38 496.414C2243.34 507.402 2239.89 512.077 2238.04 513.041C2229.28 518.071 2215.69 505.016 2207.25 494.483C2209.75 500.683 2208.51 508.813 2207.2 513.041C2201.81 516.013 2188.26 518.68 2177.07 505.571C2165.89 492.462 2152.82 500.109 2147.68 505.571C2147.27 509.748 2144.98 518.101 2139 518.101C2131.53 518.101 2132.98 518.101 2129.12 513.041C2125.27 507.981 2113.46 526.535 2095.63 531.596C2081.36 535.644 2080.21 524.286 2081.41 518.101C2079.96 519.708 2075.05 523.644 2066.95 526.535C2056.83 530.15 2056.59 513.523 2052.49 513.041C2048.4 512.559 2035.87 525.571 2017.55 531.596Z" fill="#7777D5"/>
<path d="M2189.03 668.137C2201.49 671.712 2266.53 692.372 2297.5 702.255V725H1354V646.611C1382.33 646.611 1439.01 673.742 1446.9 675.042C1454.79 676.342 1477.86 677.479 1488.42 677.885C1499.31 677.614 1528.79 673.824 1559.51 660.826C1590.24 647.829 1611.76 650.266 1618.68 653.109C1630.1 657.306 1655.73 665.538 1666.94 664.888C1678.15 664.238 1705.17 652.974 1717.28 647.423C1726.28 642.955 1748.84 632.882 1767.11 628.333C1785.37 623.784 1815 644 1831 649.499L1915.17 672.082C1927.34 675.347 1939.88 676.219 1951.56 671.495C1978.47 660.613 2024.04 637.227 2038.01 635.238C2056.28 632.639 2076.76 644.715 2084.72 651.078C2093.54 657.577 2115.13 669.681 2139.21 666.107C2169.31 661.639 2173.46 663.67 2189.03 668.137Z" fill="#35359F"/>
<path d="M98.4263 611.593C81.8907 624.62 25.9189 639.509 0 645.324V718.603L344 725V645.324C310.863 642.998 234.156 635.786 192.423 625.551C140.258 612.756 119.096 595.309 98.4263 611.593Z" fill="#3939B2"/>
<path d="M155.658 668.137C137.783 671.711 44.4382 692.371 0 702.255V725H1354V646.61C1312.5 646.61 1232.01 673.742 1220.69 675.042C1209.36 676.341 1176.25 677.479 1161.1 677.885C1145.46 677.614 1103.16 673.823 1059.07 660.826C1014.98 647.829 984.095 650.266 974.165 653.109C957.78 657.306 920.988 665.537 904.901 664.888C888.814 664.238 850.036 652.973 832.658 647.423C819.748 642.955 787.376 632.882 761.159 628.333C734.943 623.784 704.06 606.941 691.895 599.089C673.028 585.685 632.611 556.36 621.887 546.287C611.162 536.215 597.557 540.466 592.096 543.85C578.69 553.192 549.495 571.876 539.961 571.876C530.428 571.876 522.087 572.959 519.108 573.501L426.011 627.927C419.06 631.447 398.603 637.837 372.387 635.238C346.171 632.638 316.777 644.715 305.358 651.078C292.696 657.577 261.714 669.68 227.156 666.106C183.959 661.638 178.001 663.669 155.658 668.137Z" fill="#35359F"/>
<circle cx="1360" cy="121" r="3" fill="white" fill-opacity="0.22"/>
<circle cx="2064" cy="353" r="3" fill="white" fill-opacity="0.22"/>
<circle cx="1249" cy="199" r="3" fill="white"/>
<circle cx="1953" cy="431" r="3" fill="white"/>
<circle cx="909" cy="307" r="3" fill="white" fill-opacity="0.22"/>
<circle cx="1613" cy="539" r="3" fill="white" fill-opacity="0.22"/>
<circle cx="804" cy="110" r="3" fill="white"/>
<circle cx="1508" cy="342" r="3" fill="white"/>
<circle cx="1096" cy="291" r="3" fill="white"/>
<circle cx="1800" cy="523" r="3" fill="white"/>
<circle cx="1115" cy="127" r="3" fill="white"/>
<circle cx="1819" cy="359" r="3" fill="white"/>
<circle cx="560" cy="348" r="3" fill="white"/>
<circle cx="1264" cy="580" r="3" fill="white"/>
<circle cx="423" cy="312" r="3" fill="white" fill-opacity="0.22"/>
<circle cx="1127" cy="544" r="3" fill="white" fill-opacity="0.22"/>
<circle cx="469" cy="141" r="3" fill="white" fill-opacity="0.22"/>
<circle cx="1173" cy="373" r="3" fill="white" fill-opacity="0.22"/>
<circle cx="219" cy="313" r="3" fill="white"/>
<circle cx="923" cy="545" r="3" fill="white"/>
<circle cx="222" cy="90" r="3" fill="white"/>
<circle cx="926" cy="322" r="3" fill="white"/>
<circle cx="767" cy="408" r="3" fill="white" fill-opacity="0.22"/>
<path d="M1471 550C1471 551.657 1469.66 553 1468 553C1466.34 553 1465 551.657 1465 550C1465 548.343 1466.34 547 1468 547C1469.66 547 1471 548.343 1471 550Z" fill="white" fill-opacity="0.22"/>
<circle cx="669" cy="104" r="3" fill="white"/>
<circle cx="1373" cy="336" r="3" fill="white"/>
<circle cx="1395" cy="263" r="3" fill="white" fill-opacity="0.22"/>
<circle cx="2099" cy="495" r="3" fill="white" fill-opacity="0.22"/>
<circle cx="1246" cy="405" r="3" fill="white" fill-opacity="0.22"/>
<circle cx="2127" cy="204" r="3" fill="white" fill-opacity="0.22"/>
<circle cx="1474" cy="168" r="3" fill="white"/>
<circle cx="2178" cy="400" r="3" fill="white"/>
<circle cx="1937" cy="171" r="3" fill="white" fill-opacity="0.22"/>
<circle cx="2527" cy="529" r="3" fill="white" fill-opacity="0.22"/>
<circle cx="1647" cy="153" r="3" fill="white" fill-opacity="0.22"/>
<circle cx="2351" cy="385" r="3" fill="white" fill-opacity="0.22"/>
<circle cx="952" cy="201" r="3" fill="white" fill-opacity="0.22"/>
<circle cx="1656" cy="433" r="3" fill="white" fill-opacity="0.22"/>
<circle cx="579" cy="187" r="3" fill="white"/>
<circle cx="1283" cy="419" r="3" fill="white"/>
<circle cx="344" cy="262" r="3" fill="white" fill-opacity="0.22"/>
<circle cx="1048" cy="494" r="3" fill="white" fill-opacity="0.22"/>
<circle cx="471" cy="112" r="3" fill="white" fill-opacity="0.22"/>
<circle cx="1175" cy="344" r="3" fill="white" fill-opacity="0.22"/>
<circle cx="141" cy="282" r="2" fill="white"/>
<circle cx="845" cy="514" r="2" fill="white"/>
<circle cx="227" cy="87" r="3" fill="white"/>
<circle cx="931" cy="319" r="3" fill="white"/>
<path d="M1166.8 258.999L1159.6 233.594H1205.33L1198.98 258.999H1166.8Z" fill="#16387F"/>
<ellipse cx="1182.04" cy="203.532" rx="87.6487" ry="38.5315" fill="#E74E46"/>
<path fill-rule="evenodd" clip-rule="evenodd" d="M1269.68 203.955C1269.68 203.814 1269.68 203.673 1269.68 203.532C1269.68 182.251 1230.44 165 1182.04 165C1133.63 165 1094.39 182.251 1094.39 203.532C1094.39 203.673 1094.39 203.814 1094.39 203.955H1269.68Z" fill="#FF5E55"/>
<path d="M1137.58 194.216H1103.7L1091 170.928H1113.02L1137.58 194.216Z" fill="#E64E46"/>
<path d="M1137.58 213.27H1103.28L1091 236.558H1113.02L1137.58 213.27Z" fill="#FF5E55"/>
<path opacity="0.998" d="M1213.71 197.407L1204.2 192.092C1202.89 191.358 1202.44 189.733 1203.2 188.462C1203.96 187.191 1205.64 186.755 1206.95 187.489L1216.45 192.804C1217.76 193.537 1218.21 195.163 1217.46 196.434C1216.7 197.705 1215.02 198.14 1213.71 197.407Z" fill="white"/>
<path opacity="0.998" d="M1223.29 197.764C1222.82 197.764 1222.36 197.645 1221.94 197.419C1221.52 197.188 1221.16 196.848 1220.92 196.434C1220.74 196.138 1220.62 195.808 1220.57 195.465C1220.52 195.122 1220.55 194.773 1220.64 194.439C1220.73 194.094 1220.89 193.771 1221.11 193.49C1221.33 193.209 1221.61 192.976 1221.92 192.804L1227.31 189.791L1231.42 192.092C1231.84 192.322 1232.3 192.445 1232.77 192.448C1233.25 192.452 1233.71 192.337 1234.13 192.114L1224.66 197.407C1224.24 197.641 1223.77 197.764 1223.29 197.764ZM1234.86 191.544C1235.05 191.334 1235.2 191.095 1235.32 190.836C1235.2 191.096 1235.05 191.335 1234.86 191.544V191.544ZM1235.53 189.587C1235.51 189.264 1235.42 188.949 1235.28 188.658C1235.42 188.949 1235.51 189.264 1235.53 189.587H1235.53ZM1234.49 187.704C1234.39 187.625 1234.28 187.553 1234.17 187.489L1234.13 187.467C1234.26 187.536 1234.38 187.615 1234.49 187.704L1234.49 187.704Z" fill="white"/>
<path opacity="0.998" d="M1221.92 185.771L1231.42 191.086C1232.74 191.82 1234.41 191.384 1235.17 190.113C1235.93 188.842 1235.48 187.217 1234.17 186.482L1224.66 181.168C1223.35 180.434 1221.67 180.869 1220.91 182.14C1220.16 183.411 1220.61 185.037 1221.92 185.771Z" fill="white"/>
<path opacity="0.998" d="M1202.95 189.572C1202.88 189.339 1202.84 189.096 1202.83 188.851C1202.84 189.096 1202.88 189.339 1202.95 189.572V189.572ZM1211.06 188.786L1206.95 186.484C1206.53 186.255 1206.07 186.132 1205.6 186.128C1205.13 186.124 1204.66 186.238 1204.25 186.46L1213.71 181.169C1214.12 180.937 1214.59 180.815 1215.07 180.813C1215.54 180.81 1216.01 180.929 1216.43 181.157C1216.85 181.388 1217.21 181.728 1217.46 182.142C1217.63 182.438 1217.75 182.768 1217.8 183.111C1217.85 183.454 1217.83 183.803 1217.73 184.138C1217.64 184.483 1217.48 184.805 1217.26 185.086C1217.04 185.367 1216.76 185.6 1216.45 185.772L1211.06 188.786H1211.06ZM1203.24 187.389C1203.29 187.308 1203.35 187.231 1203.41 187.156C1203.35 187.231 1203.29 187.308 1203.24 187.389V187.389Z" fill="white"/>
<path d="M2406.47 668.465C2394.01 672.04 2328.97 692.7 2298 702.583V725.328H3241.5V646.939C3213.17 646.939 3156.49 674.07 3148.6 675.37C3140.71 676.67 3117.64 677.807 3107.08 678.213C3096.19 677.943 3066.71 674.152 3035.99 661.154C3005.26 648.157 2983.74 650.594 2976.82 653.437C2965.4 657.634 2939.77 665.866 2928.56 665.216C2917.35 664.566 2890.33 653.302 2878.22 647.751C2869.22 643.283 2846.66 633.21 2828.39 628.661C2810.13 624.112 2780.5 644.328 2764.5 649.827L2680.33 672.41C2668.16 675.675 2655.62 676.547 2643.94 671.823C2617.03 660.942 2571.46 637.555 2557.49 635.566C2539.22 632.967 2518.74 645.043 2510.78 651.407C2501.96 657.905 2480.37 670.009 2456.29 666.435C2426.19 661.967 2422.04 663.998 2406.47 668.465Z" fill="#35359F"/>
<g filter="url(#filter0_d)">
<circle cx="332.5" cy="216.5" r="87.5" fill="white"/>
</g>
<ellipse cx="370.5" cy="218" rx="19.5" ry="20" fill="#C4C4C4"/>
<ellipse cx="290" cy="255.5" rx="8" ry="7.5" fill="#C4C4C4"/>
<ellipse cx="298" cy="171" rx="15" ry="14" fill="#C4C4C4"/>
<path d="M1920.46 407.079H1924.75L1962.41 369.757C1969.34 362.931 1982.22 343.929 1978.26 322.527C1972.18 280.78 1937.2 270.783 1920.46 271.004V407.079Z" fill="#F57575"/>
<path d="M1920.54 407.083H1916.25L1878.59 369.761C1871.66 362.935 1858.78 343.933 1862.74 322.531C1868.82 280.784 1903.8 270.787 1920.54 271.007V407.083Z" fill="#D75353"/>
<path d="M1910.88 426.896H1930.04V437.429C1930.04 439.638 1928.25 441.429 1926.04 441.429H1914.88C1912.67 441.429 1910.88 439.638 1910.88 437.429V426.896Z" fill="#1F238D"/>
<path d="M2675.27 516.504H2676.83L2690.53 502.927C2693.05 500.444 2697.73 493.531 2696.29 485.745C2694.08 470.558 2681.35 466.921 2675.27 467.001V516.504Z" fill="#F57575"/>
<path d="M2675.3 516.506H2673.73L2660.04 502.929C2657.51 500.446 2652.83 493.533 2654.27 485.747C2656.48 470.56 2669.21 466.923 2675.3 467.003V516.506Z" fill="#D75454"/>
<path d="M2671.78 523.713H2678.75V527.192C2678.75 528.19 2677.94 529 2676.94 529H2673.59C2672.59 529 2671.78 528.19 2671.78 527.192V523.713Z" fill="#1F238D"/>
<defs>
<filter id="filter0_d" x="197" y="82" width="273" height="273" filterUnits="userSpaceOnUse" color-interpolation-filters="sRGB">
<feFlood flood-opacity="0" result="BackgroundImageFix"/>
<feColorMatrix in="SourceAlpha" type="matrix" values="0 0 0 0 0 0 0 0 0 0 0 0 0 0 0 0 0 0 127 0"/>
<feMorphology radius="14" operator="dilate" in="SourceAlpha" result="effect1_dropShadow"/>
<feOffset dx="1" dy="2"/>
<feGaussianBlur stdDeviation="17.5"/>
<feColorMatrix type="matrix" values="0 0 0 0 1 0 0 0 0 1 0 0 0 0 1 0 0 0 0.15 0"/>
<feBlend mode="normal" in2="BackgroundImageFix" result="effect1_dropShadow"/>
<feBlend mode="normal" in="SourceGraphic" in2="effect1_dropShadow" result="shape"/>
</filter>
<linearGradient id="paint0_linear" x1="1440" y1="0" x2="1440" y2="1466.79" gradientUnits="userSpaceOnUse">
<stop stop-color="#3A3EB3"/>
<stop offset="0.746655" stop-color="#4A4AB4"/>
</linearGradient>
</defs>
</svg>
