<svg width="60" height="60" viewBox="0 0 60 60" fill="none" xmlns="http://www.w3.org/2000/svg">
<rect width="60" height="60" rx="6.92971" fill="#8A9CFE"/>
<path d="M42.4957 18.3346C40.1348 17.2299 37.6372 16.4448 35.0688 16C34.7484 16.5778 34.3758 17.3572 34.1166 17.9746C31.3886 17.5588 28.6132 17.5588 25.8852 17.9746C25.5991 17.2999 25.2777 16.6408 24.9222 16C22.3516 16.4456 19.8521 17.2325 17.4899 18.34C12.7901 25.4429 11.5157 32.3693 12.1529 39.1967C14.8964 41.2682 17.9788 42.8475 21.2628 43.8642C22.0006 42.8488 22.6532 41.7741 23.214 40.6511C22.1474 40.2447 21.1192 39.7441 20.1414 39.1553C20.3988 38.9645 20.6508 38.7647 20.8938 38.5595C26.8176 41.3297 33.2526 41.3297 39.1063 38.5595C39.3529 38.7647 39.6049 38.9645 39.8587 39.1553C38.8849 39.7421 37.8535 40.2461 36.7806 40.6529C37.3404 41.7764 37.9931 42.8512 38.7319 43.866C42.0184 42.8499 45.1029 41.2693 47.8471 39.1949C48.5941 31.2821 46.5709 24.4186 42.4957 18.3346ZM24.0204 34.9973C22.242 34.9973 20.784 33.3377 20.784 31.3163C20.784 29.2949 22.2114 27.6317 24.0204 27.6317C25.8294 27.6317 27.2874 29.2913 27.2568 31.3163C27.2586 33.3377 25.8294 34.9973 24.0204 34.9973ZM35.9796 34.9973C34.2012 34.9973 32.7432 33.3377 32.7432 31.3163C32.7432 29.2949 34.1706 27.6317 35.9796 27.6317C37.7887 27.6317 39.2467 29.2913 39.2161 31.3163C39.2161 33.3377 37.7887 34.9973 35.9796 34.9973Z" fill="#FDFDFD"/>
</svg>
