<svg viewBox="0 0 19200 1080" fill="none" xmlns="http://www.w3.org/2000/svg">
<g clip-path="url(#clip0)">
<path d="M988.5 951.5C732.5 919.9 219.5 904 -5 900V1079.5H1984V900C1928.8 900 1662 934.333 1535.5 951.5C1459.83 964.667 1244.5 983.1 988.5 951.5Z" fill="#134B61"/>
<path d="M2962.5 951.5C2706.5 919.9 2193.5 904 1969 900V1079.5H3958C3958 1069.67 3976.5 1020 3976.5 892C3921.3 892 3636 934.333 3509.5 951.5C3433.83 964.667 3218.5 983.1 2962.5 951.5Z" fill="#134B61"/>
<path d="M241.995 974.281C37.6844 981.029 -103.124 1069.5 -119 1080H1062C856.769 1042.51 405.444 968.883 241.995 974.281Z" fill="#153053"/>
<path d="M2124.65 988.376C1851.49 997.398 1663.23 1115.69 1642 1129.72H3221C2946.61 1079.6 2343.18 981.158 2124.65 988.376Z" fill="#153053"/>
<path d="M4594.66 915.494C4509.67 887.76 4144.65 888.222 3972.76 891.92L3958 1080.07H5954V871.813C5796.2 837.838 5651.71 846.406 5580.89 853.34C5510.06 860.273 5356.34 862.106 5073.66 915.494C4790.98 968.882 4700.89 950.162 4594.66 915.494Z" fill="#134B61"/>
<path d="M7473.42 916.601C7523 907.5 7576.5 894.5 7678.5 888V1079.5L5954 1081.43V872.851C6130.39 838.824 6291.89 847.405 6371.05 854.35C6450.22 861.294 6622.05 863.129 6938.01 916.601C7253.98 970.072 7351.74 938.938 7473.42 916.601Z" fill="#134B61"/>
<circle r="5.53846" transform="matrix(-0.682793 0.730612 0.730612 0.682793 5442.89 1033.77)" fill="#695070"/>
<circle r="5.53846" transform="matrix(-0.682793 0.730612 0.730612 0.682793 5449.55 1037.47)" fill="#695070"/>
<circle r="5.53846" transform="matrix(-0.682793 0.730612 0.730612 0.682793 5448.46 1044.03)" fill="#695070"/>
<circle r="5.53846" transform="matrix(-0.682793 0.730612 0.730612 0.682793 5440.72 1046.91)" fill="#695070"/>
<circle r="5.53846" transform="matrix(-0.682793 0.730612 0.730612 0.682793 5436.59 1040.52)" fill="#695070"/>
<circle r="3.69231" transform="matrix(-0.682793 0.730612 0.730612 0.682793 5444.41 1040.25)" fill="#8C8146"/>
<path d="M4696.05 1042.08C4653.35 1057.12 4310 1061.19 4290 1078H4388.5H5953.5V926C5891.26 933.24 5719.76 963.388 5587.74 966.061C5422.72 969.402 5315 1032.05 5240.5 1023.5C5216.05 1020.69 5093.41 1042.08 4988.46 1032.05C4883.51 1022.03 4738.76 1027.04 4696.05 1042.08Z" fill="#153053"/>
<circle cx="5830.5" cy="1019" r="3" fill="#695070"/>
<circle cx="5829.5" cy="1023" r="3" fill="#695070"/>
<circle cx="5832.5" cy="1025" r="3" fill="#695070"/>
<circle cx="5836.5" cy="1023" r="3" fill="#695070"/>
<circle cx="5835.5" cy="1019" r="3" fill="#695070"/>
<circle cx="5832.5" cy="1022" r="2" fill="#8C8146"/>
<circle cx="5624.5" cy="1005" r="3" fill="#695070"/>
<circle cx="5623.5" cy="1009" r="3" fill="#695070"/>
<circle cx="5626.5" cy="1011" r="3" fill="#695070"/>
<circle cx="5630.5" cy="1009" r="3" fill="#695070"/>
<circle cx="5629.5" cy="1005" r="3" fill="#695070"/>
<circle cx="5626.5" cy="1008" r="2" fill="#8C8146"/>
<circle r="3" transform="matrix(-1 0 0 1 5366.79 1018)" fill="#695070"/>
<circle r="3" transform="matrix(-1 0 0 1 5367.79 1022)" fill="#695070"/>
<circle r="3" transform="matrix(-1 0 0 1 5364.79 1024)" fill="#695070"/>
<circle r="3" transform="matrix(-1 0 0 1 5360.79 1022)" fill="#695070"/>
<circle r="3" transform="matrix(-1 0 0 1 5361.79 1018)" fill="#695070"/>
<circle r="2" transform="matrix(-1 0 0 1 5364.79 1021)" fill="#8C8146"/>
<circle cx="5746.04" cy="993.881" r="5.53846" transform="rotate(36.1252 5746.04 993.881)" fill="#695070"/>
<circle cx="5740.19" cy="998.758" r="5.53846" transform="rotate(36.1252 5740.19 998.758)" fill="#695070"/>
<circle cx="5742.49" cy="1005.01" r="5.53846" transform="rotate(36.1252 5742.49 1005.01)" fill="#695070"/>
<circle cx="5750.63" cy="1006.38" r="5.53846" transform="rotate(36.1252 5750.63 1006.38)" fill="#695070"/>
<circle cx="5753.49" cy="999.325" r="5.53846" transform="rotate(36.1252 5753.49 999.325)" fill="#695070"/>
<circle cx="5745.75" cy="1000.53" r="3.69231" transform="rotate(36.1252 5745.75 1000.53)" fill="#8C8146"/>
<circle cx="5810.26" cy="968.827" r="5.53846" transform="rotate(36.1252 5810.26 968.827)" fill="#695070"/>
<circle cx="5804.42" cy="973.704" r="5.53846" transform="rotate(36.1252 5804.42 973.704)" fill="#695070"/>
<circle cx="5806.71" cy="979.952" r="5.53846" transform="rotate(36.1252 5806.71 979.952)" fill="#695070"/>
<circle cx="5814.86" cy="981.323" r="5.53846" transform="rotate(36.1252 5814.86 981.323)" fill="#695070"/>
<circle cx="5817.72" cy="974.27" r="5.53846" transform="rotate(36.1252 5817.72 974.27)" fill="#695070"/>
<circle cx="5809.98" cy="975.478" r="3.69231" transform="rotate(36.1252 5809.98 975.478)" fill="#8C8146"/>
<circle cx="5564.89" cy="1031.54" r="5.53846" fill="#695070"/>
<circle cx="5563.04" cy="1038.92" r="5.53846" fill="#695070"/>
<circle cx="5568.58" cy="1042.61" r="5.53846" fill="#695070"/>
<circle cx="5575.96" cy="1038.92" r="5.53846" fill="#695070"/>
<circle cx="5574.12" cy="1031.54" r="5.53846" fill="#695070"/>
<circle cx="5568.58" cy="1037.08" r="3.69231" fill="#8C8146"/>
<circle r="5.53846" transform="matrix(-1 0 0 1 5423.11 1036.54)" fill="#695070"/>
<circle r="5.53846" transform="matrix(-1 0 0 1 5424.96 1043.92)" fill="#695070"/>
<circle r="5.53846" transform="matrix(-1 0 0 1 5419.42 1047.61)" fill="#695070"/>
<circle r="5.53846" transform="matrix(-1 0 0 1 5412.04 1043.92)" fill="#695070"/>
<circle r="5.53846" transform="matrix(-1 0 0 1 5413.88 1036.54)" fill="#695070"/>
<circle r="3.69231" transform="matrix(-1 0 0 1 5419.42 1042.08)" fill="#8C8146"/>
<circle cx="5523.35" cy="1000.38" r="4.38462" fill="#695070"/>
<circle cx="5521.88" cy="1006.23" r="4.38462" fill="#695070"/>
<circle cx="5526.27" cy="1009.15" r="4.38462" fill="#695070"/>
<circle cx="5532.12" cy="1006.23" r="4.38462" fill="#695070"/>
<circle cx="5530.65" cy="1000.38" r="4.38462" fill="#695070"/>
<circle cx="5526.27" cy="1004.77" r="2.92308" fill="#8C8146"/>
<circle r="4.38462" transform="matrix(-1 0 0 1 5479.65 1020.38)" fill="#695070"/>
<circle r="4.38462" transform="matrix(-1 0 0 1 5481.12 1026.23)" fill="#695070"/>
<circle r="4.38462" transform="matrix(-1 0 0 1 5476.73 1029.15)" fill="#695070"/>
<circle r="4.38462" transform="matrix(-1 0 0 1 5470.88 1026.23)" fill="#695070"/>
<circle r="4.38462" transform="matrix(-1 0 0 1 5472.35 1020.38)" fill="#695070"/>
<circle r="2.92308" transform="matrix(-1 0 0 1 5476.73 1024.77)" fill="#8C8146"/>
<circle cx="5694.4" cy="1023.92" r="5.53846" transform="rotate(46.9377 5694.4 1023.92)" fill="#695070"/>
<circle cx="5687.74" cy="1027.62" r="5.53846" transform="rotate(46.9377 5687.74 1027.62)" fill="#695070"/>
<circle cx="5688.82" cy="1034.18" r="5.53846" transform="rotate(46.9377 5688.82 1034.18)" fill="#695070"/>
<circle cx="5696.56" cy="1037.06" r="5.53846" transform="rotate(46.9377 5696.56 1037.06)" fill="#695070"/>
<circle cx="5700.7" cy="1030.67" r="5.53846" transform="rotate(46.9377 5700.7 1030.67)" fill="#695070"/>
<circle cx="5692.87" cy="1030.4" r="3.69231" transform="rotate(46.9377 5692.87 1030.4)" fill="#8C8146"/>
<circle cx="5882.89" cy="984.538" r="5.53846" fill="#695070"/>
<circle cx="5881.04" cy="991.923" r="5.53846" fill="#695070"/>
<circle cx="5886.58" cy="995.615" r="5.53846" fill="#695070"/>
<circle cx="5893.96" cy="991.923" r="5.53846" fill="#695070"/>
<circle cx="5892.12" cy="984.538" r="5.53846" fill="#695070"/>
<circle cx="5886.58" cy="990.077" r="3.69231" fill="#8C8146"/>
<circle cx="5906.89" cy="1027.54" r="5.53846" fill="#695070"/>
<circle cx="5905.04" cy="1034.92" r="5.53846" fill="#695070"/>
<circle cx="5910.58" cy="1038.61" r="5.53846" fill="#695070"/>
<circle cx="5917.96" cy="1034.92" r="5.53846" fill="#695070"/>
<circle cx="5916.12" cy="1027.54" r="5.53846" fill="#695070"/>
<circle cx="5910.58" cy="1033.08" r="3.69231" fill="#8C8146"/>
<path d="M7211.45 1038.08C7254.15 1053.12 7597.5 1057.19 7617.5 1074H7519H5954V922C6016.24 929.24 6187.74 959.388 6319.76 962.061C6484.78 965.402 6592.5 1028.05 6667 1019.5C6691.45 1016.69 6814.09 1038.08 6919.04 1028.05C7023.99 1018.03 7168.74 1023.04 7211.45 1038.08Z" fill="#153053"/>
<circle r="3" transform="matrix(-1 0 0 1 6077.05 1016)" fill="#695070"/>
<circle r="3" transform="matrix(-1 0 0 1 6078.05 1020)" fill="#695070"/>
<circle r="3" transform="matrix(-1 0 0 1 6075.05 1022)" fill="#695070"/>
<circle r="3" transform="matrix(-1 0 0 1 6071.05 1020)" fill="#695070"/>
<circle r="3" transform="matrix(-1 0 0 1 6072.05 1016)" fill="#695070"/>
<circle r="2" transform="matrix(-1 0 0 1 6075.05 1019)" fill="#8C8146"/>
<circle r="3" transform="matrix(-1 0 0 1 6283.05 1002)" fill="#695070"/>
<circle r="3" transform="matrix(-1 0 0 1 6284.05 1006)" fill="#695070"/>
<circle r="3" transform="matrix(-1 0 0 1 6281.05 1008)" fill="#695070"/>
<circle r="3" transform="matrix(-1 0 0 1 6277.05 1006)" fill="#695070"/>
<circle r="3" transform="matrix(-1 0 0 1 6278.05 1002)" fill="#695070"/>
<circle r="2" transform="matrix(-1 0 0 1 6281.05 1005)" fill="#8C8146"/>
<circle cx="6540.77" cy="1015" r="3" fill="#695070"/>
<circle cx="6539.77" cy="1019" r="3" fill="#695070"/>
<circle cx="6542.77" cy="1021" r="3" fill="#695070"/>
<circle cx="6546.77" cy="1019" r="3" fill="#695070"/>
<circle cx="6545.77" cy="1015" r="3" fill="#695070"/>
<circle cx="6542.77" cy="1018" r="2" fill="#8C8146"/>
<circle r="5.53846" transform="matrix(-0.807731 0.589551 0.589551 0.807731 6161.51 990.881)" fill="#695070"/>
<circle r="5.53846" transform="matrix(-0.807731 0.589551 0.589551 0.807731 6167.36 995.758)" fill="#695070"/>
<circle r="5.53846" transform="matrix(-0.807731 0.589551 0.589551 0.807731 6165.07 1002.01)" fill="#695070"/>
<circle r="5.53846" transform="matrix(-0.807731 0.589551 0.589551 0.807731 6156.92 1003.38)" fill="#695070"/>
<circle r="5.53846" transform="matrix(-0.807731 0.589551 0.589551 0.807731 6154.06 996.325)" fill="#695070"/>
<circle r="3.69231" transform="matrix(-0.807731 0.589551 0.589551 0.807731 6161.8 997.532)" fill="#8C8146"/>
<circle r="5.53846" transform="matrix(-0.807731 0.589551 0.589551 0.807731 6097.29 965.827)" fill="#695070"/>
<circle r="5.53846" transform="matrix(-0.807731 0.589551 0.589551 0.807731 6103.14 970.704)" fill="#695070"/>
<circle r="5.53846" transform="matrix(-0.807731 0.589551 0.589551 0.807731 6100.84 976.952)" fill="#695070"/>
<circle r="5.53846" transform="matrix(-0.807731 0.589551 0.589551 0.807731 6092.69 978.323)" fill="#695070"/>
<circle r="5.53846" transform="matrix(-0.807731 0.589551 0.589551 0.807731 6089.83 971.27)" fill="#695070"/>
<circle r="3.69231" transform="matrix(-0.807731 0.589551 0.589551 0.807731 6097.57 972.478)" fill="#8C8146"/>
<circle r="5.53846" transform="matrix(-1 0 0 1 6342.66 1028.54)" fill="#695070"/>
<circle r="5.53846" transform="matrix(-1 0 0 1 6344.51 1035.92)" fill="#695070"/>
<circle r="5.53846" transform="matrix(-1 0 0 1 6338.97 1039.61)" fill="#695070"/>
<circle r="5.53846" transform="matrix(-1 0 0 1 6331.59 1035.92)" fill="#695070"/>
<circle r="5.53846" transform="matrix(-1 0 0 1 6333.43 1028.54)" fill="#695070"/>
<circle r="3.69231" transform="matrix(-1 0 0 1 6338.98 1034.08)" fill="#8C8146"/>
<circle cx="6484.44" cy="1033.54" r="5.53846" fill="#695070"/>
<circle cx="6482.59" cy="1040.92" r="5.53846" fill="#695070"/>
<circle cx="6488.13" cy="1044.61" r="5.53846" fill="#695070"/>
<circle cx="6495.51" cy="1040.92" r="5.53846" fill="#695070"/>
<circle cx="6493.67" cy="1033.54" r="5.53846" fill="#695070"/>
<circle cx="6488.13" cy="1039.08" r="3.69231" fill="#8C8146"/>
<circle r="4.38462" transform="matrix(-1 0 0 1 6384.21 997.385)" fill="#695070"/>
<circle r="4.38462" transform="matrix(-1 0 0 1 6385.67 1003.23)" fill="#695070"/>
<circle r="4.38462" transform="matrix(-1 0 0 1 6381.28 1006.15)" fill="#695070"/>
<circle r="4.38462" transform="matrix(-1 0 0 1 6375.44 1003.23)" fill="#695070"/>
<circle r="4.38462" transform="matrix(-1 0 0 1 6376.9 997.385)" fill="#695070"/>
<circle r="2.92308" transform="matrix(-1 0 0 1 6381.28 1001.77)" fill="#8C8146"/>
<circle cx="6427.9" cy="1017.38" r="4.38462" fill="#695070"/>
<circle cx="6426.44" cy="1023.23" r="4.38462" fill="#695070"/>
<circle cx="6430.82" cy="1026.15" r="4.38462" fill="#695070"/>
<circle cx="6436.67" cy="1023.23" r="4.38462" fill="#695070"/>
<circle cx="6435.21" cy="1017.38" r="4.38462" fill="#695070"/>
<circle cx="6430.82" cy="1021.77" r="2.92308" fill="#8C8146"/>
<circle r="5.53846" transform="matrix(-0.682793 0.730612 0.730612 0.682793 6213.16 1020.92)" fill="#695070"/>
<circle r="5.53846" transform="matrix(-0.682793 0.730612 0.730612 0.682793 6219.81 1024.62)" fill="#695070"/>
<circle r="5.53846" transform="matrix(-0.682793 0.730612 0.730612 0.682793 6218.73 1031.18)" fill="#695070"/>
<circle r="5.53846" transform="matrix(-0.682793 0.730612 0.730612 0.682793 6210.99 1034.06)" fill="#695070"/>
<circle r="5.53846" transform="matrix(-0.682793 0.730612 0.730612 0.682793 6206.85 1027.67)" fill="#695070"/>
<circle r="3.69231" transform="matrix(-0.682793 0.730612 0.730612 0.682793 6214.68 1027.4)" fill="#8C8146"/>
<circle r="5.53846" transform="matrix(-1 0 0 1 5994.61 956.538)" fill="#695070"/>
<circle r="5.53846" transform="matrix(-1 0 0 1 5996.46 963.923)" fill="#695070"/>
<circle r="5.53846" transform="matrix(-1 0 0 1 5990.92 967.615)" fill="#695070"/>
<circle r="5.53846" transform="matrix(-1 0 0 1 5983.54 963.923)" fill="#695070"/>
<circle r="5.53846" transform="matrix(-1 0 0 1 5985.38 956.538)" fill="#695070"/>
<circle r="3.69231" transform="matrix(-1 0 0 1 5990.92 962.077)" fill="#8C8146"/>
<circle r="5.53846" transform="matrix(-1 0 0 1 6000.66 1024.54)" fill="#695070"/>
<circle r="5.53846" transform="matrix(-1 0 0 1 6002.51 1031.92)" fill="#695070"/>
<circle r="5.53846" transform="matrix(-1 0 0 1 5996.97 1035.61)" fill="#695070"/>
<circle r="5.53846" transform="matrix(-1 0 0 1 5989.59 1031.92)" fill="#695070"/>
<circle r="5.53846" transform="matrix(-1 0 0 1 5991.43 1024.54)" fill="#695070"/>
<circle r="3.69231" transform="matrix(-1 0 0 1 5996.98 1030.08)" fill="#8C8146"/>
<path fill-rule="evenodd" clip-rule="evenodd" d="M4259.01 970.197C4236.98 960.126 4202.01 947.82 4161.35 939.586V940.024C4121.07 948.257 4086.43 960.46 4064.55 970.46C4026.96 987.633 4000.89 999.969 3985.21 1028.62C3975.69 1046.01 3973.43 1063.12 3973 1074.54C3994.03 1074.54 4021.73 1075.34 4049.43 1076.15C4103.41 1077.73 4157.38 1079.3 4161.96 1074.9C4168.4 1078.98 4221.27 1077.43 4274.14 1075.89C4301.84 1075.08 4329.54 1074.27 4350.57 1074.27C4350.14 1062.85 4347.88 1045.74 4338.36 1028.36C4322.67 999.705 4296.61 987.369 4259.01 970.197Z" fill="#0A0019"/>
<path fill-rule="evenodd" clip-rule="evenodd" d="M7392.55 974.611C7414.59 964.54 7449.56 952.234 7490.21 944V944.438C7530.5 952.671 7565.13 964.874 7587.01 974.874C7624.61 992.047 7650.67 1004.38 7666.36 1033.03C7675.88 1050.42 7678.14 1067.53 7678.57 1078.95C7657.54 1078.95 7629.84 1079.76 7602.14 1080.57C7548.16 1082.14 7494.19 1083.72 7489.61 1079.31C7483.16 1083.39 7430.3 1081.85 7377.43 1080.3C7349.73 1079.5 7322.03 1078.69 7301 1078.69C7301.43 1067.27 7303.68 1050.16 7313.21 1032.77C7328.89 1004.12 7354.95 991.783 7392.55 974.611Z" fill="#0A0019"/>
<path d="M4356.82 1068.15C4358.62 1060.16 4366.73 1028.7 4396.49 1009.99C4401.95 1006.56 4417.61 996.708 4436.16 997.748C4466.74 999.463 4495.71 1030.26 4506.36 1074.28H4356.82V1068.15Z" fill="#012257"/>
<path d="M7300.54 1065.48C7298.74 1057.49 7290.62 1026.02 7260.87 1007.32C7255.4 1003.89 7239.75 994.036 7221.19 995.077C7190.61 996.791 7161.65 1027.59 7151 1071.6H7300.54V1065.48Z" fill="#012257"/>
</g>
<defs>
<clipPath id="clip0">
<rect width="19200" height="1080" fill="white"/>
</clipPath>
</defs>
</svg>
