<svg
    viewBox="0 0 9600 1080"
    fill="none"
    xmlns="http://www.w3.org/2000/svg"
  >
    <g clip-path="url(#clip0)">
      <path
        d="M2640.5 759H3848V575C3807.2 590.812 3765.02 609.24 3440.94 600.506C3116.86 591.772 2772.28 702.529 2640.5 759Z"
        fill="#35359F"
      />
      <path
        d="M3754.51 548.067C3762.33 551.93 3774.82 553.649 3780.5 553.743C3781.18 553.755 3781.33 553.007 3780.71 552.743C3774.57 550.14 3762.49 546.941 3754.76 546.974C3754.1 546.977 3753.92 547.772 3754.51 548.067Z"
        fill="#669D80"
      />
      <path
        d="M3794.59 575.61C3792.33 567.193 3785.38 556.68 3781.69 552.346C3781.25 551.832 3780.59 552.213 3780.81 552.854C3782.91 559.184 3788.48 570.362 3793.61 576.146C3794.05 576.644 3794.77 576.253 3794.59 575.61Z"
        fill="#669D80"
      />
      <path
        d="M3801.13 535.017C3793.4 539.047 3784.65 548.119 3781.22 552.656C3780.81 553.195 3781.33 553.757 3781.9 553.41C3787.63 549.988 3797.33 542.125 3801.87 535.862C3802.26 535.323 3801.72 534.709 3801.13 535.017Z"
        fill="#669D80"
      />
      <path
        d="M3782.94 605.331H3777.78L3778.48 556.77H3782L3782.94 605.331Z"
        fill="#ABDBCD"
      />
      <circle cx="3780.36" cy="554.893" r="2.81516" fill="#FEFFFD" />
      <circle cx="3780.36" cy="554.892" r="1.87677" fill="#256949" />
      <path
        d="M2095.61 645.295C2021.57 649.374 1911.02 685.313 1865 702.772V783H2929V685.622C2896.32 691.339 2819.35 702.772 2772.93 702.772C2714.9 702.772 2707.4 690.721 2633.36 677.279C2559.33 663.836 2429.77 702.772 2359.23 702.772C2288.7 702.772 2188.15 640.197 2095.61 645.295Z"
        fill="#35359F"
      />
      <path
        d="M2121.17 631.662C2109.07 626.112 2090.16 623.924 2081.31 623.939C2080.18 623.941 2079.97 625.178 2081.01 625.588C2090.59 629.34 2108.95 633.729 2120.8 633.471C2121.9 633.447 2122.17 632.125 2121.17 631.662Z"
        fill="#669D80"
      />
      <path
        d="M2066.65 583.455C2067.45 596.741 2074.43 614.454 2078.61 622.253C2079.14 623.244 2080.34 622.852 2080.2 621.735C2079 611.518 2074.23 593.26 2068.42 582.929C2067.88 581.962 2066.58 582.348 2066.65 583.455Z"
        fill="#669D80"
      />
      <path
        d="M2050.09 653.485C2061.7 646.99 2074.62 633.009 2079.83 625.854C2080.49 624.945 2079.62 624.041 2078.67 624.645C2069.99 630.167 2055.62 642.4 2048.84 652.12C2048.21 653.03 2049.12 654.027 2050.09 653.485Z"
        fill="#669D80"
      />
      <path
        d="M2084.5 703.603H2076.53L2077.61 628.584H2083.05L2084.5 703.603Z"
        fill="#ABDBCD"
      />
      <circle cx="2080.51" cy="625.685" r="4.34896" fill="#FEFFFD" />
      <circle cx="2080.51" cy="625.684" r="2.8993" fill="#256949" />
      <path
        d="M2182.03 623.627C2175.41 620.929 2166.12 619.721 2160.77 619.549C2159.69 619.514 2159.5 620.611 2160.52 620.974C2166.09 622.959 2175.18 625.069 2181.71 625.206C2182.77 625.229 2183.02 624.029 2182.03 623.627Z"
        fill="#669D80"
      />
      <path
        d="M2154 596.311C2153.79 603.456 2155.9 612.589 2157.61 617.658C2157.95 618.684 2159.05 618.484 2159.03 617.402C2158.94 611.485 2157.75 602.234 2155.6 596.065C2155.25 595.057 2154.04 595.245 2154 596.311Z"
        fill="#669D80"
      />
      <path
        d="M2141.93 636.492C2148.01 632.738 2154.47 625.943 2157.76 621.728C2158.43 620.876 2157.66 620.071 2156.76 620.68C2151.87 624.01 2144.81 630.103 2140.85 635.297C2140.2 636.145 2141.02 637.052 2141.93 636.492Z"
        fill="#669D80"
      />
      <path
        d="M2161.35 667H2156.59L2157.24 622.295H2160.48L2161.35 667Z"
        fill="#ABDBCD"
      />
      <circle cx="2158.97" cy="620.568" r="2.59161" fill="#FEFFFD" />
      <circle cx="2158.97" cy="620.568" r="1.72774" fill="#256949" />
      <path
        d="M3267.71 540.604C3278.12 545.981 3295.54 548.277 3302.71 548.27C3303.39 548.27 3303.54 547.498 3302.92 547.225C3294.99 543.728 3278.24 539.243 3267.97 539.472C3267.31 539.487 3267.12 540.298 3267.71 540.604Z"
        fill="#669D80"
      />
      <path
        d="M3320.53 577.298C3317.69 565.925 3307.91 551.332 3303.17 545.951C3302.72 545.444 3302.04 545.84 3302.24 546.484C3304.85 554.746 3312.55 570.289 3319.5 577.848C3319.95 578.337 3320.69 577.943 3320.53 577.298Z"
        fill="#669D80"
      />
      <path
        d="M3329.43 523.636C3318.94 528.875 3306.81 541.585 3302.59 547.381C3302.19 547.926 3302.72 548.504 3303.31 548.165C3310.81 543.827 3324.31 532.942 3330.18 524.515C3330.56 523.969 3330.02 523.339 3329.43 523.636Z"
        fill="#669D80"
      />
      <path
        d="M3305.22 615.332H3298.51L3299.42 552.201H3304L3305.22 615.332Z"
        fill="#ABDBCD"
      />
      <circle cx="3301.86" cy="549.761" r="3.65974" fill="#FEFFFD" />
      <circle cx="3301.86" cy="549.762" r="2.43982" fill="#256949" />
      <path
        d="M1926 693.5C1916.5 699.167 1855.2 707.1 1686 693.5C1513.34 679.622 1214.39 718.726 1060.63 738.725C771.927 695.385 368.13 638 280.5 638C174.9 638 -0.5 665.333 -75 679V792H588H1455H1926V693.5Z"
        fill="#222166"
      />
      <rect y="794" width="1920" height="286" fill="#222166" />
      <g opacity="0.33" filter="url(#filter0_f)">
        <path
          d="M1920.5 794H-274.599H-281V931.653H-245.794V832.958H-13.4332V859.58H7.05038V832.958H30.7345V870.618L55.6989 884.903V832.958H125.471V954.378H174.12V832.958H212.526V954.378L225.969 967.365L251.573 943.34V832.958H635H695.811V914.771L727.816 931.653V832.958H777.745V981H825.754V832.958H1044.03V931.653H1055.55V832.958H1124.05V871.917H1165.65V832.958H1287.91V919.316H1302V832.958H1383.93V943.34H1399.93V832.958H1412.1V914.771H1425.54V832.958H1607.33V896.59H1618.85V832.958H1632.93V866.073H1648.94V832.958H1696.95V943.34H1719.35V832.958H1777.6V884.903H1819.21V832.958H1829.45V928.406H1851.21V832.958H1920.5V794Z"
          fill="#3693D9"
          fill-opacity="0.3"
        />
      </g>
      <rect x="157" y="765" width="62.9293" height="28.5377" fill="#16387F" />
      <rect x="109" y="794" width="16" height="150.738" fill="#254597" />
      <rect y="755" width="1920" height="39" fill="#16387F" />
      <rect x="436.5" y="765" width="62.9293" height="28.5377" fill="#16387F" />
      <rect x="390" y="794" width="16" height="150.738" fill="#254597" />
      <rect x="716" y="765" width="62.9293" height="28.5377" fill="#16387F" />
      <rect x="669" y="794" width="16" height="150.738" fill="#254597" />
      <rect x="995.5" y="765" width="62.9293" height="28.5377" fill="#16387F" />
      <rect x="950" y="794" width="16" height="150.738" fill="#254597" />
      <rect x="1275" y="765" width="62.9293" height="28.5377" fill="#16387F" />
      <rect x="1228" y="794" width="16" height="150.738" fill="#254597" />
      <rect
        x="1554.5"
        y="765"
        width="62.9293"
        height="28.5377"
        fill="#16387F"
      />
      <rect x="1508" y="793" width="16" height="151" fill="#254597" />
      <rect x="1834" y="765" width="62.9293" height="28.5377" fill="#16387F" />
      <rect x="1787" y="793" width="16" height="151" fill="#254597" />
      <rect x="1920" y="792" width="1924" height="288" fill="#222166" />
      <rect x="2078" y="766" width="62.9293" height="28.5377" fill="#16387F" />
      <rect x="2100" y="795" width="16" height="150.738" fill="#254597" />
      <rect
        x="2357.5"
        y="766"
        width="62.9293"
        height="28.5377"
        fill="#16387F"
      />
      <rect x="2381" y="795" width="16" height="150.738" fill="#254597" />
      <rect x="2637" y="759" width="62.9293" height="37.4707" fill="#16387F" />
      <rect x="2660" y="797.078" width="16" height="197.922" fill="#254597" />
      <rect
        x="2916.5"
        y="759"
        width="62.9293"
        height="34.7716"
        fill="#16387F"
      />
      <rect x="2941" y="794.334" width="16" height="183.665" fill="#254597" />
      <rect x="3196" y="766" width="62.9293" height="28.5377" fill="#16387F" />
      <rect x="3219" y="795" width="16" height="150.738" fill="#254597" />
      <rect
        x="3475.5"
        y="766"
        width="62.9293"
        height="28.5377"
        fill="#16387F"
      />
      <rect x="3499" y="794" width="16" height="151" fill="#254597" />
      <rect x="3755" y="766" width="62.9293" height="28.5377" fill="#16387F" />
      <rect x="3778" y="794" width="16" height="151" fill="#254597" />
      <path
        d="M1921 696C1930.5 701.667 1991.8 709.6 2161 696C2333.66 682.122 2632.61 721.226 2786.37 741.225C3075.07 697.885 3478.87 640.5 3566.5 640.5C3672.1 640.5 3767.5 667.833 3842 681.5V794.5H3259H2392H1921V696Z"
        fill="#222166"
      />
      <path
        d="M3603.61 499.984C3567.13 480.437 3500.33 474.102 3479.57 475.731C3478.68 475.801 3478.52 476.907 3479.33 477.278C3504.72 488.886 3568.31 504.693 3603.28 501.593C3604.16 501.515 3604.39 500.399 3603.61 499.984Z"
        fill="#669D80"
      />
      <path
        d="M3460.9 351.705C3455.91 392.79 3474.23 457.339 3483.28 476.102C3483.67 476.905 3484.75 476.648 3484.8 475.758C3486.42 447.892 3478.09 382.899 3462.52 351.427C3462.13 350.639 3461.01 350.832 3460.9 351.705Z"
        fill="#669D80"
      />
      <path
        d="M3389.58 551.743C3428.47 537.592 3477.74 492.038 3490.37 475.477C3490.91 474.767 3490.19 473.914 3489.37 474.271C3463.79 485.448 3409.61 522.293 3388.6 550.425C3388.07 551.129 3388.75 552.043 3389.58 551.743Z"
        fill="#669D80"
      />
      <path
        d="M3495.63 696.719H3473.49L3476.51 488.385H3491.61L3495.63 696.719Z"
        fill="#ABDBCD"
      />
      <circle cx="3484.56" cy="480.333" r="12.0774" fill="#FEFFFD" />
      <circle cx="3484.56" cy="480.333" r="8.05157" fill="#256949" />
      <rect x="1920" y="755" width="1920" height="39" fill="#16387F" />
      <path
        d="M3723.68 554.393C3703.16 543.912 3667.46 540.282 3654.52 540.894C3653.63 540.937 3653.46 542 3654.27 542.355C3669.26 548.854 3703.53 557.269 3723.37 555.95C3724.25 555.892 3724.47 554.792 3723.68 554.393Z"
        fill="#669D80"
      />
      <path
        d="M3642.42 470.718C3640.1 493.645 3649.66 528.232 3654.92 540.073C3655.28 540.888 3656.34 540.661 3656.37 539.769C3656.99 523.444 3652.41 488.462 3643.99 470.443C3643.61 469.647 3642.51 469.843 3642.42 470.718Z"
        fill="#669D80"
      />
      <path
        d="M3602.58 584.324C3624.07 576.018 3650.58 551.836 3658.76 541.781C3659.32 541.089 3658.64 540.253 3657.83 540.626C3642.99 547.462 3613.88 567.383 3601.62 583.053C3601.08 583.746 3601.76 584.641 3602.58 584.324Z"
        fill="#669D80"
      />
      <path
        d="M3662.55 668.21H3649.8L3651.54 548.256H3660.23L3662.55 668.21Z"
        fill="#ABDBCD"
      />
      <circle cx="3656.18" cy="543.62" r="6.95387" fill="#FEFFFD" />
      <circle cx="3656.18" cy="543.62" r="4.63591" fill="#256949" />
      <path
        d="M1901.21 636.688V721.417H1920V756H6.40112H0V633.806H35.2062V721.417H36.5668V697.785H57.0504V721.417H80.7345V687.986L105.699 675.306V721.417H175.471V613.632H224.12V721.417H262.526V613.632L275.969 602.104L301.573 623.431V721.417H685H740.811V648.792H777.816V721.417H827.745V590H875.754V721.417H1094.03V633.806H1105.55V721.417H1174.05V686.833H1215.65V721.417H1337.91V644.757H1352V721.417H1433.93L1449.93 703V721.417H1462.1V648.792H1495.54V721.417H1637.33V664.931H1668.85V721.417H1682.93V723.021H1698.94V721.417H1746.95V633.806L1769.35 623.431V721.417H1827.6V675.306H1869.21V721.417H1879.45V636.688H1901.21Z"
        fill="#232396"
      />
      <path
        d="M292 662V726V730H1680V688.5V671H1640V708.5H1623V618H1565.5V650H1534V415.5L1481 401.5V497L1452 479H1444V356H1377.5V505L1305.5 530.5V448V350.5H1195H1098.5V389H1080.5L1021 429V465H1002V177H957V389H838.5L819 374V213H720V440.5H669V263L614.5 285.5V456H554.5V389H506.5V500H435V668.5H416.5V588.5H360V677H342.5V699H320.5V662H292Z"
        fill="#232396"
      />
      <path
        d="M358 655.898V698.78V731.637H1580.72V722.17V712.703H1487.09V683.743L1439.16 668.707V532.266L1426.9 527.81V510.546L1401.27 494.396L1328.26 504.42V527.81L1317.67 528.924V655.898H1273.64V315.073L1225.72 285L1083.86 315.073V669.264H1066.33V563.452L997.223 533.379L974.374 546.745V648.102H965.457V323.426L940.936 298.923L843.965 315.073V655.898H818.33V374.662L794.5 347.5L705.755 412.531V590.184H693.494V476.575L646 452L610.457 459.311V537.278L590.951 525.026L505.127 537.278V667.036H485.622H466.116V590.184H419.303V673.162H402.027V691.54H385.308V655.898H358Z"
        fill="#106DB4"
      />
      <g filter="url(#filter1_d)">
        <path d="M727.5 414L717 422V476L727.5 469.5V414Z" fill="#FBCC96" />
      </g>
      <g filter="url(#filter2_d)">
        <path d="M1339 541L1329 541.612V562L1339 561.388V541Z" fill="#FBCC96" />
      </g>
      <path d="M1339 571L1329 571.612V592L1339 591.388V571Z" fill="#005596" />
      <g filter="url(#filter3_d)">
        <path d="M1339 601L1329 601.612V622L1339 621.388V601Z" fill="#FBCC96" />
      </g>
      <g filter="url(#filter4_d)">
        <path d="M1365 538L1355 538.612V559L1365 558.388V538Z" fill="#FBCC96" />
      </g>
      <g filter="url(#filter5_d)">
        <path d="M1365 568L1355 568.612V589L1365 588.388V568Z" fill="#FBCC96" />
      </g>
      <path d="M1365 598L1355 598.612V619L1365 618.388V598Z" fill="#005596" />
      <g filter="url(#filter6_d)">
        <path d="M1391 535L1381 535.612V556L1391 555.388V535Z" fill="#FBCC96" />
      </g>
      <path d="M1391 565L1381 565.612V586L1391 585.388V565Z" fill="#005596" />
      <g filter="url(#filter7_d)">
        <path d="M1391 595L1381 595.612V616L1391 615.388V595Z" fill="#FBCC96" />
      </g>
      <g filter="url(#filter8_d)">
        <path d="M527 549L517 549.612V570L527 569.388V549Z" fill="#FBCC96" />
        <path d="M527 579L517 579.612V600L527 599.388V579Z" fill="#FBCC96" />
        <path d="M527 609L517 609.612V630L527 629.388V609Z" fill="#FBCC96" />
        <path d="M553 546L543 546.612V567L553 566.388V546Z" fill="#FBCC96" />
        <path d="M553 576L543 576.612V597L553 596.388V576Z" fill="#FBCC96" />
        <path d="M553 606L543 606.612V627L553 626.388V606Z" fill="#FBCC96" />
        <path d="M579 543L569 543.612V564L579 563.388V543Z" fill="#FBCC96" />
        <path d="M579 573L569 573.612V594L579 593.388V573Z" fill="#FBCC96" />
        <path d="M579 603L569 603.612V624L579 623.388V603Z" fill="#FBCC96" />
      </g>
      <g filter="url(#filter9_d)">
        <path d="M1111.5 333L1101 335V385L1111.5 382.5V333Z" fill="#FBCC96" />
        <path d="M1110.5 395L1100 397V447L1110.5 444.5V395Z" fill="#FBCC96" />
        <path d="M1111.5 458L1101 460V510L1111.5 507.5V458Z" fill="#FBCC96" />
        <path d="M1111.5 525L1101 527V577L1111.5 574.5V525Z" fill="#FBCC96" />
        <path d="M1135.5 329L1125 331V381L1135.5 378.5V329Z" fill="#FBCC96" />
        <path d="M1134.5 391L1124 393V443L1134.5 440.5V391Z" fill="#FBCC96" />
        <path d="M1135.5 454L1125 456V506L1135.5 503.5V454Z" fill="#FBCC96" />
        <path d="M1135.5 521L1125 523V573L1135.5 570.5V521Z" fill="#FBCC96" />
        <path d="M1159.5 324L1149 326V376L1159.5 373.5V324Z" fill="#FBCC96" />
        <path d="M1158.5 386L1148 388V438L1158.5 435.5V386Z" fill="#FBCC96" />
        <path d="M1159.5 449L1149 451V501L1159.5 498.5V449Z" fill="#FBCC96" />
        <path d="M1159.5 516L1149 518V568L1159.5 565.5V516Z" fill="#FBCC96" />
        <path d="M1183.5 319L1173 321V371L1183.5 368.5V319Z" fill="#FBCC96" />
        <path d="M1182.5 381L1172 383V433L1182.5 430.5V381Z" fill="#FBCC96" />
        <path d="M1183.5 444L1173 446V496L1183.5 493.5V444Z" fill="#FBCC96" />
        <path d="M1183.5 511L1173 513V563L1183.5 560.5V511Z" fill="#FBCC96" />
        <path d="M1209.5 314L1199 316V366L1209.5 363.5V314Z" fill="#FBCC96" />
        <path d="M1208.5 376L1198 378V428L1208.5 425.5V376Z" fill="#FBCC96" />
        <path d="M1209.5 439L1199 441V491L1209.5 488.5V439Z" fill="#FBCC96" />
        <path d="M1209.5 506L1199 508V558L1209.5 555.5V506Z" fill="#FBCC96" />
      </g>
      <path d="M727.5 485L717 493V547L727.5 540.5V485Z" fill="#005596" />
      <g filter="url(#filter10_d)">
        <path d="M727.5 556L717 564V618L727.5 611.5V556Z" fill="#FBCC96" />
      </g>
      <g filter="url(#filter11_d)">
        <path d="M745.5 401L735 409V463L745.5 456.5V401Z" fill="#FBCC96" />
      </g>
      <g filter="url(#filter12_d)">
        <path d="M745.5 473L735 481V535L745.5 528.5V473Z" fill="#FBCC96" />
      </g>
      <g filter="url(#filter13_d)">
        <path d="M745.5 544L735 552V606L745.5 599.5V544Z" fill="#FBCC96" />
      </g>
      <path d="M763.5 389L753 397V451L763.5 444.5V389Z" fill="#005596" />
      <g filter="url(#filter14_d)">
        <path d="M763.5 461L753 469V523L763.5 516.5V461Z" fill="#FBCC96" />
      </g>
      <g filter="url(#filter15_d)">
        <path d="M763.5 532L753 540V594L763.5 587.5V532Z" fill="#FBCC96" />
      </g>
      <g filter="url(#filter16_d)">
        <path d="M781.5 376L771 384V438L781.5 431.5V376Z" fill="#FBCC96" />
      </g>
      <g filter="url(#filter17_d)">
        <path d="M781.5 448L771 456V510L781.5 503.5V448Z" fill="#FBCC96" />
      </g>
      <g filter="url(#filter18_d)">
        <path d="M781.5 519L771 527V581L781.5 574.5V519Z" fill="#FBCC96" />
      </g>
      <path
        d="M857 657V313.232L864.5 312V654.5L857 657Z"
        fill="url(#paint1_linear)"
      />
      <path d="M617 718V457.95L624.5 456.402V715.5L617 718Z" fill="#0060A9" />
      <path
        d="M874 654V310.406L881.5 309.156V651.5L874 654Z"
        fill="url(#paint2_linear)"
      />
      <path d="M631 709V455.099L638.5 453.547V706.5L631 709Z" fill="#0060A9" />
      <path
        d="M891 650.999V307.585L898.5 306.322V648.499L891 650.999Z"
        fill="url(#paint3_linear)"
      />
      <path
        d="M908 648V304.738L915.5 303.5V645.5L908 648Z"
        fill="url(#paint4_linear)"
      />
      <path
        d="M922 646V302.412L929.5 301.16V643.5L922 646Z"
        fill="url(#paint5_linear)"
      />
      <path
        d="M645 637.915V451L693 477.11L692.534 652L645 637.915Z"
        fill="url(#paint6_linear)"
      />
      <path
        d="M794.484 664.273V347.5L818.477 374.234V664.273H794.484Z"
        fill="#005596"
      />
      <path d="M1406 732V517L1440 525.807L1439.52 732H1406Z" fill="#005596" />
      <path
        d="M941.143 670L941 298L967 322.894L965.626 670H941.143Z"
        fill="#005596"
      />
      <path d="M1225 664V285L1275 313.586V658.928L1225 664Z" fill="#005596" />
      <path d="M998 670V533L974 546.412V670H998Z" fill="#005596" />
      <path
        d="M1401.23 518.008V494.477L1427.07 510.626V530.927L1401.23 518.008Z"
        fill="#005596"
      />
      <path
        d="M656 649.784V457.17L652 455.129V647.284L656 649.784Z"
        fill="#106DB4"
      />
      <path
        d="M665 645.784V461.749L661 459.699V643.284L665 645.784Z"
        fill="#106DB4"
      />
      <path
        d="M674 649.783V466.265L670 464.281V647.283L674 649.783Z"
        fill="#106DB4"
      />
      <path
        d="M682 653.503V470.396L678 468.406V651.003L682 653.503Z"
        fill="#106DB4"
      />
      <path
        d="M690 657.502V474.5L686 472.5V655.002L690 657.502Z"
        fill="#106DB4"
      />
      <g filter="url(#filter19_d)">
        <path d="M1007 564.5V548.5L1047 564.5V580L1007 564.5Z" fill="#FBCC96" />
      </g>
      <g filter="url(#filter20_d)">
        <path d="M1007 590V574L1047 590V605.5L1007 590Z" fill="#FBCC96" />
      </g>
      <path d="M1007 616V600L1047 616V631.5L1007 616Z" fill="#005596" />
      <path
        d="M1635 698.5H1535.5V709H371.5H327.5V731H306V676H236.5V731H173V709H164.5V731H122V722.5H104V731H1V755H1921.5V738.5H1722.5H1635V698.5Z"
        fill="#106DB4"
      />
      <path d="M1551 590L1516.27 571H1495V716H1551V590Z" fill="#106DB4" />
      <path
        d="M591 699.06L591.461 524L610.84 536.458L610.379 710.406L591 699.06Z"
        fill="#005596"
      />
    </g>
    <defs>
      <filter
        id="filter0_f"
        x="-291"
        y="784"
        width="2221.5"
        height="207"
        filterUnits="userSpaceOnUse"
        color-interpolation-filters="sRGB"
      >
        <feFlood flood-opacity="0" result="BackgroundImageFix" />
        <feBlend
          mode="normal"
          in="SourceGraphic"
          in2="BackgroundImageFix"
          result="shape"
        />
        <feGaussianBlur stdDeviation="5" result="effect1_foregroundBlur" />
      </filter>
      <filter
        id="filter1_d"
        x="708"
        y="405"
        width="28.5"
        height="80"
        filterUnits="userSpaceOnUse"
        color-interpolation-filters="sRGB"
      >
        <feFlood flood-opacity="0" result="BackgroundImageFix" />
        <feColorMatrix
          in="SourceAlpha"
          type="matrix"
          values="0 0 0 0 0 0 0 0 0 0 0 0 0 0 0 0 0 0 127 0"
        />
        <feOffset />
        <feGaussianBlur stdDeviation="4.5" />
        <feColorMatrix
          type="matrix"
          values="0 0 0 0 1 0 0 0 0 0.956933 0 0 0 0 0.730833 0 0 0 0.6 0"
        />
        <feBlend
          mode="normal"
          in2="BackgroundImageFix"
          result="effect1_dropShadow"
        />
        <feBlend
          mode="normal"
          in="SourceGraphic"
          in2="effect1_dropShadow"
          result="shape"
        />
      </filter>
      <filter
        id="filter2_d"
        x="1323"
        y="535"
        width="24"
        height="35"
        filterUnits="userSpaceOnUse"
        color-interpolation-filters="sRGB"
      >
        <feFlood flood-opacity="0" result="BackgroundImageFix" />
        <feColorMatrix
          in="SourceAlpha"
          type="matrix"
          values="0 0 0 0 0 0 0 0 0 0 0 0 0 0 0 0 0 0 127 0"
        />
        <feOffset dx="1" dy="1" />
        <feGaussianBlur stdDeviation="3.5" />
        <feColorMatrix
          type="matrix"
          values="0 0 0 0 0.984314 0 0 0 0 0.8 0 0 0 0 0.588235 0 0 0 0.66 0"
        />
        <feBlend
          mode="normal"
          in2="BackgroundImageFix"
          result="effect1_dropShadow"
        />
        <feBlend
          mode="normal"
          in="SourceGraphic"
          in2="effect1_dropShadow"
          result="shape"
        />
      </filter>
      <filter
        id="filter3_d"
        x="1323"
        y="595"
        width="24"
        height="35"
        filterUnits="userSpaceOnUse"
        color-interpolation-filters="sRGB"
      >
        <feFlood flood-opacity="0" result="BackgroundImageFix" />
        <feColorMatrix
          in="SourceAlpha"
          type="matrix"
          values="0 0 0 0 0 0 0 0 0 0 0 0 0 0 0 0 0 0 127 0"
        />
        <feOffset dx="1" dy="1" />
        <feGaussianBlur stdDeviation="3.5" />
        <feColorMatrix
          type="matrix"
          values="0 0 0 0 0.984314 0 0 0 0 0.8 0 0 0 0 0.588235 0 0 0 0.66 0"
        />
        <feBlend
          mode="normal"
          in2="BackgroundImageFix"
          result="effect1_dropShadow"
        />
        <feBlend
          mode="normal"
          in="SourceGraphic"
          in2="effect1_dropShadow"
          result="shape"
        />
      </filter>
      <filter
        id="filter4_d"
        x="1349"
        y="532"
        width="24"
        height="35"
        filterUnits="userSpaceOnUse"
        color-interpolation-filters="sRGB"
      >
        <feFlood flood-opacity="0" result="BackgroundImageFix" />
        <feColorMatrix
          in="SourceAlpha"
          type="matrix"
          values="0 0 0 0 0 0 0 0 0 0 0 0 0 0 0 0 0 0 127 0"
        />
        <feOffset dx="1" dy="1" />
        <feGaussianBlur stdDeviation="3.5" />
        <feColorMatrix
          type="matrix"
          values="0 0 0 0 0.984314 0 0 0 0 0.8 0 0 0 0 0.588235 0 0 0 0.66 0"
        />
        <feBlend
          mode="normal"
          in2="BackgroundImageFix"
          result="effect1_dropShadow"
        />
        <feBlend
          mode="normal"
          in="SourceGraphic"
          in2="effect1_dropShadow"
          result="shape"
        />
      </filter>
      <filter
        id="filter5_d"
        x="1349"
        y="562"
        width="24"
        height="35"
        filterUnits="userSpaceOnUse"
        color-interpolation-filters="sRGB"
      >
        <feFlood flood-opacity="0" result="BackgroundImageFix" />
        <feColorMatrix
          in="SourceAlpha"
          type="matrix"
          values="0 0 0 0 0 0 0 0 0 0 0 0 0 0 0 0 0 0 127 0"
        />
        <feOffset dx="1" dy="1" />
        <feGaussianBlur stdDeviation="3.5" />
        <feColorMatrix
          type="matrix"
          values="0 0 0 0 0.984314 0 0 0 0 0.8 0 0 0 0 0.588235 0 0 0 0.66 0"
        />
        <feBlend
          mode="normal"
          in2="BackgroundImageFix"
          result="effect1_dropShadow"
        />
        <feBlend
          mode="normal"
          in="SourceGraphic"
          in2="effect1_dropShadow"
          result="shape"
        />
      </filter>
      <filter
        id="filter6_d"
        x="1375"
        y="529"
        width="24"
        height="35"
        filterUnits="userSpaceOnUse"
        color-interpolation-filters="sRGB"
      >
        <feFlood flood-opacity="0" result="BackgroundImageFix" />
        <feColorMatrix
          in="SourceAlpha"
          type="matrix"
          values="0 0 0 0 0 0 0 0 0 0 0 0 0 0 0 0 0 0 127 0"
        />
        <feOffset dx="1" dy="1" />
        <feGaussianBlur stdDeviation="3.5" />
        <feColorMatrix
          type="matrix"
          values="0 0 0 0 0.984314 0 0 0 0 0.8 0 0 0 0 0.588235 0 0 0 0.66 0"
        />
        <feBlend
          mode="normal"
          in2="BackgroundImageFix"
          result="effect1_dropShadow"
        />
        <feBlend
          mode="normal"
          in="SourceGraphic"
          in2="effect1_dropShadow"
          result="shape"
        />
      </filter>
      <filter
        id="filter7_d"
        x="1375"
        y="589"
        width="24"
        height="35"
        filterUnits="userSpaceOnUse"
        color-interpolation-filters="sRGB"
      >
        <feFlood flood-opacity="0" result="BackgroundImageFix" />
        <feColorMatrix
          in="SourceAlpha"
          type="matrix"
          values="0 0 0 0 0 0 0 0 0 0 0 0 0 0 0 0 0 0 127 0"
        />
        <feOffset dx="1" dy="1" />
        <feGaussianBlur stdDeviation="3.5" />
        <feColorMatrix
          type="matrix"
          values="0 0 0 0 0.984314 0 0 0 0 0.8 0 0 0 0 0.588235 0 0 0 0.66 0"
        />
        <feBlend
          mode="normal"
          in2="BackgroundImageFix"
          result="effect1_dropShadow"
        />
        <feBlend
          mode="normal"
          in="SourceGraphic"
          in2="effect1_dropShadow"
          result="shape"
        />
      </filter>
      <filter
        id="filter8_d"
        x="508"
        y="534"
        width="80"
        height="105"
        filterUnits="userSpaceOnUse"
        color-interpolation-filters="sRGB"
      >
        <feFlood flood-opacity="0" result="BackgroundImageFix" />
        <feColorMatrix
          in="SourceAlpha"
          type="matrix"
          values="0 0 0 0 0 0 0 0 0 0 0 0 0 0 0 0 0 0 127 0"
        />
        <feOffset />
        <feGaussianBlur stdDeviation="4.5" />
        <feColorMatrix
          type="matrix"
          values="0 0 0 0 1 0 0 0 0 0.956933 0 0 0 0 0.730833 0 0 0 0.6 0"
        />
        <feBlend
          mode="normal"
          in2="BackgroundImageFix"
          result="effect1_dropShadow"
        />
        <feBlend
          mode="normal"
          in="SourceGraphic"
          in2="effect1_dropShadow"
          result="shape"
        />
      </filter>
      <filter
        id="filter9_d"
        x="1091"
        y="305"
        width="127.5"
        height="281"
        filterUnits="userSpaceOnUse"
        color-interpolation-filters="sRGB"
      >
        <feFlood flood-opacity="0" result="BackgroundImageFix" />
        <feColorMatrix
          in="SourceAlpha"
          type="matrix"
          values="0 0 0 0 0 0 0 0 0 0 0 0 0 0 0 0 0 0 127 0"
        />
        <feOffset />
        <feGaussianBlur stdDeviation="4.5" />
        <feColorMatrix
          type="matrix"
          values="0 0 0 0 1 0 0 0 0 0.956933 0 0 0 0 0.730833 0 0 0 0.6 0"
        />
        <feBlend
          mode="normal"
          in2="BackgroundImageFix"
          result="effect1_dropShadow"
        />
        <feBlend
          mode="normal"
          in="SourceGraphic"
          in2="effect1_dropShadow"
          result="shape"
        />
      </filter>
      <filter
        id="filter10_d"
        x="708"
        y="547"
        width="28.5"
        height="80"
        filterUnits="userSpaceOnUse"
        color-interpolation-filters="sRGB"
      >
        <feFlood flood-opacity="0" result="BackgroundImageFix" />
        <feColorMatrix
          in="SourceAlpha"
          type="matrix"
          values="0 0 0 0 0 0 0 0 0 0 0 0 0 0 0 0 0 0 127 0"
        />
        <feOffset />
        <feGaussianBlur stdDeviation="4.5" />
        <feColorMatrix
          type="matrix"
          values="0 0 0 0 1 0 0 0 0 0.956933 0 0 0 0 0.730833 0 0 0 0.6 0"
        />
        <feBlend
          mode="normal"
          in2="BackgroundImageFix"
          result="effect1_dropShadow"
        />
        <feBlend
          mode="normal"
          in="SourceGraphic"
          in2="effect1_dropShadow"
          result="shape"
        />
      </filter>
      <filter
        id="filter11_d"
        x="726"
        y="392"
        width="28.5"
        height="80"
        filterUnits="userSpaceOnUse"
        color-interpolation-filters="sRGB"
      >
        <feFlood flood-opacity="0" result="BackgroundImageFix" />
        <feColorMatrix
          in="SourceAlpha"
          type="matrix"
          values="0 0 0 0 0 0 0 0 0 0 0 0 0 0 0 0 0 0 127 0"
        />
        <feOffset />
        <feGaussianBlur stdDeviation="4.5" />
        <feColorMatrix
          type="matrix"
          values="0 0 0 0 1 0 0 0 0 0.956933 0 0 0 0 0.730833 0 0 0 0.6 0"
        />
        <feBlend
          mode="normal"
          in2="BackgroundImageFix"
          result="effect1_dropShadow"
        />
        <feBlend
          mode="normal"
          in="SourceGraphic"
          in2="effect1_dropShadow"
          result="shape"
        />
      </filter>
      <filter
        id="filter12_d"
        x="726"
        y="464"
        width="28.5"
        height="80"
        filterUnits="userSpaceOnUse"
        color-interpolation-filters="sRGB"
      >
        <feFlood flood-opacity="0" result="BackgroundImageFix" />
        <feColorMatrix
          in="SourceAlpha"
          type="matrix"
          values="0 0 0 0 0 0 0 0 0 0 0 0 0 0 0 0 0 0 127 0"
        />
        <feOffset />
        <feGaussianBlur stdDeviation="4.5" />
        <feColorMatrix
          type="matrix"
          values="0 0 0 0 1 0 0 0 0 0.956933 0 0 0 0 0.730833 0 0 0 0.6 0"
        />
        <feBlend
          mode="normal"
          in2="BackgroundImageFix"
          result="effect1_dropShadow"
        />
        <feBlend
          mode="normal"
          in="SourceGraphic"
          in2="effect1_dropShadow"
          result="shape"
        />
      </filter>
      <filter
        id="filter13_d"
        x="726"
        y="535"
        width="28.5"
        height="80"
        filterUnits="userSpaceOnUse"
        color-interpolation-filters="sRGB"
      >
        <feFlood flood-opacity="0" result="BackgroundImageFix" />
        <feColorMatrix
          in="SourceAlpha"
          type="matrix"
          values="0 0 0 0 0 0 0 0 0 0 0 0 0 0 0 0 0 0 127 0"
        />
        <feOffset />
        <feGaussianBlur stdDeviation="4.5" />
        <feColorMatrix
          type="matrix"
          values="0 0 0 0 1 0 0 0 0 0.956933 0 0 0 0 0.730833 0 0 0 0.6 0"
        />
        <feBlend
          mode="normal"
          in2="BackgroundImageFix"
          result="effect1_dropShadow"
        />
        <feBlend
          mode="normal"
          in="SourceGraphic"
          in2="effect1_dropShadow"
          result="shape"
        />
      </filter>
      <filter
        id="filter14_d"
        x="744"
        y="452"
        width="28.5"
        height="80"
        filterUnits="userSpaceOnUse"
        color-interpolation-filters="sRGB"
      >
        <feFlood flood-opacity="0" result="BackgroundImageFix" />
        <feColorMatrix
          in="SourceAlpha"
          type="matrix"
          values="0 0 0 0 0 0 0 0 0 0 0 0 0 0 0 0 0 0 127 0"
        />
        <feOffset />
        <feGaussianBlur stdDeviation="4.5" />
        <feColorMatrix
          type="matrix"
          values="0 0 0 0 1 0 0 0 0 0.956933 0 0 0 0 0.730833 0 0 0 0.6 0"
        />
        <feBlend
          mode="normal"
          in2="BackgroundImageFix"
          result="effect1_dropShadow"
        />
        <feBlend
          mode="normal"
          in="SourceGraphic"
          in2="effect1_dropShadow"
          result="shape"
        />
      </filter>
      <filter
        id="filter15_d"
        x="744"
        y="523"
        width="28.5"
        height="80"
        filterUnits="userSpaceOnUse"
        color-interpolation-filters="sRGB"
      >
        <feFlood flood-opacity="0" result="BackgroundImageFix" />
        <feColorMatrix
          in="SourceAlpha"
          type="matrix"
          values="0 0 0 0 0 0 0 0 0 0 0 0 0 0 0 0 0 0 127 0"
        />
        <feOffset />
        <feGaussianBlur stdDeviation="4.5" />
        <feColorMatrix
          type="matrix"
          values="0 0 0 0 1 0 0 0 0 0.956933 0 0 0 0 0.730833 0 0 0 0.6 0"
        />
        <feBlend
          mode="normal"
          in2="BackgroundImageFix"
          result="effect1_dropShadow"
        />
        <feBlend
          mode="normal"
          in="SourceGraphic"
          in2="effect1_dropShadow"
          result="shape"
        />
      </filter>
      <filter
        id="filter16_d"
        x="762"
        y="367"
        width="28.5"
        height="80"
        filterUnits="userSpaceOnUse"
        color-interpolation-filters="sRGB"
      >
        <feFlood flood-opacity="0" result="BackgroundImageFix" />
        <feColorMatrix
          in="SourceAlpha"
          type="matrix"
          values="0 0 0 0 0 0 0 0 0 0 0 0 0 0 0 0 0 0 127 0"
        />
        <feOffset />
        <feGaussianBlur stdDeviation="4.5" />
        <feColorMatrix
          type="matrix"
          values="0 0 0 0 1 0 0 0 0 0.956933 0 0 0 0 0.730833 0 0 0 0.6 0"
        />
        <feBlend
          mode="normal"
          in2="BackgroundImageFix"
          result="effect1_dropShadow"
        />
        <feBlend
          mode="normal"
          in="SourceGraphic"
          in2="effect1_dropShadow"
          result="shape"
        />
      </filter>
      <filter
        id="filter17_d"
        x="762"
        y="439"
        width="28.5"
        height="80"
        filterUnits="userSpaceOnUse"
        color-interpolation-filters="sRGB"
      >
        <feFlood flood-opacity="0" result="BackgroundImageFix" />
        <feColorMatrix
          in="SourceAlpha"
          type="matrix"
          values="0 0 0 0 0 0 0 0 0 0 0 0 0 0 0 0 0 0 127 0"
        />
        <feOffset />
        <feGaussianBlur stdDeviation="4.5" />
        <feColorMatrix
          type="matrix"
          values="0 0 0 0 1 0 0 0 0 0.956933 0 0 0 0 0.730833 0 0 0 0.6 0"
        />
        <feBlend
          mode="normal"
          in2="BackgroundImageFix"
          result="effect1_dropShadow"
        />
        <feBlend
          mode="normal"
          in="SourceGraphic"
          in2="effect1_dropShadow"
          result="shape"
        />
      </filter>
      <filter
        id="filter18_d"
        x="762"
        y="510"
        width="28.5"
        height="80"
        filterUnits="userSpaceOnUse"
        color-interpolation-filters="sRGB"
      >
        <feFlood flood-opacity="0" result="BackgroundImageFix" />
        <feColorMatrix
          in="SourceAlpha"
          type="matrix"
          values="0 0 0 0 0 0 0 0 0 0 0 0 0 0 0 0 0 0 127 0"
        />
        <feOffset />
        <feGaussianBlur stdDeviation="4.5" />
        <feColorMatrix
          type="matrix"
          values="0 0 0 0 1 0 0 0 0 0.956933 0 0 0 0 0.730833 0 0 0 0.6 0"
        />
        <feBlend
          mode="normal"
          in2="BackgroundImageFix"
          result="effect1_dropShadow"
        />
        <feBlend
          mode="normal"
          in="SourceGraphic"
          in2="effect1_dropShadow"
          result="shape"
        />
      </filter>
      <filter
        id="filter19_d"
        x="998"
        y="539.5"
        width="58"
        height="49.5"
        filterUnits="userSpaceOnUse"
        color-interpolation-filters="sRGB"
      >
        <feFlood flood-opacity="0" result="BackgroundImageFix" />
        <feColorMatrix
          in="SourceAlpha"
          type="matrix"
          values="0 0 0 0 0 0 0 0 0 0 0 0 0 0 0 0 0 0 127 0"
        />
        <feOffset />
        <feGaussianBlur stdDeviation="4.5" />
        <feColorMatrix
          type="matrix"
          values="0 0 0 0 1 0 0 0 0 0.956933 0 0 0 0 0.730833 0 0 0 0.6 0"
        />
        <feBlend
          mode="normal"
          in2="BackgroundImageFix"
          result="effect1_dropShadow"
        />
        <feBlend
          mode="normal"
          in="SourceGraphic"
          in2="effect1_dropShadow"
          result="shape"
        />
      </filter>
      <filter
        id="filter20_d"
        x="998"
        y="565"
        width="58"
        height="49.5"
        filterUnits="userSpaceOnUse"
        color-interpolation-filters="sRGB"
      >
        <feFlood flood-opacity="0" result="BackgroundImageFix" />
        <feColorMatrix
          in="SourceAlpha"
          type="matrix"
          values="0 0 0 0 0 0 0 0 0 0 0 0 0 0 0 0 0 0 127 0"
        />
        <feOffset />
        <feGaussianBlur stdDeviation="4.5" />
        <feColorMatrix
          type="matrix"
          values="0 0 0 0 1 0 0 0 0 0.956933 0 0 0 0 0.730833 0 0 0 0.6 0"
        />
        <feBlend
          mode="normal"
          in2="BackgroundImageFix"
          result="effect1_dropShadow"
        />
        <feBlend
          mode="normal"
          in="SourceGraphic"
          in2="effect1_dropShadow"
          result="shape"
        />
      </filter>
      <linearGradient
        id="paint0_linear"
        x1="986"
        y1="132.815"
        x2="986"
        y2="1325.42"
        gradientUnits="userSpaceOnUse"
      >
        <stop offset="0.274215" stop-color="#FBCC96" stop-opacity="0" />
        <stop offset="1" stop-color="#FBCC96" />
      </linearGradient>
      <linearGradient
        id="paint1_linear"
        x1="860.75"
        y1="312"
        x2="860.75"
        y2="657"
        gradientUnits="userSpaceOnUse"
      >
        <stop stop-color="#FFE872" stop-opacity="0.5" />
        <stop offset="1" stop-color="#FFE872" stop-opacity="0" />
      </linearGradient>
      <linearGradient
        id="paint2_linear"
        x1="877.75"
        y1="309.156"
        x2="877.75"
        y2="654"
        gradientUnits="userSpaceOnUse"
      >
        <stop stop-color="#FFE872" stop-opacity="0.5" />
        <stop offset="1" stop-color="#FFE872" stop-opacity="0" />
      </linearGradient>
      <linearGradient
        id="paint3_linear"
        x1="894.75"
        y1="306.322"
        x2="894.75"
        y2="650.999"
        gradientUnits="userSpaceOnUse"
      >
        <stop stop-color="#FFE872" stop-opacity="0.5" />
        <stop offset="1" stop-color="#FFE872" stop-opacity="0" />
      </linearGradient>
      <linearGradient
        id="paint4_linear"
        x1="911.75"
        y1="303.5"
        x2="911.75"
        y2="648"
        gradientUnits="userSpaceOnUse"
      >
        <stop stop-color="#FFE872" stop-opacity="0.5" />
        <stop offset="1" stop-color="#FFE872" stop-opacity="0" />
      </linearGradient>
      <linearGradient
        id="paint5_linear"
        x1="925.75"
        y1="301.16"
        x2="925.75"
        y2="646"
        gradientUnits="userSpaceOnUse"
      >
        <stop stop-color="#FFE872" stop-opacity="0.5" />
        <stop offset="1" stop-color="#FFE872" stop-opacity="0" />
      </linearGradient>
      <linearGradient
        id="paint6_linear"
        x1="669"
        y1="451"
        x2="669"
        y2="652"
        gradientUnits="userSpaceOnUse"
      >
        <stop stop-color="#FFE872" stop-opacity="0.53" />
        <stop offset="1" stop-color="#FFE872" stop-opacity="0" />
      </linearGradient>
      <clipPath id="clip0">
        <rect width="9600" height="1080" fill="white" />
      </clipPath>
    </defs>
  </svg>