<svg width="1920" height="1112" viewBox="0 0 1920 1112" fill="none" xmlns="http://www.w3.org/2000/svg">
<rect y="-1" width="1920" height="769" fill="url(#paint0_linear)"/>
<path d="M1004 395V651H1029V395H1004Z" fill="url(#paint1_linear)"/>
<path d="M935 61V534H959V61H935Z" fill="url(#paint2_linear)" fill-opacity="0.39"/>
<path d="M1288 316V718H1306V316H1288Z" fill="url(#paint3_linear)" fill-opacity="0.35"/>
<g filter="url(#filter0_d)">
<circle cx="304.5" cy="232.5" r="87.5" fill="white"/>
</g>
<ellipse cx="342.5" cy="234" rx="19.5" ry="20" fill="#C4C4C4"/>
<ellipse cx="262" cy="271.5" rx="8" ry="7.5" fill="#C4C4C4"/>
<ellipse cx="270" cy="187" rx="15" ry="14" fill="#C4C4C4"/>
<circle cx="1286" cy="83" r="3" fill="white" fill-opacity="0.22"/>
<circle cx="1175" cy="161" r="3" fill="white"/>
<circle cx="835" cy="269" r="3" fill="white" fill-opacity="0.22"/>
<circle cx="730" cy="72" r="3" fill="white"/>
<circle cx="1022" cy="253" r="3" fill="white"/>
<circle cx="1041" cy="89" r="3" fill="white"/>
<circle cx="486" cy="310" r="3" fill="white"/>
<circle cx="349" cy="274" r="3" fill="white" fill-opacity="0.22"/>
<circle cx="395" cy="103" r="3" fill="white" fill-opacity="0.22"/>
<circle cx="145" cy="275" r="3" fill="white"/>
<circle cx="148" cy="52" r="3" fill="white"/>
<circle cx="693" cy="370" r="3" fill="white" fill-opacity="0.22"/>
<circle cx="595" cy="66" r="3" fill="white"/>
<circle cx="1321" cy="225" r="3" fill="white" fill-opacity="0.22"/>
<circle cx="1172" cy="367" r="3" fill="white" fill-opacity="0.22"/>
<circle cx="1400" cy="130" r="3" fill="white"/>
<circle cx="1749" cy="259" r="3" fill="white" fill-opacity="0.22"/>
<circle cx="1573" cy="115" r="3" fill="white" fill-opacity="0.22"/>
<rect x="-5" y="826" width="1925" height="286" fill="#222166"/>
<g opacity="0.33" filter="url(#filter1_f)">
<path d="M2204 831H-304.599H-311V968.653H-275.794V869.958H-43.4332V896.58H-22.9496V869.958H0.734528V907.618L25.6989 921.903V869.958H95.4711V991.378H144.12V869.958H182.526V991.378L195.969 1004.36L221.573 980.34V869.958H605H665.811V951.771L697.816 968.653V869.958H747.745V1018H795.754V869.958H1014.03V968.653H1025.55V869.958H1094.05V908.917H1135.65V869.958H1257.91V956.316H1272V869.958H1353.93V980.34H1369.93V869.958H1382.1V951.771H1395.54V869.958H1577.33V933.59H1588.85V869.958H1602.93V903.073H1618.94V869.958H1666.95V980.34H1689.35V869.958H1747.6V921.903H1789.21V869.958H1799.45V965.406H1821.21V869.958H1997.24V931.642H2022.85V869.958H2035.01V903.073H2138.07V869.958H2204V831Z" fill="#3693D9" fill-opacity="0.46"/>
</g>
<path d="M1982.19 736.821C1992.96 739.912 2049.22 757.781 2076 766.328V786H1260V718.203C1284.5 718.203 1333.52 741.669 1340.34 742.793C1347.17 743.917 1367.12 744.9 1376.25 745.252C1385.68 745.018 1411.17 741.739 1437.74 730.498C1464.31 719.257 1482.93 721.365 1488.91 723.824C1498.79 727.454 1520.96 734.573 1530.65 734.011C1540.35 733.449 1563.72 723.707 1574.19 718.906C1581.97 715.042 1601.48 706.33 1617.28 702.396C1633.08 698.462 1651.69 683.895 1659.02 677.104C1670.39 665.512 1694.75 640.15 1701.21 631.438C1707.68 622.726 1715.88 626.403 1719.17 629.33C1727.25 637.41 1744.84 653.568 1750.59 653.568C1756.33 653.568 1761.36 654.505 1763.16 654.973L1819.26 702.045C1823.45 705.089 1835.78 710.616 1851.58 708.368C1867.38 706.119 1885.09 716.564 1891.97 722.068C1899.6 727.688 1918.28 738.156 1939.1 735.065C1965.14 731.201 1968.73 732.957 1982.19 736.821Z" fill="#35359F"/>
<path d="M52.4263 626.593C35.8907 639.62 -20.0811 654.509 -46 660.324V733.603L298 740V660.324C264.863 657.998 188.156 650.786 146.423 640.551C94.2575 627.756 73.0959 610.309 52.4263 626.593Z" fill="#3939B2"/>
<path d="M-124.342 729.137C-142.217 732.711 -235.562 753.371 -280 763.255V786H1074V707.61C1032.5 707.61 952.006 734.742 940.685 736.042C929.365 737.341 896.247 738.479 881.103 738.885C865.463 738.614 823.16 734.823 779.069 721.826C734.979 708.829 704.095 711.266 694.165 714.109C677.78 718.306 640.988 726.537 624.901 725.888C608.814 725.238 570.036 713.973 552.658 708.423C539.748 703.955 507.376 693.882 481.159 689.333C454.943 684.784 424.06 667.941 411.895 660.089C393.028 646.685 352.611 617.36 341.887 607.287C331.162 597.215 317.557 601.466 312.096 604.85C298.69 614.192 269.495 632.876 259.961 632.876C250.428 632.876 242.087 633.959 239.108 634.501L146.011 688.927C139.06 692.447 118.603 698.837 92.3872 696.238C66.1712 693.638 36.7774 705.715 25.3575 712.078C12.6964 718.577 -18.2863 730.68 -52.8438 727.106C-96.0407 722.638 -101.999 724.669 -124.342 729.137Z" fill="#35359F"/>
<path d="M282 728V792V796H1670V754.5V737H1630V774.5H1613V684H1555.5V716H1524V481.5L1471 467.5V563L1442 545H1434V422H1367.5V571L1295.5 596.5V514V416.5H1185H1088.5V455H1070.5L1011 495V531H992V243H947V455H828.5L809 440V279H710V506.5H659V329L604.5 351.5V522H544.5V455H496.5V566H425V734.5H406.5V654.5H350V743H332.5V765H310.5V728H282Z" fill="#232396"/>
<path d="M559 325V798H584V325H559Z" fill="url(#paint4_linear)" fill-opacity="0.85"/>
<path d="M0 610V794H1922V610H0Z" fill="url(#paint5_linear)"/>
<path d="M926 581V751H935V581H926Z" fill="url(#paint6_linear)"/>
<path d="M1234 540V710H1243V540H1234Z" fill="url(#paint7_linear)"/>
<path d="M2261 818H-247.599H-254V695.806H-218.794V783.417H13.5668V759.785H34.0504V783.417H57.7345V749.986L82.6989 737.306V783.417H152.471V675.632H201.12V783.417H239.526V675.632L252.969 664.104L278.573 685.431V783.417H662H717.811V710.792H754.816V783.417H804.745V652H852.754V783.417H1071.03V695.806H1082.55V783.417H1151.05V748.833H1192.65V783.417H1314.91V706.757H1329V783.417H1410.93L1426.93 765V783.417H1439.1V710.792H1472.54V783.417H1614.33V726.931H1645.85V783.417H1659.93V785.021H1675.94V783.417H1723.95V695.806L1746.35 685.431V783.417H1804.6V737.306H1846.21V783.417H1856.45V698.688H1878.21V783.417H2054.24V728.66H2079.85V783.417H2092.01V754.021H2195.07V783.417H2261V818Z" fill="#232396"/>
<circle cx="878" cy="163" r="3" fill="white" fill-opacity="0.22"/>
<circle cx="505" cy="149" r="3" fill="white"/>
<circle cx="270" cy="224" r="3" fill="white" fill-opacity="0.22"/>
<circle cx="397" cy="74" r="3" fill="white" fill-opacity="0.22"/>
<circle cx="67" cy="244" r="2" fill="white"/>
<circle cx="153" cy="49" r="3" fill="white"/>
<path d="M931.723 1083.48C930.091 1083.48 928.715 1083.22 927.595 1082.71C926.491 1082.2 925.651 1081.5 925.075 1080.62C924.515 1079.73 924.235 1078.7 924.235 1077.55H928.555C928.555 1078.19 928.811 1078.73 929.323 1079.16C929.851 1079.58 930.651 1079.78 931.723 1079.78C932.651 1079.78 933.371 1079.61 933.883 1079.26C934.411 1078.9 934.675 1078.43 934.675 1077.84C934.675 1077.33 934.459 1076.94 934.027 1076.66C933.595 1076.38 932.867 1076.19 931.843 1076.11L930.715 1076.02C928.907 1075.86 927.467 1075.29 926.395 1074.31C925.323 1073.34 924.787 1072.04 924.787 1070.42C924.787 1068.71 925.379 1067.38 926.563 1066.42C927.747 1065.44 929.331 1064.95 931.315 1064.95C932.755 1064.95 933.971 1065.19 934.963 1065.67C935.971 1066.15 936.739 1066.83 937.267 1067.71C937.795 1068.58 938.059 1069.58 938.059 1070.74H933.739C933.739 1070.16 933.523 1069.67 933.091 1069.27C932.675 1068.86 932.083 1068.65 931.315 1068.65C930.579 1068.65 930.027 1068.82 929.659 1069.15C929.291 1069.49 929.107 1069.91 929.107 1070.42C929.107 1070.87 929.259 1071.26 929.563 1071.58C929.867 1071.9 930.395 1072.09 931.147 1072.15L932.275 1072.25C933.587 1072.36 934.747 1072.65 935.755 1073.11C936.763 1073.56 937.555 1074.18 938.131 1074.96C938.707 1075.74 938.995 1076.7 938.995 1077.84C938.995 1078.98 938.699 1079.97 938.107 1080.82C937.531 1081.66 936.699 1082.32 935.611 1082.78C934.539 1083.25 933.243 1083.48 931.723 1083.48ZM947.159 1083.48C946.007 1083.48 945.007 1083.3 944.159 1082.93C943.311 1082.54 942.599 1082.03 942.023 1081.39C941.463 1080.75 941.039 1080.02 940.751 1079.21C940.479 1078.39 940.343 1077.54 940.343 1076.66V1076.18C940.343 1074.95 940.599 1073.82 941.111 1072.78C941.639 1071.72 942.407 1070.87 943.415 1070.23C944.439 1069.59 945.687 1069.27 947.159 1069.27C948.375 1069.27 949.447 1069.51 950.375 1069.99C951.303 1070.47 952.039 1071.14 952.583 1071.98C953.143 1072.82 953.455 1073.78 953.519 1074.86H949.247C949.199 1074.34 948.999 1073.89 948.647 1073.52C948.311 1073.15 947.815 1072.97 947.159 1072.97C946.327 1072.97 945.711 1073.29 945.311 1073.93C944.911 1074.55 944.711 1075.38 944.711 1076.42C944.711 1077.42 944.887 1078.22 945.239 1078.85C945.607 1079.47 946.247 1079.78 947.159 1079.78C947.831 1079.78 948.343 1079.61 948.695 1079.26C949.063 1078.9 949.279 1078.42 949.343 1077.82H953.615C953.551 1078.94 953.231 1079.92 952.655 1080.77C952.095 1081.62 951.343 1082.28 950.399 1082.76C949.455 1083.24 948.375 1083.48 947.159 1083.48ZM955.83 1083V1069.75H959.286V1074.43C959.43 1072.91 959.878 1071.72 960.63 1070.86C961.398 1069.99 962.438 1069.56 963.75 1069.56H964.278V1073.3H963.27C962.294 1073.3 961.534 1073.57 960.99 1074.1C960.462 1074.62 960.198 1075.38 960.198 1076.38V1083H955.83ZM972.555 1083.48C971.003 1083.48 969.675 1083.18 968.571 1082.57C967.467 1081.94 966.627 1081.12 966.051 1080.1C965.475 1079.07 965.187 1077.94 965.187 1076.71V1076.14C965.187 1074.84 965.483 1073.68 966.075 1072.66C966.683 1071.62 967.539 1070.79 968.643 1070.18C969.747 1069.58 971.051 1069.27 972.555 1069.27C974.059 1069.27 975.363 1069.58 976.467 1070.18C977.571 1070.79 978.419 1071.62 979.011 1072.66C979.619 1073.68 979.923 1074.84 979.923 1076.14V1076.71C979.923 1077.94 979.635 1079.07 979.059 1080.1C978.483 1081.12 977.643 1081.94 976.539 1082.57C975.451 1083.18 974.123 1083.48 972.555 1083.48ZM972.555 1079.83C973.547 1079.83 974.291 1079.51 974.787 1078.87C975.299 1078.23 975.555 1077.42 975.555 1076.42C975.555 1075.4 975.291 1074.56 974.763 1073.9C974.251 1073.25 973.515 1072.92 972.555 1072.92C971.595 1072.92 970.851 1073.25 970.323 1073.9C969.811 1074.56 969.555 1075.4 969.555 1076.42C969.555 1077.42 969.803 1078.23 970.299 1078.87C970.811 1079.51 971.563 1079.83 972.555 1079.83ZM982.506 1083V1068.65H981.018V1065.48H986.874V1083H982.506ZM990.288 1083V1068.65H988.8V1065.48H994.656V1083H990.288Z" fill="white"/>
<path d="M959.5 982.5C703.5 950.9 190.5 935 -34 931V1110.5H1955V931C1899.8 931 1633 965.333 1506.5 982.5C1430.83 995.667 1215.5 1014.1 959.5 982.5Z" fill="#134B61"/>
<path d="M212.995 1005.28C8.68439 1012.03 -132.124 1100.5 -148 1111H1033C827.769 1073.51 376.444 999.883 212.995 1005.28Z" fill="#153053"/>
<path d="M1501.71 217.583L1493.86 189.858H1543.76L1536.83 217.583H1501.71Z" fill="#16387F"/>
<ellipse cx="1518.35" cy="157.05" rx="95.6517" ry="42.0498" fill="#E74E46"/>
<path fill-rule="evenodd" clip-rule="evenodd" d="M1613.99 157.512C1614 157.358 1614 157.204 1614 157.05C1614 133.826 1571.18 115 1518.35 115C1465.52 115 1422.7 133.826 1422.7 157.05C1422.7 157.204 1422.7 157.358 1422.7 157.512H1613.99Z" fill="#FF5E55"/>
<path d="M1469.83 146.884H1432.86L1419 121.469H1443.03L1469.83 146.884Z" fill="#E64E46"/>
<path d="M1469.83 167.678H1432.4L1419 193.092H1443.03L1469.83 167.678Z" fill="#FF5E55"/>
<path opacity="0.998" d="M1552.91 150.369L1542.54 144.569C1541.11 143.768 1540.62 141.994 1541.44 140.607C1542.27 139.221 1544.1 138.745 1545.53 139.545L1555.9 145.346C1557.34 146.146 1557.83 147.92 1557 149.307C1556.17 150.695 1554.34 151.17 1552.91 150.369Z" fill="white"/>
<path opacity="0.998" d="M1563.37 150.758C1562.86 150.758 1562.35 150.628 1561.89 150.381C1561.43 150.129 1561.05 149.759 1560.78 149.307C1560.58 148.983 1560.45 148.624 1560.4 148.249C1560.35 147.875 1560.37 147.494 1560.47 147.129C1560.57 146.753 1560.75 146.401 1560.99 146.094C1561.23 145.788 1561.53 145.533 1561.87 145.345L1567.75 142.057L1572.24 144.568C1572.69 144.819 1573.2 144.953 1573.72 144.957C1574.23 144.962 1574.74 144.836 1575.2 144.593L1564.87 150.369C1564.41 150.624 1563.9 150.758 1563.37 150.758ZM1575.99 143.971C1576.2 143.741 1576.37 143.481 1576.49 143.198C1576.37 143.481 1576.2 143.742 1575.99 143.971ZM1576.73 141.835C1576.7 141.482 1576.6 141.138 1576.45 140.82C1576.61 141.138 1576.7 141.482 1576.73 141.835H1576.73ZM1575.6 139.78C1575.48 139.693 1575.36 139.615 1575.24 139.545L1575.19 139.521C1575.34 139.596 1575.47 139.682 1575.6 139.779L1575.6 139.78Z" fill="white"/>
<path opacity="0.998" d="M1561.87 137.67L1572.24 143.471C1573.68 144.272 1575.51 143.796 1576.33 142.409C1577.16 141.022 1576.67 139.248 1575.24 138.447L1564.87 132.647C1563.43 131.846 1561.6 132.322 1560.78 133.709C1559.95 135.096 1560.44 136.87 1561.87 137.67Z" fill="white"/>
<path opacity="0.998" d="M1541.17 141.817C1541.09 141.563 1541.05 141.298 1541.04 141.03C1541.05 141.297 1541.09 141.562 1541.17 141.817V141.817ZM1550.02 140.959L1545.53 138.447C1545.08 138.197 1544.58 138.063 1544.06 138.059C1543.55 138.054 1543.04 138.178 1542.59 138.421L1552.91 132.647C1553.36 132.394 1553.87 132.26 1554.39 132.258C1554.91 132.256 1555.43 132.385 1555.88 132.634C1556.34 132.886 1556.73 133.257 1557 133.708C1557.19 134.032 1557.32 134.392 1557.37 134.766C1557.43 135.141 1557.4 135.522 1557.31 135.887C1557.2 136.263 1557.03 136.615 1556.79 136.922C1556.55 137.228 1556.25 137.483 1555.9 137.67L1550.02 140.959H1550.02ZM1541.49 139.434C1541.54 139.347 1541.6 139.262 1541.67 139.181C1541.61 139.262 1541.54 139.347 1541.49 139.434Z" fill="white"/>
<path d="M317 722.898V765.78V798.637H1539.72V789.17V779.703H1446.09V750.743L1398.16 735.707V599.266L1385.9 594.81V577.546L1360.27 561.396L1287.26 571.42V594.81L1276.67 595.924V722.898H1232.64V382.073L1184.72 352L1042.86 382.073V736.264H1025.33V630.452L956.223 600.379L933.374 613.745V715.102H924.457V390.426L899.936 365.923L802.965 382.073V722.898H777.33V441.662L753.5 414.5L664.755 479.531V657.184H652.494V543.575L605 519L569.457 526.311V604.278L549.951 592.026L464.127 604.278V734.036H444.622H425.116V657.184H378.303V740.162H361.027V758.54H344.308V722.898H317Z" fill="#106DB4"/>
<g filter="url(#filter2_d)">
<path d="M686.5 481L676 489V543L686.5 536.5V481Z" fill="#FBCC96"/>
</g>
<g filter="url(#filter3_d)">
<path d="M1298 608L1288 608.612V629L1298 628.388V608Z" fill="#FBCC96"/>
</g>
<path d="M1298 638L1288 638.612V659L1298 658.388V638Z" fill="#005596"/>
<g filter="url(#filter4_d)">
<path d="M1298 668L1288 668.612V689L1298 688.388V668Z" fill="#FBCC96"/>
</g>
<g filter="url(#filter5_d)">
<path d="M1324 605L1314 605.612V626L1324 625.388V605Z" fill="#FBCC96"/>
</g>
<g filter="url(#filter6_d)">
<path d="M1324 635L1314 635.612V656L1324 655.388V635Z" fill="#FBCC96"/>
</g>
<path d="M1324 665L1314 665.612V686L1324 685.388V665Z" fill="#005596"/>
<g filter="url(#filter7_d)">
<path d="M1350 602L1340 602.612V623L1350 622.388V602Z" fill="#FBCC96"/>
</g>
<path d="M1350 632L1340 632.612V653L1350 652.388V632Z" fill="#005596"/>
<g filter="url(#filter8_d)">
<path d="M1350 662L1340 662.612V683L1350 682.388V662Z" fill="#FBCC96"/>
</g>
<g filter="url(#filter9_d)">
<path d="M486 616L476 616.612V637L486 636.388V616Z" fill="#FBCC96"/>
<path d="M486 646L476 646.612V667L486 666.388V646Z" fill="#FBCC96"/>
<path d="M486 676L476 676.612V697L486 696.388V676Z" fill="#FBCC96"/>
<path d="M512 613L502 613.612V634L512 633.388V613Z" fill="#FBCC96"/>
<path d="M512 643L502 643.612V664L512 663.388V643Z" fill="#FBCC96"/>
<path d="M512 673L502 673.612V694L512 693.388V673Z" fill="#FBCC96"/>
<path d="M538 610L528 610.612V631L538 630.388V610Z" fill="#FBCC96"/>
<path d="M538 640L528 640.612V661L538 660.388V640Z" fill="#FBCC96"/>
<path d="M538 670L528 670.612V691L538 690.388V670Z" fill="#FBCC96"/>
</g>
<g filter="url(#filter10_d)">
<path d="M1070.5 400L1060 402V452L1070.5 449.5V400Z" fill="#FBCC96"/>
<path d="M1069.5 462L1059 464V514L1069.5 511.5V462Z" fill="#FBCC96"/>
<path d="M1070.5 525L1060 527V577L1070.5 574.5V525Z" fill="#FBCC96"/>
<path d="M1070.5 592L1060 594V644L1070.5 641.5V592Z" fill="#FBCC96"/>
<path d="M1094.5 396L1084 398V448L1094.5 445.5V396Z" fill="#FBCC96"/>
<path d="M1093.5 458L1083 460V510L1093.5 507.5V458Z" fill="#FBCC96"/>
<path d="M1094.5 521L1084 523V573L1094.5 570.5V521Z" fill="#FBCC96"/>
<path d="M1094.5 588L1084 590V640L1094.5 637.5V588Z" fill="#FBCC96"/>
<path d="M1118.5 391L1108 393V443L1118.5 440.5V391Z" fill="#FBCC96"/>
<path d="M1117.5 453L1107 455V505L1117.5 502.5V453Z" fill="#FBCC96"/>
<path d="M1118.5 516L1108 518V568L1118.5 565.5V516Z" fill="#FBCC96"/>
<path d="M1118.5 583L1108 585V635L1118.5 632.5V583Z" fill="#FBCC96"/>
<path d="M1142.5 386L1132 388V438L1142.5 435.5V386Z" fill="#FBCC96"/>
<path d="M1141.5 448L1131 450V500L1141.5 497.5V448Z" fill="#FBCC96"/>
<path d="M1142.5 511L1132 513V563L1142.5 560.5V511Z" fill="#FBCC96"/>
<path d="M1142.5 578L1132 580V630L1142.5 627.5V578Z" fill="#FBCC96"/>
<path d="M1168.5 381L1158 383V433L1168.5 430.5V381Z" fill="#FBCC96"/>
<path d="M1167.5 443L1157 445V495L1167.5 492.5V443Z" fill="#FBCC96"/>
<path d="M1168.5 506L1158 508V558L1168.5 555.5V506Z" fill="#FBCC96"/>
<path d="M1168.5 573L1158 575V625L1168.5 622.5V573Z" fill="#FBCC96"/>
</g>
<path d="M686.5 552L676 560V614L686.5 607.5V552Z" fill="#005596"/>
<g filter="url(#filter11_d)">
<path d="M686.5 623L676 631V685L686.5 678.5V623Z" fill="#FBCC96"/>
</g>
<g filter="url(#filter12_d)">
<path d="M704.5 468L694 476V530L704.5 523.5V468Z" fill="#FBCC96"/>
</g>
<g filter="url(#filter13_d)">
<path d="M704.5 540L694 548V602L704.5 595.5V540Z" fill="#FBCC96"/>
</g>
<g filter="url(#filter14_d)">
<path d="M704.5 611L694 619V673L704.5 666.5V611Z" fill="#FBCC96"/>
</g>
<path d="M722.5 456L712 464V518L722.5 511.5V456Z" fill="#005596"/>
<g filter="url(#filter15_d)">
<path d="M722.5 528L712 536V590L722.5 583.5V528Z" fill="#FBCC96"/>
</g>
<g filter="url(#filter16_d)">
<path d="M722.5 599L712 607V661L722.5 654.5V599Z" fill="#FBCC96"/>
</g>
<g filter="url(#filter17_d)">
<path d="M740.5 443L730 451V505L740.5 498.5V443Z" fill="#FBCC96"/>
</g>
<g filter="url(#filter18_d)">
<path d="M740.5 515L730 523V577L740.5 570.5V515Z" fill="#FBCC96"/>
</g>
<g filter="url(#filter19_d)">
<path d="M740.5 586L730 594V648L740.5 641.5V586Z" fill="#FBCC96"/>
</g>
<path d="M816 724V380.232L823.5 379V721.5L816 724Z" fill="url(#paint8_linear)"/>
<path d="M576 785V524.95L583.5 523.402V782.5L576 785Z" fill="#0060A9"/>
<path d="M833 721V377.406L840.5 376.156V718.5L833 721Z" fill="url(#paint9_linear)"/>
<path d="M590 776V522.099L597.5 520.546V773.5L590 776Z" fill="#0060A9"/>
<path d="M850 718V374.585L857.5 373.323V715.5L850 718Z" fill="url(#paint10_linear)"/>
<path d="M867 715V371.738L874.5 370.5V712.5L867 715Z" fill="url(#paint11_linear)"/>
<path d="M881 713V369.412L888.5 368.16V710.5L881 713Z" fill="url(#paint12_linear)"/>
<path d="M604 704.915V518L652 544.11L651.534 719L604 704.915Z" fill="url(#paint13_linear)"/>
<path d="M753.486 731.273V414.5L777.479 441.234V731.273H753.486Z" fill="#005596"/>
<path d="M1365 799V584L1399 592.807L1398.52 799H1365Z" fill="#005596"/>
<path d="M900.143 737L900 365L926 389.894L924.626 737H900.143Z" fill="#005596"/>
<path d="M1184 731V352L1234 380.586V725.928L1184 731Z" fill="#005596"/>
<path d="M957 737V600L933 613.412V737H957Z" fill="#005596"/>
<path d="M1360.23 585.008V561.477L1386.07 577.626V597.927L1360.23 585.008Z" fill="#005596"/>
<path d="M615 716.784V524.17L611 522.129V714.284L615 716.784Z" fill="#106DB4"/>
<path d="M624 712.785V528.75L620 526.7V710.285L624 712.785Z" fill="#106DB4"/>
<path d="M633 716.784V533.266L629 531.282V714.284L633 716.784Z" fill="#106DB4"/>
<path d="M641 720.502V537.396L637 535.406V718.002L641 720.502Z" fill="#106DB4"/>
<path d="M649 724.502V541.5L645 539.5V722.002L649 724.502Z" fill="#106DB4"/>
<g filter="url(#filter20_d)">
<path d="M966 631.5V615.5L1006 631.5V647L966 631.5Z" fill="#FBCC96"/>
</g>
<g filter="url(#filter21_d)">
<path d="M966 657V641L1006 657V672.5L966 657Z" fill="#FBCC96"/>
</g>
<path d="M966 683V667L1006 683V698.5L966 683Z" fill="#005596"/>
<path d="M1594 765.5H1494.5V776H330.5H286.5V798H265V743H195.5V798H132V776H123.5V798H81V789.5H63V798H0V822H1921.5V805.5H1681.5H1594V765.5Z" fill="#106DB4"/>
<path d="M1510 657L1475.27 638H1454V783H1510V657Z" fill="#106DB4"/>
<path d="M550 766.06L550.461 591L569.84 603.458L569.379 777.406L550 766.06Z" fill="#005596"/>
<path d="M1579.85 1074V1066.92C1579.85 1064.72 1580.4 1062.91 1581.5 1061.49C1582.63 1060.08 1584.52 1058.8 1587.16 1057.67L1592.73 1055.26C1594.12 1054.66 1595.16 1053.92 1595.85 1053.04C1596.54 1052.16 1596.89 1051.05 1596.89 1049.69C1596.89 1048.31 1596.45 1047.17 1595.56 1046.29C1594.72 1045.41 1593.49 1044.97 1591.88 1044.97C1590.25 1044.97 1589 1045.43 1588.15 1046.34C1587.3 1047.25 1586.88 1048.48 1586.88 1050.02H1579.38C1579.38 1047.85 1579.85 1045.9 1580.79 1044.17C1581.74 1042.44 1583.14 1041.07 1584.99 1040.06C1586.85 1039.02 1589.15 1038.51 1591.88 1038.51C1594.59 1038.51 1596.87 1038.99 1598.73 1039.97C1600.58 1040.94 1601.98 1042.27 1602.93 1043.93C1603.9 1045.57 1604.39 1047.39 1604.39 1049.41V1049.98C1604.39 1052.62 1603.67 1054.81 1602.22 1056.54C1600.77 1058.27 1598.54 1059.78 1595.52 1061.07L1590 1063.47C1589.05 1063.88 1588.37 1064.32 1587.97 1064.8C1587.59 1065.24 1587.4 1065.82 1587.4 1066.54V1067.34H1604.44V1074H1579.85ZM1624.87 1074.9C1622.13 1074.9 1619.79 1074.46 1617.84 1073.58C1615.88 1072.69 1614.3 1071.47 1613.07 1069.89C1611.84 1068.32 1610.94 1066.53 1610.38 1064.51C1609.81 1062.5 1609.53 1060.36 1609.53 1058.09V1055.4C1609.53 1052.29 1610.08 1049.46 1611.18 1046.91C1612.28 1044.33 1613.97 1042.28 1616.23 1040.77C1618.5 1039.26 1621.38 1038.51 1624.87 1038.51C1628.36 1038.51 1631.22 1039.26 1633.46 1040.77C1635.72 1042.28 1637.41 1044.33 1638.51 1046.91C1639.61 1049.46 1640.16 1052.29 1640.16 1055.4V1058.09C1640.16 1060.36 1639.86 1062.5 1639.26 1064.51C1638.7 1066.53 1637.8 1068.32 1636.57 1069.89C1635.38 1071.47 1633.8 1072.69 1631.85 1073.58C1629.93 1074.46 1627.61 1074.9 1624.87 1074.9ZM1624.87 1067.77C1627.42 1067.77 1629.31 1066.89 1630.53 1065.13C1631.79 1063.33 1632.42 1060.56 1632.42 1056.82C1632.42 1052.85 1631.78 1050.01 1630.49 1048.28C1629.23 1046.51 1627.35 1045.63 1624.87 1045.63C1622.35 1045.63 1620.45 1046.5 1619.16 1048.23C1617.9 1049.96 1617.27 1052.79 1617.27 1056.72C1617.27 1060.53 1617.88 1063.33 1619.11 1065.13C1620.37 1066.89 1622.29 1067.77 1624.87 1067.77ZM1645.1 1074V1065.55H1653.41V1074H1645.1ZM1645.1 1058.28V1049.83H1653.41V1058.28H1645.1ZM1673.77 1074.9C1671.04 1074.9 1668.69 1074.46 1666.74 1073.58C1664.79 1072.69 1663.2 1071.47 1661.97 1069.89C1660.75 1068.32 1659.85 1066.53 1659.28 1064.51C1658.72 1062.5 1658.43 1060.36 1658.43 1058.09V1055.4C1658.43 1052.29 1658.98 1049.46 1660.09 1046.91C1661.19 1044.33 1662.87 1042.28 1665.14 1040.77C1667.4 1039.26 1670.28 1038.51 1673.77 1038.51C1677.27 1038.51 1680.13 1039.26 1682.36 1040.77C1684.63 1042.28 1686.31 1044.33 1687.41 1046.91C1688.52 1049.46 1689.07 1052.29 1689.07 1055.4V1058.09C1689.07 1060.36 1688.77 1062.5 1688.17 1064.51C1687.6 1066.53 1686.71 1068.32 1685.48 1069.89C1684.28 1071.47 1682.71 1072.69 1680.76 1073.58C1678.84 1074.46 1676.51 1074.9 1673.77 1074.9ZM1673.77 1067.77C1676.32 1067.77 1678.21 1066.89 1679.44 1065.13C1680.7 1063.33 1681.33 1060.56 1681.33 1056.82C1681.33 1052.85 1680.68 1050.01 1679.39 1048.28C1678.13 1046.51 1676.26 1045.63 1673.77 1045.63C1671.26 1045.63 1669.35 1046.5 1668.06 1048.23C1666.8 1049.96 1666.17 1052.79 1666.17 1056.72C1666.17 1060.53 1666.79 1063.33 1668.02 1065.13C1669.27 1066.89 1671.19 1067.77 1673.77 1067.77ZM1709.77 1074.9C1707.04 1074.9 1704.69 1074.46 1702.74 1073.58C1700.79 1072.69 1699.2 1071.47 1697.97 1069.89C1696.75 1068.32 1695.85 1066.53 1695.28 1064.51C1694.72 1062.5 1694.43 1060.36 1694.43 1058.09V1055.4C1694.43 1052.29 1694.98 1049.46 1696.09 1046.91C1697.19 1044.33 1698.87 1042.28 1701.14 1040.77C1703.4 1039.26 1706.28 1038.51 1709.77 1038.51C1713.27 1038.51 1716.13 1039.26 1718.36 1040.77C1720.63 1042.28 1722.31 1044.33 1723.41 1046.91C1724.52 1049.46 1725.07 1052.29 1725.07 1055.4V1058.09C1725.07 1060.36 1724.77 1062.5 1724.17 1064.51C1723.6 1066.53 1722.71 1068.32 1721.48 1069.89C1720.28 1071.47 1718.71 1072.69 1716.76 1073.58C1714.84 1074.46 1712.51 1074.9 1709.77 1074.9ZM1709.77 1067.77C1712.32 1067.77 1714.21 1066.89 1715.44 1065.13C1716.7 1063.33 1717.33 1060.56 1717.33 1056.82C1717.33 1052.85 1716.68 1050.01 1715.39 1048.28C1714.13 1046.51 1712.26 1045.63 1709.77 1045.63C1707.26 1045.63 1705.35 1046.5 1704.06 1048.23C1702.8 1049.96 1702.17 1052.79 1702.17 1056.72C1702.17 1060.53 1702.79 1063.33 1704.01 1065.13C1705.27 1066.89 1707.19 1067.77 1709.77 1067.77ZM1730.01 1074V1065.55H1738.31V1074H1730.01ZM1730.01 1058.28V1049.83H1738.31V1058.28H1730.01ZM1758.68 1074.9C1755.94 1074.9 1753.6 1074.46 1751.65 1073.58C1749.69 1072.69 1748.11 1071.47 1746.88 1069.89C1745.65 1068.32 1744.75 1066.53 1744.19 1064.51C1743.62 1062.5 1743.34 1060.36 1743.34 1058.09V1055.4C1743.34 1052.29 1743.89 1049.46 1744.99 1046.91C1746.09 1044.33 1747.78 1042.28 1750.04 1040.77C1752.31 1039.26 1755.19 1038.51 1758.68 1038.51C1762.17 1038.51 1765.03 1039.26 1767.27 1040.77C1769.53 1042.28 1771.22 1044.33 1772.32 1046.91C1773.42 1049.46 1773.97 1052.29 1773.97 1055.4V1058.09C1773.97 1060.36 1773.67 1062.5 1773.07 1064.51C1772.51 1066.53 1771.61 1068.32 1770.38 1069.89C1769.19 1071.47 1767.62 1072.69 1765.66 1073.58C1763.74 1074.46 1761.42 1074.9 1758.68 1074.9ZM1758.68 1067.77C1761.23 1067.77 1763.12 1066.89 1764.34 1065.13C1765.6 1063.33 1766.23 1060.56 1766.23 1056.82C1766.23 1052.85 1765.59 1050.01 1764.3 1048.28C1763.04 1046.51 1761.16 1045.63 1758.68 1045.63C1756.16 1045.63 1754.26 1046.5 1752.97 1048.23C1751.71 1049.96 1751.08 1052.79 1751.08 1056.72C1751.08 1060.53 1751.69 1063.33 1752.92 1065.13C1754.18 1066.89 1756.1 1067.77 1758.68 1067.77ZM1794.68 1074.9C1791.94 1074.9 1789.6 1074.46 1787.64 1073.58C1785.69 1072.69 1784.1 1071.47 1782.88 1069.89C1781.65 1068.32 1780.75 1066.53 1780.19 1064.51C1779.62 1062.5 1779.34 1060.36 1779.34 1058.09V1055.4C1779.34 1052.29 1779.89 1049.46 1780.99 1046.91C1782.09 1044.33 1783.77 1042.28 1786.04 1040.77C1788.31 1039.26 1791.18 1038.51 1794.68 1038.51C1798.17 1038.51 1801.03 1039.26 1803.27 1040.77C1805.53 1042.28 1807.22 1044.33 1808.32 1046.91C1809.42 1049.46 1809.97 1052.29 1809.97 1055.4V1058.09C1809.97 1060.36 1809.67 1062.5 1809.07 1064.51C1808.51 1066.53 1807.61 1068.32 1806.38 1069.89C1805.19 1071.47 1803.61 1072.69 1801.66 1073.58C1799.74 1074.46 1797.42 1074.9 1794.68 1074.9ZM1794.68 1067.77C1797.23 1067.77 1799.11 1066.89 1800.34 1065.13C1801.6 1063.33 1802.23 1060.56 1802.23 1056.82C1802.23 1052.85 1801.58 1050.01 1800.29 1048.28C1799.04 1046.51 1797.16 1045.63 1794.68 1045.63C1792.16 1045.63 1790.26 1046.5 1788.97 1048.23C1787.71 1049.96 1787.08 1052.79 1787.08 1056.72C1787.08 1060.53 1787.69 1063.33 1788.92 1065.13C1790.18 1066.89 1792.1 1067.77 1794.68 1067.77ZM1814.91 1074V1065.55H1823.22V1074H1814.91ZM1814.91 1058.28V1049.83H1823.22V1058.28H1814.91ZM1843.58 1074.9C1840.85 1074.9 1838.5 1074.46 1836.55 1073.58C1834.6 1072.69 1833.01 1071.47 1831.78 1069.89C1830.56 1068.32 1829.66 1066.53 1829.09 1064.51C1828.53 1062.5 1828.24 1060.36 1828.24 1058.09V1055.4C1828.24 1052.29 1828.79 1049.46 1829.9 1046.91C1831 1044.33 1832.68 1042.28 1834.95 1040.77C1837.21 1039.26 1840.09 1038.51 1843.58 1038.51C1847.08 1038.51 1849.94 1039.26 1852.17 1040.77C1854.44 1042.28 1856.12 1044.33 1857.22 1046.91C1858.33 1049.46 1858.88 1052.29 1858.88 1055.4V1058.09C1858.88 1060.36 1858.58 1062.5 1857.98 1064.51C1857.41 1066.53 1856.52 1068.32 1855.29 1069.89C1854.09 1071.47 1852.52 1072.69 1850.57 1073.58C1848.65 1074.46 1846.32 1074.9 1843.58 1074.9ZM1843.58 1067.77C1846.13 1067.77 1848.02 1066.89 1849.25 1065.13C1850.51 1063.33 1851.14 1060.56 1851.14 1056.82C1851.14 1052.85 1850.49 1050.01 1849.2 1048.28C1847.94 1046.51 1846.07 1045.63 1843.58 1045.63C1841.07 1045.63 1839.16 1046.5 1837.87 1048.23C1836.61 1049.96 1835.98 1052.79 1835.98 1056.72C1835.98 1060.53 1836.6 1063.33 1837.82 1065.13C1839.08 1066.89 1841 1067.77 1843.58 1067.77ZM1879.58 1074.9C1876.84 1074.9 1874.5 1074.46 1872.55 1073.58C1870.6 1072.69 1869.01 1071.47 1867.78 1069.89C1866.56 1068.32 1865.66 1066.53 1865.09 1064.51C1864.53 1062.5 1864.24 1060.36 1864.24 1058.09V1055.4C1864.24 1052.29 1864.79 1049.46 1865.89 1046.91C1867 1044.33 1868.68 1042.28 1870.94 1040.77C1873.21 1039.26 1876.09 1038.51 1879.58 1038.51C1883.08 1038.51 1885.94 1039.26 1888.17 1040.77C1890.44 1042.28 1892.12 1044.33 1893.22 1046.91C1894.32 1049.46 1894.88 1052.29 1894.88 1055.4V1058.09C1894.88 1060.36 1894.58 1062.5 1893.98 1064.51C1893.41 1066.53 1892.52 1068.32 1891.29 1069.89C1890.09 1071.47 1888.52 1072.69 1886.57 1073.58C1884.65 1074.46 1882.32 1074.9 1879.58 1074.9ZM1879.58 1067.77C1882.13 1067.77 1884.02 1066.89 1885.25 1065.13C1886.51 1063.33 1887.13 1060.56 1887.13 1056.82C1887.13 1052.85 1886.49 1050.01 1885.2 1048.28C1883.94 1046.51 1882.07 1045.63 1879.58 1045.63C1877.07 1045.63 1875.16 1046.5 1873.87 1048.23C1872.61 1049.96 1871.98 1052.79 1871.98 1056.72C1871.98 1060.53 1872.6 1063.33 1873.82 1065.13C1875.08 1066.89 1877 1067.77 1879.58 1067.77Z" fill="white"/>
<rect x="138" y="825" width="62.9293" height="28.5377" fill="#16387F"/>
<rect x="160" y="854" width="16" height="150.738" fill="#254597"/>
<rect x="-19" y="815" width="1954" height="39" fill="#16387F"/>
<rect x="417.5" y="825" width="62.9293" height="28.5377" fill="#16387F"/>
<rect x="441" y="854" width="16" height="150.738" fill="#254597"/>
<rect x="697" y="825" width="62.9293" height="28.5377" fill="#16387F"/>
<rect x="720" y="854" width="16" height="150.738" fill="#254597"/>
<rect x="976.5" y="825" width="62.9293" height="28.5377" fill="#16387F"/>
<rect x="1001" y="854" width="16" height="150.738" fill="#254597"/>
<rect x="1256" y="825" width="62.9293" height="28.5377" fill="#16387F"/>
<rect x="1279" y="854" width="16" height="150.738" fill="#254597"/>
<rect x="1535.5" y="825" width="62.9293" height="28.5377" fill="#16387F"/>
<rect x="1559" y="853" width="16" height="151" fill="#254597"/>
<rect x="1815" y="825" width="62.9293" height="28.5377" fill="#16387F"/>
<rect x="1838" y="853" width="16" height="151" fill="#254597"/>
<defs>
<filter id="filter0_d" x="169" y="98" width="273" height="273" filterUnits="userSpaceOnUse" color-interpolation-filters="sRGB">
<feFlood flood-opacity="0" result="BackgroundImageFix"/>
<feColorMatrix in="SourceAlpha" type="matrix" values="0 0 0 0 0 0 0 0 0 0 0 0 0 0 0 0 0 0 127 0"/>
<feMorphology radius="14" operator="dilate" in="SourceAlpha" result="effect1_dropShadow"/>
<feOffset dx="1" dy="2"/>
<feGaussianBlur stdDeviation="17.5"/>
<feColorMatrix type="matrix" values="0 0 0 0 1 0 0 0 0 1 0 0 0 0 1 0 0 0 0.15 0"/>
<feBlend mode="normal" in2="BackgroundImageFix" result="effect1_dropShadow"/>
<feBlend mode="normal" in="SourceGraphic" in2="effect1_dropShadow" result="shape"/>
</filter>
<filter id="filter1_f" x="-321" y="821" width="2535" height="207" filterUnits="userSpaceOnUse" color-interpolation-filters="sRGB">
<feFlood flood-opacity="0" result="BackgroundImageFix"/>
<feBlend mode="normal" in="SourceGraphic" in2="BackgroundImageFix" result="shape"/>
<feGaussianBlur stdDeviation="5" result="effect1_foregroundBlur"/>
</filter>
<filter id="filter2_d" x="667" y="472" width="28.5" height="80" filterUnits="userSpaceOnUse" color-interpolation-filters="sRGB">
<feFlood flood-opacity="0" result="BackgroundImageFix"/>
<feColorMatrix in="SourceAlpha" type="matrix" values="0 0 0 0 0 0 0 0 0 0 0 0 0 0 0 0 0 0 127 0"/>
<feOffset/>
<feGaussianBlur stdDeviation="4.5"/>
<feColorMatrix type="matrix" values="0 0 0 0 1 0 0 0 0 0.956933 0 0 0 0 0.730833 0 0 0 0.6 0"/>
<feBlend mode="normal" in2="BackgroundImageFix" result="effect1_dropShadow"/>
<feBlend mode="normal" in="SourceGraphic" in2="effect1_dropShadow" result="shape"/>
</filter>
<filter id="filter3_d" x="1282" y="602" width="24" height="35" filterUnits="userSpaceOnUse" color-interpolation-filters="sRGB">
<feFlood flood-opacity="0" result="BackgroundImageFix"/>
<feColorMatrix in="SourceAlpha" type="matrix" values="0 0 0 0 0 0 0 0 0 0 0 0 0 0 0 0 0 0 127 0"/>
<feOffset dx="1" dy="1"/>
<feGaussianBlur stdDeviation="3.5"/>
<feColorMatrix type="matrix" values="0 0 0 0 0.984314 0 0 0 0 0.8 0 0 0 0 0.588235 0 0 0 0.66 0"/>
<feBlend mode="normal" in2="BackgroundImageFix" result="effect1_dropShadow"/>
<feBlend mode="normal" in="SourceGraphic" in2="effect1_dropShadow" result="shape"/>
</filter>
<filter id="filter4_d" x="1282" y="662" width="24" height="35" filterUnits="userSpaceOnUse" color-interpolation-filters="sRGB">
<feFlood flood-opacity="0" result="BackgroundImageFix"/>
<feColorMatrix in="SourceAlpha" type="matrix" values="0 0 0 0 0 0 0 0 0 0 0 0 0 0 0 0 0 0 127 0"/>
<feOffset dx="1" dy="1"/>
<feGaussianBlur stdDeviation="3.5"/>
<feColorMatrix type="matrix" values="0 0 0 0 0.984314 0 0 0 0 0.8 0 0 0 0 0.588235 0 0 0 0.66 0"/>
<feBlend mode="normal" in2="BackgroundImageFix" result="effect1_dropShadow"/>
<feBlend mode="normal" in="SourceGraphic" in2="effect1_dropShadow" result="shape"/>
</filter>
<filter id="filter5_d" x="1308" y="599" width="24" height="35" filterUnits="userSpaceOnUse" color-interpolation-filters="sRGB">
<feFlood flood-opacity="0" result="BackgroundImageFix"/>
<feColorMatrix in="SourceAlpha" type="matrix" values="0 0 0 0 0 0 0 0 0 0 0 0 0 0 0 0 0 0 127 0"/>
<feOffset dx="1" dy="1"/>
<feGaussianBlur stdDeviation="3.5"/>
<feColorMatrix type="matrix" values="0 0 0 0 0.984314 0 0 0 0 0.8 0 0 0 0 0.588235 0 0 0 0.66 0"/>
<feBlend mode="normal" in2="BackgroundImageFix" result="effect1_dropShadow"/>
<feBlend mode="normal" in="SourceGraphic" in2="effect1_dropShadow" result="shape"/>
</filter>
<filter id="filter6_d" x="1308" y="629" width="24" height="35" filterUnits="userSpaceOnUse" color-interpolation-filters="sRGB">
<feFlood flood-opacity="0" result="BackgroundImageFix"/>
<feColorMatrix in="SourceAlpha" type="matrix" values="0 0 0 0 0 0 0 0 0 0 0 0 0 0 0 0 0 0 127 0"/>
<feOffset dx="1" dy="1"/>
<feGaussianBlur stdDeviation="3.5"/>
<feColorMatrix type="matrix" values="0 0 0 0 0.984314 0 0 0 0 0.8 0 0 0 0 0.588235 0 0 0 0.66 0"/>
<feBlend mode="normal" in2="BackgroundImageFix" result="effect1_dropShadow"/>
<feBlend mode="normal" in="SourceGraphic" in2="effect1_dropShadow" result="shape"/>
</filter>
<filter id="filter7_d" x="1334" y="596" width="24" height="35" filterUnits="userSpaceOnUse" color-interpolation-filters="sRGB">
<feFlood flood-opacity="0" result="BackgroundImageFix"/>
<feColorMatrix in="SourceAlpha" type="matrix" values="0 0 0 0 0 0 0 0 0 0 0 0 0 0 0 0 0 0 127 0"/>
<feOffset dx="1" dy="1"/>
<feGaussianBlur stdDeviation="3.5"/>
<feColorMatrix type="matrix" values="0 0 0 0 0.984314 0 0 0 0 0.8 0 0 0 0 0.588235 0 0 0 0.66 0"/>
<feBlend mode="normal" in2="BackgroundImageFix" result="effect1_dropShadow"/>
<feBlend mode="normal" in="SourceGraphic" in2="effect1_dropShadow" result="shape"/>
</filter>
<filter id="filter8_d" x="1334" y="656" width="24" height="35" filterUnits="userSpaceOnUse" color-interpolation-filters="sRGB">
<feFlood flood-opacity="0" result="BackgroundImageFix"/>
<feColorMatrix in="SourceAlpha" type="matrix" values="0 0 0 0 0 0 0 0 0 0 0 0 0 0 0 0 0 0 127 0"/>
<feOffset dx="1" dy="1"/>
<feGaussianBlur stdDeviation="3.5"/>
<feColorMatrix type="matrix" values="0 0 0 0 0.984314 0 0 0 0 0.8 0 0 0 0 0.588235 0 0 0 0.66 0"/>
<feBlend mode="normal" in2="BackgroundImageFix" result="effect1_dropShadow"/>
<feBlend mode="normal" in="SourceGraphic" in2="effect1_dropShadow" result="shape"/>
</filter>
<filter id="filter9_d" x="467" y="601" width="80" height="105" filterUnits="userSpaceOnUse" color-interpolation-filters="sRGB">
<feFlood flood-opacity="0" result="BackgroundImageFix"/>
<feColorMatrix in="SourceAlpha" type="matrix" values="0 0 0 0 0 0 0 0 0 0 0 0 0 0 0 0 0 0 127 0"/>
<feOffset/>
<feGaussianBlur stdDeviation="4.5"/>
<feColorMatrix type="matrix" values="0 0 0 0 1 0 0 0 0 0.956933 0 0 0 0 0.730833 0 0 0 0.6 0"/>
<feBlend mode="normal" in2="BackgroundImageFix" result="effect1_dropShadow"/>
<feBlend mode="normal" in="SourceGraphic" in2="effect1_dropShadow" result="shape"/>
</filter>
<filter id="filter10_d" x="1050" y="372" width="127.5" height="281" filterUnits="userSpaceOnUse" color-interpolation-filters="sRGB">
<feFlood flood-opacity="0" result="BackgroundImageFix"/>
<feColorMatrix in="SourceAlpha" type="matrix" values="0 0 0 0 0 0 0 0 0 0 0 0 0 0 0 0 0 0 127 0"/>
<feOffset/>
<feGaussianBlur stdDeviation="4.5"/>
<feColorMatrix type="matrix" values="0 0 0 0 1 0 0 0 0 0.956933 0 0 0 0 0.730833 0 0 0 0.6 0"/>
<feBlend mode="normal" in2="BackgroundImageFix" result="effect1_dropShadow"/>
<feBlend mode="normal" in="SourceGraphic" in2="effect1_dropShadow" result="shape"/>
</filter>
<filter id="filter11_d" x="667" y="614" width="28.5" height="80" filterUnits="userSpaceOnUse" color-interpolation-filters="sRGB">
<feFlood flood-opacity="0" result="BackgroundImageFix"/>
<feColorMatrix in="SourceAlpha" type="matrix" values="0 0 0 0 0 0 0 0 0 0 0 0 0 0 0 0 0 0 127 0"/>
<feOffset/>
<feGaussianBlur stdDeviation="4.5"/>
<feColorMatrix type="matrix" values="0 0 0 0 1 0 0 0 0 0.956933 0 0 0 0 0.730833 0 0 0 0.6 0"/>
<feBlend mode="normal" in2="BackgroundImageFix" result="effect1_dropShadow"/>
<feBlend mode="normal" in="SourceGraphic" in2="effect1_dropShadow" result="shape"/>
</filter>
<filter id="filter12_d" x="685" y="459" width="28.5" height="80" filterUnits="userSpaceOnUse" color-interpolation-filters="sRGB">
<feFlood flood-opacity="0" result="BackgroundImageFix"/>
<feColorMatrix in="SourceAlpha" type="matrix" values="0 0 0 0 0 0 0 0 0 0 0 0 0 0 0 0 0 0 127 0"/>
<feOffset/>
<feGaussianBlur stdDeviation="4.5"/>
<feColorMatrix type="matrix" values="0 0 0 0 1 0 0 0 0 0.956933 0 0 0 0 0.730833 0 0 0 0.6 0"/>
<feBlend mode="normal" in2="BackgroundImageFix" result="effect1_dropShadow"/>
<feBlend mode="normal" in="SourceGraphic" in2="effect1_dropShadow" result="shape"/>
</filter>
<filter id="filter13_d" x="685" y="531" width="28.5" height="80" filterUnits="userSpaceOnUse" color-interpolation-filters="sRGB">
<feFlood flood-opacity="0" result="BackgroundImageFix"/>
<feColorMatrix in="SourceAlpha" type="matrix" values="0 0 0 0 0 0 0 0 0 0 0 0 0 0 0 0 0 0 127 0"/>
<feOffset/>
<feGaussianBlur stdDeviation="4.5"/>
<feColorMatrix type="matrix" values="0 0 0 0 1 0 0 0 0 0.956933 0 0 0 0 0.730833 0 0 0 0.6 0"/>
<feBlend mode="normal" in2="BackgroundImageFix" result="effect1_dropShadow"/>
<feBlend mode="normal" in="SourceGraphic" in2="effect1_dropShadow" result="shape"/>
</filter>
<filter id="filter14_d" x="685" y="602" width="28.5" height="80" filterUnits="userSpaceOnUse" color-interpolation-filters="sRGB">
<feFlood flood-opacity="0" result="BackgroundImageFix"/>
<feColorMatrix in="SourceAlpha" type="matrix" values="0 0 0 0 0 0 0 0 0 0 0 0 0 0 0 0 0 0 127 0"/>
<feOffset/>
<feGaussianBlur stdDeviation="4.5"/>
<feColorMatrix type="matrix" values="0 0 0 0 1 0 0 0 0 0.956933 0 0 0 0 0.730833 0 0 0 0.6 0"/>
<feBlend mode="normal" in2="BackgroundImageFix" result="effect1_dropShadow"/>
<feBlend mode="normal" in="SourceGraphic" in2="effect1_dropShadow" result="shape"/>
</filter>
<filter id="filter15_d" x="703" y="519" width="28.5" height="80" filterUnits="userSpaceOnUse" color-interpolation-filters="sRGB">
<feFlood flood-opacity="0" result="BackgroundImageFix"/>
<feColorMatrix in="SourceAlpha" type="matrix" values="0 0 0 0 0 0 0 0 0 0 0 0 0 0 0 0 0 0 127 0"/>
<feOffset/>
<feGaussianBlur stdDeviation="4.5"/>
<feColorMatrix type="matrix" values="0 0 0 0 1 0 0 0 0 0.956933 0 0 0 0 0.730833 0 0 0 0.6 0"/>
<feBlend mode="normal" in2="BackgroundImageFix" result="effect1_dropShadow"/>
<feBlend mode="normal" in="SourceGraphic" in2="effect1_dropShadow" result="shape"/>
</filter>
<filter id="filter16_d" x="703" y="590" width="28.5" height="80" filterUnits="userSpaceOnUse" color-interpolation-filters="sRGB">
<feFlood flood-opacity="0" result="BackgroundImageFix"/>
<feColorMatrix in="SourceAlpha" type="matrix" values="0 0 0 0 0 0 0 0 0 0 0 0 0 0 0 0 0 0 127 0"/>
<feOffset/>
<feGaussianBlur stdDeviation="4.5"/>
<feColorMatrix type="matrix" values="0 0 0 0 1 0 0 0 0 0.956933 0 0 0 0 0.730833 0 0 0 0.6 0"/>
<feBlend mode="normal" in2="BackgroundImageFix" result="effect1_dropShadow"/>
<feBlend mode="normal" in="SourceGraphic" in2="effect1_dropShadow" result="shape"/>
</filter>
<filter id="filter17_d" x="721" y="434" width="28.5" height="80" filterUnits="userSpaceOnUse" color-interpolation-filters="sRGB">
<feFlood flood-opacity="0" result="BackgroundImageFix"/>
<feColorMatrix in="SourceAlpha" type="matrix" values="0 0 0 0 0 0 0 0 0 0 0 0 0 0 0 0 0 0 127 0"/>
<feOffset/>
<feGaussianBlur stdDeviation="4.5"/>
<feColorMatrix type="matrix" values="0 0 0 0 1 0 0 0 0 0.956933 0 0 0 0 0.730833 0 0 0 0.6 0"/>
<feBlend mode="normal" in2="BackgroundImageFix" result="effect1_dropShadow"/>
<feBlend mode="normal" in="SourceGraphic" in2="effect1_dropShadow" result="shape"/>
</filter>
<filter id="filter18_d" x="721" y="506" width="28.5" height="80" filterUnits="userSpaceOnUse" color-interpolation-filters="sRGB">
<feFlood flood-opacity="0" result="BackgroundImageFix"/>
<feColorMatrix in="SourceAlpha" type="matrix" values="0 0 0 0 0 0 0 0 0 0 0 0 0 0 0 0 0 0 127 0"/>
<feOffset/>
<feGaussianBlur stdDeviation="4.5"/>
<feColorMatrix type="matrix" values="0 0 0 0 1 0 0 0 0 0.956933 0 0 0 0 0.730833 0 0 0 0.6 0"/>
<feBlend mode="normal" in2="BackgroundImageFix" result="effect1_dropShadow"/>
<feBlend mode="normal" in="SourceGraphic" in2="effect1_dropShadow" result="shape"/>
</filter>
<filter id="filter19_d" x="721" y="577" width="28.5" height="80" filterUnits="userSpaceOnUse" color-interpolation-filters="sRGB">
<feFlood flood-opacity="0" result="BackgroundImageFix"/>
<feColorMatrix in="SourceAlpha" type="matrix" values="0 0 0 0 0 0 0 0 0 0 0 0 0 0 0 0 0 0 127 0"/>
<feOffset/>
<feGaussianBlur stdDeviation="4.5"/>
<feColorMatrix type="matrix" values="0 0 0 0 1 0 0 0 0 0.956933 0 0 0 0 0.730833 0 0 0 0.6 0"/>
<feBlend mode="normal" in2="BackgroundImageFix" result="effect1_dropShadow"/>
<feBlend mode="normal" in="SourceGraphic" in2="effect1_dropShadow" result="shape"/>
</filter>
<filter id="filter20_d" x="957" y="606.5" width="58" height="49.5" filterUnits="userSpaceOnUse" color-interpolation-filters="sRGB">
<feFlood flood-opacity="0" result="BackgroundImageFix"/>
<feColorMatrix in="SourceAlpha" type="matrix" values="0 0 0 0 0 0 0 0 0 0 0 0 0 0 0 0 0 0 127 0"/>
<feOffset/>
<feGaussianBlur stdDeviation="4.5"/>
<feColorMatrix type="matrix" values="0 0 0 0 1 0 0 0 0 0.956933 0 0 0 0 0.730833 0 0 0 0.6 0"/>
<feBlend mode="normal" in2="BackgroundImageFix" result="effect1_dropShadow"/>
<feBlend mode="normal" in="SourceGraphic" in2="effect1_dropShadow" result="shape"/>
</filter>
<filter id="filter21_d" x="957" y="632" width="58" height="49.5" filterUnits="userSpaceOnUse" color-interpolation-filters="sRGB">
<feFlood flood-opacity="0" result="BackgroundImageFix"/>
<feColorMatrix in="SourceAlpha" type="matrix" values="0 0 0 0 0 0 0 0 0 0 0 0 0 0 0 0 0 0 127 0"/>
<feOffset/>
<feGaussianBlur stdDeviation="4.5"/>
<feColorMatrix type="matrix" values="0 0 0 0 1 0 0 0 0 0.956933 0 0 0 0 0.730833 0 0 0 0.6 0"/>
<feBlend mode="normal" in2="BackgroundImageFix" result="effect1_dropShadow"/>
<feBlend mode="normal" in="SourceGraphic" in2="effect1_dropShadow" result="shape"/>
</filter>
<linearGradient id="paint0_linear" x1="960" y1="-1" x2="960" y2="1043.41" gradientUnits="userSpaceOnUse">
<stop stop-color="#3A3EB3"/>
<stop offset="0.746655" stop-color="#4A4AB4"/>
</linearGradient>
<linearGradient id="paint1_linear" x1="1016.5" y1="395" x2="1016.5" y2="840.355" gradientUnits="userSpaceOnUse">
<stop stop-color="#FBCC96" stop-opacity="0"/>
<stop offset="1" stop-color="#FBCC96"/>
</linearGradient>
<linearGradient id="paint2_linear" x1="947" y1="61" x2="947" y2="883.864" gradientUnits="userSpaceOnUse">
<stop stop-color="#FBCC96" stop-opacity="0"/>
<stop offset="1" stop-color="#FBCC96"/>
</linearGradient>
<linearGradient id="paint3_linear" x1="1297" y1="316" x2="1297" y2="718" gradientUnits="userSpaceOnUse">
<stop stop-color="#FBCC96" stop-opacity="0"/>
<stop offset="1" stop-color="#FBCC96"/>
</linearGradient>
<linearGradient id="paint4_linear" x1="571.5" y1="325" x2="571.5" y2="1147.86" gradientUnits="userSpaceOnUse">
<stop stop-color="#FBCC96" stop-opacity="0"/>
<stop offset="1" stop-color="#FBCC96"/>
</linearGradient>
<linearGradient id="paint5_linear" x1="961" y1="531" x2="961" y2="1051" gradientUnits="userSpaceOnUse">
<stop offset="0.274215" stop-color="#FBCC96" stop-opacity="0"/>
<stop offset="1" stop-color="#FBCC96"/>
</linearGradient>
<linearGradient id="paint6_linear" x1="930.5" y1="581" x2="930.5" y2="876.744" gradientUnits="userSpaceOnUse">
<stop offset="0.154167" stop-color="#FBCC96" stop-opacity="0"/>
<stop offset="1" stop-color="#FBCC96"/>
</linearGradient>
<linearGradient id="paint7_linear" x1="1238.5" y1="540" x2="1238.5" y2="835.744" gradientUnits="userSpaceOnUse">
<stop offset="0.154167" stop-color="#FBCC96" stop-opacity="0"/>
<stop offset="1" stop-color="#FBCC96"/>
</linearGradient>
<linearGradient id="paint8_linear" x1="819.75" y1="379" x2="819.75" y2="724" gradientUnits="userSpaceOnUse">
<stop stop-color="#FFE872" stop-opacity="0.5"/>
<stop offset="1" stop-color="#FFE872" stop-opacity="0"/>
</linearGradient>
<linearGradient id="paint9_linear" x1="836.75" y1="376.156" x2="836.75" y2="721" gradientUnits="userSpaceOnUse">
<stop stop-color="#FFE872" stop-opacity="0.5"/>
<stop offset="1" stop-color="#FFE872" stop-opacity="0"/>
</linearGradient>
<linearGradient id="paint10_linear" x1="853.75" y1="373.323" x2="853.75" y2="718" gradientUnits="userSpaceOnUse">
<stop stop-color="#FFE872" stop-opacity="0.5"/>
<stop offset="1" stop-color="#FFE872" stop-opacity="0"/>
</linearGradient>
<linearGradient id="paint11_linear" x1="870.75" y1="370.5" x2="870.75" y2="715" gradientUnits="userSpaceOnUse">
<stop stop-color="#FFE872" stop-opacity="0.5"/>
<stop offset="1" stop-color="#FFE872" stop-opacity="0"/>
</linearGradient>
<linearGradient id="paint12_linear" x1="884.75" y1="368.16" x2="884.75" y2="713" gradientUnits="userSpaceOnUse">
<stop stop-color="#FFE872" stop-opacity="0.5"/>
<stop offset="1" stop-color="#FFE872" stop-opacity="0"/>
</linearGradient>
<linearGradient id="paint13_linear" x1="628" y1="518" x2="628" y2="719" gradientUnits="userSpaceOnUse">
<stop stop-color="#FFE872" stop-opacity="0.53"/>
<stop offset="1" stop-color="#FFE872" stop-opacity="0"/>
</linearGradient>
</defs>
</svg>
