<svg width="1920" height="1080" viewBox="0 0 1920 1080" fill="none" xmlns="http://www.w3.org/2000/svg">
<g clip-path="url(#clip0)">
<rect width="1920" height="1080" fill="white"/>
<rect x="-3" width="1942" height="678" fill="url(#paint0_linear)"/>
<path d="M1231.12 880.389H672.211V1045.73H1231.12V880.389Z" fill="#DEFEEE"/>
<path d="M1209.91 901.822H689.912V1045.73H1209.91V901.822Z" fill="#8ED9E8"/>
<path d="M1425.68 947.75H491.818V1097.78H1425.68V947.75Z" fill="#3E85CC"/>
<path d="M1391 1003H545V1043H1391V1003Z" fill="#5CABD3"/>
<path d="M1425.68 1042.67H491.818V1100.84H1425.68V1042.67Z" fill="#76C6DE"/>
<rect x="-1" y="652" width="1920" height="714" fill="url(#paint1_linear)"/>
<path d="M1230.36 944.686H699.344V975.305H1230.36V944.686Z" fill="#100E3F"/>
<rect x="-66" y="452" width="1920" height="484" fill="url(#paint2_linear)"/>
<path d="M894.5 819C891.457 819 889 814.895 889 809.811V537.189C889 532.105 891.457 528 894.5 528C897.543 528 900 532.105 900 537.189V809.811C900 814.865 897.543 819 894.5 819Z" fill="#FDFFFE"/>
<path d="M936 752C933.24 752 931 748.568 931 744.339V569.661C931 565.432 933.24 562 936 562C938.76 562 941 565.432 941 569.661V744.339C941 748.568 938.76 752 936 752Z" fill="#01B2C8"/>
<path d="M991.5 750C988.457 750 986 745.896 986 740.812V612.188C986 607.104 988.457 603 991.5 603C994.543 603 997 607.104 997 612.188V740.812C997 745.866 994.543 750 991.5 750Z" fill="#FDFFFE"/>
<path d="M1042 703C1039.24 703 1037 699.568 1037 695.339V520.661C1037 516.432 1039.24 513 1042 513C1044.76 513 1047 516.432 1047 520.661V695.339C1047 699.568 1044.76 703 1042 703Z" fill="#01B2C8"/>
<path d="M1935.86 182C1873.58 186.03 1832.27 202.741 1805.8 217.556C1786.08 228.578 1776.59 237.467 1753.17 244.222C1719.47 253.911 1700.51 246.652 1657.19 247.185C1647.57 247.304 1604.71 248.222 1567.37 259.037C1509.79 275.719 1507.93 303.659 1449.71 336.074C1407.03 359.837 1366.55 366.711 1285.59 380.519C1224.41 390.948 1195.68 389.704 1149.34 410.148C1118.69 423.689 1095.91 439.837 1081.2 451.63C1079.12 590.889 1077.08 730.148 1075 869.407C1091.76 880.252 1105.62 883.393 1115.27 884.222C1123.75 884.963 1133.25 884.311 1143.14 890.148C1149.34 893.822 1153.25 898.593 1155.54 902C1416.68 896.074 1677.82 890.148 1939 884.222L1935.86 182Z" fill="#B3ECF0"/>
<path d="M1449.71 343.35C1407.11 368.194 1366.69 375.41 1285.98 389.822L1285.58 389.893C1268.96 392.859 1254.74 394.923 1241.91 396.786C1207.48 401.782 1183.07 405.326 1149.32 420.922C1125.72 431.84 1106.09 450.013 1091.59 463.434C1087.26 467.444 1083.38 471.03 1080 473.871M1449.71 343.35L1143.13 923.589C1135.06 918.595 1127.24 918.136 1120.02 917.713C1118.4 917.618 1116.81 917.525 1115.26 917.383C1105.63 916.514 1091.75 913.225 1075 901.868M1449.71 343.35C1474.7 328.779 1489.31 315.072 1502.39 302.789C1519.79 286.458 1534.51 272.646 1567.39 262.675L1449.71 343.35ZM1080 473.871C1078.96 546.789 1078.23 617.329 1077.5 687.87C1076.77 758.41 1076.04 828.951 1075 901.868M1080 473.871L1082.5 473.907C1082.49 474.286 1082.49 474.664 1082.48 475.043M1080 473.871L1081.61 475.786C1081.9 475.543 1082.19 475.296 1082.48 475.043M1075 901.868L1076.4 899.799C1076.78 900.052 1077.15 900.301 1077.52 900.546M1075 901.868L1077.5 901.904C1077.51 901.451 1077.51 900.999 1077.52 900.546M1933.41 184.683C1873.04 189.185 1832.9 206.275 1807.1 221.392C1801.79 224.507 1797.17 227.497 1792.77 230.345C1781.2 237.837 1771.15 244.345 1753.92 249.554L1753.91 249.554C1736.72 254.731 1723.26 255.375 1708.71 254.805C1704.06 254.624 1699.35 254.323 1694.38 254.006C1683.74 253.326 1671.95 252.573 1657.23 252.763C1647.62 252.887 1605.06 253.852 1568.11 265.067L1568.11 265.067C1539.79 273.658 1525.24 285.089 1510.47 298.674C1508.37 300.603 1506.27 302.58 1504.12 304.599C1491.02 316.893 1476.22 330.788 1450.97 345.51C1407.98 370.578 1367.16 377.867 1286.82 392.211L1286.02 392.354L1286.02 392.354C1269.2 395.356 1254.88 397.435 1242.01 399.303C1207.74 404.278 1183.77 407.757 1150.37 423.191C1127.17 433.922 1107.99 451.674 1093.5 465.081C1089.46 468.823 1085.78 472.226 1082.48 475.043M1933.41 184.683L1155.46 933.501C1155.92 933.49 1156.38 933.479 1156.84 933.468M1933.41 184.683L1936.49 914.942M1933.41 184.683L1936.49 914.942M1082.48 475.043C1081.45 547.552 1080.73 617.721 1080 687.896L1080 687.897C1079.27 757.999 1078.55 828.106 1077.52 900.546M1077.52 900.546C1093.39 911.044 1106.45 914.078 1115.48 914.893L1115.49 914.893C1116.91 915.024 1118.42 915.11 1119.98 915.199C1127.22 915.614 1135.79 916.104 1144.44 921.463L1144.45 921.465C1150.4 925.161 1154.35 929.834 1156.84 933.468M1156.84 933.468C1281.67 930.501 1406.52 927.535 1531.36 924.568C1666.41 921.359 1801.45 918.151 1936.49 914.942M1156.84 933.468L1936.49 914.942" fill="#1C416A" stroke="#1C416A" stroke-width="5"/>
<path d="M1935.88 363.026C1838.32 397.013 1760.34 418.231 1716.06 427.325C1684.93 433.725 1658.87 436.511 1629.39 433.449C1603.66 430.755 1606.53 426.866 1592.25 427.325C1541.77 428.917 1526.39 476.958 1483.88 473.254C1468.65 471.937 1467.76 465.507 1446.74 464.068C1437.21 463.425 1419.21 463.486 1394.09 473.254C1359.18 486.818 1358.42 500.443 1329.09 516.12C1309.77 526.438 1280.08 530.143 1220.72 537.553C1179.67 542.666 1173.57 541.319 1152.6 546.739C1121.01 554.883 1093.82 568.886 1078.32 578.5C1077.28 676.481 1079.33 773.318 1078.32 871.299C1086.22 857.765 1099.29 840.802 1118.57 837.618C1128.58 835.965 1130.41 839.639 1137.16 837.618C1162.28 830.086 1150.98 774.421 1180.49 748.823C1198.07 733.606 1210.95 747.017 1239.3 736.576C1291.21 717.5 1278.46 663.948 1327.53 630.941C1378.47 596.709 1417.59 637.279 1476.13 597.26C1506.95 576.194 1503.13 560.119 1538.05 542.146C1569.02 526.194 1586.63 531.307 1630.91 520.713C1675.75 509.996 1698.7 494.932 1723.78 483.97C1764.98 465.966 1834.29 452.861 1935.85 470.192V363.026H1935.88Z" fill="#003065"/>
<path d="M1078.32 871.298C1078.05 865.97 1089.25 834.647 1106.1 831.493C1115.83 829.656 1119.62 835.688 1127.7 834.555C1147.08 831.83 1146.93 794.046 1167.8 764.132C1188.65 734.248 1206.99 745.944 1251.09 712.08C1283.04 687.554 1275.29 679.96 1325.13 629.409C1363.67 590.308 1383.45 570.743 1408.41 571.233C1435.51 571.753 1446.77 593.003 1470.12 586.542C1485.83 582.194 1487.27 570.743 1507.14 549.8C1514.4 542.145 1548.12 506.566 1593.5 497.748C1625.61 491.501 1632.26 504.759 1664.46 497.748C1697.91 490.491 1717.8 470.313 1729.25 461.005C1757.72 437.857 1821.38 418.445 1935.92 439.572C1936.96 588.594 1934.88 737.585 1935.92 886.607C1507.11 893.588 1079.97 902.314 1078.32 871.298Z" fill="#012257"/>
<path d="M1078.32 871.291C1086.53 875.21 1098.58 879.343 1112.26 877.414C1132.73 874.506 1135.33 861.003 1158.52 852.919C1177.9 846.153 1205.06 845.51 1220.23 859.043C1225.94 864.156 1225.17 867.004 1232.56 874.353C1243.79 885.498 1264.21 890.366 1273.64 892.724C1263.57 902.185 1246.11 912.381 1235.64 923.343C1225.72 933.753 1216.48 943.98 1207.87 953.961C1190.38 952.951 1172.9 951.91 1155.44 950.9C1146.25 928.242 1138.99 923.251 1133.83 923.343C1130.23 923.404 1128 925.915 1121.5 926.405C1119.15 926.588 1114.42 926.619 1106.09 923.343C1093.76 918.505 1084.18 910.575 1078.32 904.971V871.291Z" fill="#0A0019"/>
<path d="M1935.88 433.441C1838.29 417.091 1779.6 432.798 1752.77 442.627C1741.3 446.821 1733.52 450.741 1731.41 451.812C1679.47 478.267 1655.94 522.113 1636.8 552.855C1586.2 634.148 1575.65 608.703 1520.83 693.701C1469.69 773.035 1472.04 805.797 1426.23 831.486C1406.88 842.325 1407.49 835.895 1340.78 862.105C1275.86 887.58 1258.71 900.195 1249.22 908.033C1222.49 930.14 1206.71 955.952 1197.34 975.395C1441.49 972.333 1685.63 969.271 1929.78 966.209H1935.88V433.441Z" fill="#001A4A"/>
<path d="M1935.88 966.211C1935.88 966.211 1935.88 680.445 1935.88 537.547C1930.05 537.149 1919.95 537.026 1908.42 540.609C1891.21 545.967 1880.46 556.561 1877.9 558.98C1853.45 582.036 1789.09 599.213 1734.46 626.342C1699.18 643.856 1576.84 704.634 1557.46 782.498C1555.05 792.204 1549.55 820.894 1529.99 828.426C1516.29 833.692 1508.6 823.619 1493.37 828.426C1474.81 834.274 1472.52 853.533 1453.7 877.416C1453.7 877.416 1434.56 901.697 1404.87 917.221C1365.96 937.582 1345.17 922.487 1301.1 938.654C1286.06 944.165 1265.31 954.453 1243.12 975.396L1935.88 966.211Z" fill="#0A0019"/>
<path d="M-20.8555 182C41.4236 186.03 82.7292 202.741 109.198 217.556C128.92 228.578 138.414 237.467 161.83 244.222C195.534 253.911 214.492 246.652 257.813 247.185C267.429 247.304 310.292 248.222 347.629 259.037C405.207 275.719 407.069 303.659 465.288 336.074C507.967 359.837 548.448 366.711 629.411 380.519C690.591 390.948 719.319 389.704 765.662 410.148C796.313 423.689 819.088 439.837 833.803 451.63C835.879 590.889 837.924 730.148 840 869.407C823.24 880.252 809.379 883.393 799.732 884.222C791.245 884.963 781.751 884.311 771.859 890.148C765.662 893.822 761.754 898.593 759.465 902C498.32 896.074 237.175 890.148 -24 884.222L-20.8555 182Z" fill="#B3ECF0"/>
<path d="M-20.9032 182C41.3729 186.22 82.6839 203.72 109.161 219.235C128.857 230.777 138.395 240.086 161.806 247.16C195.499 257.307 214.483 249.705 257.806 250.263C267.437 250.387 310.297 251.349 347.613 262.675C405.213 280.144 407.071 309.404 465.29 343.35C507.964 368.235 548.439 375.434 629.419 389.893C690.612 400.815 719.35 399.512 765.677 420.922C796.335 435.102 819.79 454.551 834.5 466.901C836.575 612.736 837.925 756.033 840 901.868C823.246 913.225 809.373 916.514 799.742 917.383C791.257 918.158 781.75 917.476 771.871 923.589C765.677 927.436 761.775 932.432 759.484 936C498.333 929.794 237.151 923.588 -24 917.383L-20.9032 182Z" fill="#1C416A"/>
<path d="M-20.8887 362.929C76.6783 396.916 154.652 418.135 198.935 427.229C230.063 433.628 256.126 436.415 285.606 433.353C311.333 430.658 308.465 426.77 322.747 427.229C373.224 428.821 388.606 476.862 431.118 473.157C446.346 471.841 447.231 465.411 468.258 463.972C477.78 463.329 495.786 463.39 520.902 473.157C555.815 486.721 556.578 500.347 585.906 516.024C605.224 526.342 634.919 530.047 694.277 537.457C735.324 542.57 741.428 541.223 762.394 546.643C793.98 554.787 821.172 565.385 836.675 575C836.675 675 836.675 775 836.675 872.5C828.771 858.966 815.709 840.706 796.422 837.522C786.412 835.868 784.581 839.542 777.836 837.522C752.719 829.989 764.011 774.324 734.5 748.727C716.921 733.509 704.043 746.92 675.691 736.479C623.78 717.404 636.536 663.851 587.463 630.844C536.528 596.612 497.403 637.182 438.869 597.164C408.046 576.098 411.861 560.023 376.948 542.05C345.972 526.097 328.363 531.211 284.081 520.616C239.249 509.9 216.299 494.835 191.213 483.874C150.014 465.87 80.7067 452.765 -20.8582 470.095V362.929H-20.8887Z" fill="#003065"/>
<path d="M836.674 871.201C836.949 865.874 825.748 834.55 808.902 831.397C799.167 829.56 795.383 835.591 787.295 834.459C767.916 831.734 768.069 793.95 747.194 764.035C726.35 734.151 708.009 745.848 663.91 711.983C631.957 687.458 639.709 679.864 589.873 629.312C551.328 590.212 531.552 570.647 506.588 571.137C479.488 571.657 468.227 592.907 444.88 586.446C429.163 582.098 427.729 570.647 407.862 549.703C400.598 542.049 366.876 506.47 321.495 497.651C289.39 491.405 282.737 504.663 250.54 497.651C217.092 490.395 197.194 470.217 185.75 460.909C157.276 437.761 93.6149 418.349 -20.9202 439.476C-21.9578 588.497 -19.8826 737.489 -20.9202 886.511C407.892 893.461 835.026 902.187 836.674 871.201Z" fill="#012257"/>
<path d="M836.675 871.206C828.466 875.125 816.411 879.259 802.739 877.33C782.261 874.421 779.667 860.918 756.473 852.835C737.094 846.068 709.933 845.425 694.765 858.958C689.058 864.072 689.821 866.919 682.436 874.268C671.205 885.413 650.789 890.281 641.358 892.639C651.429 902.1 668.886 912.296 679.354 923.258C689.272 933.668 696.394 944.018 705 954C722.487 952.99 742.099 951.825 759.556 950.815C768.742 928.157 776.005 923.166 781.163 923.258C784.764 923.319 786.992 925.83 793.492 926.32C795.842 926.504 800.572 926.534 808.904 923.258C821.233 918.42 830.816 910.49 836.675 904.887V871.206Z" fill="#0A0019"/>
<path d="M-20.8887 433.357C76.7088 417.007 135.395 432.714 162.221 442.543C173.696 446.737 181.478 450.657 183.584 451.728C235.526 478.183 259.056 522.029 278.19 552.77C328.79 634.064 339.349 608.619 394.16 693.617C445.309 772.951 442.959 805.713 488.767 831.402C508.115 842.241 507.505 835.811 574.218 862.021C639.13 887.496 656.281 900.111 665.773 907.949C692.507 930.056 708.285 955.867 717.654 975.31C473.507 972.249 229.361 969.187 -14.785 966.125H-20.8887V433.357Z" fill="#001A4A"/>
<path d="M-20.8887 966.124C-20.8887 966.124 -20.8887 680.359 -20.8887 537.461C-15.0597 537.063 -4.95813 536.94 6.57778 540.523C23.7901 545.881 34.5325 556.475 37.0961 558.894C61.5412 581.95 125.904 599.127 180.532 626.255C215.811 643.769 338.159 704.548 357.538 782.411C359.949 792.118 365.442 820.807 385.004 828.34C398.707 833.606 406.398 823.533 421.626 828.34C440.181 834.188 442.47 853.447 461.3 877.33C461.3 877.33 480.435 901.611 510.129 917.134C549.04 937.496 569.823 922.401 613.892 938.568C628.937 944.079 649.689 954.367 671.876 975.31L-20.8887 966.124Z" fill="#0A0019"/>
<path d="M1161 944C1160.47 942.999 1159.91 941.973 1159.27 940.921C1153.31 930.633 1143.48 916.984 1127.09 902.95C1109.79 888.146 1091.52 878.294 1078.11 872.162C1072.23 866.261 1066.92 864.696 1063.04 864.466C1055.73 864.004 1051.92 868.057 1044.2 867.031C1039.71 866.441 1039.37 864.85 1032.89 861.9C1029.46 860.335 1015.45 853.972 1006.52 856.769C998.907 859.155 1000.45 866.467 995.214 867.031C988.055 867.827 983.27 854.331 972.607 854.203C967.408 854.152 967.144 857.307 957.536 859.334C954.71 859.924 946.307 861.695 938.696 859.334C932.404 857.384 933.045 854.562 927.393 851.637C918.312 846.917 901.922 846.66 893.482 851.637C884.628 856.846 889.262 865.646 882.179 867.031C873.889 868.673 868.388 859.719 855.804 859.334C841.825 858.898 826.113 869.212 821.893 879.859C818.464 888.557 813.679 878.833 810.589 892.687C808.743 901 788.962 892.328 784.214 895.253C771.893 902.822 781.954 917.446 761.607 923.475C750.04 926.913 743.22 934.43 739 941.434L1161 944Z" fill="#FDFFFE"/>
<path d="M808.496 951.426C822.871 920.758 854.516 908.539 865.033 906.778C874.102 905.289 886.483 907.895 900.376 899.331C906.036 895.845 905.875 894.254 910.989 891.885C921.601 886.976 937.713 886.739 946.332 895.608C955.047 904.578 948.905 915.444 956.945 921.638C967.011 929.424 985.824 919.472 988.751 917.915C1001.13 911.382 1000.52 905.357 1013.48 899.331C1020.52 896.048 1030.11 891.58 1038.21 895.608C1047.15 900.042 1046.22 910.773 1055.87 914.191C1061.95 916.324 1063.3 912.465 1070.02 914.191C1082.75 917.509 1089.09 934.501 1091.21 940.222C1093.49 946.349 1094.36 951.697 1094.75 955.116C1002.84 955.149 900.376 951.426 808.496 951.426Z" fill="#0C4E7A"/>
<path d="M497.548 732.841L499.629 978.823L576.315 736.379L572.188 891.156L651.104 760.997L648.417 861.797L735.271 753.156L735.271 796.686L735.271 837.315L810.732 753.156L810.732 784.353L810.732 827.158L892.342 743.724L892.342 784.353L892.342 827.158" stroke="#254597" stroke-width="6" stroke-miterlimit="10"/>
<path d="M1406.69 739.529L1400.4 1018.95L1328.23 740.621L1329.68 916.642L1253.36 765.813L1254.31 880.449L1180.83 759.426L1181.55 847.252L1103.33 756.806L1103.91 827.067L1035.38 744.697L1036.07 828.011" stroke="#254597" stroke-width="6" stroke-miterlimit="10"/>
<path d="M892 825L966.277 756V819.189L1036 756V819.189" stroke="#254597" stroke-width="5" stroke-miterlimit="10"/>
<path d="M1381.84 1002.24C1377.94 993.076 1371.57 980.163 1361.3 966.009C1335.67 930.712 1298.86 905.87 1243.89 883.201C1224.49 875.205 1120.26 833.439 967.975 828.859C868.97 825.883 795.09 839.986 744.898 849.56C726.64 853.054 706.945 857.298 683.258 865.087C645.364 877.56 593.41 894.639 554.108 937.543C542.19 950.56 523.933 974.134 513.014 1010L491 998.355C502.389 962.489 522.818 926.132 535.234 913.089C576.122 870.185 630.189 853.106 669.609 840.633C694.236 832.844 714.753 828.6 733.744 825.106C785.991 815.532 862.835 801.429 965.862 804.405C1124.31 808.985 1232.76 850.751 1252.96 858.747C1310.16 881.415 1348.47 906.258 1375.12 941.554C1385.81 955.709 1417.65 996.207 1406.76 998.355C1380.35 1003.53 1380.35 1003.53 1380.35 1003.53" fill="#16387F"/>
<rect x="285" y="721" width="1318" height="32" fill="#000B41"/>
<path d="M1935.88 678.396C1750.3 681.305 1678.58 723.161 1649.01 764.129C1645.35 769.212 1619.07 806.506 1591.03 846.8C1541.98 917.224 1539.24 922.521 1526.94 932.533C1488.3 964.07 1474.97 945.056 1401.81 981.523C1358.14 1003.29 1314.41 1034.25 1298.05 1045.82C1290.94 1050.84 1271.16 1065.02 1243.12 1082.57C1230.39 1090.53 1219.74 1096.8 1212.6 1100.94C1454.7 1098.89 1693.78 1102.99 1935.88 1100.94V678.396Z" fill="#4D9F7D"/>
<path d="M1503.58 999.106C1485.1 991.833 1472.92 1004.63 1458.34 1002.6C1427.75 998.337 1414.49 932.633 1413.1 925.674C1406.9 895.043 1404.4 838.85 1430.5 824.269C1438.85 819.618 1448.91 819.863 1454.86 810.282C1460.98 800.386 1454.65 793.008 1458.34 782.308C1464.81 763.53 1496.44 751.152 1520.98 757.83C1530.27 760.348 1539.11 765.768 1555.78 785.804C1581.74 816.96 1597.54 835.913 1604.5 866.229C1615.5 914.03 1600.01 970.223 1566.22 995.609C1560.23 1000.12 1539.42 1015.72 1520.98 1009.6C1513.08 1006.97 1512.52 1002.64 1503.58 999.106Z" fill="#FF5E55"/>
<path d="M393.762 911.169C368.046 905.992 362.206 911.941 346.704 908.415C325.611 903.623 307.784 886.108 299.646 867.104C292.282 849.892 288.379 820.864 302.414 809.269C315.756 798.253 333.196 812.905 349.472 801.007C363.451 790.789 356.337 775.752 368.849 762.45C385.679 744.549 423.354 745.43 449.125 759.696C486.384 780.324 490.038 824.031 490.647 831.302C492.917 858.347 484.502 898.198 457.43 911.169C442.067 918.55 421.416 916.925 418.676 916.678C408.489 915.796 406.164 913.676 393.762 911.169Z" fill="#FF5E55"/>
<path d="M1554.75 954.03L1512.32 1000.87C1510.1 1003.31 1506.32 1003.5 1503.88 1001.28C1501.44 999.059 1501.25 995.284 1503.47 992.841L1545.89 946.001C1548.11 943.558 1551.88 943.37 1554.33 945.591C1556.78 947.795 1556.97 951.587 1554.75 954.03Z" fill="#001A4A"/>
<path d="M1498.69 972.344L1450.76 924.428C1448.41 922.088 1448.41 918.313 1450.76 915.972C1453.1 913.632 1456.87 913.632 1459.21 915.972L1507.14 963.906C1509.48 966.246 1509.48 970.021 1507.14 972.361C1504.8 974.684 1501.01 974.684 1498.69 972.344Z" fill="#293C7C"/>
<path d="M1505.2 1139.99C1502.36 1139.99 1500.07 1137.7 1500.07 1134.86V899.125C1500.07 896.289 1502.36 894 1505.2 894C1508.03 894 1510.32 896.289 1510.32 899.125V1134.86C1510.32 1137.7 1508.03 1139.99 1505.2 1139.99Z" fill="#001A4A"/>
<path d="M443.098 874.603L410.157 910.966C408.433 912.863 405.502 913.008 403.605 911.284C401.709 909.561 401.563 906.63 403.287 904.733L436.215 868.37C437.939 866.474 440.87 866.328 442.767 868.052C444.676 869.763 444.822 872.707 443.098 874.603Z" fill="#001A4A"/>
<path d="M399.574 888.822L362.363 851.623C360.546 849.806 360.546 846.875 362.363 845.059C364.179 843.242 367.11 843.242 368.927 845.059L406.139 882.27C407.956 884.087 407.956 887.018 406.139 888.835C404.322 890.638 401.378 890.638 399.574 888.822Z" fill="#293C7C"/>
<path d="M404.628 1018.97C402.426 1018.97 400.649 1017.19 400.649 1014.99V831.978C400.649 829.777 402.426 828 404.628 828C406.829 828 408.606 829.777 408.606 831.978V1014.99C408.606 1017.19 406.829 1018.97 404.628 1018.97Z" fill="#001A4A"/>
<path d="M1943.51 825.367C1910.85 834.828 1885.22 849.832 1873.31 862.11C1847.28 888.963 1850.58 910.028 1824.48 926.409C1800.8 941.29 1793.48 926.777 1760.4 941.719C1737.78 951.915 1735.25 961.376 1690.2 987.647C1679.95 993.618 1664.48 1002.25 1650.53 996.833C1643.42 994.077 1644.06 990.556 1638.32 987.647C1617.91 977.359 1590.9 1012.42 1537.61 1030.51C1526.29 1034.34 1516.25 1036.64 1516.25 1036.64C1491.8 1042.18 1484.69 1038.96 1470.47 1042.76C1448.53 1048.61 1450.51 1060.27 1427.75 1070.32C1423.35 1072.25 1416.94 1074.64 1369.76 1076.44C1326.33 1078.13 1316.66 1076.69 1299.57 1082.57C1284.25 1087.83 1272.93 1095.52 1266 1100.94C1491.84 1101.95 1717.67 1102.99 1943.51 1104V825.367Z" fill="#438376"/>
<path d="M1943.51 966.217C1902.86 974.453 1867.88 986.762 1845.85 996.836C1808.25 1014.01 1782.19 1026.35 1766.5 1055.01C1756.98 1072.4 1754.72 1089.52 1754.29 1100.94C1817.37 1100.94 1880.42 1100.94 1943.51 1100.94V966.217Z" fill="#0A0019"/>
<path d="M1748.19 1094.81C1746.39 1086.82 1738.27 1055.34 1708.52 1036.63C1703.06 1033.21 1687.4 1023.35 1668.84 1024.39C1638.27 1026.1 1609.3 1056.9 1598.65 1100.93H1748.19V1094.81Z" fill="#012257"/>
<path d="M1723.69 899.632C1678.76 898.016 1670.08 910.423 1646.61 907.092C1608 901.597 1572.42 859.627 1564.56 815.096C1563.89 811.291 1554.42 753.707 1584.45 728.072C1593.18 720.613 1603.77 717.132 1611.8 703.209C1619.81 689.31 1618.64 676.53 1619.26 668.399C1621.92 633.665 1664.32 593.957 1708.77 586.349C1774.49 575.086 1821.93 637.817 1828.12 646.022C1870.44 701.99 1857.76 767.034 1855.47 777.8C1862.73 780.709 1871.8 785.881 1877.85 795.205C1893.83 819.869 1879.24 858.906 1857.96 879.741C1831.33 905.799 1792.44 905.053 1768.45 904.605C1747.76 904.207 1747.98 900.503 1723.69 899.632Z" fill="#3C7474"/>
<path d="M1572.02 817.582C1576.32 815.543 1582.22 826.731 1591.91 825.041C1598.6 823.872 1603.45 817.233 1606.83 812.609C1612.85 804.379 1611.98 799.903 1616.78 797.691C1622.82 794.906 1627.44 800.45 1631.69 797.691C1636.92 794.309 1631.47 785.035 1636.67 775.313C1640.89 767.406 1651.11 761.141 1659.04 762.881C1666.45 764.497 1666.48 771.932 1676.45 775.313C1678.39 775.96 1685.33 778.297 1691.37 775.313C1699 771.534 1696.71 763.503 1703.8 757.909C1711.51 751.817 1724.96 752.836 1733.64 757.909C1744.25 764.1 1742.86 773.498 1751.04 775.313C1757.06 776.656 1759.37 771.907 1775.9 765.368C1786.22 761.29 1791.37 759.251 1795.8 760.395C1807.13 763.354 1813.77 779.888 1815.69 790.231C1817.1 797.84 1815.51 799.829 1818.17 805.15C1822.72 814.275 1832.57 818.8 1835.58 820.068C1844.13 823.648 1847.44 821.411 1850.5 825.041C1855.39 830.884 1848.38 838.492 1852.98 844.932C1857.33 851.023 1865.79 847.269 1872.87 854.877C1877.85 867.309 1839.11 895.803 1835.58 897.146C1789.18 914.799 1771.98 898.712 1688.88 904.605C1664.64 906.32 1649.97 908.832 1629.21 902.118C1621.43 899.607 1599.62 888.021 1584.45 862.336C1572.59 842.271 1566.25 820.317 1572.02 817.582Z" fill="#3B606C"/>
<path d="M1576.12 836.451C1578.73 833.815 1584.33 834.138 1587.93 836.451C1592.24 839.211 1591.17 843.239 1595.02 850.822C1596.69 854.104 1601.96 863.304 1611.53 867.58C1615.96 869.569 1619.59 869.718 1625.68 869.967C1636.07 870.415 1638.83 868.177 1649.27 867.58C1657.78 867.083 1665.11 866.635 1672.87 869.967C1682.22 873.97 1681.22 878.719 1691.74 884.338C1696.51 886.874 1706.01 891.947 1715.34 889.137C1725.51 886.054 1724.83 876.805 1734.21 874.766C1739.93 873.523 1745.87 876.332 1757.8 881.951C1766.63 886.104 1768.27 888.242 1774.31 889.137C1777.15 889.56 1784.41 890.629 1790.82 886.75C1797.73 882.598 1795.77 877.501 1802.63 872.379C1809.54 867.207 1818.17 867.431 1823.87 867.58C1831.85 867.804 1832.42 869.818 1838.01 869.967C1854.67 870.464 1864.74 853.085 1868.7 855.596C1871.93 857.635 1870.76 872.677 1861.61 884.313C1850.77 898.113 1825.13 901.668 1774.29 908.257C1765.83 909.351 1759.3 910.072 1753.05 910.644C1744.48 911.44 1726.3 913.106 1705.86 913.031C1685.52 912.956 1663.97 912.907 1637.41 905.845C1621.13 901.519 1610.54 898.56 1599.64 889.087C1587.19 878.247 1582.36 865.815 1578.41 855.571C1575.6 848.186 1572.54 840.056 1576.12 836.451Z" fill="#3C4D58"/>
<path d="M1798.31 840.306L1736.55 908.482C1733.31 912.038 1727.82 912.311 1724.26 909.079C1720.71 905.846 1720.43 900.352 1723.67 896.796L1785.4 828.62C1788.63 825.064 1794.13 824.791 1797.69 828.023C1801.27 831.23 1801.54 836.75 1798.31 840.306Z" fill="#001A4A"/>
<path d="M1782.57 762.459L1734.43 805.05C1730.82 808.233 1725.33 807.91 1722.15 804.304C1718.96 800.699 1719.29 795.204 1722.89 792.022L1771.03 749.43C1774.63 746.247 1780.13 746.571 1783.31 750.176C1786.52 753.781 1786.17 759.276 1782.57 762.459Z" fill="#001A4A"/>
<path d="M1716.7 866.962L1646.94 797.219C1643.53 793.812 1643.53 788.318 1646.94 784.911C1650.34 781.505 1655.84 781.505 1659.24 784.911L1729.01 854.679C1732.42 858.085 1732.42 863.58 1729.01 866.986C1725.6 870.368 1720.08 870.368 1716.7 866.962Z" fill="#293C7C"/>
<path d="M1726.18 1110.97C1722.05 1110.97 1718.72 1107.64 1718.72 1103.51V760.392C1718.72 756.264 1722.05 752.932 1726.18 752.932C1730.3 752.932 1733.64 756.264 1733.64 760.392V1103.51C1733.64 1107.64 1730.3 1110.97 1726.18 1110.97Z" fill="#001A4A"/>
<path d="M-20.8887 678.305C164.693 681.213 236.411 723.069 265.983 764.037C269.645 769.12 295.922 806.414 323.968 846.708C373.011 917.132 375.757 922.429 388.056 932.441C426.692 963.979 440.029 944.964 513.181 981.431C556.853 1003.2 600.586 1034.16 616.943 1045.73C624.054 1050.75 643.83 1064.93 671.876 1082.47C684.602 1090.43 695.253 1096.71 702.395 1100.84C460.293 1098.79 221.213 1102.9 -20.8887 1100.84V678.305Z" fill="#4D9F7D"/>
<path d="M-20.8887 825.275C11.7659 834.737 37.4012 849.74 49.3034 862.018C75.3355 888.871 72.0395 909.936 98.1326 926.318C121.815 941.198 129.139 926.685 162.221 941.627C184.835 951.823 187.368 961.284 232.413 987.555C242.667 993.526 258.14 1002.16 272.087 996.741C279.198 993.985 278.557 990.464 284.294 987.555C304.711 977.267 331.72 1012.33 385.004 1030.42C396.327 1034.25 406.367 1036.55 406.367 1036.55C430.812 1042.09 437.923 1038.87 452.145 1042.67C474.087 1048.52 472.104 1060.18 494.87 1070.23C499.265 1072.16 505.674 1074.54 552.855 1076.35C596.282 1078.03 605.957 1076.59 623.047 1082.47C638.367 1087.74 649.689 1095.43 656.617 1100.84C430.782 1101.86 204.947 1102.9 -20.8887 1103.91V825.275Z" fill="#438376"/>
<path d="M-20.8887 966.123C19.7617 974.36 54.7356 986.668 76.7698 996.742C114.368 1013.92 140.431 1026.26 156.117 1054.92C165.639 1072.31 167.897 1089.43 168.325 1100.85C105.243 1100.85 42.1926 1100.85 -20.8887 1100.85V966.123Z" fill="#0A0019"/>
<path d="M174.429 1094.72C176.229 1086.73 184.347 1055.26 214.102 1036.55C219.565 1033.12 235.221 1023.26 253.776 1024.3C284.356 1026.02 313.317 1056.82 323.968 1100.85H174.429V1094.72Z" fill="#012257"/>
<path d="M142.859 882.556C109.983 880.867 104.072 888.385 93.8303 882.556C76.4521 872.668 83.3707 845.155 66.5918 838.972C58.8016 836.112 54.7159 841.096 44.8011 841.696C20.2048 843.194 -8.77695 815.709 -17.8473 784.492C-27.3536 751.749 -14.5243 716.364 9.39109 697.324C19.4421 689.315 29.7654 685.556 36.6295 683.704C25.4618 643.034 38.1821 621.46 42.0772 615.603C58.9106 590.352 93.6124 584.114 145.583 574.743C160.919 571.992 166.829 571.938 170.098 572.019C172.985 572.074 222.777 573.899 243.642 607.431C257.806 630.204 252.14 657.117 262.709 659.187C267.285 660.086 268.728 655.129 276.328 653.739C290.928 651.07 310.921 664.772 314.462 680.98C317.567 695.226 306.862 706.34 311.738 710.944C315.933 714.921 324.349 707.048 333.529 708.22C354.775 710.916 380.46 762.155 363.491 803.56C354.257 826.087 331.104 848.86 306.29 849.868C287.822 850.603 274.258 839.026 262.709 847.144C255 852.565 258.677 859.375 251.813 868.936C235.906 891.109 192.461 887.405 167.374 885.28C155.28 884.245 154.926 883.155 142.859 882.556Z" fill="#3C7474"/>
<path d="M-12.3985 787.215C-16.7567 797.975 -4.22698 814.455 12.1161 828.075C34.3699 846.626 55.6976 841.695 63.8691 838.971C76.9163 834.613 80.076 865.994 88.3837 877.107C98.9795 891.327 104.019 880.267 178.271 885.279C222.016 888.249 234.627 889.529 243.643 879.831C253.993 868.718 253.857 849.377 265.434 847.143C269.574 846.353 272.57 848.26 276.329 849.867C298.092 859.184 331.46 852.319 336.254 838.971C339.495 829.928 330.697 815.027 319.91 811.731C308.198 808.163 298.61 819.713 289.948 814.455C284.746 811.296 286.843 806.311 281.777 798.111C272.298 782.83 248.764 774.14 238.195 781.767C234.927 784.11 236.18 788.196 232.747 789.939C227.027 792.854 218.039 785.826 216.404 784.491C203.602 774.14 207.198 762.563 197.338 749.079C186.796 734.615 170.045 730.611 167.375 730.011C144.195 724.781 116.63 736.849 112.898 751.803C111.373 757.905 114.179 763.162 110.174 770.871C107.205 776.564 102.357 779.724 99.2791 781.767C97.0728 783.238 89.8001 788.114 81.5741 788.577C68.3907 789.34 66.2389 777.981 48.888 772.233C34.8329 767.575 22.1126 770.354 13.478 772.233C0.893844 774.957 -9.45677 779.942 -12.3985 787.215Z" fill="#3B606C"/>
<path d="M243.67 828.431L176.009 903.123C172.468 907.018 166.449 907.318 162.554 903.777C158.659 900.235 158.359 894.215 161.9 890.32L229.56 815.628C233.101 811.732 239.121 811.433 243.016 814.974C246.911 818.515 247.211 824.535 243.67 828.431Z" fill="#001A4A"/>
<path d="M226.427 743.169L173.694 789.831C169.744 793.318 163.725 792.964 160.238 789.014C156.752 785.064 157.106 779.044 161.055 775.557L213.789 728.895C217.738 725.408 223.758 725.763 227.245 729.712C230.758 733.662 230.377 739.682 226.427 743.169Z" fill="#001A4A"/>
<path d="M154.273 857.66L77.8417 781.224C74.1101 777.492 74.1101 771.472 77.8417 767.741C81.5734 764.009 87.5931 764.009 91.3248 767.741L167.756 844.176C171.488 847.908 171.488 853.928 167.756 857.66C164.024 861.365 157.977 861.365 154.273 857.66Z" fill="#293C7C"/>
<path d="M164.651 1124.99C160.129 1124.99 156.479 1121.34 156.479 1116.82V740.91C156.479 736.388 160.129 732.738 164.651 732.738C169.173 732.738 172.823 736.388 172.823 740.91V1116.82C172.823 1121.32 169.145 1124.99 164.651 1124.99Z" fill="#001A4A"/>
<circle cx="884" cy="198" r="3" fill="white"/>
<circle cx="366" cy="72" r="3" fill="white"/>
<circle cx="734" cy="244" r="3" fill="white"/>
<circle cx="688" cy="107" r="3" fill="white"/>
<circle cx="140" cy="78" r="3" fill="white"/>
<circle cx="254" cy="137" r="3" fill="white"/>
<circle cx="1263" cy="201" r="3" fill="white"/>
<circle cx="1599" cy="170" r="3" fill="white"/>
<circle cx="1154" cy="81" r="3" fill="white"/>
<circle cx="1446" cy="262" r="3" fill="white"/>
<circle cx="1465" cy="98" r="3" fill="white"/>
<circle cx="1088" cy="207" r="3" fill="white"/>
<circle cx="1707" cy="78" r="3" fill="white"/>
<circle cx="546" cy="131" r="3" fill="white"/>
<circle cx="982" cy="101" r="3" fill="white"/>
<circle cx="1824" cy="139" r="3" fill="white"/>
</g>
<defs>
<linearGradient id="paint0_linear" x1="968" y1="0" x2="968" y2="678" gradientUnits="userSpaceOnUse">
<stop stop-color="#000008"/>
<stop offset="0.746655" stop-color="#254597"/>
</linearGradient>
<linearGradient id="paint1_linear" x1="959" y1="652" x2="959" y2="1366" gradientUnits="userSpaceOnUse">
<stop offset="0.493264" stop-color="#0F0D3E"/>
<stop offset="0.60263" stop-color="#05ABC2"/>
<stop offset="0.602731" stop-color="#00718F"/>
</linearGradient>
<linearGradient id="paint2_linear" x1="894" y1="452" x2="894" y2="936" gradientUnits="userSpaceOnUse">
<stop stop-color="#0F0F49"/>
<stop offset="0.49313" stop-color="#05ABC2"/>
</linearGradient>
<clipPath id="clip0">
<rect width="1920" height="1080" fill="white"/>
</clipPath>
</defs>
</svg>
