<svg width="1920" height="1127" viewBox="0 0 1920 1127" fill="none" xmlns="http://www.w3.org/2000/svg">
<rect y="-2" width="1920" height="718.808" fill="url(#paint0_linear)"/>
<rect x="-4" y="795" width="1924" height="254" fill="#222166"/>
<rect x="125" y="777" width="62.9293" height="28.5377" fill="#16387F"/>
<rect x="147" y="806" width="16" height="150.738" fill="#254597"/>
<rect x="404.5" y="777" width="62.9293" height="28.5377" fill="#16387F"/>
<rect x="428" y="806" width="16" height="150.738" fill="#254597"/>
<rect x="684" y="770" width="62.9293" height="37.4707" fill="#16387F"/>
<rect x="707" y="808.078" width="16" height="197.922" fill="#254597"/>
<rect x="963.5" y="770" width="62.9293" height="34.7716" fill="#16387F"/>
<rect x="988" y="805.335" width="16" height="183.665" fill="#254597"/>
<rect x="1243" y="777" width="62.9293" height="28.5377" fill="#16387F"/>
<rect x="1266" y="806" width="16" height="150.738" fill="#254597"/>
<rect x="1522.5" y="777" width="62.9293" height="28.5377" fill="#16387F"/>
<rect x="1546" y="805" width="16" height="151" fill="#254597"/>
<rect x="1802" y="777" width="62.9293" height="28.5377" fill="#16387F"/>
<rect x="1825" y="805" width="16" height="151" fill="#254597"/>
<path d="M329.04 501.378C288.365 523.354 72.7321 634.713 -30 687.645H1017C964.951 679.693 749.527 542.824 714.105 522.342C678.683 501.86 555.067 395.835 532.898 398.967C515.163 401.473 504.143 397.923 500.849 395.835C485.813 380.991 471.13 393.987 465.668 402.341C384.222 479.45 379.884 473.908 329.04 501.378Z" fill="#3939B3"/>
<path d="M359.554 494.596C344.904 499.415 341.08 496.604 341 494.596C358.912 485.358 395.796 465.39 400.037 459.414C421.551 440.86 464.924 403.221 466.303 401.1C469.965 394.353 477.628 390.096 481.002 388.811C483.813 387.606 491.46 386.835 499.556 393.389C507.653 399.944 523.813 399.494 530.882 398.45C534.544 396.715 541.886 399.815 545.099 401.582C552.328 401.1 639.558 465.92 641.485 468.571C643.413 471.222 641.485 481.101 626.304 483.511C614.16 485.439 593.292 468.25 584.376 459.414C585.34 470.402 581.886 475.077 580.039 476.041C571.277 481.071 557.689 468.016 549.248 457.483C551.753 463.683 550.505 471.813 549.195 476.041C543.814 479.013 530.255 481.68 519.074 468.571C507.893 455.462 494.817 463.109 489.676 468.571C489.275 472.748 486.978 481.101 481.002 481.101C473.532 481.101 474.977 481.101 471.122 476.041C467.266 470.981 455.459 489.535 437.628 494.596C423.362 498.644 422.206 487.286 423.411 481.101C421.965 482.708 417.049 486.644 408.953 489.535C398.832 493.15 398.591 476.523 394.495 476.041C390.398 475.559 377.868 488.571 359.554 494.596Z" fill="#7777D5"/>
<g filter="url(#filter0_d)">
<circle cx="1552.5" cy="218.5" r="87.5" fill="white"/>
</g>
<ellipse cx="1590.5" cy="220" rx="19.5" ry="20" fill="#C4C4C4"/>
<ellipse cx="1510" cy="257.5" rx="8" ry="7.5" fill="#C4C4C4"/>
<ellipse cx="1518" cy="173" rx="15" ry="14" fill="#C4C4C4"/>
<circle cx="1291" cy="80" r="3" fill="white" fill-opacity="0.22"/>
<circle cx="1180" cy="158" r="3" fill="white"/>
<circle cx="840" cy="266" r="3" fill="white" fill-opacity="0.22"/>
<circle cx="735" cy="69" r="3" fill="white"/>
<circle cx="1027" cy="250" r="3" fill="white"/>
<circle cx="1046" cy="86" r="3" fill="white"/>
<circle cx="505" cy="149" r="3" fill="white"/>
<circle cx="354" cy="271" r="3" fill="white" fill-opacity="0.22"/>
<circle cx="397" cy="74" r="3" fill="white" fill-opacity="0.22"/>
<circle cx="150" cy="272" r="3" fill="white"/>
<circle cx="153" cy="49" r="3" fill="white"/>
<circle cx="698" cy="367" r="3" fill="white" fill-opacity="0.22"/>
<circle cx="600" cy="63" r="3" fill="white"/>
<circle cx="1326" cy="222" r="3" fill="white" fill-opacity="0.22"/>
<circle cx="1177" cy="364" r="3" fill="white" fill-opacity="0.22"/>
<circle cx="1405" cy="127" r="3" fill="white"/>
<circle cx="1754" cy="256" r="3" fill="white" fill-opacity="0.22"/>
<circle cx="1578" cy="112" r="3" fill="white" fill-opacity="0.22"/>
<path d="M643.503 739H1945V515C1904.2 530.812 1768.02 589.24 1443.94 580.506C1119.86 571.772 775.281 682.529 643.503 739Z" fill="#35359F"/>
<path d="M1858.51 497.066C1866.33 500.928 1878.82 502.647 1884.5 502.742C1885.18 502.753 1885.33 502.006 1884.71 501.742C1878.57 499.138 1866.49 495.94 1858.76 495.972C1858.1 495.975 1857.92 496.771 1858.51 497.066Z" fill="#669D80"/>
<path d="M1898.59 524.609C1896.34 516.192 1889.38 505.679 1885.69 501.345C1885.26 500.831 1884.6 501.212 1884.81 501.853C1886.91 508.183 1892.48 519.361 1897.61 525.145C1898.05 525.643 1898.77 525.252 1898.59 524.609Z" fill="#669D80"/>
<path d="M1905.13 484.016C1897.4 488.047 1888.65 497.118 1885.22 501.656C1884.81 502.194 1885.33 502.756 1885.9 502.41C1891.63 498.988 1901.33 491.124 1905.87 484.861C1906.26 484.322 1905.72 483.708 1905.13 484.016Z" fill="#669D80"/>
<path d="M1886.94 554.331H1881.78L1882.48 505.769H1886L1886.94 554.331Z" fill="#ABDBCD"/>
<circle cx="1884.36" cy="503.893" r="2.81516" fill="#FEFFFD"/>
<circle cx="1884.36" cy="503.893" r="1.87677" fill="#256949"/>
<path d="M98.6084 625.295C24.5736 629.374 -85.9784 665.313 -132 682.772V763H932V665.622C899.318 671.339 822.349 682.772 775.927 682.772C717.899 682.772 710.396 670.721 636.361 657.279C562.326 643.836 432.765 682.772 362.232 682.772C291.699 682.772 191.152 620.197 98.6084 625.295Z" fill="#35359F"/>
<path d="M268.459 383.079H272.753L310.405 345.757C317.34 338.931 330.221 319.929 326.258 298.527C320.181 256.78 285.193 246.783 268.459 247.004V383.079Z" fill="#F57575"/>
<path d="M268.541 383.082H264.247L226.595 345.761C219.66 338.935 206.779 319.933 210.742 298.531C216.819 256.783 251.807 246.787 268.541 247.007V383.082Z" fill="#D75353"/>
<path d="M258.882 402.896H278.038V413.428C278.038 415.637 276.247 417.428 274.038 417.428H262.882C260.673 417.428 258.882 415.637 258.882 413.428V402.896Z" fill="#1F238D"/>
<path d="M1019.27 449.504H1020.83L1034.53 435.927C1037.05 433.444 1041.74 426.531 1040.29 418.745C1038.08 403.558 1025.35 399.921 1019.27 400.001V449.504Z" fill="#F57575"/>
<path d="M1019.3 449.505H1017.73L1004.04 435.928C1001.51 433.445 996.828 426.532 998.27 418.746C1000.48 403.559 1013.21 399.922 1019.3 400.003V449.505Z" fill="#D75454"/>
<path d="M1015.78 456.713H1022.75V460.193C1022.75 461.191 1021.94 462 1020.94 462H1017.59C1016.59 462 1015.78 461.191 1015.78 460.193V456.713Z" fill="#1F238D"/>
<path d="M-32 707C-22.5 712.667 38.8 720.6 208 707C380.661 693.122 679.613 732.226 833.37 752.225C1122.07 708.885 1525.87 651.5 1613.5 651.5C1719.1 651.5 1894.5 678.833 1969 692.5V805.5H1306H439H-32V707Z" fill="#222166"/>
<path d="M1650.61 510.985C1614.13 491.438 1547.34 485.102 1526.57 486.732C1525.68 486.802 1525.52 487.908 1526.34 488.279C1551.72 499.886 1615.31 515.694 1650.29 512.594C1651.16 512.516 1651.39 511.4 1650.61 510.985Z" fill="#669D80"/>
<path d="M1507.9 362.704C1502.91 403.789 1521.23 468.339 1530.28 487.101C1530.66 487.905 1531.75 487.648 1531.8 486.757C1533.42 458.891 1525.09 393.898 1509.52 362.426C1509.13 361.638 1508.01 361.831 1507.9 362.704Z" fill="#669D80"/>
<path d="M1436.58 562.743C1475.47 548.592 1524.73 503.038 1537.37 486.477C1537.91 485.767 1537.19 484.914 1536.37 485.271C1510.79 496.448 1456.61 533.293 1435.6 561.425C1435.07 562.129 1435.75 563.043 1436.58 562.743Z" fill="#669D80"/>
<path d="M1542.63 707.72H1520.49L1523.51 499.386H1538.61L1542.63 707.72Z" fill="#ABDBCD"/>
<circle cx="1531.56" cy="491.334" r="12.0774" fill="#FEFFFD"/>
<circle cx="1531.56" cy="491.334" r="8.05157" fill="#256949"/>
<path d="M124.164 611.663C112.067 606.113 93.155 603.925 84.3065 603.94C83.1815 603.942 82.9657 605.178 84.0132 605.589C93.5919 609.341 111.946 613.73 123.795 613.472C124.904 613.448 125.172 612.126 124.164 611.663Z" fill="#669D80"/>
<path d="M69.6502 563.456C70.4521 576.742 77.4298 594.455 81.6107 602.253C82.1423 603.245 83.3346 602.853 83.2032 601.735C82.0015 591.519 77.2285 573.26 71.4197 562.929C70.8763 561.963 69.5834 562.349 69.6502 563.456Z" fill="#669D80"/>
<path d="M53.0863 633.485C64.7038 626.99 77.6253 613.008 82.8322 605.854C83.4943 604.944 82.6231 604.041 81.6739 604.645C72.9942 610.167 58.6238 622.399 51.8433 632.12C51.2089 633.03 52.1184 634.026 53.0863 633.485Z" fill="#669D80"/>
<path d="M87.4995 683.604H79.5264L80.6136 608.584H86.0498L87.4995 683.604Z" fill="#ABDBCD"/>
<circle cx="83.513" cy="605.685" r="4.34896" fill="#FEFFFD"/>
<circle cx="83.5136" cy="605.685" r="2.8993" fill="#256949"/>
<path d="M185.033 603.627C178.414 600.929 169.117 599.722 163.772 599.549C162.69 599.514 162.495 600.611 163.515 600.974C169.089 602.959 178.175 605.07 184.708 605.207C185.774 605.229 186.021 604.03 185.033 603.627Z" fill="#669D80"/>
<path d="M157.003 576.31C156.786 583.455 158.9 592.589 160.604 597.658C160.949 598.683 162.045 598.483 162.029 597.401C161.944 591.485 160.749 582.234 158.597 576.064C158.245 575.057 157.035 575.244 157.003 576.31Z" fill="#669D80"/>
<path d="M144.93 616.491C151.013 612.737 157.472 605.942 160.764 601.728C161.43 600.875 160.659 600.07 159.765 600.679C154.874 604.01 147.811 610.102 143.846 615.297C143.199 616.144 144.022 617.052 144.93 616.491Z" fill="#669D80"/>
<path d="M164.346 647H159.595L160.243 602.295H163.482L164.346 647Z" fill="#ABDBCD"/>
<circle cx="161.971" cy="600.567" r="2.59161" fill="#FEFFFD"/>
<circle cx="161.971" cy="600.567" r="1.72774" fill="#256949"/>
<rect x="-30" y="766" width="1954" height="39" fill="#16387F"/>
<path d="M494.128 961.751C399.13 933.974 -8.87331 934.437 -201 938.14L-217.5 1126.58L2013.55 1095.5V918.002C1837.16 883.974 1675.67 892.556 1596.5 899.5C1517.33 906.444 1345.5 908.28 1029.54 961.751C713.569 1015.22 612.876 996.473 494.128 961.751Z" fill="#134B61"/>
<path d="M666.552 1085.08C623.85 1100.12 339 1104.19 319 1121H359L1924 1099V969C1861.76 976.24 1690.26 1006.39 1558.24 1009.06C1393.22 1012.4 1285.5 1075.05 1211 1066.5C1186.55 1063.69 1063.91 1085.08 958.958 1075.05C854.01 1065.03 709.255 1070.04 666.552 1085.08Z" fill="#153053"/>
<circle cx="1801" cy="1062" r="3" fill="#695070"/>
<circle cx="1800" cy="1066" r="3" fill="#695070"/>
<circle cx="1803" cy="1068" r="3" fill="#695070"/>
<circle cx="1807" cy="1066" r="3" fill="#695070"/>
<circle cx="1806" cy="1062" r="3" fill="#695070"/>
<circle cx="1803" cy="1065" r="2" fill="#8C8146"/>
<circle cx="1595" cy="1048" r="3" fill="#695070"/>
<circle cx="1594" cy="1052" r="3" fill="#695070"/>
<circle cx="1597" cy="1054" r="3" fill="#695070"/>
<circle cx="1601" cy="1052" r="3" fill="#695070"/>
<circle cx="1600" cy="1048" r="3" fill="#695070"/>
<circle cx="1597" cy="1051" r="2" fill="#8C8146"/>
<circle r="3" transform="matrix(-1 0 0 1 1337.29 1061)" fill="#695070"/>
<circle r="3" transform="matrix(-1 0 0 1 1338.29 1065)" fill="#695070"/>
<circle r="3" transform="matrix(-1 0 0 1 1335.29 1067)" fill="#695070"/>
<circle r="3" transform="matrix(-1 0 0 1 1331.29 1065)" fill="#695070"/>
<circle r="3" transform="matrix(-1 0 0 1 1332.29 1061)" fill="#695070"/>
<circle r="2" transform="matrix(-1 0 0 1 1335.29 1064)" fill="#8C8146"/>
<circle r="3" transform="matrix(-1 0 0 1 1199 1093)" fill="#695070"/>
<circle r="3" transform="matrix(-1 0 0 1 1200 1097)" fill="#695070"/>
<circle r="3" transform="matrix(-1 0 0 1 1197 1099)" fill="#695070"/>
<circle r="3" transform="matrix(-1 0 0 1 1193 1097)" fill="#695070"/>
<circle r="3" transform="matrix(-1 0 0 1 1194 1093)" fill="#695070"/>
<circle r="2" transform="matrix(-1 0 0 1 1197 1096)" fill="#8C8146"/>
<circle cx="1716.54" cy="1036.88" r="5.53846" transform="rotate(36.1252 1716.54 1036.88)" fill="#695070"/>
<circle cx="1710.69" cy="1041.76" r="5.53846" transform="rotate(36.1252 1710.69 1041.76)" fill="#695070"/>
<circle cx="1712.99" cy="1048.01" r="5.53846" transform="rotate(36.1252 1712.99 1048.01)" fill="#695070"/>
<circle cx="1721.13" cy="1049.38" r="5.53846" transform="rotate(36.1252 1721.13 1049.38)" fill="#695070"/>
<circle cx="1723.99" cy="1042.32" r="5.53846" transform="rotate(36.1252 1723.99 1042.32)" fill="#695070"/>
<circle cx="1716.25" cy="1043.53" r="3.69231" transform="rotate(36.1252 1716.25 1043.53)" fill="#8C8146"/>
<circle cx="1780.76" cy="1011.83" r="5.53846" transform="rotate(36.1252 1780.76 1011.83)" fill="#695070"/>
<circle cx="1774.92" cy="1016.7" r="5.53846" transform="rotate(36.1252 1774.92 1016.7)" fill="#695070"/>
<circle cx="1777.21" cy="1022.95" r="5.53846" transform="rotate(36.1252 1777.21 1022.95)" fill="#695070"/>
<circle cx="1785.35" cy="1024.32" r="5.53846" transform="rotate(36.1252 1785.35 1024.32)" fill="#695070"/>
<circle cx="1788.22" cy="1017.27" r="5.53846" transform="rotate(36.1252 1788.22 1017.27)" fill="#695070"/>
<circle cx="1780.48" cy="1018.48" r="3.69231" transform="rotate(36.1252 1780.48 1018.48)" fill="#8C8146"/>
<circle cx="1535.38" cy="1074.54" r="5.53846" fill="#695070"/>
<circle cx="1533.54" cy="1081.92" r="5.53846" fill="#695070"/>
<circle cx="1539.08" cy="1085.62" r="5.53846" fill="#695070"/>
<circle cx="1546.46" cy="1081.92" r="5.53846" fill="#695070"/>
<circle cx="1544.62" cy="1074.54" r="5.53846" fill="#695070"/>
<circle cx="1539.08" cy="1080.08" r="3.69231" fill="#8C8146"/>
<circle r="5.53846" transform="matrix(-1 0 0 1 1393.62 1079.54)" fill="#695070"/>
<circle r="5.53846" transform="matrix(-1 0 0 1 1395.46 1086.92)" fill="#695070"/>
<circle r="5.53846" transform="matrix(-1 0 0 1 1389.92 1090.62)" fill="#695070"/>
<circle r="5.53846" transform="matrix(-1 0 0 1 1382.54 1086.92)" fill="#695070"/>
<circle r="5.53846" transform="matrix(-1 0 0 1 1384.38 1079.54)" fill="#695070"/>
<circle r="3.69231" transform="matrix(-1 0 0 1 1389.92 1085.08)" fill="#8C8146"/>
<circle cx="1036.72" cy="1097.54" r="3.53846" fill="#695070"/>
<circle cx="1035.54" cy="1102.26" r="3.53846" fill="#695070"/>
<circle cx="1039.08" cy="1104.62" r="3.53846" fill="#695070"/>
<circle cx="1043.79" cy="1102.26" r="3.53846" fill="#695070"/>
<circle cx="1042.62" cy="1097.54" r="3.53846" fill="#695070"/>
<circle cx="1039.08" cy="1101.08" r="2.35897" fill="#8C8146"/>
<circle cx="1493.85" cy="1043.38" r="4.38462" fill="#695070"/>
<circle cx="1492.38" cy="1049.23" r="4.38462" fill="#695070"/>
<circle cx="1496.77" cy="1052.15" r="4.38462" fill="#695070"/>
<circle cx="1502.62" cy="1049.23" r="4.38462" fill="#695070"/>
<circle cx="1501.15" cy="1043.38" r="4.38462" fill="#695070"/>
<circle cx="1496.77" cy="1047.77" r="2.92308" fill="#8C8146"/>
<circle r="3.50004" transform="matrix(-1 0 0 1 895.5 1083.5)" fill="#695070"/>
<circle r="3.50004" transform="matrix(-1 0 0 1 896.667 1088.17)" fill="#695070"/>
<circle r="3.50004" transform="matrix(-1 0 0 1 893.167 1090.5)" fill="#695070"/>
<circle r="3.50004" transform="matrix(-1 0 0 1 888.5 1088.17)" fill="#695070"/>
<circle r="3.50004" transform="matrix(-1 0 0 1 889.667 1083.5)" fill="#695070"/>
<circle r="2.33336" transform="matrix(-1 0 0 1 893.167 1087)" fill="#8C8146"/>
<circle r="3.50004" transform="matrix(-1 0 0 1 643.499 1102.5)" fill="#695070"/>
<circle r="3.50004" transform="matrix(-1 0 0 1 644.666 1107.17)" fill="#695070"/>
<circle r="3.50004" transform="matrix(-1 0 0 1 641.166 1109.5)" fill="#695070"/>
<circle r="3.50004" transform="matrix(-1 0 0 1 636.499 1107.17)" fill="#695070"/>
<circle r="3.50004" transform="matrix(-1 0 0 1 637.666 1102.5)" fill="#695070"/>
<circle r="2.33336" transform="matrix(-1 0 0 1 641.166 1106)" fill="#8C8146"/>
<circle r="3.50004" transform="matrix(-1 0 0 1 714.499 1091.5)" fill="#695070"/>
<circle r="3.50004" transform="matrix(-1 0 0 1 715.666 1096.17)" fill="#695070"/>
<circle r="3.50004" transform="matrix(-1 0 0 1 712.166 1098.5)" fill="#695070"/>
<circle r="3.50004" transform="matrix(-1 0 0 1 707.499 1096.17)" fill="#695070"/>
<circle r="3.50004" transform="matrix(-1 0 0 1 708.666 1091.5)" fill="#695070"/>
<circle r="2.33336" transform="matrix(-1 0 0 1 712.166 1095)" fill="#8C8146"/>
<circle r="4.38462" transform="matrix(-1 0 0 1 1450.15 1063.38)" fill="#695070"/>
<circle r="4.38462" transform="matrix(-1 0 0 1 1451.62 1069.23)" fill="#695070"/>
<circle r="4.38462" transform="matrix(-1 0 0 1 1447.23 1072.15)" fill="#695070"/>
<circle r="4.38462" transform="matrix(-1 0 0 1 1441.38 1069.23)" fill="#695070"/>
<circle r="4.38462" transform="matrix(-1 0 0 1 1442.85 1063.38)" fill="#695070"/>
<circle r="2.92308" transform="matrix(-1 0 0 1 1447.23 1067.77)" fill="#8C8146"/>
<circle cx="967.513" cy="1087.63" r="5.63463" fill="#695070"/>
<circle cx="965.635" cy="1095.15" r="5.63463" fill="#695070"/>
<circle cx="971.269" cy="1098.9" r="5.63463" fill="#695070"/>
<circle cx="978.782" cy="1095.15" r="5.63463" fill="#695070"/>
<circle cx="976.904" cy="1087.63" r="5.63463" fill="#695070"/>
<circle cx="971.269" cy="1093.27" r="3.75642" fill="#8C8146"/>
<circle cx="797.513" cy="1091.63" r="5.63463" fill="#695070"/>
<circle cx="795.635" cy="1099.15" r="5.63463" fill="#695070"/>
<circle cx="801.269" cy="1102.9" r="5.63463" fill="#695070"/>
<circle cx="808.782" cy="1099.15" r="5.63463" fill="#695070"/>
<circle cx="806.904" cy="1091.63" r="5.63463" fill="#695070"/>
<circle cx="801.269" cy="1097.27" r="3.75642" fill="#8C8146"/>
<circle cx="541.308" cy="1107.23" r="3.23082" fill="#695070"/>
<circle cx="540.231" cy="1111.54" r="3.23082" fill="#695070"/>
<circle cx="543.461" cy="1113.69" r="3.23082" fill="#695070"/>
<circle cx="547.769" cy="1111.54" r="3.23082" fill="#695070"/>
<circle cx="546.693" cy="1107.23" r="3.23082" fill="#695070"/>
<circle cx="543.461" cy="1110.46" r="2.15388" fill="#8C8146"/>
<circle cx="1664.9" cy="1066.92" r="5.53846" transform="rotate(46.9377 1664.9 1066.92)" fill="#695070"/>
<circle cx="1658.24" cy="1070.62" r="5.53846" transform="rotate(46.9377 1658.24 1070.62)" fill="#695070"/>
<circle cx="1659.32" cy="1077.18" r="5.53846" transform="rotate(46.9377 1659.32 1077.18)" fill="#695070"/>
<circle cx="1667.06" cy="1080.06" r="5.53846" transform="rotate(46.9377 1667.06 1080.06)" fill="#695070"/>
<circle cx="1671.2" cy="1073.67" r="5.53846" transform="rotate(46.9377 1671.2 1073.67)" fill="#695070"/>
<circle cx="1663.37" cy="1073.4" r="3.69231" transform="rotate(46.9377 1663.37 1073.4)" fill="#8C8146"/>
<circle r="5.53846" transform="matrix(-0.682793 0.730612 0.730612 0.682793 1267.39 1079.92)" fill="#695070"/>
<circle r="5.53846" transform="matrix(-0.682793 0.730612 0.730612 0.682793 1274.05 1083.62)" fill="#695070"/>
<circle r="5.53846" transform="matrix(-0.682793 0.730612 0.730612 0.682793 1272.96 1090.18)" fill="#695070"/>
<circle r="5.53846" transform="matrix(-0.682793 0.730612 0.730612 0.682793 1265.22 1093.06)" fill="#695070"/>
<circle r="5.53846" transform="matrix(-0.682793 0.730612 0.730612 0.682793 1261.09 1086.67)" fill="#695070"/>
<circle r="3.69231" transform="matrix(-0.682793 0.730612 0.730612 0.682793 1268.92 1086.4)" fill="#8C8146"/>
<circle r="5.53846" transform="matrix(-0.682793 0.730612 0.730612 0.682793 1123.39 1084.18)" fill="#695070"/>
<circle r="5.53846" transform="matrix(-0.682793 0.730612 0.730612 0.682793 1130.05 1087.87)" fill="#695070"/>
<circle r="5.53846" transform="matrix(-0.682793 0.730612 0.730612 0.682793 1128.96 1094.44)" fill="#695070"/>
<circle r="5.53846" transform="matrix(-0.682793 0.730612 0.730612 0.682793 1121.22 1097.31)" fill="#695070"/>
<circle r="5.53846" transform="matrix(-0.682793 0.730612 0.730612 0.682793 1117.09 1090.92)" fill="#695070"/>
<circle r="3.69231" transform="matrix(-0.682793 0.730612 0.730612 0.682793 1124.92 1090.66)" fill="#8C8146"/>
<circle cx="1853.38" cy="1027.54" r="5.53846" fill="#695070"/>
<circle cx="1851.54" cy="1034.92" r="5.53846" fill="#695070"/>
<circle cx="1857.08" cy="1038.62" r="5.53846" fill="#695070"/>
<circle cx="1864.46" cy="1034.92" r="5.53846" fill="#695070"/>
<circle cx="1862.62" cy="1027.54" r="5.53846" fill="#695070"/>
<circle cx="1857.08" cy="1033.08" r="3.69231" fill="#8C8146"/>
<circle cx="1877.38" cy="1070.54" r="5.53846" fill="#695070"/>
<circle cx="1875.54" cy="1077.92" r="5.53846" fill="#695070"/>
<circle cx="1881.08" cy="1081.62" r="5.53846" fill="#695070"/>
<circle cx="1888.46" cy="1077.92" r="5.53846" fill="#695070"/>
<circle cx="1886.62" cy="1070.54" r="5.53846" fill="#695070"/>
<circle cx="1881.08" cy="1076.08" r="3.69231" fill="#8C8146"/>
<path d="M-14 985.736C26.6503 993.97 61.6243 1006.28 83.6585 1016.35C121.257 1033.52 147.32 1045.86 163.006 1074.51C172.528 1091.89 174.786 1109 175.213 1120.42C112.132 1120.42 -11 1127.7 -14 1120.42V985.736Z" fill="#0A0019"/>
<path d="M181.317 1114.3C183.118 1106.31 191.236 1074.85 220.991 1056.14C226.454 1052.71 242.11 1042.86 260.665 1043.9C291.244 1045.61 320.206 1076.41 330.857 1120.43H181.317V1114.3Z" fill="#012257"/>
<path d="M1270.71 520.604C1281.12 525.981 1298.54 528.277 1305.71 528.27C1306.39 528.27 1306.54 527.498 1305.92 527.225C1297.99 523.728 1281.24 519.243 1270.97 519.472C1270.31 519.487 1270.12 520.298 1270.71 520.604Z" fill="#669D80"/>
<path d="M1323.53 557.299C1320.69 545.926 1310.91 531.333 1306.17 525.952C1305.72 525.445 1305.04 525.841 1305.25 526.485C1307.86 534.747 1315.55 550.29 1322.51 557.849C1322.96 558.338 1323.69 557.944 1323.53 557.299Z" fill="#669D80"/>
<path d="M1332.43 503.636C1321.94 508.875 1309.82 521.585 1305.59 527.381C1305.19 527.926 1305.73 528.504 1306.31 528.165C1313.81 523.827 1327.31 512.942 1333.19 504.515C1333.57 503.969 1333.02 503.339 1332.43 503.636Z" fill="#669D80"/>
<path d="M1308.22 595.331H1301.51L1302.42 532.2H1307L1308.22 595.331Z" fill="#ABDBCD"/>
<circle cx="1304.86" cy="529.761" r="3.65974" fill="#FEFFFD"/>
<circle cx="1304.86" cy="529.761" r="2.43982" fill="#256949"/>
<path d="M1770.69 565.392C1750.16 554.912 1714.46 551.281 1701.52 551.894C1700.63 551.936 1700.46 553 1701.28 553.354C1716.26 559.854 1750.53 568.269 1770.37 566.95C1771.25 566.891 1771.47 565.792 1770.69 565.392Z" fill="#669D80"/>
<path d="M1689.42 481.718C1687.1 504.646 1696.66 539.232 1701.92 551.073C1702.28 551.889 1703.34 551.661 1703.37 550.77C1703.99 534.444 1699.41 499.462 1690.99 481.443C1690.61 480.647 1689.51 480.844 1689.42 481.718Z" fill="#669D80"/>
<path d="M1649.58 595.324C1671.07 587.018 1697.59 562.836 1705.76 552.781C1706.32 552.089 1705.64 551.253 1704.83 551.626C1690 558.462 1660.88 578.383 1648.62 594.053C1648.08 594.746 1648.76 595.641 1649.58 595.324Z" fill="#669D80"/>
<path d="M1709.55 679.209H1696.8L1698.54 559.255H1707.23L1709.55 679.209Z" fill="#ABDBCD"/>
<circle cx="1703.17" cy="554.619" r="6.95387" fill="#FEFFFD"/>
<circle cx="1703.17" cy="554.619" r="4.63591" fill="#256949"/>
<defs>
<filter id="filter0_d" x="1417" y="84" width="273" height="273" filterUnits="userSpaceOnUse" color-interpolation-filters="sRGB">
<feFlood flood-opacity="0" result="BackgroundImageFix"/>
<feColorMatrix in="SourceAlpha" type="matrix" values="0 0 0 0 0 0 0 0 0 0 0 0 0 0 0 0 0 0 127 0"/>
<feMorphology radius="14" operator="dilate" in="SourceAlpha" result="effect1_dropShadow"/>
<feOffset dx="1" dy="2"/>
<feGaussianBlur stdDeviation="17.5"/>
<feColorMatrix type="matrix" values="0 0 0 0 1 0 0 0 0 1 0 0 0 0 1 0 0 0 0.15 0"/>
<feBlend mode="normal" in2="BackgroundImageFix" result="effect1_dropShadow"/>
<feBlend mode="normal" in="SourceGraphic" in2="effect1_dropShadow" result="shape"/>
</filter>
<linearGradient id="paint0_linear" x1="960" y1="-2" x2="960" y2="974.239" gradientUnits="userSpaceOnUse">
<stop stop-color="#3A3EB3"/>
<stop offset="0.746655" stop-color="#4A4AB4"/>
</linearGradient>
</defs>
</svg>
