<svg width="1183" height="95" viewBox="0 0 1183 95" fill="none" xmlns="http://www.w3.org/2000/svg">
<rect width="335.986" height="92.1402" rx="10" transform="matrix(-1 0 0 1 335.986 1.86133)" fill="white"/>
<rect width="335.986" height="92.1402" rx="10" transform="matrix(-1 0 0 1 676.625 1.86133)" fill="white"/>
<path d="M1097.66 20.3129C1168.77 43.7667 1183.44 70.2609 1181.89 81.2743C1178.17 90.5814 1153.97 94.3042 1142.34 94.3042H1035.31H1030H979.741H974.345H789.134C784 94.2546 783.705 94.4097 781.688 94.2546H735.618C726.311 94.2546 727.5 94.2546 723.984 94.3042H704.439H689.548C683.219 91.6982 681.327 85.4624 681.171 82.6703V22.1743C681.171 11.0058 681.637 10.075 684.894 5.4215C687.5 1.69867 699.01 1.07821 704.439 1.23334C773.467 0.302633 918.689 -1.00036 947.354 1.23334C983.187 4.02547 1008.78 -9.00445 1097.66 20.3129Z" fill="white"/>
<path d="M1070.21 65.383H1177.31C1183 74 1182.27 79.4987 1181.5 81.205H1034.84H681.172V75.6208C785.101 75.931 994.821 76.3653 1002.27 75.6208C1009.71 74.8762 1005.37 67.2444 1002.27 63.5215C993.89 52.8184 976.206 30.2952 972.484 25.8278C968.761 21.3604 963.176 20.5538 960.85 20.7089H844.511H681.172V16.5208H844.511H970.622C985.979 16.5208 993.89 17.4515 1008.78 29.5507C1037.82 58.2165 1061.83 65.383 1070.21 65.383Z" fill="#FF5E55"/>
<path d="M340.64 76.3181H676.625V81.9024H340.64V76.3181Z" fill="#F57575"/>
<path d="M0 76.3181H335.986V81.9024H0V76.3181Z" fill="#F57575"/>
<path d="M340.64 28.8521H676.625V44.6741H340.64V28.8521Z" fill="#204B61"/>
<path d="M0 28.8521H335.986V44.6741H0V28.8521Z" fill="#204B61"/>
<path d="M1047.41 35.6695H1135.82C1120.19 26.3624 1090.65 17.4126 1077 14C1059.63 13.8449 1020.97 13.4256 1012.04 13.7979C1000.87 14.2632 1005.06 17.0553 1013.9 22.1742C1026.93 32.9705 1041.67 35.6695 1047.41 35.6695Z" fill="#387999"/>
<path d="M960.026 28.8521L960.026 28.8521H681.279V44.5268C778.08 44.638 972.037 44.9409 975.383 44.6741C978.728 44.4073 977.707 42.1534 976.313 40.4859C974.92 38.8184 972.612 36.3285 969.358 32.8541C965.61 28.8521 962.814 28.8521 960.026 28.8521Z" fill="#204B61"/>
<path d="M341 18H677V21H341V18Z" fill="#F57575"/>
<path d="M0 18H336V21H0V18Z" fill="#F57575"/>
</svg>
